M48
;DRILL file {KiCad (5.0.1-3-g963ef8bb5)} date 2020 March 03, Tuesday 13:48:15
;FORMAT={-:-/ absolute / metric / decimal}
FMAT,2
METRIC,TZ
T1C0.400
T2C0.762
T3C1.000
T4C0.900
T5C3.200
%
G90
G05
M71
T1
X72.Y-122.
X73.5Y-130.5
X78.7Y-141.1
X82.Y-102.
X82.Y-110.
X82.8Y-90.7
X83.Y-100.
X83.Y-111.
X84.Y-119.5
X85.Y-130.
X85.Y-136.5
X85.5Y-126.5
X86.614Y-83.566
X87.5Y-136.5
X90.Y-125.5
X91.1Y-115.3
X91.5Y-124.
X91.5Y-125.5
X93.5Y-123.
X94.5Y-125.
X94.5Y-127.
X94.5Y-136.5
X95.Y-121.
X95.567Y-86.042
X97.5Y-136.
X97.973Y-80.973
X98.125Y-121.
X98.87Y-86.042
X99.Y-89.
X99.Y-91.5
X99.Y-125.5
X99.Y-131.
X100.5Y-123.
X100.5Y-133.5
X101.Y-126.5
X101.5Y-132.5
X102.489Y-114.236
X102.5Y-136.
X102.5Y-137.
X102.5Y-138.
X102.5Y-139.
X102.6Y-88.5
X102.6Y-91.1
X102.6Y-126.5
X103.3Y-83.2
X103.5Y-123.
X106.Y-143.5
X106.5Y-130.5
X108.5Y-121.5
X111.Y-126.
X111.Y-132.
X113.5Y-130.
X116.Y-127.
X120.5Y-141.6
X121.5Y-120.5
X122.Y-133.
X124.015Y-128.397
T2
X73.Y-96.
X75.Y-96.
X77.Y-96.
X79.Y-96.
X121.Y-126.
X123.Y-126.
X125.Y-126.
X127.Y-126.
X73.Y-126.
X75.Y-126.
X77.Y-126.
X79.Y-126.
X121.Y-116.
X123.Y-116.
X125.Y-116.
X127.Y-116.
X121.Y-96.
X123.Y-96.
X125.Y-96.
X127.Y-96.
X73.Y-116.
X75.Y-116.
X77.Y-116.
X79.Y-116.
X121.Y-106.
X123.Y-106.
X125.Y-106.
X127.Y-106.
X73.Y-106.
X75.Y-106.
X77.Y-106.
X79.Y-106.
X121.Y-86.
X123.Y-86.
X125.Y-86.
X127.Y-86.
X73.Y-86.
X75.Y-86.
X77.Y-86.
X79.Y-86.
X73.Y-136.
X75.Y-136.
X77.Y-136.
X79.Y-136.
X121.Y-136.
X123.Y-136.
X125.Y-136.
X127.Y-136.
T3
X83.Y-143.2
X85.54Y-143.2
X88.08Y-143.2
T4
X112.5Y-143.33
X115.5Y-143.33
T5
X73.Y-144.
X73.Y-79.
X127.Y-79.
X127.Y-144.
T0
M30
