G04 #@! TF.GenerationSoftware,KiCad,Pcbnew,(5.0.1-3-g963ef8bb5)*
G04 #@! TF.CreationDate,2020-03-03T13:58:01+01:00*
G04 #@! TF.ProjectId,studIOTmega_v11,73747564494F546D6567615F7631312E,rev?*
G04 #@! TF.SameCoordinates,Original*
G04 #@! TF.FileFunction,Soldermask,Top*
G04 #@! TF.FilePolarity,Negative*
%FSLAX46Y46*%
G04 Gerber Fmt 4.6, Leading zero omitted, Abs format (unit mm)*
G04 Created by KiCad (PCBNEW (5.0.1-3-g963ef8bb5)) date 2020 March 03, Tuesday 13:58:01*
%MOMM*%
%LPD*%
G01*
G04 APERTURE LIST*
%ADD10C,0.100000*%
G04 APERTURE END LIST*
D10*
G36*
X123146318Y-144264411D02*
X123218767Y-144278822D01*
X123275303Y-144302240D01*
X123355257Y-144335358D01*
X123478100Y-144417439D01*
X123582561Y-144521900D01*
X123664642Y-144644743D01*
X123687944Y-144701000D01*
X123721178Y-144781233D01*
X123721339Y-144782042D01*
X123750000Y-144926130D01*
X123750000Y-145073870D01*
X123721178Y-145218766D01*
X123664642Y-145355257D01*
X123582561Y-145478100D01*
X123478100Y-145582561D01*
X123355257Y-145664642D01*
X123275303Y-145697760D01*
X123218767Y-145721178D01*
X123146318Y-145735589D01*
X123073870Y-145750000D01*
X122926130Y-145750000D01*
X122853682Y-145735589D01*
X122781233Y-145721178D01*
X122724697Y-145697760D01*
X122644743Y-145664642D01*
X122521900Y-145582561D01*
X122417439Y-145478100D01*
X122335358Y-145355257D01*
X122278822Y-145218766D01*
X122250000Y-145073870D01*
X122250000Y-144926130D01*
X122278661Y-144782042D01*
X122278822Y-144781233D01*
X122312056Y-144701000D01*
X122335358Y-144644743D01*
X122417439Y-144521900D01*
X122521900Y-144417439D01*
X122644743Y-144335358D01*
X122724697Y-144302240D01*
X122781233Y-144278822D01*
X122853682Y-144264411D01*
X122926130Y-144250000D01*
X123073870Y-144250000D01*
X123146318Y-144264411D01*
X123146318Y-144264411D01*
G37*
G36*
X77146318Y-144264411D02*
X77218767Y-144278822D01*
X77275303Y-144302240D01*
X77355257Y-144335358D01*
X77478100Y-144417439D01*
X77582561Y-144521900D01*
X77664642Y-144644743D01*
X77687944Y-144701000D01*
X77721178Y-144781233D01*
X77721339Y-144782042D01*
X77750000Y-144926130D01*
X77750000Y-145073870D01*
X77721178Y-145218766D01*
X77664642Y-145355257D01*
X77582561Y-145478100D01*
X77478100Y-145582561D01*
X77355257Y-145664642D01*
X77275303Y-145697760D01*
X77218767Y-145721178D01*
X77146318Y-145735589D01*
X77073870Y-145750000D01*
X76926130Y-145750000D01*
X76853682Y-145735589D01*
X76781233Y-145721178D01*
X76724697Y-145697760D01*
X76644743Y-145664642D01*
X76521900Y-145582561D01*
X76417439Y-145478100D01*
X76335358Y-145355257D01*
X76278822Y-145218766D01*
X76250000Y-145073870D01*
X76250000Y-144926130D01*
X76278661Y-144782042D01*
X76278822Y-144781233D01*
X76312056Y-144701000D01*
X76335358Y-144644743D01*
X76417439Y-144521900D01*
X76521900Y-144417439D01*
X76644743Y-144335358D01*
X76724697Y-144302240D01*
X76781233Y-144278822D01*
X76853682Y-144264411D01*
X76926130Y-144250000D01*
X77073870Y-144250000D01*
X77146318Y-144264411D01*
X77146318Y-144264411D01*
G37*
G36*
X73375256Y-142391298D02*
X73481579Y-142412447D01*
X73782042Y-142536903D01*
X73816332Y-142559815D01*
X74052454Y-142717587D01*
X74282413Y-142947546D01*
X74463098Y-143217960D01*
X74587553Y-143518422D01*
X74627481Y-143719150D01*
X74651000Y-143837391D01*
X74651000Y-144162609D01*
X74587553Y-144481579D01*
X74463097Y-144782042D01*
X74284820Y-145048852D01*
X74282413Y-145052454D01*
X74052454Y-145282413D01*
X74052451Y-145282415D01*
X73782042Y-145463097D01*
X73481579Y-145587553D01*
X73375256Y-145608702D01*
X73162611Y-145651000D01*
X72837389Y-145651000D01*
X72624744Y-145608702D01*
X72518421Y-145587553D01*
X72217958Y-145463097D01*
X71947549Y-145282415D01*
X71947546Y-145282413D01*
X71717587Y-145052454D01*
X71715180Y-145048852D01*
X71536903Y-144782042D01*
X71412447Y-144481579D01*
X71349000Y-144162609D01*
X71349000Y-143837391D01*
X71372520Y-143719150D01*
X71412447Y-143518422D01*
X71536902Y-143217960D01*
X71717587Y-142947546D01*
X71947546Y-142717587D01*
X72183668Y-142559815D01*
X72217958Y-142536903D01*
X72518421Y-142412447D01*
X72624744Y-142391298D01*
X72837389Y-142349000D01*
X73162611Y-142349000D01*
X73375256Y-142391298D01*
X73375256Y-142391298D01*
G37*
G36*
X127375256Y-142391298D02*
X127481579Y-142412447D01*
X127782042Y-142536903D01*
X127816332Y-142559815D01*
X128052454Y-142717587D01*
X128282413Y-142947546D01*
X128463098Y-143217960D01*
X128587553Y-143518422D01*
X128627481Y-143719150D01*
X128651000Y-143837391D01*
X128651000Y-144162609D01*
X128587553Y-144481579D01*
X128463097Y-144782042D01*
X128284820Y-145048852D01*
X128282413Y-145052454D01*
X128052454Y-145282413D01*
X128052451Y-145282415D01*
X127782042Y-145463097D01*
X127481579Y-145587553D01*
X127375256Y-145608702D01*
X127162611Y-145651000D01*
X126837389Y-145651000D01*
X126624744Y-145608702D01*
X126518421Y-145587553D01*
X126217958Y-145463097D01*
X125947549Y-145282415D01*
X125947546Y-145282413D01*
X125717587Y-145052454D01*
X125715180Y-145048852D01*
X125536903Y-144782042D01*
X125412447Y-144481579D01*
X125349000Y-144162609D01*
X125349000Y-143837391D01*
X125372520Y-143719150D01*
X125412447Y-143518422D01*
X125536902Y-143217960D01*
X125717587Y-142947546D01*
X125947546Y-142717587D01*
X126183668Y-142559815D01*
X126217958Y-142536903D01*
X126518421Y-142412447D01*
X126624744Y-142391298D01*
X126837389Y-142349000D01*
X127162611Y-142349000D01*
X127375256Y-142391298D01*
X127375256Y-142391298D01*
G37*
G36*
X118201000Y-144881000D02*
X117099000Y-144881000D01*
X117099000Y-143979000D01*
X118201000Y-143979000D01*
X118201000Y-144881000D01*
X118201000Y-144881000D01*
G37*
G36*
X110901000Y-144881000D02*
X109799000Y-144881000D01*
X109799000Y-143979000D01*
X110901000Y-143979000D01*
X110901000Y-144881000D01*
X110901000Y-144881000D01*
G37*
G36*
X105101000Y-144701000D02*
X102499000Y-144701000D01*
X102499000Y-141099000D01*
X105101000Y-141099000D01*
X105101000Y-144701000D01*
X105101000Y-144701000D01*
G37*
G36*
X97401000Y-144701000D02*
X94799000Y-144701000D01*
X94799000Y-141099000D01*
X97401000Y-141099000D01*
X97401000Y-144701000D01*
X97401000Y-144701000D01*
G37*
G36*
X85650442Y-142305518D02*
X85716627Y-142312037D01*
X85829853Y-142346384D01*
X85886467Y-142363557D01*
X85977932Y-142412447D01*
X86042991Y-142447222D01*
X86078729Y-142476552D01*
X86180186Y-142559814D01*
X86263448Y-142661271D01*
X86292778Y-142697009D01*
X86292779Y-142697011D01*
X86376443Y-142853533D01*
X86376443Y-142853534D01*
X86427963Y-143023373D01*
X86445359Y-143200000D01*
X86427963Y-143376627D01*
X86397777Y-143476136D01*
X86376443Y-143546467D01*
X86321440Y-143649369D01*
X86292778Y-143702991D01*
X86279515Y-143719152D01*
X86180186Y-143840186D01*
X86078729Y-143923448D01*
X86042991Y-143952778D01*
X86042989Y-143952779D01*
X85886467Y-144036443D01*
X85829853Y-144053616D01*
X85716627Y-144087963D01*
X85650442Y-144094482D01*
X85584260Y-144101000D01*
X85495740Y-144101000D01*
X85429558Y-144094482D01*
X85363373Y-144087963D01*
X85250147Y-144053616D01*
X85193533Y-144036443D01*
X85037011Y-143952779D01*
X85037009Y-143952778D01*
X85001271Y-143923448D01*
X84899814Y-143840186D01*
X84800485Y-143719152D01*
X84787222Y-143702991D01*
X84758560Y-143649369D01*
X84703557Y-143546467D01*
X84682223Y-143476136D01*
X84652037Y-143376627D01*
X84634641Y-143200000D01*
X84652037Y-143023373D01*
X84703557Y-142853534D01*
X84703557Y-142853533D01*
X84787221Y-142697011D01*
X84787222Y-142697009D01*
X84816552Y-142661271D01*
X84899814Y-142559814D01*
X85001271Y-142476552D01*
X85037009Y-142447222D01*
X85102068Y-142412447D01*
X85193533Y-142363557D01*
X85250147Y-142346384D01*
X85363373Y-142312037D01*
X85429558Y-142305518D01*
X85495740Y-142299000D01*
X85584260Y-142299000D01*
X85650442Y-142305518D01*
X85650442Y-142305518D01*
G37*
G36*
X83901000Y-144101000D02*
X82099000Y-144101000D01*
X82099000Y-142299000D01*
X83901000Y-142299000D01*
X83901000Y-144101000D01*
X83901000Y-144101000D01*
G37*
G36*
X88190442Y-142305518D02*
X88256627Y-142312037D01*
X88369853Y-142346384D01*
X88426467Y-142363557D01*
X88517932Y-142412447D01*
X88582991Y-142447222D01*
X88618729Y-142476552D01*
X88720186Y-142559814D01*
X88803448Y-142661271D01*
X88832778Y-142697009D01*
X88832779Y-142697011D01*
X88916443Y-142853533D01*
X88916443Y-142853534D01*
X88967963Y-143023373D01*
X88985359Y-143200000D01*
X88967963Y-143376627D01*
X88937777Y-143476136D01*
X88916443Y-143546467D01*
X88861440Y-143649369D01*
X88832778Y-143702991D01*
X88819515Y-143719152D01*
X88720186Y-143840186D01*
X88618729Y-143923448D01*
X88582991Y-143952778D01*
X88582989Y-143952779D01*
X88426467Y-144036443D01*
X88369853Y-144053616D01*
X88256627Y-144087963D01*
X88190442Y-144094482D01*
X88124260Y-144101000D01*
X88035740Y-144101000D01*
X87969558Y-144094482D01*
X87903373Y-144087963D01*
X87790147Y-144053616D01*
X87733533Y-144036443D01*
X87577011Y-143952779D01*
X87577009Y-143952778D01*
X87541271Y-143923448D01*
X87439814Y-143840186D01*
X87340485Y-143719152D01*
X87327222Y-143702991D01*
X87298560Y-143649369D01*
X87243557Y-143546467D01*
X87222223Y-143476136D01*
X87192037Y-143376627D01*
X87174641Y-143200000D01*
X87192037Y-143023373D01*
X87243557Y-142853534D01*
X87243557Y-142853533D01*
X87327221Y-142697011D01*
X87327222Y-142697009D01*
X87356552Y-142661271D01*
X87439814Y-142559814D01*
X87541271Y-142476552D01*
X87577009Y-142447222D01*
X87642068Y-142412447D01*
X87733533Y-142363557D01*
X87790147Y-142346384D01*
X87903373Y-142312037D01*
X87969558Y-142305518D01*
X88035740Y-142299000D01*
X88124260Y-142299000D01*
X88190442Y-142305518D01*
X88190442Y-142305518D01*
G37*
G36*
X115646136Y-142848253D02*
X115737312Y-142886019D01*
X115819372Y-142940850D01*
X115889150Y-143010628D01*
X115943981Y-143092688D01*
X115981747Y-143183864D01*
X116001000Y-143280656D01*
X116001000Y-143379344D01*
X115981747Y-143476136D01*
X115943981Y-143567312D01*
X115889150Y-143649372D01*
X115819372Y-143719150D01*
X115737312Y-143773981D01*
X115646136Y-143811747D01*
X115549344Y-143831000D01*
X115450656Y-143831000D01*
X115353864Y-143811747D01*
X115262688Y-143773981D01*
X115180628Y-143719150D01*
X115110850Y-143649372D01*
X115056019Y-143567312D01*
X115018253Y-143476136D01*
X114999000Y-143379344D01*
X114999000Y-143280656D01*
X115018253Y-143183864D01*
X115056019Y-143092688D01*
X115110850Y-143010628D01*
X115180628Y-142940850D01*
X115262688Y-142886019D01*
X115353864Y-142848253D01*
X115450656Y-142829000D01*
X115549344Y-142829000D01*
X115646136Y-142848253D01*
X115646136Y-142848253D01*
G37*
G36*
X112646136Y-142848253D02*
X112737312Y-142886019D01*
X112819372Y-142940850D01*
X112889150Y-143010628D01*
X112943981Y-143092688D01*
X112981747Y-143183864D01*
X113001000Y-143280656D01*
X113001000Y-143379344D01*
X112981747Y-143476136D01*
X112943981Y-143567312D01*
X112889150Y-143649372D01*
X112819372Y-143719150D01*
X112737312Y-143773981D01*
X112646136Y-143811747D01*
X112549344Y-143831000D01*
X112450656Y-143831000D01*
X112353864Y-143811747D01*
X112262688Y-143773981D01*
X112180628Y-143719150D01*
X112110850Y-143649372D01*
X112056019Y-143567312D01*
X112018253Y-143476136D01*
X111999000Y-143379344D01*
X111999000Y-143280656D01*
X112018253Y-143183864D01*
X112056019Y-143092688D01*
X112110850Y-143010628D01*
X112180628Y-142940850D01*
X112262688Y-142886019D01*
X112353864Y-142848253D01*
X112450656Y-142829000D01*
X112549344Y-142829000D01*
X112646136Y-142848253D01*
X112646136Y-142848253D01*
G37*
G36*
X110901000Y-142671000D02*
X109799000Y-142671000D01*
X109799000Y-141769000D01*
X110901000Y-141769000D01*
X110901000Y-142671000D01*
X110901000Y-142671000D01*
G37*
G36*
X118201000Y-142671000D02*
X117099000Y-142671000D01*
X117099000Y-141769000D01*
X118201000Y-141769000D01*
X118201000Y-142671000D01*
X118201000Y-142671000D01*
G37*
G36*
X112151000Y-142371000D02*
X111349000Y-142371000D01*
X111349000Y-140769000D01*
X112151000Y-140769000D01*
X112151000Y-142371000D01*
X112151000Y-142371000D01*
G37*
G36*
X116651000Y-142371000D02*
X115849000Y-142371000D01*
X115849000Y-140769000D01*
X116651000Y-140769000D01*
X116651000Y-142371000D01*
X116651000Y-142371000D01*
G37*
G36*
X115151000Y-142371000D02*
X114349000Y-142371000D01*
X114349000Y-140769000D01*
X115151000Y-140769000D01*
X115151000Y-142371000D01*
X115151000Y-142371000D01*
G37*
G36*
X101551000Y-139201000D02*
X100449000Y-139201000D01*
X100449000Y-135599000D01*
X101551000Y-135599000D01*
X101551000Y-139201000D01*
X101551000Y-139201000D01*
G37*
G36*
X99551000Y-139201000D02*
X98449000Y-139201000D01*
X98449000Y-135599000D01*
X99551000Y-135599000D01*
X99551000Y-139201000D01*
X99551000Y-139201000D01*
G37*
G36*
X127237142Y-135218242D02*
X127385102Y-135279530D01*
X127518258Y-135368502D01*
X127631498Y-135481742D01*
X127720470Y-135614898D01*
X127781758Y-135762858D01*
X127813000Y-135919925D01*
X127813000Y-136080075D01*
X127781758Y-136237142D01*
X127720470Y-136385102D01*
X127631498Y-136518258D01*
X127518258Y-136631498D01*
X127385102Y-136720470D01*
X127237142Y-136781758D01*
X127080075Y-136813000D01*
X126919925Y-136813000D01*
X126762858Y-136781758D01*
X126614898Y-136720470D01*
X126481742Y-136631498D01*
X126368502Y-136518258D01*
X126279530Y-136385102D01*
X126218242Y-136237142D01*
X126187000Y-136080075D01*
X126187000Y-135919925D01*
X126218242Y-135762858D01*
X126279530Y-135614898D01*
X126368502Y-135481742D01*
X126481742Y-135368502D01*
X126614898Y-135279530D01*
X126762858Y-135218242D01*
X126919925Y-135187000D01*
X127080075Y-135187000D01*
X127237142Y-135218242D01*
X127237142Y-135218242D01*
G37*
G36*
X125237142Y-135218242D02*
X125385102Y-135279530D01*
X125518258Y-135368502D01*
X125631498Y-135481742D01*
X125720470Y-135614898D01*
X125781758Y-135762858D01*
X125813000Y-135919925D01*
X125813000Y-136080075D01*
X125781758Y-136237142D01*
X125720470Y-136385102D01*
X125631498Y-136518258D01*
X125518258Y-136631498D01*
X125385102Y-136720470D01*
X125237142Y-136781758D01*
X125080075Y-136813000D01*
X124919925Y-136813000D01*
X124762858Y-136781758D01*
X124614898Y-136720470D01*
X124481742Y-136631498D01*
X124368502Y-136518258D01*
X124279530Y-136385102D01*
X124218242Y-136237142D01*
X124187000Y-136080075D01*
X124187000Y-135919925D01*
X124218242Y-135762858D01*
X124279530Y-135614898D01*
X124368502Y-135481742D01*
X124481742Y-135368502D01*
X124614898Y-135279530D01*
X124762858Y-135218242D01*
X124919925Y-135187000D01*
X125080075Y-135187000D01*
X125237142Y-135218242D01*
X125237142Y-135218242D01*
G37*
G36*
X123237142Y-135218242D02*
X123385102Y-135279530D01*
X123518258Y-135368502D01*
X123631498Y-135481742D01*
X123720470Y-135614898D01*
X123781758Y-135762858D01*
X123813000Y-135919925D01*
X123813000Y-136080075D01*
X123781758Y-136237142D01*
X123720470Y-136385102D01*
X123631498Y-136518258D01*
X123518258Y-136631498D01*
X123385102Y-136720470D01*
X123237142Y-136781758D01*
X123080075Y-136813000D01*
X122919925Y-136813000D01*
X122762858Y-136781758D01*
X122614898Y-136720470D01*
X122481742Y-136631498D01*
X122368502Y-136518258D01*
X122279530Y-136385102D01*
X122218242Y-136237142D01*
X122187000Y-136080075D01*
X122187000Y-135919925D01*
X122218242Y-135762858D01*
X122279530Y-135614898D01*
X122368502Y-135481742D01*
X122481742Y-135368502D01*
X122614898Y-135279530D01*
X122762858Y-135218242D01*
X122919925Y-135187000D01*
X123080075Y-135187000D01*
X123237142Y-135218242D01*
X123237142Y-135218242D01*
G37*
G36*
X121813000Y-136813000D02*
X120187000Y-136813000D01*
X120187000Y-135187000D01*
X121813000Y-135187000D01*
X121813000Y-136813000D01*
X121813000Y-136813000D01*
G37*
G36*
X79237142Y-135218242D02*
X79385102Y-135279530D01*
X79518258Y-135368502D01*
X79631498Y-135481742D01*
X79720470Y-135614898D01*
X79781758Y-135762858D01*
X79813000Y-135919925D01*
X79813000Y-136080075D01*
X79781758Y-136237142D01*
X79720470Y-136385102D01*
X79631498Y-136518258D01*
X79518258Y-136631498D01*
X79385102Y-136720470D01*
X79237142Y-136781758D01*
X79080075Y-136813000D01*
X78919925Y-136813000D01*
X78762858Y-136781758D01*
X78614898Y-136720470D01*
X78481742Y-136631498D01*
X78368502Y-136518258D01*
X78279530Y-136385102D01*
X78218242Y-136237142D01*
X78187000Y-136080075D01*
X78187000Y-135919925D01*
X78218242Y-135762858D01*
X78279530Y-135614898D01*
X78368502Y-135481742D01*
X78481742Y-135368502D01*
X78614898Y-135279530D01*
X78762858Y-135218242D01*
X78919925Y-135187000D01*
X79080075Y-135187000D01*
X79237142Y-135218242D01*
X79237142Y-135218242D01*
G37*
G36*
X77237142Y-135218242D02*
X77385102Y-135279530D01*
X77518258Y-135368502D01*
X77631498Y-135481742D01*
X77720470Y-135614898D01*
X77781758Y-135762858D01*
X77813000Y-135919925D01*
X77813000Y-136080075D01*
X77781758Y-136237142D01*
X77720470Y-136385102D01*
X77631498Y-136518258D01*
X77518258Y-136631498D01*
X77385102Y-136720470D01*
X77237142Y-136781758D01*
X77080075Y-136813000D01*
X76919925Y-136813000D01*
X76762858Y-136781758D01*
X76614898Y-136720470D01*
X76481742Y-136631498D01*
X76368502Y-136518258D01*
X76279530Y-136385102D01*
X76218242Y-136237142D01*
X76187000Y-136080075D01*
X76187000Y-135919925D01*
X76218242Y-135762858D01*
X76279530Y-135614898D01*
X76368502Y-135481742D01*
X76481742Y-135368502D01*
X76614898Y-135279530D01*
X76762858Y-135218242D01*
X76919925Y-135187000D01*
X77080075Y-135187000D01*
X77237142Y-135218242D01*
X77237142Y-135218242D01*
G37*
G36*
X75237142Y-135218242D02*
X75385102Y-135279530D01*
X75518258Y-135368502D01*
X75631498Y-135481742D01*
X75720470Y-135614898D01*
X75781758Y-135762858D01*
X75813000Y-135919925D01*
X75813000Y-136080075D01*
X75781758Y-136237142D01*
X75720470Y-136385102D01*
X75631498Y-136518258D01*
X75518258Y-136631498D01*
X75385102Y-136720470D01*
X75237142Y-136781758D01*
X75080075Y-136813000D01*
X74919925Y-136813000D01*
X74762858Y-136781758D01*
X74614898Y-136720470D01*
X74481742Y-136631498D01*
X74368502Y-136518258D01*
X74279530Y-136385102D01*
X74218242Y-136237142D01*
X74187000Y-136080075D01*
X74187000Y-135919925D01*
X74218242Y-135762858D01*
X74279530Y-135614898D01*
X74368502Y-135481742D01*
X74481742Y-135368502D01*
X74614898Y-135279530D01*
X74762858Y-135218242D01*
X74919925Y-135187000D01*
X75080075Y-135187000D01*
X75237142Y-135218242D01*
X75237142Y-135218242D01*
G37*
G36*
X73813000Y-136813000D02*
X72187000Y-136813000D01*
X72187000Y-135187000D01*
X73813000Y-135187000D01*
X73813000Y-136813000D01*
X73813000Y-136813000D01*
G37*
G36*
X107151000Y-135501000D02*
X105749000Y-135501000D01*
X105749000Y-134699000D01*
X107151000Y-134699000D01*
X107151000Y-135501000D01*
X107151000Y-135501000D01*
G37*
G36*
X110251000Y-135501000D02*
X108849000Y-135501000D01*
X108849000Y-134699000D01*
X110251000Y-134699000D01*
X110251000Y-135501000D01*
X110251000Y-135501000D01*
G37*
G36*
X94251000Y-135501000D02*
X92849000Y-135501000D01*
X92849000Y-134699000D01*
X94251000Y-134699000D01*
X94251000Y-135501000D01*
X94251000Y-135501000D01*
G37*
G36*
X91151000Y-135501000D02*
X89749000Y-135501000D01*
X89749000Y-134699000D01*
X91151000Y-134699000D01*
X91151000Y-135501000D01*
X91151000Y-135501000D01*
G37*
G36*
X107151000Y-134401000D02*
X105749000Y-134401000D01*
X105749000Y-133599000D01*
X107151000Y-133599000D01*
X107151000Y-134401000D01*
X107151000Y-134401000D01*
G37*
G36*
X110251000Y-134401000D02*
X108849000Y-134401000D01*
X108849000Y-133599000D01*
X110251000Y-133599000D01*
X110251000Y-134401000D01*
X110251000Y-134401000D01*
G37*
G36*
X94251000Y-134401000D02*
X92849000Y-134401000D01*
X92849000Y-133599000D01*
X94251000Y-133599000D01*
X94251000Y-134401000D01*
X94251000Y-134401000D01*
G37*
G36*
X91151000Y-134401000D02*
X89749000Y-134401000D01*
X89749000Y-133599000D01*
X91151000Y-133599000D01*
X91151000Y-134401000D01*
X91151000Y-134401000D01*
G37*
G36*
X107151000Y-133301000D02*
X105749000Y-133301000D01*
X105749000Y-132499000D01*
X107151000Y-132499000D01*
X107151000Y-133301000D01*
X107151000Y-133301000D01*
G37*
G36*
X94251000Y-133301000D02*
X92849000Y-133301000D01*
X92849000Y-132499000D01*
X94251000Y-132499000D01*
X94251000Y-133301000D01*
X94251000Y-133301000D01*
G37*
G36*
X91151000Y-133301000D02*
X89749000Y-133301000D01*
X89749000Y-132499000D01*
X91151000Y-132499000D01*
X91151000Y-133301000D01*
X91151000Y-133301000D01*
G37*
G36*
X110251000Y-133301000D02*
X108849000Y-133301000D01*
X108849000Y-132499000D01*
X110251000Y-132499000D01*
X110251000Y-133301000D01*
X110251000Y-133301000D01*
G37*
G36*
X102051000Y-130401000D02*
X101549000Y-130401000D01*
X101549000Y-129399000D01*
X102051000Y-129399000D01*
X102051000Y-130401000D01*
X102051000Y-130401000D01*
G37*
G36*
X98451000Y-130401000D02*
X97949000Y-130401000D01*
X97949000Y-129399000D01*
X98451000Y-129399000D01*
X98451000Y-130401000D01*
X98451000Y-130401000D01*
G37*
G36*
X97651000Y-130401000D02*
X97149000Y-130401000D01*
X97149000Y-129399000D01*
X97651000Y-129399000D01*
X97651000Y-130401000D01*
X97651000Y-130401000D01*
G37*
G36*
X102851000Y-130401000D02*
X102349000Y-130401000D01*
X102349000Y-129399000D01*
X102851000Y-129399000D01*
X102851000Y-130401000D01*
X102851000Y-130401000D01*
G37*
G36*
X96051000Y-130401000D02*
X95549000Y-130401000D01*
X95549000Y-129399000D01*
X96051000Y-129399000D01*
X96051000Y-130401000D01*
X96051000Y-130401000D01*
G37*
G36*
X103651000Y-130401000D02*
X103149000Y-130401000D01*
X103149000Y-129399000D01*
X103651000Y-129399000D01*
X103651000Y-130401000D01*
X103651000Y-130401000D01*
G37*
G36*
X104451000Y-130401000D02*
X103949000Y-130401000D01*
X103949000Y-129399000D01*
X104451000Y-129399000D01*
X104451000Y-130401000D01*
X104451000Y-130401000D01*
G37*
G36*
X96851000Y-130401000D02*
X96349000Y-130401000D01*
X96349000Y-129399000D01*
X96851000Y-129399000D01*
X96851000Y-130401000D01*
X96851000Y-130401000D01*
G37*
G36*
X87554591Y-128978085D02*
X87588569Y-128988393D01*
X87619887Y-129005133D01*
X87647339Y-129027661D01*
X87669867Y-129055113D01*
X87686607Y-129086431D01*
X87696915Y-129120409D01*
X87701000Y-129161890D01*
X87701000Y-129838110D01*
X87696915Y-129879591D01*
X87686607Y-129913569D01*
X87669867Y-129944887D01*
X87647339Y-129972339D01*
X87619887Y-129994867D01*
X87588569Y-130011607D01*
X87554591Y-130021915D01*
X87513110Y-130026000D01*
X86911890Y-130026000D01*
X86870409Y-130021915D01*
X86836431Y-130011607D01*
X86805113Y-129994867D01*
X86777661Y-129972339D01*
X86755133Y-129944887D01*
X86738393Y-129913569D01*
X86728085Y-129879591D01*
X86724000Y-129838110D01*
X86724000Y-129161890D01*
X86728085Y-129120409D01*
X86738393Y-129086431D01*
X86755133Y-129055113D01*
X86777661Y-129027661D01*
X86805113Y-129005133D01*
X86836431Y-128988393D01*
X86870409Y-128978085D01*
X86911890Y-128974000D01*
X87513110Y-128974000D01*
X87554591Y-128978085D01*
X87554591Y-128978085D01*
G37*
G36*
X89129591Y-128978085D02*
X89163569Y-128988393D01*
X89194887Y-129005133D01*
X89222339Y-129027661D01*
X89244867Y-129055113D01*
X89261607Y-129086431D01*
X89271915Y-129120409D01*
X89276000Y-129161890D01*
X89276000Y-129838110D01*
X89271915Y-129879591D01*
X89261607Y-129913569D01*
X89244867Y-129944887D01*
X89222339Y-129972339D01*
X89194887Y-129994867D01*
X89163569Y-130011607D01*
X89129591Y-130021915D01*
X89088110Y-130026000D01*
X88486890Y-130026000D01*
X88445409Y-130021915D01*
X88411431Y-130011607D01*
X88380113Y-129994867D01*
X88352661Y-129972339D01*
X88330133Y-129944887D01*
X88313393Y-129913569D01*
X88303085Y-129879591D01*
X88299000Y-129838110D01*
X88299000Y-129161890D01*
X88303085Y-129120409D01*
X88313393Y-129086431D01*
X88330133Y-129055113D01*
X88352661Y-129027661D01*
X88380113Y-129005133D01*
X88411431Y-128988393D01*
X88445409Y-128978085D01*
X88486890Y-128974000D01*
X89088110Y-128974000D01*
X89129591Y-128978085D01*
X89129591Y-128978085D01*
G37*
G36*
X91905357Y-127100083D02*
X91910028Y-127101500D01*
X91914330Y-127103800D01*
X91920705Y-127109031D01*
X91941080Y-127122644D01*
X91963719Y-127132020D01*
X91987753Y-127136800D01*
X92012257Y-127136799D01*
X92036291Y-127132017D01*
X92058929Y-127122639D01*
X92079295Y-127109031D01*
X92085670Y-127103800D01*
X92089972Y-127101500D01*
X92094643Y-127100083D01*
X92105641Y-127099000D01*
X92394359Y-127099000D01*
X92405357Y-127100083D01*
X92410028Y-127101500D01*
X92414330Y-127103800D01*
X92420705Y-127109031D01*
X92441080Y-127122644D01*
X92463719Y-127132020D01*
X92487753Y-127136800D01*
X92512257Y-127136799D01*
X92536291Y-127132017D01*
X92558929Y-127122639D01*
X92579295Y-127109031D01*
X92585670Y-127103800D01*
X92589972Y-127101500D01*
X92594643Y-127100083D01*
X92605641Y-127099000D01*
X92894359Y-127099000D01*
X92905357Y-127100083D01*
X92910028Y-127101500D01*
X92914330Y-127103800D01*
X92920705Y-127109031D01*
X92941080Y-127122644D01*
X92963719Y-127132020D01*
X92987753Y-127136800D01*
X93012257Y-127136799D01*
X93036291Y-127132017D01*
X93058929Y-127122639D01*
X93079295Y-127109031D01*
X93085670Y-127103800D01*
X93089972Y-127101500D01*
X93094643Y-127100083D01*
X93105641Y-127099000D01*
X93394359Y-127099000D01*
X93405357Y-127100083D01*
X93410028Y-127101500D01*
X93414330Y-127103800D01*
X93418104Y-127106896D01*
X93421200Y-127110670D01*
X93423500Y-127114972D01*
X93424917Y-127119643D01*
X93426000Y-127130641D01*
X93426000Y-127869359D01*
X93424917Y-127880357D01*
X93423500Y-127885028D01*
X93421200Y-127889330D01*
X93418104Y-127893104D01*
X93414330Y-127896200D01*
X93410028Y-127898500D01*
X93405357Y-127899917D01*
X93394359Y-127901000D01*
X93380141Y-127901000D01*
X93355755Y-127903402D01*
X93332306Y-127910515D01*
X93310695Y-127922066D01*
X93291753Y-127937612D01*
X93276207Y-127956554D01*
X93264656Y-127978165D01*
X93257543Y-128001614D01*
X93255141Y-128026000D01*
X93257543Y-128050386D01*
X93264656Y-128073835D01*
X93269901Y-128084926D01*
X93286132Y-128115292D01*
X93296795Y-128150440D01*
X93301000Y-128193140D01*
X93301000Y-128806860D01*
X93296795Y-128849560D01*
X93286132Y-128884708D01*
X93269901Y-128915074D01*
X93260524Y-128937713D01*
X93255743Y-128961747D01*
X93255743Y-128986251D01*
X93260523Y-129010285D01*
X93269900Y-129032924D01*
X93283514Y-129053298D01*
X93300841Y-129070626D01*
X93321215Y-129084240D01*
X93343854Y-129093617D01*
X93367888Y-129098398D01*
X93380141Y-129099000D01*
X93394359Y-129099000D01*
X93405357Y-129100083D01*
X93410028Y-129101500D01*
X93414330Y-129103800D01*
X93418104Y-129106896D01*
X93421200Y-129110670D01*
X93423500Y-129114972D01*
X93424917Y-129119643D01*
X93426000Y-129130641D01*
X93426000Y-129869359D01*
X93424917Y-129880357D01*
X93423500Y-129885028D01*
X93421200Y-129889330D01*
X93418104Y-129893104D01*
X93414330Y-129896200D01*
X93410028Y-129898500D01*
X93405357Y-129899917D01*
X93394359Y-129901000D01*
X93105641Y-129901000D01*
X93094643Y-129899917D01*
X93089972Y-129898500D01*
X93085670Y-129896200D01*
X93079295Y-129890969D01*
X93058920Y-129877356D01*
X93036281Y-129867980D01*
X93012247Y-129863200D01*
X92987743Y-129863201D01*
X92963709Y-129867983D01*
X92941071Y-129877361D01*
X92920705Y-129890969D01*
X92914330Y-129896200D01*
X92910028Y-129898500D01*
X92905357Y-129899917D01*
X92894359Y-129901000D01*
X92605641Y-129901000D01*
X92594643Y-129899917D01*
X92589972Y-129898500D01*
X92585670Y-129896200D01*
X92579295Y-129890969D01*
X92558920Y-129877356D01*
X92536281Y-129867980D01*
X92512247Y-129863200D01*
X92487743Y-129863201D01*
X92463709Y-129867983D01*
X92441071Y-129877361D01*
X92420705Y-129890969D01*
X92414330Y-129896200D01*
X92410028Y-129898500D01*
X92405357Y-129899917D01*
X92394359Y-129901000D01*
X92105641Y-129901000D01*
X92094643Y-129899917D01*
X92089972Y-129898500D01*
X92085670Y-129896200D01*
X92079295Y-129890969D01*
X92058920Y-129877356D01*
X92036281Y-129867980D01*
X92012247Y-129863200D01*
X91987743Y-129863201D01*
X91963709Y-129867983D01*
X91941071Y-129877361D01*
X91920705Y-129890969D01*
X91914330Y-129896200D01*
X91910028Y-129898500D01*
X91905357Y-129899917D01*
X91894359Y-129901000D01*
X91605641Y-129901000D01*
X91594643Y-129899917D01*
X91589972Y-129898500D01*
X91585670Y-129896200D01*
X91581896Y-129893104D01*
X91578800Y-129889330D01*
X91576500Y-129885028D01*
X91575083Y-129880357D01*
X91574000Y-129869359D01*
X91574000Y-129130641D01*
X91575083Y-129119643D01*
X91576500Y-129114972D01*
X91578800Y-129110670D01*
X91581896Y-129106896D01*
X91585670Y-129103800D01*
X91589972Y-129101500D01*
X91594643Y-129100083D01*
X91605641Y-129099000D01*
X91619859Y-129099000D01*
X91644245Y-129096598D01*
X91667694Y-129089485D01*
X91689305Y-129077934D01*
X91708247Y-129062388D01*
X91723793Y-129043446D01*
X91735344Y-129021835D01*
X91742457Y-128998386D01*
X91744859Y-128974000D01*
X91742457Y-128949614D01*
X91735344Y-128926165D01*
X91730099Y-128915074D01*
X91713868Y-128884708D01*
X91703205Y-128849560D01*
X91699000Y-128806860D01*
X91699000Y-128193140D01*
X91703205Y-128150440D01*
X91713868Y-128115292D01*
X91730099Y-128084926D01*
X91739476Y-128062287D01*
X91744257Y-128038253D01*
X91744257Y-128013749D01*
X91739477Y-127989715D01*
X91730100Y-127967076D01*
X91716486Y-127946702D01*
X91699159Y-127929374D01*
X91678785Y-127915760D01*
X91656146Y-127906383D01*
X91632112Y-127901602D01*
X91619859Y-127901000D01*
X91605641Y-127901000D01*
X91594643Y-127899917D01*
X91589972Y-127898500D01*
X91585670Y-127896200D01*
X91581896Y-127893104D01*
X91578800Y-127889330D01*
X91576500Y-127885028D01*
X91575083Y-127880357D01*
X91574000Y-127869359D01*
X91574000Y-127130641D01*
X91575083Y-127119643D01*
X91576500Y-127114972D01*
X91578800Y-127110670D01*
X91581896Y-127106896D01*
X91585670Y-127103800D01*
X91589972Y-127101500D01*
X91594643Y-127100083D01*
X91605641Y-127099000D01*
X91894359Y-127099000D01*
X91905357Y-127100083D01*
X91905357Y-127100083D01*
G37*
G36*
X108809466Y-127253565D02*
X108848137Y-127265296D01*
X108883779Y-127284348D01*
X108915017Y-127309983D01*
X108940652Y-127341221D01*
X108959704Y-127376863D01*
X108971435Y-127415534D01*
X108976000Y-127461888D01*
X108976000Y-128538112D01*
X108971435Y-128584466D01*
X108959704Y-128623137D01*
X108940652Y-128658779D01*
X108915017Y-128690017D01*
X108883779Y-128715652D01*
X108848137Y-128734704D01*
X108809466Y-128746435D01*
X108763112Y-128751000D01*
X108111888Y-128751000D01*
X108065534Y-128746435D01*
X108026863Y-128734704D01*
X107991221Y-128715652D01*
X107959983Y-128690017D01*
X107934348Y-128658779D01*
X107915296Y-128623137D01*
X107903565Y-128584466D01*
X107899000Y-128538112D01*
X107899000Y-127461888D01*
X107903565Y-127415534D01*
X107915296Y-127376863D01*
X107934348Y-127341221D01*
X107959983Y-127309983D01*
X107991221Y-127284348D01*
X108026863Y-127265296D01*
X108065534Y-127253565D01*
X108111888Y-127249000D01*
X108763112Y-127249000D01*
X108809466Y-127253565D01*
X108809466Y-127253565D01*
G37*
G36*
X106934466Y-127253565D02*
X106973137Y-127265296D01*
X107008779Y-127284348D01*
X107040017Y-127309983D01*
X107065652Y-127341221D01*
X107084704Y-127376863D01*
X107096435Y-127415534D01*
X107101000Y-127461888D01*
X107101000Y-128538112D01*
X107096435Y-128584466D01*
X107084704Y-128623137D01*
X107065652Y-128658779D01*
X107040017Y-128690017D01*
X107008779Y-128715652D01*
X106973137Y-128734704D01*
X106934466Y-128746435D01*
X106888112Y-128751000D01*
X106236888Y-128751000D01*
X106190534Y-128746435D01*
X106151863Y-128734704D01*
X106116221Y-128715652D01*
X106084983Y-128690017D01*
X106059348Y-128658779D01*
X106040296Y-128623137D01*
X106028565Y-128584466D01*
X106024000Y-128538112D01*
X106024000Y-127461888D01*
X106028565Y-127415534D01*
X106040296Y-127376863D01*
X106059348Y-127341221D01*
X106084983Y-127309983D01*
X106116221Y-127284348D01*
X106151863Y-127265296D01*
X106190534Y-127253565D01*
X106236888Y-127249000D01*
X106888112Y-127249000D01*
X106934466Y-127253565D01*
X106934466Y-127253565D01*
G37*
G36*
X114826000Y-128681000D02*
X112174000Y-128681000D01*
X112174000Y-127519000D01*
X114826000Y-127519000D01*
X114826000Y-128681000D01*
X114826000Y-128681000D01*
G37*
G36*
X96851000Y-128601000D02*
X96349000Y-128601000D01*
X96349000Y-127599000D01*
X96851000Y-127599000D01*
X96851000Y-128601000D01*
X96851000Y-128601000D01*
G37*
G36*
X96051000Y-128601000D02*
X95549000Y-128601000D01*
X95549000Y-127599000D01*
X96051000Y-127599000D01*
X96051000Y-128601000D01*
X96051000Y-128601000D01*
G37*
G36*
X102051000Y-128601000D02*
X101549000Y-128601000D01*
X101549000Y-127599000D01*
X102051000Y-127599000D01*
X102051000Y-128601000D01*
X102051000Y-128601000D01*
G37*
G36*
X102851000Y-128601000D02*
X102349000Y-128601000D01*
X102349000Y-127599000D01*
X102851000Y-127599000D01*
X102851000Y-128601000D01*
X102851000Y-128601000D01*
G37*
G36*
X103651000Y-128601000D02*
X103149000Y-128601000D01*
X103149000Y-127599000D01*
X103651000Y-127599000D01*
X103651000Y-128601000D01*
X103651000Y-128601000D01*
G37*
G36*
X104451000Y-128601000D02*
X103949000Y-128601000D01*
X103949000Y-127599000D01*
X104451000Y-127599000D01*
X104451000Y-128601000D01*
X104451000Y-128601000D01*
G37*
G36*
X97651000Y-128601000D02*
X97149000Y-128601000D01*
X97149000Y-127599000D01*
X97651000Y-127599000D01*
X97651000Y-128601000D01*
X97651000Y-128601000D01*
G37*
G36*
X98451000Y-128601000D02*
X97949000Y-128601000D01*
X97949000Y-127599000D01*
X98451000Y-127599000D01*
X98451000Y-128601000D01*
X98451000Y-128601000D01*
G37*
G36*
X89129591Y-126978085D02*
X89163569Y-126988393D01*
X89194887Y-127005133D01*
X89222339Y-127027661D01*
X89244867Y-127055113D01*
X89261607Y-127086431D01*
X89271915Y-127120409D01*
X89276000Y-127161890D01*
X89276000Y-127838110D01*
X89271915Y-127879591D01*
X89261607Y-127913569D01*
X89244867Y-127944887D01*
X89222339Y-127972339D01*
X89194887Y-127994867D01*
X89163569Y-128011607D01*
X89129591Y-128021915D01*
X89088110Y-128026000D01*
X88486890Y-128026000D01*
X88445409Y-128021915D01*
X88411431Y-128011607D01*
X88380113Y-127994867D01*
X88352661Y-127972339D01*
X88330133Y-127944887D01*
X88313393Y-127913569D01*
X88303085Y-127879591D01*
X88299000Y-127838110D01*
X88299000Y-127161890D01*
X88303085Y-127120409D01*
X88313393Y-127086431D01*
X88330133Y-127055113D01*
X88352661Y-127027661D01*
X88380113Y-127005133D01*
X88411431Y-126988393D01*
X88445409Y-126978085D01*
X88486890Y-126974000D01*
X89088110Y-126974000D01*
X89129591Y-126978085D01*
X89129591Y-126978085D01*
G37*
G36*
X87554591Y-126978085D02*
X87588569Y-126988393D01*
X87619887Y-127005133D01*
X87647339Y-127027661D01*
X87669867Y-127055113D01*
X87686607Y-127086431D01*
X87696915Y-127120409D01*
X87701000Y-127161890D01*
X87701000Y-127838110D01*
X87696915Y-127879591D01*
X87686607Y-127913569D01*
X87669867Y-127944887D01*
X87647339Y-127972339D01*
X87619887Y-127994867D01*
X87588569Y-128011607D01*
X87554591Y-128021915D01*
X87513110Y-128026000D01*
X86911890Y-128026000D01*
X86870409Y-128021915D01*
X86836431Y-128011607D01*
X86805113Y-127994867D01*
X86777661Y-127972339D01*
X86755133Y-127944887D01*
X86738393Y-127913569D01*
X86728085Y-127879591D01*
X86724000Y-127838110D01*
X86724000Y-127161890D01*
X86728085Y-127120409D01*
X86738393Y-127086431D01*
X86755133Y-127055113D01*
X86777661Y-127027661D01*
X86805113Y-127005133D01*
X86836431Y-126988393D01*
X86870409Y-126978085D01*
X86911890Y-126974000D01*
X87513110Y-126974000D01*
X87554591Y-126978085D01*
X87554591Y-126978085D01*
G37*
G36*
X123237142Y-125218242D02*
X123385102Y-125279530D01*
X123518258Y-125368502D01*
X123631498Y-125481742D01*
X123720470Y-125614898D01*
X123781758Y-125762858D01*
X123813000Y-125919925D01*
X123813000Y-126080075D01*
X123781758Y-126237142D01*
X123720470Y-126385102D01*
X123631498Y-126518258D01*
X123518258Y-126631498D01*
X123385102Y-126720470D01*
X123237142Y-126781758D01*
X123080075Y-126813000D01*
X122919925Y-126813000D01*
X122762858Y-126781758D01*
X122614898Y-126720470D01*
X122481742Y-126631498D01*
X122368502Y-126518258D01*
X122279530Y-126385102D01*
X122218242Y-126237142D01*
X122187000Y-126080075D01*
X122187000Y-125919925D01*
X122218242Y-125762858D01*
X122279530Y-125614898D01*
X122368502Y-125481742D01*
X122481742Y-125368502D01*
X122614898Y-125279530D01*
X122762858Y-125218242D01*
X122919925Y-125187000D01*
X123080075Y-125187000D01*
X123237142Y-125218242D01*
X123237142Y-125218242D01*
G37*
G36*
X79237142Y-125218242D02*
X79385102Y-125279530D01*
X79518258Y-125368502D01*
X79631498Y-125481742D01*
X79720470Y-125614898D01*
X79781758Y-125762858D01*
X79813000Y-125919925D01*
X79813000Y-126080075D01*
X79781758Y-126237142D01*
X79720470Y-126385102D01*
X79631498Y-126518258D01*
X79518258Y-126631498D01*
X79385102Y-126720470D01*
X79237142Y-126781758D01*
X79080075Y-126813000D01*
X78919925Y-126813000D01*
X78762858Y-126781758D01*
X78614898Y-126720470D01*
X78481742Y-126631498D01*
X78368502Y-126518258D01*
X78279530Y-126385102D01*
X78218242Y-126237142D01*
X78187000Y-126080075D01*
X78187000Y-125919925D01*
X78218242Y-125762858D01*
X78279530Y-125614898D01*
X78368502Y-125481742D01*
X78481742Y-125368502D01*
X78614898Y-125279530D01*
X78762858Y-125218242D01*
X78919925Y-125187000D01*
X79080075Y-125187000D01*
X79237142Y-125218242D01*
X79237142Y-125218242D01*
G37*
G36*
X77237142Y-125218242D02*
X77385102Y-125279530D01*
X77518258Y-125368502D01*
X77631498Y-125481742D01*
X77720470Y-125614898D01*
X77781758Y-125762858D01*
X77813000Y-125919925D01*
X77813000Y-126080075D01*
X77781758Y-126237142D01*
X77720470Y-126385102D01*
X77631498Y-126518258D01*
X77518258Y-126631498D01*
X77385102Y-126720470D01*
X77237142Y-126781758D01*
X77080075Y-126813000D01*
X76919925Y-126813000D01*
X76762858Y-126781758D01*
X76614898Y-126720470D01*
X76481742Y-126631498D01*
X76368502Y-126518258D01*
X76279530Y-126385102D01*
X76218242Y-126237142D01*
X76187000Y-126080075D01*
X76187000Y-125919925D01*
X76218242Y-125762858D01*
X76279530Y-125614898D01*
X76368502Y-125481742D01*
X76481742Y-125368502D01*
X76614898Y-125279530D01*
X76762858Y-125218242D01*
X76919925Y-125187000D01*
X77080075Y-125187000D01*
X77237142Y-125218242D01*
X77237142Y-125218242D01*
G37*
G36*
X121813000Y-126813000D02*
X120187000Y-126813000D01*
X120187000Y-125187000D01*
X121813000Y-125187000D01*
X121813000Y-126813000D01*
X121813000Y-126813000D01*
G37*
G36*
X75237142Y-125218242D02*
X75385102Y-125279530D01*
X75518258Y-125368502D01*
X75631498Y-125481742D01*
X75720470Y-125614898D01*
X75781758Y-125762858D01*
X75813000Y-125919925D01*
X75813000Y-126080075D01*
X75781758Y-126237142D01*
X75720470Y-126385102D01*
X75631498Y-126518258D01*
X75518258Y-126631498D01*
X75385102Y-126720470D01*
X75237142Y-126781758D01*
X75080075Y-126813000D01*
X74919925Y-126813000D01*
X74762858Y-126781758D01*
X74614898Y-126720470D01*
X74481742Y-126631498D01*
X74368502Y-126518258D01*
X74279530Y-126385102D01*
X74218242Y-126237142D01*
X74187000Y-126080075D01*
X74187000Y-125919925D01*
X74218242Y-125762858D01*
X74279530Y-125614898D01*
X74368502Y-125481742D01*
X74481742Y-125368502D01*
X74614898Y-125279530D01*
X74762858Y-125218242D01*
X74919925Y-125187000D01*
X75080075Y-125187000D01*
X75237142Y-125218242D01*
X75237142Y-125218242D01*
G37*
G36*
X125237142Y-125218242D02*
X125385102Y-125279530D01*
X125518258Y-125368502D01*
X125631498Y-125481742D01*
X125720470Y-125614898D01*
X125781758Y-125762858D01*
X125813000Y-125919925D01*
X125813000Y-126080075D01*
X125781758Y-126237142D01*
X125720470Y-126385102D01*
X125631498Y-126518258D01*
X125518258Y-126631498D01*
X125385102Y-126720470D01*
X125237142Y-126781758D01*
X125080075Y-126813000D01*
X124919925Y-126813000D01*
X124762858Y-126781758D01*
X124614898Y-126720470D01*
X124481742Y-126631498D01*
X124368502Y-126518258D01*
X124279530Y-126385102D01*
X124218242Y-126237142D01*
X124187000Y-126080075D01*
X124187000Y-125919925D01*
X124218242Y-125762858D01*
X124279530Y-125614898D01*
X124368502Y-125481742D01*
X124481742Y-125368502D01*
X124614898Y-125279530D01*
X124762858Y-125218242D01*
X124919925Y-125187000D01*
X125080075Y-125187000D01*
X125237142Y-125218242D01*
X125237142Y-125218242D01*
G37*
G36*
X127237142Y-125218242D02*
X127385102Y-125279530D01*
X127518258Y-125368502D01*
X127631498Y-125481742D01*
X127720470Y-125614898D01*
X127781758Y-125762858D01*
X127813000Y-125919925D01*
X127813000Y-126080075D01*
X127781758Y-126237142D01*
X127720470Y-126385102D01*
X127631498Y-126518258D01*
X127518258Y-126631498D01*
X127385102Y-126720470D01*
X127237142Y-126781758D01*
X127080075Y-126813000D01*
X126919925Y-126813000D01*
X126762858Y-126781758D01*
X126614898Y-126720470D01*
X126481742Y-126631498D01*
X126368502Y-126518258D01*
X126279530Y-126385102D01*
X126218242Y-126237142D01*
X126187000Y-126080075D01*
X126187000Y-125919925D01*
X126218242Y-125762858D01*
X126279530Y-125614898D01*
X126368502Y-125481742D01*
X126481742Y-125368502D01*
X126614898Y-125279530D01*
X126762858Y-125218242D01*
X126919925Y-125187000D01*
X127080075Y-125187000D01*
X127237142Y-125218242D01*
X127237142Y-125218242D01*
G37*
G36*
X73813000Y-126813000D02*
X72187000Y-126813000D01*
X72187000Y-125187000D01*
X73813000Y-125187000D01*
X73813000Y-126813000D01*
X73813000Y-126813000D01*
G37*
G36*
X112926000Y-126481000D02*
X112174000Y-126481000D01*
X112174000Y-125319000D01*
X112926000Y-125319000D01*
X112926000Y-126481000D01*
X112926000Y-126481000D01*
G37*
G36*
X114826000Y-126481000D02*
X114074000Y-126481000D01*
X114074000Y-125319000D01*
X114826000Y-125319000D01*
X114826000Y-126481000D01*
X114826000Y-126481000D01*
G37*
G36*
X89129591Y-124978085D02*
X89163569Y-124988393D01*
X89194887Y-125005133D01*
X89222339Y-125027661D01*
X89244867Y-125055113D01*
X89261607Y-125086431D01*
X89271915Y-125120409D01*
X89276000Y-125161890D01*
X89276000Y-125838110D01*
X89271915Y-125879591D01*
X89261607Y-125913569D01*
X89244867Y-125944887D01*
X89222339Y-125972339D01*
X89194887Y-125994867D01*
X89163569Y-126011607D01*
X89129591Y-126021915D01*
X89088110Y-126026000D01*
X88486890Y-126026000D01*
X88445409Y-126021915D01*
X88411431Y-126011607D01*
X88380113Y-125994867D01*
X88352661Y-125972339D01*
X88330133Y-125944887D01*
X88313393Y-125913569D01*
X88303085Y-125879591D01*
X88299000Y-125838110D01*
X88299000Y-125161890D01*
X88303085Y-125120409D01*
X88313393Y-125086431D01*
X88330133Y-125055113D01*
X88352661Y-125027661D01*
X88380113Y-125005133D01*
X88411431Y-124988393D01*
X88445409Y-124978085D01*
X88486890Y-124974000D01*
X89088110Y-124974000D01*
X89129591Y-124978085D01*
X89129591Y-124978085D01*
G37*
G36*
X87554591Y-124978085D02*
X87588569Y-124988393D01*
X87619887Y-125005133D01*
X87647339Y-125027661D01*
X87669867Y-125055113D01*
X87686607Y-125086431D01*
X87696915Y-125120409D01*
X87701000Y-125161890D01*
X87701000Y-125838110D01*
X87696915Y-125879591D01*
X87686607Y-125913569D01*
X87669867Y-125944887D01*
X87647339Y-125972339D01*
X87619887Y-125994867D01*
X87588569Y-126011607D01*
X87554591Y-126021915D01*
X87513110Y-126026000D01*
X86911890Y-126026000D01*
X86870409Y-126021915D01*
X86836431Y-126011607D01*
X86805113Y-125994867D01*
X86777661Y-125972339D01*
X86755133Y-125944887D01*
X86738393Y-125913569D01*
X86728085Y-125879591D01*
X86724000Y-125838110D01*
X86724000Y-125161890D01*
X86728085Y-125120409D01*
X86738393Y-125086431D01*
X86755133Y-125055113D01*
X86777661Y-125027661D01*
X86805113Y-125005133D01*
X86836431Y-124988393D01*
X86870409Y-124978085D01*
X86911890Y-124974000D01*
X87513110Y-124974000D01*
X87554591Y-124978085D01*
X87554591Y-124978085D01*
G37*
G36*
X108826000Y-125681000D02*
X106174000Y-125681000D01*
X106174000Y-124519000D01*
X108826000Y-124519000D01*
X108826000Y-125681000D01*
X108826000Y-125681000D01*
G37*
G36*
X115418604Y-122078347D02*
X115455145Y-122089432D01*
X115488820Y-122107431D01*
X115518341Y-122131659D01*
X115542569Y-122161180D01*
X115560568Y-122194855D01*
X115571653Y-122231396D01*
X115576000Y-122275538D01*
X115576000Y-123724462D01*
X115571653Y-123768604D01*
X115560568Y-123805145D01*
X115542569Y-123838820D01*
X115518341Y-123868341D01*
X115488820Y-123892569D01*
X115455145Y-123910568D01*
X115418604Y-123921653D01*
X115374462Y-123926000D01*
X114425538Y-123926000D01*
X114381396Y-123921653D01*
X114344855Y-123910568D01*
X114311180Y-123892569D01*
X114281659Y-123868341D01*
X114257431Y-123838820D01*
X114239432Y-123805145D01*
X114228347Y-123768604D01*
X114224000Y-123724462D01*
X114224000Y-122275538D01*
X114228347Y-122231396D01*
X114239432Y-122194855D01*
X114257431Y-122161180D01*
X114281659Y-122131659D01*
X114311180Y-122107431D01*
X114344855Y-122089432D01*
X114381396Y-122078347D01*
X114425538Y-122074000D01*
X115374462Y-122074000D01*
X115418604Y-122078347D01*
X115418604Y-122078347D01*
G37*
G36*
X112618604Y-122078347D02*
X112655145Y-122089432D01*
X112688820Y-122107431D01*
X112718341Y-122131659D01*
X112742569Y-122161180D01*
X112760568Y-122194855D01*
X112771653Y-122231396D01*
X112776000Y-122275538D01*
X112776000Y-123724462D01*
X112771653Y-123768604D01*
X112760568Y-123805145D01*
X112742569Y-123838820D01*
X112718341Y-123868341D01*
X112688820Y-123892569D01*
X112655145Y-123910568D01*
X112618604Y-123921653D01*
X112574462Y-123926000D01*
X111625538Y-123926000D01*
X111581396Y-123921653D01*
X111544855Y-123910568D01*
X111511180Y-123892569D01*
X111481659Y-123868341D01*
X111457431Y-123838820D01*
X111439432Y-123805145D01*
X111428347Y-123768604D01*
X111424000Y-123724462D01*
X111424000Y-122275538D01*
X111428347Y-122231396D01*
X111439432Y-122194855D01*
X111457431Y-122161180D01*
X111481659Y-122131659D01*
X111511180Y-122107431D01*
X111544855Y-122089432D01*
X111581396Y-122078347D01*
X111625538Y-122074000D01*
X112574462Y-122074000D01*
X112618604Y-122078347D01*
X112618604Y-122078347D01*
G37*
G36*
X89501000Y-123901000D02*
X88499000Y-123901000D01*
X88499000Y-122999000D01*
X89501000Y-122999000D01*
X89501000Y-123901000D01*
X89501000Y-123901000D01*
G37*
G36*
X85379591Y-122803085D02*
X85413569Y-122813393D01*
X85444887Y-122830133D01*
X85472339Y-122852661D01*
X85494867Y-122880113D01*
X85511607Y-122911431D01*
X85521915Y-122945409D01*
X85526000Y-122986890D01*
X85526000Y-123588110D01*
X85521915Y-123629591D01*
X85511607Y-123663569D01*
X85494867Y-123694887D01*
X85472339Y-123722339D01*
X85444887Y-123744867D01*
X85413569Y-123761607D01*
X85379591Y-123771915D01*
X85338110Y-123776000D01*
X84661890Y-123776000D01*
X84620409Y-123771915D01*
X84586431Y-123761607D01*
X84555113Y-123744867D01*
X84527661Y-123722339D01*
X84505133Y-123694887D01*
X84488393Y-123663569D01*
X84478085Y-123629591D01*
X84474000Y-123588110D01*
X84474000Y-122986890D01*
X84478085Y-122945409D01*
X84488393Y-122911431D01*
X84505133Y-122880113D01*
X84527661Y-122852661D01*
X84555113Y-122830133D01*
X84586431Y-122813393D01*
X84620409Y-122803085D01*
X84661890Y-122799000D01*
X85338110Y-122799000D01*
X85379591Y-122803085D01*
X85379591Y-122803085D01*
G37*
G36*
X108826000Y-123481000D02*
X108074000Y-123481000D01*
X108074000Y-122319000D01*
X108826000Y-122319000D01*
X108826000Y-123481000D01*
X108826000Y-123481000D01*
G37*
G36*
X106926000Y-123481000D02*
X106174000Y-123481000D01*
X106174000Y-122319000D01*
X106926000Y-122319000D01*
X106926000Y-123481000D01*
X106926000Y-123481000D01*
G37*
G36*
X87501000Y-122951000D02*
X86499000Y-122951000D01*
X86499000Y-122049000D01*
X87501000Y-122049000D01*
X87501000Y-122951000D01*
X87501000Y-122951000D01*
G37*
G36*
X85379591Y-121228085D02*
X85413569Y-121238393D01*
X85444887Y-121255133D01*
X85472339Y-121277661D01*
X85494867Y-121305113D01*
X85511607Y-121336431D01*
X85521915Y-121370409D01*
X85526000Y-121411890D01*
X85526000Y-122013110D01*
X85521915Y-122054591D01*
X85511607Y-122088569D01*
X85494867Y-122119887D01*
X85472339Y-122147339D01*
X85444887Y-122169867D01*
X85413569Y-122186607D01*
X85379591Y-122196915D01*
X85338110Y-122201000D01*
X84661890Y-122201000D01*
X84620409Y-122196915D01*
X84586431Y-122186607D01*
X84555113Y-122169867D01*
X84527661Y-122147339D01*
X84505133Y-122119887D01*
X84488393Y-122088569D01*
X84478085Y-122054591D01*
X84474000Y-122013110D01*
X84474000Y-121411890D01*
X84478085Y-121370409D01*
X84488393Y-121336431D01*
X84505133Y-121305113D01*
X84527661Y-121277661D01*
X84555113Y-121255133D01*
X84586431Y-121238393D01*
X84620409Y-121228085D01*
X84661890Y-121224000D01*
X85338110Y-121224000D01*
X85379591Y-121228085D01*
X85379591Y-121228085D01*
G37*
G36*
X89501000Y-122001000D02*
X88499000Y-122001000D01*
X88499000Y-121099000D01*
X89501000Y-121099000D01*
X89501000Y-122001000D01*
X89501000Y-122001000D01*
G37*
G36*
X89241000Y-118431000D02*
X87139000Y-118431000D01*
X87139000Y-117129000D01*
X89241000Y-117129000D01*
X89241000Y-118431000D01*
X89241000Y-118431000D01*
G37*
G36*
X112821000Y-118431000D02*
X110719000Y-118431000D01*
X110719000Y-117129000D01*
X112821000Y-117129000D01*
X112821000Y-118431000D01*
X112821000Y-118431000D01*
G37*
G36*
X107021000Y-118431000D02*
X104919000Y-118431000D01*
X104919000Y-117129000D01*
X107021000Y-117129000D01*
X107021000Y-118431000D01*
X107021000Y-118431000D01*
G37*
G36*
X95041000Y-118431000D02*
X92939000Y-118431000D01*
X92939000Y-117129000D01*
X95041000Y-117129000D01*
X95041000Y-118431000D01*
X95041000Y-118431000D01*
G37*
G36*
X73813000Y-116813000D02*
X72187000Y-116813000D01*
X72187000Y-115187000D01*
X73813000Y-115187000D01*
X73813000Y-116813000D01*
X73813000Y-116813000D01*
G37*
G36*
X75237142Y-115218242D02*
X75385102Y-115279530D01*
X75518258Y-115368502D01*
X75631498Y-115481742D01*
X75720470Y-115614898D01*
X75781758Y-115762858D01*
X75813000Y-115919925D01*
X75813000Y-116080075D01*
X75781758Y-116237142D01*
X75720470Y-116385102D01*
X75631498Y-116518258D01*
X75518258Y-116631498D01*
X75385102Y-116720470D01*
X75237142Y-116781758D01*
X75080075Y-116813000D01*
X74919925Y-116813000D01*
X74762858Y-116781758D01*
X74614898Y-116720470D01*
X74481742Y-116631498D01*
X74368502Y-116518258D01*
X74279530Y-116385102D01*
X74218242Y-116237142D01*
X74187000Y-116080075D01*
X74187000Y-115919925D01*
X74218242Y-115762858D01*
X74279530Y-115614898D01*
X74368502Y-115481742D01*
X74481742Y-115368502D01*
X74614898Y-115279530D01*
X74762858Y-115218242D01*
X74919925Y-115187000D01*
X75080075Y-115187000D01*
X75237142Y-115218242D01*
X75237142Y-115218242D01*
G37*
G36*
X77237142Y-115218242D02*
X77385102Y-115279530D01*
X77518258Y-115368502D01*
X77631498Y-115481742D01*
X77720470Y-115614898D01*
X77781758Y-115762858D01*
X77813000Y-115919925D01*
X77813000Y-116080075D01*
X77781758Y-116237142D01*
X77720470Y-116385102D01*
X77631498Y-116518258D01*
X77518258Y-116631498D01*
X77385102Y-116720470D01*
X77237142Y-116781758D01*
X77080075Y-116813000D01*
X76919925Y-116813000D01*
X76762858Y-116781758D01*
X76614898Y-116720470D01*
X76481742Y-116631498D01*
X76368502Y-116518258D01*
X76279530Y-116385102D01*
X76218242Y-116237142D01*
X76187000Y-116080075D01*
X76187000Y-115919925D01*
X76218242Y-115762858D01*
X76279530Y-115614898D01*
X76368502Y-115481742D01*
X76481742Y-115368502D01*
X76614898Y-115279530D01*
X76762858Y-115218242D01*
X76919925Y-115187000D01*
X77080075Y-115187000D01*
X77237142Y-115218242D01*
X77237142Y-115218242D01*
G37*
G36*
X79237142Y-115218242D02*
X79385102Y-115279530D01*
X79518258Y-115368502D01*
X79631498Y-115481742D01*
X79720470Y-115614898D01*
X79781758Y-115762858D01*
X79813000Y-115919925D01*
X79813000Y-116080075D01*
X79781758Y-116237142D01*
X79720470Y-116385102D01*
X79631498Y-116518258D01*
X79518258Y-116631498D01*
X79385102Y-116720470D01*
X79237142Y-116781758D01*
X79080075Y-116813000D01*
X78919925Y-116813000D01*
X78762858Y-116781758D01*
X78614898Y-116720470D01*
X78481742Y-116631498D01*
X78368502Y-116518258D01*
X78279530Y-116385102D01*
X78218242Y-116237142D01*
X78187000Y-116080075D01*
X78187000Y-115919925D01*
X78218242Y-115762858D01*
X78279530Y-115614898D01*
X78368502Y-115481742D01*
X78481742Y-115368502D01*
X78614898Y-115279530D01*
X78762858Y-115218242D01*
X78919925Y-115187000D01*
X79080075Y-115187000D01*
X79237142Y-115218242D01*
X79237142Y-115218242D01*
G37*
G36*
X121813000Y-116813000D02*
X120187000Y-116813000D01*
X120187000Y-115187000D01*
X121813000Y-115187000D01*
X121813000Y-116813000D01*
X121813000Y-116813000D01*
G37*
G36*
X123237142Y-115218242D02*
X123385102Y-115279530D01*
X123518258Y-115368502D01*
X123631498Y-115481742D01*
X123720470Y-115614898D01*
X123781758Y-115762858D01*
X123813000Y-115919925D01*
X123813000Y-116080075D01*
X123781758Y-116237142D01*
X123720470Y-116385102D01*
X123631498Y-116518258D01*
X123518258Y-116631498D01*
X123385102Y-116720470D01*
X123237142Y-116781758D01*
X123080075Y-116813000D01*
X122919925Y-116813000D01*
X122762858Y-116781758D01*
X122614898Y-116720470D01*
X122481742Y-116631498D01*
X122368502Y-116518258D01*
X122279530Y-116385102D01*
X122218242Y-116237142D01*
X122187000Y-116080075D01*
X122187000Y-115919925D01*
X122218242Y-115762858D01*
X122279530Y-115614898D01*
X122368502Y-115481742D01*
X122481742Y-115368502D01*
X122614898Y-115279530D01*
X122762858Y-115218242D01*
X122919925Y-115187000D01*
X123080075Y-115187000D01*
X123237142Y-115218242D01*
X123237142Y-115218242D01*
G37*
G36*
X125237142Y-115218242D02*
X125385102Y-115279530D01*
X125518258Y-115368502D01*
X125631498Y-115481742D01*
X125720470Y-115614898D01*
X125781758Y-115762858D01*
X125813000Y-115919925D01*
X125813000Y-116080075D01*
X125781758Y-116237142D01*
X125720470Y-116385102D01*
X125631498Y-116518258D01*
X125518258Y-116631498D01*
X125385102Y-116720470D01*
X125237142Y-116781758D01*
X125080075Y-116813000D01*
X124919925Y-116813000D01*
X124762858Y-116781758D01*
X124614898Y-116720470D01*
X124481742Y-116631498D01*
X124368502Y-116518258D01*
X124279530Y-116385102D01*
X124218242Y-116237142D01*
X124187000Y-116080075D01*
X124187000Y-115919925D01*
X124218242Y-115762858D01*
X124279530Y-115614898D01*
X124368502Y-115481742D01*
X124481742Y-115368502D01*
X124614898Y-115279530D01*
X124762858Y-115218242D01*
X124919925Y-115187000D01*
X125080075Y-115187000D01*
X125237142Y-115218242D01*
X125237142Y-115218242D01*
G37*
G36*
X127237142Y-115218242D02*
X127385102Y-115279530D01*
X127518258Y-115368502D01*
X127631498Y-115481742D01*
X127720470Y-115614898D01*
X127781758Y-115762858D01*
X127813000Y-115919925D01*
X127813000Y-116080075D01*
X127781758Y-116237142D01*
X127720470Y-116385102D01*
X127631498Y-116518258D01*
X127518258Y-116631498D01*
X127385102Y-116720470D01*
X127237142Y-116781758D01*
X127080075Y-116813000D01*
X126919925Y-116813000D01*
X126762858Y-116781758D01*
X126614898Y-116720470D01*
X126481742Y-116631498D01*
X126368502Y-116518258D01*
X126279530Y-116385102D01*
X126218242Y-116237142D01*
X126187000Y-116080075D01*
X126187000Y-115919925D01*
X126218242Y-115762858D01*
X126279530Y-115614898D01*
X126368502Y-115481742D01*
X126481742Y-115368502D01*
X126614898Y-115279530D01*
X126762858Y-115218242D01*
X126919925Y-115187000D01*
X127080075Y-115187000D01*
X127237142Y-115218242D01*
X127237142Y-115218242D01*
G37*
G36*
X112861000Y-115891000D02*
X110759000Y-115891000D01*
X110759000Y-114589000D01*
X112861000Y-114589000D01*
X112861000Y-115891000D01*
X112861000Y-115891000D01*
G37*
G36*
X89281000Y-115891000D02*
X87179000Y-115891000D01*
X87179000Y-114589000D01*
X89281000Y-114589000D01*
X89281000Y-115891000D01*
X89281000Y-115891000D01*
G37*
G36*
X95081000Y-115891000D02*
X92979000Y-115891000D01*
X92979000Y-114589000D01*
X95081000Y-114589000D01*
X95081000Y-115891000D01*
X95081000Y-115891000D01*
G37*
G36*
X107061000Y-115891000D02*
X104959000Y-115891000D01*
X104959000Y-114589000D01*
X107061000Y-114589000D01*
X107061000Y-115891000D01*
X107061000Y-115891000D01*
G37*
G36*
X95041000Y-113351000D02*
X92939000Y-113351000D01*
X92939000Y-112049000D01*
X95041000Y-112049000D01*
X95041000Y-113351000D01*
X95041000Y-113351000D01*
G37*
G36*
X107021000Y-113351000D02*
X104919000Y-113351000D01*
X104919000Y-112049000D01*
X107021000Y-112049000D01*
X107021000Y-113351000D01*
X107021000Y-113351000D01*
G37*
G36*
X89241000Y-113351000D02*
X87139000Y-113351000D01*
X87139000Y-112049000D01*
X89241000Y-112049000D01*
X89241000Y-113351000D01*
X89241000Y-113351000D01*
G37*
G36*
X112821000Y-113351000D02*
X110719000Y-113351000D01*
X110719000Y-112049000D01*
X112821000Y-112049000D01*
X112821000Y-113351000D01*
X112821000Y-113351000D01*
G37*
G36*
X112861000Y-110811000D02*
X110759000Y-110811000D01*
X110759000Y-109509000D01*
X112861000Y-109509000D01*
X112861000Y-110811000D01*
X112861000Y-110811000D01*
G37*
G36*
X107061000Y-110811000D02*
X104959000Y-110811000D01*
X104959000Y-109509000D01*
X107061000Y-109509000D01*
X107061000Y-110811000D01*
X107061000Y-110811000D01*
G37*
G36*
X95081000Y-110811000D02*
X92979000Y-110811000D01*
X92979000Y-109509000D01*
X95081000Y-109509000D01*
X95081000Y-110811000D01*
X95081000Y-110811000D01*
G37*
G36*
X89281000Y-110811000D02*
X87179000Y-110811000D01*
X87179000Y-109509000D01*
X89281000Y-109509000D01*
X89281000Y-110811000D01*
X89281000Y-110811000D01*
G37*
G36*
X107021000Y-108271000D02*
X104919000Y-108271000D01*
X104919000Y-106969000D01*
X107021000Y-106969000D01*
X107021000Y-108271000D01*
X107021000Y-108271000D01*
G37*
G36*
X112821000Y-108271000D02*
X110719000Y-108271000D01*
X110719000Y-106969000D01*
X112821000Y-106969000D01*
X112821000Y-108271000D01*
X112821000Y-108271000D01*
G37*
G36*
X95041000Y-108271000D02*
X92939000Y-108271000D01*
X92939000Y-106969000D01*
X95041000Y-106969000D01*
X95041000Y-108271000D01*
X95041000Y-108271000D01*
G37*
G36*
X89241000Y-108271000D02*
X87139000Y-108271000D01*
X87139000Y-106969000D01*
X89241000Y-106969000D01*
X89241000Y-108271000D01*
X89241000Y-108271000D01*
G37*
G36*
X79237142Y-105218242D02*
X79385102Y-105279530D01*
X79518258Y-105368502D01*
X79631498Y-105481742D01*
X79720470Y-105614898D01*
X79781758Y-105762858D01*
X79813000Y-105919925D01*
X79813000Y-106080075D01*
X79781758Y-106237142D01*
X79720470Y-106385102D01*
X79631498Y-106518258D01*
X79518258Y-106631498D01*
X79385102Y-106720470D01*
X79237142Y-106781758D01*
X79080075Y-106813000D01*
X78919925Y-106813000D01*
X78762858Y-106781758D01*
X78614898Y-106720470D01*
X78481742Y-106631498D01*
X78368502Y-106518258D01*
X78279530Y-106385102D01*
X78218242Y-106237142D01*
X78187000Y-106080075D01*
X78187000Y-105919925D01*
X78218242Y-105762858D01*
X78279530Y-105614898D01*
X78368502Y-105481742D01*
X78481742Y-105368502D01*
X78614898Y-105279530D01*
X78762858Y-105218242D01*
X78919925Y-105187000D01*
X79080075Y-105187000D01*
X79237142Y-105218242D01*
X79237142Y-105218242D01*
G37*
G36*
X75237142Y-105218242D02*
X75385102Y-105279530D01*
X75518258Y-105368502D01*
X75631498Y-105481742D01*
X75720470Y-105614898D01*
X75781758Y-105762858D01*
X75813000Y-105919925D01*
X75813000Y-106080075D01*
X75781758Y-106237142D01*
X75720470Y-106385102D01*
X75631498Y-106518258D01*
X75518258Y-106631498D01*
X75385102Y-106720470D01*
X75237142Y-106781758D01*
X75080075Y-106813000D01*
X74919925Y-106813000D01*
X74762858Y-106781758D01*
X74614898Y-106720470D01*
X74481742Y-106631498D01*
X74368502Y-106518258D01*
X74279530Y-106385102D01*
X74218242Y-106237142D01*
X74187000Y-106080075D01*
X74187000Y-105919925D01*
X74218242Y-105762858D01*
X74279530Y-105614898D01*
X74368502Y-105481742D01*
X74481742Y-105368502D01*
X74614898Y-105279530D01*
X74762858Y-105218242D01*
X74919925Y-105187000D01*
X75080075Y-105187000D01*
X75237142Y-105218242D01*
X75237142Y-105218242D01*
G37*
G36*
X77237142Y-105218242D02*
X77385102Y-105279530D01*
X77518258Y-105368502D01*
X77631498Y-105481742D01*
X77720470Y-105614898D01*
X77781758Y-105762858D01*
X77813000Y-105919925D01*
X77813000Y-106080075D01*
X77781758Y-106237142D01*
X77720470Y-106385102D01*
X77631498Y-106518258D01*
X77518258Y-106631498D01*
X77385102Y-106720470D01*
X77237142Y-106781758D01*
X77080075Y-106813000D01*
X76919925Y-106813000D01*
X76762858Y-106781758D01*
X76614898Y-106720470D01*
X76481742Y-106631498D01*
X76368502Y-106518258D01*
X76279530Y-106385102D01*
X76218242Y-106237142D01*
X76187000Y-106080075D01*
X76187000Y-105919925D01*
X76218242Y-105762858D01*
X76279530Y-105614898D01*
X76368502Y-105481742D01*
X76481742Y-105368502D01*
X76614898Y-105279530D01*
X76762858Y-105218242D01*
X76919925Y-105187000D01*
X77080075Y-105187000D01*
X77237142Y-105218242D01*
X77237142Y-105218242D01*
G37*
G36*
X127237142Y-105218242D02*
X127385102Y-105279530D01*
X127518258Y-105368502D01*
X127631498Y-105481742D01*
X127720470Y-105614898D01*
X127781758Y-105762858D01*
X127813000Y-105919925D01*
X127813000Y-106080075D01*
X127781758Y-106237142D01*
X127720470Y-106385102D01*
X127631498Y-106518258D01*
X127518258Y-106631498D01*
X127385102Y-106720470D01*
X127237142Y-106781758D01*
X127080075Y-106813000D01*
X126919925Y-106813000D01*
X126762858Y-106781758D01*
X126614898Y-106720470D01*
X126481742Y-106631498D01*
X126368502Y-106518258D01*
X126279530Y-106385102D01*
X126218242Y-106237142D01*
X126187000Y-106080075D01*
X126187000Y-105919925D01*
X126218242Y-105762858D01*
X126279530Y-105614898D01*
X126368502Y-105481742D01*
X126481742Y-105368502D01*
X126614898Y-105279530D01*
X126762858Y-105218242D01*
X126919925Y-105187000D01*
X127080075Y-105187000D01*
X127237142Y-105218242D01*
X127237142Y-105218242D01*
G37*
G36*
X125237142Y-105218242D02*
X125385102Y-105279530D01*
X125518258Y-105368502D01*
X125631498Y-105481742D01*
X125720470Y-105614898D01*
X125781758Y-105762858D01*
X125813000Y-105919925D01*
X125813000Y-106080075D01*
X125781758Y-106237142D01*
X125720470Y-106385102D01*
X125631498Y-106518258D01*
X125518258Y-106631498D01*
X125385102Y-106720470D01*
X125237142Y-106781758D01*
X125080075Y-106813000D01*
X124919925Y-106813000D01*
X124762858Y-106781758D01*
X124614898Y-106720470D01*
X124481742Y-106631498D01*
X124368502Y-106518258D01*
X124279530Y-106385102D01*
X124218242Y-106237142D01*
X124187000Y-106080075D01*
X124187000Y-105919925D01*
X124218242Y-105762858D01*
X124279530Y-105614898D01*
X124368502Y-105481742D01*
X124481742Y-105368502D01*
X124614898Y-105279530D01*
X124762858Y-105218242D01*
X124919925Y-105187000D01*
X125080075Y-105187000D01*
X125237142Y-105218242D01*
X125237142Y-105218242D01*
G37*
G36*
X123237142Y-105218242D02*
X123385102Y-105279530D01*
X123518258Y-105368502D01*
X123631498Y-105481742D01*
X123720470Y-105614898D01*
X123781758Y-105762858D01*
X123813000Y-105919925D01*
X123813000Y-106080075D01*
X123781758Y-106237142D01*
X123720470Y-106385102D01*
X123631498Y-106518258D01*
X123518258Y-106631498D01*
X123385102Y-106720470D01*
X123237142Y-106781758D01*
X123080075Y-106813000D01*
X122919925Y-106813000D01*
X122762858Y-106781758D01*
X122614898Y-106720470D01*
X122481742Y-106631498D01*
X122368502Y-106518258D01*
X122279530Y-106385102D01*
X122218242Y-106237142D01*
X122187000Y-106080075D01*
X122187000Y-105919925D01*
X122218242Y-105762858D01*
X122279530Y-105614898D01*
X122368502Y-105481742D01*
X122481742Y-105368502D01*
X122614898Y-105279530D01*
X122762858Y-105218242D01*
X122919925Y-105187000D01*
X123080075Y-105187000D01*
X123237142Y-105218242D01*
X123237142Y-105218242D01*
G37*
G36*
X121813000Y-106813000D02*
X120187000Y-106813000D01*
X120187000Y-105187000D01*
X121813000Y-105187000D01*
X121813000Y-106813000D01*
X121813000Y-106813000D01*
G37*
G36*
X73813000Y-106813000D02*
X72187000Y-106813000D01*
X72187000Y-105187000D01*
X73813000Y-105187000D01*
X73813000Y-106813000D01*
X73813000Y-106813000D01*
G37*
G36*
X112861000Y-105731000D02*
X110759000Y-105731000D01*
X110759000Y-104429000D01*
X112861000Y-104429000D01*
X112861000Y-105731000D01*
X112861000Y-105731000D01*
G37*
G36*
X107061000Y-105731000D02*
X104959000Y-105731000D01*
X104959000Y-104429000D01*
X107061000Y-104429000D01*
X107061000Y-105731000D01*
X107061000Y-105731000D01*
G37*
G36*
X95081000Y-105731000D02*
X92979000Y-105731000D01*
X92979000Y-104429000D01*
X95081000Y-104429000D01*
X95081000Y-105731000D01*
X95081000Y-105731000D01*
G37*
G36*
X89281000Y-105731000D02*
X87179000Y-105731000D01*
X87179000Y-104429000D01*
X89281000Y-104429000D01*
X89281000Y-105731000D01*
X89281000Y-105731000D01*
G37*
G36*
X107021000Y-103191000D02*
X104919000Y-103191000D01*
X104919000Y-101889000D01*
X107021000Y-101889000D01*
X107021000Y-103191000D01*
X107021000Y-103191000D01*
G37*
G36*
X95041000Y-103191000D02*
X92939000Y-103191000D01*
X92939000Y-101889000D01*
X95041000Y-101889000D01*
X95041000Y-103191000D01*
X95041000Y-103191000D01*
G37*
G36*
X112821000Y-103191000D02*
X110719000Y-103191000D01*
X110719000Y-101889000D01*
X112821000Y-101889000D01*
X112821000Y-103191000D01*
X112821000Y-103191000D01*
G37*
G36*
X89241000Y-103191000D02*
X87139000Y-103191000D01*
X87139000Y-101889000D01*
X89241000Y-101889000D01*
X89241000Y-103191000D01*
X89241000Y-103191000D01*
G37*
G36*
X89281000Y-100651000D02*
X87179000Y-100651000D01*
X87179000Y-99349000D01*
X89281000Y-99349000D01*
X89281000Y-100651000D01*
X89281000Y-100651000D01*
G37*
G36*
X112861000Y-100651000D02*
X110759000Y-100651000D01*
X110759000Y-99349000D01*
X112861000Y-99349000D01*
X112861000Y-100651000D01*
X112861000Y-100651000D01*
G37*
G36*
X95081000Y-100651000D02*
X92979000Y-100651000D01*
X92979000Y-99349000D01*
X95081000Y-99349000D01*
X95081000Y-100651000D01*
X95081000Y-100651000D01*
G37*
G36*
X107061000Y-100651000D02*
X104959000Y-100651000D01*
X104959000Y-99349000D01*
X107061000Y-99349000D01*
X107061000Y-100651000D01*
X107061000Y-100651000D01*
G37*
G36*
X95041000Y-98111000D02*
X92939000Y-98111000D01*
X92939000Y-96809000D01*
X95041000Y-96809000D01*
X95041000Y-98111000D01*
X95041000Y-98111000D01*
G37*
G36*
X89241000Y-98111000D02*
X87139000Y-98111000D01*
X87139000Y-96809000D01*
X89241000Y-96809000D01*
X89241000Y-98111000D01*
X89241000Y-98111000D01*
G37*
G36*
X112821000Y-98111000D02*
X110719000Y-98111000D01*
X110719000Y-96809000D01*
X112821000Y-96809000D01*
X112821000Y-98111000D01*
X112821000Y-98111000D01*
G37*
G36*
X107021000Y-98111000D02*
X104919000Y-98111000D01*
X104919000Y-96809000D01*
X107021000Y-96809000D01*
X107021000Y-98111000D01*
X107021000Y-98111000D01*
G37*
G36*
X127237142Y-95218242D02*
X127385102Y-95279530D01*
X127518258Y-95368502D01*
X127631498Y-95481742D01*
X127720470Y-95614898D01*
X127781758Y-95762858D01*
X127813000Y-95919925D01*
X127813000Y-96080075D01*
X127781758Y-96237142D01*
X127720470Y-96385102D01*
X127631498Y-96518258D01*
X127518258Y-96631498D01*
X127385102Y-96720470D01*
X127237142Y-96781758D01*
X127080075Y-96813000D01*
X126919925Y-96813000D01*
X126762858Y-96781758D01*
X126614898Y-96720470D01*
X126481742Y-96631498D01*
X126368502Y-96518258D01*
X126279530Y-96385102D01*
X126218242Y-96237142D01*
X126187000Y-96080075D01*
X126187000Y-95919925D01*
X126218242Y-95762858D01*
X126279530Y-95614898D01*
X126368502Y-95481742D01*
X126481742Y-95368502D01*
X126614898Y-95279530D01*
X126762858Y-95218242D01*
X126919925Y-95187000D01*
X127080075Y-95187000D01*
X127237142Y-95218242D01*
X127237142Y-95218242D01*
G37*
G36*
X125237142Y-95218242D02*
X125385102Y-95279530D01*
X125518258Y-95368502D01*
X125631498Y-95481742D01*
X125720470Y-95614898D01*
X125781758Y-95762858D01*
X125813000Y-95919925D01*
X125813000Y-96080075D01*
X125781758Y-96237142D01*
X125720470Y-96385102D01*
X125631498Y-96518258D01*
X125518258Y-96631498D01*
X125385102Y-96720470D01*
X125237142Y-96781758D01*
X125080075Y-96813000D01*
X124919925Y-96813000D01*
X124762858Y-96781758D01*
X124614898Y-96720470D01*
X124481742Y-96631498D01*
X124368502Y-96518258D01*
X124279530Y-96385102D01*
X124218242Y-96237142D01*
X124187000Y-96080075D01*
X124187000Y-95919925D01*
X124218242Y-95762858D01*
X124279530Y-95614898D01*
X124368502Y-95481742D01*
X124481742Y-95368502D01*
X124614898Y-95279530D01*
X124762858Y-95218242D01*
X124919925Y-95187000D01*
X125080075Y-95187000D01*
X125237142Y-95218242D01*
X125237142Y-95218242D01*
G37*
G36*
X121813000Y-96813000D02*
X120187000Y-96813000D01*
X120187000Y-95187000D01*
X121813000Y-95187000D01*
X121813000Y-96813000D01*
X121813000Y-96813000D01*
G37*
G36*
X123237142Y-95218242D02*
X123385102Y-95279530D01*
X123518258Y-95368502D01*
X123631498Y-95481742D01*
X123720470Y-95614898D01*
X123781758Y-95762858D01*
X123813000Y-95919925D01*
X123813000Y-96080075D01*
X123781758Y-96237142D01*
X123720470Y-96385102D01*
X123631498Y-96518258D01*
X123518258Y-96631498D01*
X123385102Y-96720470D01*
X123237142Y-96781758D01*
X123080075Y-96813000D01*
X122919925Y-96813000D01*
X122762858Y-96781758D01*
X122614898Y-96720470D01*
X122481742Y-96631498D01*
X122368502Y-96518258D01*
X122279530Y-96385102D01*
X122218242Y-96237142D01*
X122187000Y-96080075D01*
X122187000Y-95919925D01*
X122218242Y-95762858D01*
X122279530Y-95614898D01*
X122368502Y-95481742D01*
X122481742Y-95368502D01*
X122614898Y-95279530D01*
X122762858Y-95218242D01*
X122919925Y-95187000D01*
X123080075Y-95187000D01*
X123237142Y-95218242D01*
X123237142Y-95218242D01*
G37*
G36*
X79237142Y-95218242D02*
X79385102Y-95279530D01*
X79518258Y-95368502D01*
X79631498Y-95481742D01*
X79720470Y-95614898D01*
X79781758Y-95762858D01*
X79813000Y-95919925D01*
X79813000Y-96080075D01*
X79781758Y-96237142D01*
X79720470Y-96385102D01*
X79631498Y-96518258D01*
X79518258Y-96631498D01*
X79385102Y-96720470D01*
X79237142Y-96781758D01*
X79080075Y-96813000D01*
X78919925Y-96813000D01*
X78762858Y-96781758D01*
X78614898Y-96720470D01*
X78481742Y-96631498D01*
X78368502Y-96518258D01*
X78279530Y-96385102D01*
X78218242Y-96237142D01*
X78187000Y-96080075D01*
X78187000Y-95919925D01*
X78218242Y-95762858D01*
X78279530Y-95614898D01*
X78368502Y-95481742D01*
X78481742Y-95368502D01*
X78614898Y-95279530D01*
X78762858Y-95218242D01*
X78919925Y-95187000D01*
X79080075Y-95187000D01*
X79237142Y-95218242D01*
X79237142Y-95218242D01*
G37*
G36*
X77237142Y-95218242D02*
X77385102Y-95279530D01*
X77518258Y-95368502D01*
X77631498Y-95481742D01*
X77720470Y-95614898D01*
X77781758Y-95762858D01*
X77813000Y-95919925D01*
X77813000Y-96080075D01*
X77781758Y-96237142D01*
X77720470Y-96385102D01*
X77631498Y-96518258D01*
X77518258Y-96631498D01*
X77385102Y-96720470D01*
X77237142Y-96781758D01*
X77080075Y-96813000D01*
X76919925Y-96813000D01*
X76762858Y-96781758D01*
X76614898Y-96720470D01*
X76481742Y-96631498D01*
X76368502Y-96518258D01*
X76279530Y-96385102D01*
X76218242Y-96237142D01*
X76187000Y-96080075D01*
X76187000Y-95919925D01*
X76218242Y-95762858D01*
X76279530Y-95614898D01*
X76368502Y-95481742D01*
X76481742Y-95368502D01*
X76614898Y-95279530D01*
X76762858Y-95218242D01*
X76919925Y-95187000D01*
X77080075Y-95187000D01*
X77237142Y-95218242D01*
X77237142Y-95218242D01*
G37*
G36*
X73813000Y-96813000D02*
X72187000Y-96813000D01*
X72187000Y-95187000D01*
X73813000Y-95187000D01*
X73813000Y-96813000D01*
X73813000Y-96813000D01*
G37*
G36*
X75237142Y-95218242D02*
X75385102Y-95279530D01*
X75518258Y-95368502D01*
X75631498Y-95481742D01*
X75720470Y-95614898D01*
X75781758Y-95762858D01*
X75813000Y-95919925D01*
X75813000Y-96080075D01*
X75781758Y-96237142D01*
X75720470Y-96385102D01*
X75631498Y-96518258D01*
X75518258Y-96631498D01*
X75385102Y-96720470D01*
X75237142Y-96781758D01*
X75080075Y-96813000D01*
X74919925Y-96813000D01*
X74762858Y-96781758D01*
X74614898Y-96720470D01*
X74481742Y-96631498D01*
X74368502Y-96518258D01*
X74279530Y-96385102D01*
X74218242Y-96237142D01*
X74187000Y-96080075D01*
X74187000Y-95919925D01*
X74218242Y-95762858D01*
X74279530Y-95614898D01*
X74368502Y-95481742D01*
X74481742Y-95368502D01*
X74614898Y-95279530D01*
X74762858Y-95218242D01*
X74919925Y-95187000D01*
X75080075Y-95187000D01*
X75237142Y-95218242D01*
X75237142Y-95218242D01*
G37*
G36*
X107061000Y-95571000D02*
X104959000Y-95571000D01*
X104959000Y-94269000D01*
X107061000Y-94269000D01*
X107061000Y-95571000D01*
X107061000Y-95571000D01*
G37*
G36*
X112861000Y-95571000D02*
X110759000Y-95571000D01*
X110759000Y-94269000D01*
X112861000Y-94269000D01*
X112861000Y-95571000D01*
X112861000Y-95571000D01*
G37*
G36*
X89281000Y-95571000D02*
X87179000Y-95571000D01*
X87179000Y-94269000D01*
X89281000Y-94269000D01*
X89281000Y-95571000D01*
X89281000Y-95571000D01*
G37*
G36*
X95081000Y-95571000D02*
X92979000Y-95571000D01*
X92979000Y-94269000D01*
X95081000Y-94269000D01*
X95081000Y-95571000D01*
X95081000Y-95571000D01*
G37*
G36*
X95041000Y-93031000D02*
X92939000Y-93031000D01*
X92939000Y-91729000D01*
X95041000Y-91729000D01*
X95041000Y-93031000D01*
X95041000Y-93031000D01*
G37*
G36*
X89241000Y-93031000D02*
X87139000Y-93031000D01*
X87139000Y-91729000D01*
X89241000Y-91729000D01*
X89241000Y-93031000D01*
X89241000Y-93031000D01*
G37*
G36*
X107021000Y-93031000D02*
X104919000Y-93031000D01*
X104919000Y-91729000D01*
X107021000Y-91729000D01*
X107021000Y-93031000D01*
X107021000Y-93031000D01*
G37*
G36*
X112821000Y-93031000D02*
X110719000Y-93031000D01*
X110719000Y-91729000D01*
X112821000Y-91729000D01*
X112821000Y-93031000D01*
X112821000Y-93031000D01*
G37*
G36*
X95081000Y-90491000D02*
X92979000Y-90491000D01*
X92979000Y-89189000D01*
X95081000Y-89189000D01*
X95081000Y-90491000D01*
X95081000Y-90491000D01*
G37*
G36*
X112861000Y-90491000D02*
X110759000Y-90491000D01*
X110759000Y-89189000D01*
X112861000Y-89189000D01*
X112861000Y-90491000D01*
X112861000Y-90491000D01*
G37*
G36*
X89281000Y-90491000D02*
X87179000Y-90491000D01*
X87179000Y-89189000D01*
X89281000Y-89189000D01*
X89281000Y-90491000D01*
X89281000Y-90491000D01*
G37*
G36*
X107061000Y-90491000D02*
X104959000Y-90491000D01*
X104959000Y-89189000D01*
X107061000Y-89189000D01*
X107061000Y-90491000D01*
X107061000Y-90491000D01*
G37*
G36*
X89241000Y-87951000D02*
X87139000Y-87951000D01*
X87139000Y-86649000D01*
X89241000Y-86649000D01*
X89241000Y-87951000D01*
X89241000Y-87951000D01*
G37*
G36*
X112821000Y-87951000D02*
X110719000Y-87951000D01*
X110719000Y-86649000D01*
X112821000Y-86649000D01*
X112821000Y-87951000D01*
X112821000Y-87951000D01*
G37*
G36*
X107021000Y-87951000D02*
X104919000Y-87951000D01*
X104919000Y-86649000D01*
X107021000Y-86649000D01*
X107021000Y-87951000D01*
X107021000Y-87951000D01*
G37*
G36*
X95041000Y-87951000D02*
X92939000Y-87951000D01*
X92939000Y-86649000D01*
X95041000Y-86649000D01*
X95041000Y-87951000D01*
X95041000Y-87951000D01*
G37*
G36*
X121813000Y-86813000D02*
X120187000Y-86813000D01*
X120187000Y-85187000D01*
X121813000Y-85187000D01*
X121813000Y-86813000D01*
X121813000Y-86813000D01*
G37*
G36*
X123237142Y-85218242D02*
X123385102Y-85279530D01*
X123518258Y-85368502D01*
X123631498Y-85481742D01*
X123720470Y-85614898D01*
X123781758Y-85762858D01*
X123813000Y-85919925D01*
X123813000Y-86080075D01*
X123781758Y-86237142D01*
X123734354Y-86351583D01*
X123720471Y-86385100D01*
X123631499Y-86518257D01*
X123518257Y-86631499D01*
X123452130Y-86675683D01*
X123385102Y-86720470D01*
X123237142Y-86781758D01*
X123080075Y-86813000D01*
X122919925Y-86813000D01*
X122762858Y-86781758D01*
X122614898Y-86720470D01*
X122547870Y-86675683D01*
X122481743Y-86631499D01*
X122368501Y-86518257D01*
X122279529Y-86385100D01*
X122265646Y-86351583D01*
X122218242Y-86237142D01*
X122187000Y-86080075D01*
X122187000Y-85919925D01*
X122218242Y-85762858D01*
X122279530Y-85614898D01*
X122368502Y-85481742D01*
X122481742Y-85368502D01*
X122614898Y-85279530D01*
X122762858Y-85218242D01*
X122919925Y-85187000D01*
X123080075Y-85187000D01*
X123237142Y-85218242D01*
X123237142Y-85218242D01*
G37*
G36*
X125237142Y-85218242D02*
X125385102Y-85279530D01*
X125518258Y-85368502D01*
X125631498Y-85481742D01*
X125720470Y-85614898D01*
X125781758Y-85762858D01*
X125813000Y-85919925D01*
X125813000Y-86080075D01*
X125781758Y-86237142D01*
X125734354Y-86351583D01*
X125720471Y-86385100D01*
X125631499Y-86518257D01*
X125518257Y-86631499D01*
X125452130Y-86675683D01*
X125385102Y-86720470D01*
X125237142Y-86781758D01*
X125080075Y-86813000D01*
X124919925Y-86813000D01*
X124762858Y-86781758D01*
X124614898Y-86720470D01*
X124547870Y-86675683D01*
X124481743Y-86631499D01*
X124368501Y-86518257D01*
X124279529Y-86385100D01*
X124265646Y-86351583D01*
X124218242Y-86237142D01*
X124187000Y-86080075D01*
X124187000Y-85919925D01*
X124218242Y-85762858D01*
X124279530Y-85614898D01*
X124368502Y-85481742D01*
X124481742Y-85368502D01*
X124614898Y-85279530D01*
X124762858Y-85218242D01*
X124919925Y-85187000D01*
X125080075Y-85187000D01*
X125237142Y-85218242D01*
X125237142Y-85218242D01*
G37*
G36*
X75237142Y-85218242D02*
X75385102Y-85279530D01*
X75518258Y-85368502D01*
X75631498Y-85481742D01*
X75720470Y-85614898D01*
X75781758Y-85762858D01*
X75813000Y-85919925D01*
X75813000Y-86080075D01*
X75781758Y-86237142D01*
X75734354Y-86351583D01*
X75720471Y-86385100D01*
X75631499Y-86518257D01*
X75518257Y-86631499D01*
X75452130Y-86675683D01*
X75385102Y-86720470D01*
X75237142Y-86781758D01*
X75080075Y-86813000D01*
X74919925Y-86813000D01*
X74762858Y-86781758D01*
X74614898Y-86720470D01*
X74547870Y-86675683D01*
X74481743Y-86631499D01*
X74368501Y-86518257D01*
X74279529Y-86385100D01*
X74265646Y-86351583D01*
X74218242Y-86237142D01*
X74187000Y-86080075D01*
X74187000Y-85919925D01*
X74218242Y-85762858D01*
X74279530Y-85614898D01*
X74368502Y-85481742D01*
X74481742Y-85368502D01*
X74614898Y-85279530D01*
X74762858Y-85218242D01*
X74919925Y-85187000D01*
X75080075Y-85187000D01*
X75237142Y-85218242D01*
X75237142Y-85218242D01*
G37*
G36*
X127237142Y-85218242D02*
X127385102Y-85279530D01*
X127518258Y-85368502D01*
X127631498Y-85481742D01*
X127720470Y-85614898D01*
X127781758Y-85762858D01*
X127813000Y-85919925D01*
X127813000Y-86080075D01*
X127781758Y-86237142D01*
X127734354Y-86351583D01*
X127720471Y-86385100D01*
X127631499Y-86518257D01*
X127518257Y-86631499D01*
X127452130Y-86675683D01*
X127385102Y-86720470D01*
X127237142Y-86781758D01*
X127080075Y-86813000D01*
X126919925Y-86813000D01*
X126762858Y-86781758D01*
X126614898Y-86720470D01*
X126547870Y-86675683D01*
X126481743Y-86631499D01*
X126368501Y-86518257D01*
X126279529Y-86385100D01*
X126265646Y-86351583D01*
X126218242Y-86237142D01*
X126187000Y-86080075D01*
X126187000Y-85919925D01*
X126218242Y-85762858D01*
X126279530Y-85614898D01*
X126368502Y-85481742D01*
X126481742Y-85368502D01*
X126614898Y-85279530D01*
X126762858Y-85218242D01*
X126919925Y-85187000D01*
X127080075Y-85187000D01*
X127237142Y-85218242D01*
X127237142Y-85218242D01*
G37*
G36*
X73813000Y-86813000D02*
X72187000Y-86813000D01*
X72187000Y-85187000D01*
X73813000Y-85187000D01*
X73813000Y-86813000D01*
X73813000Y-86813000D01*
G37*
G36*
X77237142Y-85218242D02*
X77385102Y-85279530D01*
X77518258Y-85368502D01*
X77631498Y-85481742D01*
X77720470Y-85614898D01*
X77781758Y-85762858D01*
X77813000Y-85919925D01*
X77813000Y-86080075D01*
X77781758Y-86237142D01*
X77734354Y-86351583D01*
X77720471Y-86385100D01*
X77631499Y-86518257D01*
X77518257Y-86631499D01*
X77452130Y-86675683D01*
X77385102Y-86720470D01*
X77237142Y-86781758D01*
X77080075Y-86813000D01*
X76919925Y-86813000D01*
X76762858Y-86781758D01*
X76614898Y-86720470D01*
X76547870Y-86675683D01*
X76481743Y-86631499D01*
X76368501Y-86518257D01*
X76279529Y-86385100D01*
X76265646Y-86351583D01*
X76218242Y-86237142D01*
X76187000Y-86080075D01*
X76187000Y-85919925D01*
X76218242Y-85762858D01*
X76279530Y-85614898D01*
X76368502Y-85481742D01*
X76481742Y-85368502D01*
X76614898Y-85279530D01*
X76762858Y-85218242D01*
X76919925Y-85187000D01*
X77080075Y-85187000D01*
X77237142Y-85218242D01*
X77237142Y-85218242D01*
G37*
G36*
X79237142Y-85218242D02*
X79385102Y-85279530D01*
X79518258Y-85368502D01*
X79631498Y-85481742D01*
X79720470Y-85614898D01*
X79781758Y-85762858D01*
X79813000Y-85919925D01*
X79813000Y-86080075D01*
X79781758Y-86237142D01*
X79734354Y-86351583D01*
X79720471Y-86385100D01*
X79631499Y-86518257D01*
X79518257Y-86631499D01*
X79452130Y-86675683D01*
X79385102Y-86720470D01*
X79237142Y-86781758D01*
X79080075Y-86813000D01*
X78919925Y-86813000D01*
X78762858Y-86781758D01*
X78614898Y-86720470D01*
X78547870Y-86675683D01*
X78481743Y-86631499D01*
X78368501Y-86518257D01*
X78279529Y-86385100D01*
X78265646Y-86351583D01*
X78218242Y-86237142D01*
X78187000Y-86080075D01*
X78187000Y-85919925D01*
X78218242Y-85762858D01*
X78279530Y-85614898D01*
X78368502Y-85481742D01*
X78481742Y-85368502D01*
X78614898Y-85279530D01*
X78762858Y-85218242D01*
X78919925Y-85187000D01*
X79080075Y-85187000D01*
X79237142Y-85218242D01*
X79237142Y-85218242D01*
G37*
G36*
X107061000Y-85411000D02*
X104959000Y-85411000D01*
X104959000Y-84109000D01*
X107061000Y-84109000D01*
X107061000Y-85411000D01*
X107061000Y-85411000D01*
G37*
G36*
X89281000Y-85411000D02*
X87179000Y-85411000D01*
X87179000Y-84109000D01*
X89281000Y-84109000D01*
X89281000Y-85411000D01*
X89281000Y-85411000D01*
G37*
G36*
X112861000Y-85411000D02*
X110759000Y-85411000D01*
X110759000Y-84109000D01*
X112861000Y-84109000D01*
X112861000Y-85411000D01*
X112861000Y-85411000D01*
G37*
G36*
X95081000Y-85411000D02*
X92979000Y-85411000D01*
X92979000Y-84109000D01*
X95081000Y-84109000D01*
X95081000Y-85411000D01*
X95081000Y-85411000D01*
G37*
G36*
X112821000Y-82871000D02*
X110719000Y-82871000D01*
X110719000Y-81569000D01*
X112821000Y-81569000D01*
X112821000Y-82871000D01*
X112821000Y-82871000D01*
G37*
G36*
X95041000Y-82871000D02*
X92939000Y-82871000D01*
X92939000Y-81569000D01*
X95041000Y-81569000D01*
X95041000Y-82871000D01*
X95041000Y-82871000D01*
G37*
G36*
X89241000Y-82871000D02*
X87139000Y-82871000D01*
X87139000Y-81569000D01*
X89241000Y-81569000D01*
X89241000Y-82871000D01*
X89241000Y-82871000D01*
G37*
G36*
X107021000Y-82871000D02*
X104919000Y-82871000D01*
X104919000Y-81569000D01*
X107021000Y-81569000D01*
X107021000Y-82871000D01*
X107021000Y-82871000D01*
G37*
G36*
X127375256Y-77391298D02*
X127481579Y-77412447D01*
X127782042Y-77536903D01*
X128048852Y-77715180D01*
X128052454Y-77717587D01*
X128282413Y-77947546D01*
X128282415Y-77947549D01*
X128463097Y-78217958D01*
X128587553Y-78518421D01*
X128608702Y-78624744D01*
X128651000Y-78837389D01*
X128651000Y-79162611D01*
X128612680Y-79355257D01*
X128588246Y-79478097D01*
X128587553Y-79481578D01*
X128463098Y-79782040D01*
X128282413Y-80052454D01*
X128052454Y-80282413D01*
X128052451Y-80282415D01*
X127782042Y-80463097D01*
X127481579Y-80587553D01*
X127375256Y-80608702D01*
X127162611Y-80651000D01*
X126837389Y-80651000D01*
X126624744Y-80608702D01*
X126518421Y-80587553D01*
X126217958Y-80463097D01*
X125947549Y-80282415D01*
X125947546Y-80282413D01*
X125717587Y-80052454D01*
X125536902Y-79782040D01*
X125412447Y-79481578D01*
X125411755Y-79478097D01*
X125387320Y-79355257D01*
X125349000Y-79162611D01*
X125349000Y-78837389D01*
X125391298Y-78624744D01*
X125412447Y-78518421D01*
X125536903Y-78217958D01*
X125717585Y-77947549D01*
X125717587Y-77947546D01*
X125947546Y-77717587D01*
X125951148Y-77715180D01*
X126217958Y-77536903D01*
X126518421Y-77412447D01*
X126624744Y-77391298D01*
X126837389Y-77349000D01*
X127162611Y-77349000D01*
X127375256Y-77391298D01*
X127375256Y-77391298D01*
G37*
G36*
X73375256Y-77391298D02*
X73481579Y-77412447D01*
X73782042Y-77536903D01*
X74048852Y-77715180D01*
X74052454Y-77717587D01*
X74282413Y-77947546D01*
X74282415Y-77947549D01*
X74463097Y-78217958D01*
X74587553Y-78518421D01*
X74608702Y-78624744D01*
X74651000Y-78837389D01*
X74651000Y-79162611D01*
X74612680Y-79355257D01*
X74588246Y-79478097D01*
X74587553Y-79481578D01*
X74463098Y-79782040D01*
X74282413Y-80052454D01*
X74052454Y-80282413D01*
X74052451Y-80282415D01*
X73782042Y-80463097D01*
X73481579Y-80587553D01*
X73375256Y-80608702D01*
X73162611Y-80651000D01*
X72837389Y-80651000D01*
X72624744Y-80608702D01*
X72518421Y-80587553D01*
X72217958Y-80463097D01*
X71947549Y-80282415D01*
X71947546Y-80282413D01*
X71717587Y-80052454D01*
X71536902Y-79782040D01*
X71412447Y-79481578D01*
X71411755Y-79478097D01*
X71387320Y-79355257D01*
X71349000Y-79162611D01*
X71349000Y-78837389D01*
X71391298Y-78624744D01*
X71412447Y-78518421D01*
X71536903Y-78217958D01*
X71717585Y-77947549D01*
X71717587Y-77947546D01*
X71947546Y-77717587D01*
X71951148Y-77715180D01*
X72217958Y-77536903D01*
X72518421Y-77412447D01*
X72624744Y-77391298D01*
X72837389Y-77349000D01*
X73162611Y-77349000D01*
X73375256Y-77391298D01*
X73375256Y-77391298D01*
G37*
G36*
X80146318Y-78264411D02*
X80218767Y-78278822D01*
X80275303Y-78302240D01*
X80355257Y-78335358D01*
X80478100Y-78417439D01*
X80582561Y-78521900D01*
X80664642Y-78644743D01*
X80697760Y-78724697D01*
X80721178Y-78781233D01*
X80750000Y-78926131D01*
X80750000Y-79073869D01*
X80732349Y-79162609D01*
X80721178Y-79218766D01*
X80664642Y-79355257D01*
X80582561Y-79478100D01*
X80478100Y-79582561D01*
X80355257Y-79664642D01*
X80275303Y-79697760D01*
X80218767Y-79721178D01*
X80146318Y-79735589D01*
X80073870Y-79750000D01*
X79926130Y-79750000D01*
X79853682Y-79735589D01*
X79781233Y-79721178D01*
X79724697Y-79697760D01*
X79644743Y-79664642D01*
X79521900Y-79582561D01*
X79417439Y-79478100D01*
X79335358Y-79355257D01*
X79278822Y-79218766D01*
X79267652Y-79162609D01*
X79250000Y-79073869D01*
X79250000Y-78926131D01*
X79278822Y-78781233D01*
X79302240Y-78724697D01*
X79335358Y-78644743D01*
X79417439Y-78521900D01*
X79521900Y-78417439D01*
X79644743Y-78335358D01*
X79724697Y-78302240D01*
X79781233Y-78278822D01*
X79853682Y-78264411D01*
X79926130Y-78250000D01*
X80073870Y-78250000D01*
X80146318Y-78264411D01*
X80146318Y-78264411D01*
G37*
M02*
