G04 #@! TF.GenerationSoftware,KiCad,Pcbnew,(5.0.1-3-g963ef8bb5)*
G04 #@! TF.CreationDate,2020-03-03T13:58:01+01:00*
G04 #@! TF.ProjectId,studIOTmega_v11,73747564494F546D6567615F7631312E,rev?*
G04 #@! TF.SameCoordinates,Original*
G04 #@! TF.FileFunction,Copper,L2,Bot,Signal*
G04 #@! TF.FilePolarity,Positive*
%FSLAX46Y46*%
G04 Gerber Fmt 4.6, Leading zero omitted, Abs format (unit mm)*
G04 Created by KiCad (PCBNEW (5.0.1-3-g963ef8bb5)) date 2020 March 03, Tuesday 13:58:01*
%MOMM*%
%LPD*%
G01*
G04 APERTURE LIST*
G04 #@! TA.AperFunction,ComponentPad*
%ADD10O,1.700000X1.700000*%
G04 #@! TD*
G04 #@! TA.AperFunction,ComponentPad*
%ADD11R,1.700000X1.700000*%
G04 #@! TD*
G04 #@! TA.AperFunction,ComponentPad*
%ADD12R,1.524000X1.524000*%
G04 #@! TD*
G04 #@! TA.AperFunction,ComponentPad*
%ADD13C,1.524000*%
G04 #@! TD*
G04 #@! TA.AperFunction,SMDPad,CuDef*
%ADD14C,0.500000*%
G04 #@! TD*
G04 #@! TA.AperFunction,Conductor*
%ADD15C,0.100000*%
G04 #@! TD*
G04 #@! TA.AperFunction,SMDPad,CuDef*
%ADD16R,1.000000X1.500000*%
G04 #@! TD*
G04 #@! TA.AperFunction,ViaPad*
%ADD17C,0.800000*%
G04 #@! TD*
G04 #@! TA.AperFunction,Conductor*
%ADD18C,0.500000*%
G04 #@! TD*
G04 #@! TA.AperFunction,Conductor*
%ADD19C,0.400000*%
G04 #@! TD*
G04 #@! TA.AperFunction,Conductor*
%ADD20C,0.250000*%
G04 #@! TD*
G04 #@! TA.AperFunction,Conductor*
%ADD21C,0.254000*%
G04 #@! TD*
G04 APERTURE END LIST*
D10*
G04 #@! TO.P,J13,3*
G04 #@! TO.N,GND*
X88080000Y-143200000D03*
G04 #@! TO.P,J13,2*
G04 #@! TO.N,Net-(J13-Pad2)*
X85540000Y-143200000D03*
D11*
G04 #@! TO.P,J13,1*
G04 #@! TO.N,VUSB*
X83000000Y-143200000D03*
G04 #@! TD*
D12*
G04 #@! TO.P,J05,1*
G04 #@! TO.N,RX*
X73000000Y-136000000D03*
D13*
G04 #@! TO.P,J05,2*
G04 #@! TO.N,TX*
X75000000Y-136000000D03*
G04 #@! TO.P,J05,3*
G04 #@! TO.N,3V3*
X77000000Y-136000000D03*
G04 #@! TO.P,J05,4*
G04 #@! TO.N,GND*
X79000000Y-136000000D03*
G04 #@! TD*
D12*
G04 #@! TO.P,J08,1*
G04 #@! TO.N,D4*
X121000000Y-116000000D03*
D13*
G04 #@! TO.P,J08,2*
G04 #@! TO.N,D5*
X123000000Y-116000000D03*
G04 #@! TO.P,J08,3*
G04 #@! TO.N,3V3*
X125000000Y-116000000D03*
G04 #@! TO.P,J08,4*
G04 #@! TO.N,GND*
X127000000Y-116000000D03*
G04 #@! TD*
D12*
G04 #@! TO.P,J00,1*
G04 #@! TO.N,A0*
X73000000Y-86000000D03*
D13*
G04 #@! TO.P,J00,2*
G04 #@! TO.N,A1*
X75000000Y-86000000D03*
G04 #@! TO.P,J00,3*
G04 #@! TO.N,3V3*
X77000000Y-86000000D03*
G04 #@! TO.P,J00,4*
G04 #@! TO.N,GND*
X79000000Y-86000000D03*
G04 #@! TD*
D12*
G04 #@! TO.P,J01,1*
G04 #@! TO.N,A2*
X73000000Y-96000000D03*
D13*
G04 #@! TO.P,J01,2*
G04 #@! TO.N,A3*
X75000000Y-96000000D03*
G04 #@! TO.P,J01,3*
G04 #@! TO.N,3V3*
X77000000Y-96000000D03*
G04 #@! TO.P,J01,4*
G04 #@! TO.N,GND*
X79000000Y-96000000D03*
G04 #@! TD*
D12*
G04 #@! TO.P,J02,1*
G04 #@! TO.N,A6*
X73000000Y-106000000D03*
D13*
G04 #@! TO.P,J02,2*
G04 #@! TO.N,A7*
X75000000Y-106000000D03*
G04 #@! TO.P,J02,3*
G04 #@! TO.N,3V3*
X77000000Y-106000000D03*
G04 #@! TO.P,J02,4*
G04 #@! TO.N,GND*
X79000000Y-106000000D03*
G04 #@! TD*
D12*
G04 #@! TO.P,J03,1*
G04 #@! TO.N,SCL*
X73000000Y-116000000D03*
D13*
G04 #@! TO.P,J03,2*
G04 #@! TO.N,SDA*
X75000000Y-116000000D03*
G04 #@! TO.P,J03,3*
G04 #@! TO.N,3V3*
X77000000Y-116000000D03*
G04 #@! TO.P,J03,4*
G04 #@! TO.N,GND*
X79000000Y-116000000D03*
G04 #@! TD*
D12*
G04 #@! TO.P,J04,1*
G04 #@! TO.N,SCL*
X73000000Y-126000000D03*
D13*
G04 #@! TO.P,J04,2*
G04 #@! TO.N,SDA*
X75000000Y-126000000D03*
G04 #@! TO.P,J04,3*
G04 #@! TO.N,3V3*
X77000000Y-126000000D03*
G04 #@! TO.P,J04,4*
G04 #@! TO.N,GND*
X79000000Y-126000000D03*
G04 #@! TD*
D12*
G04 #@! TO.P,J06,1*
G04 #@! TO.N,D2*
X121000000Y-136000000D03*
D13*
G04 #@! TO.P,J06,2*
G04 #@! TO.N,D3*
X123000000Y-136000000D03*
G04 #@! TO.P,J06,3*
G04 #@! TO.N,3V3*
X125000000Y-136000000D03*
G04 #@! TO.P,J06,4*
G04 #@! TO.N,GND*
X127000000Y-136000000D03*
G04 #@! TD*
D12*
G04 #@! TO.P,J07,1*
G04 #@! TO.N,D3*
X121000000Y-126000000D03*
D13*
G04 #@! TO.P,J07,2*
G04 #@! TO.N,D4*
X123000000Y-126000000D03*
G04 #@! TO.P,J07,3*
G04 #@! TO.N,3V3*
X125000000Y-126000000D03*
G04 #@! TO.P,J07,4*
G04 #@! TO.N,GND*
X127000000Y-126000000D03*
G04 #@! TD*
D12*
G04 #@! TO.P,J09,1*
G04 #@! TO.N,D5*
X121000000Y-106000000D03*
D13*
G04 #@! TO.P,J09,2*
G04 #@! TO.N,D6*
X123000000Y-106000000D03*
G04 #@! TO.P,J09,3*
G04 #@! TO.N,3V3*
X125000000Y-106000000D03*
G04 #@! TO.P,J09,4*
G04 #@! TO.N,GND*
X127000000Y-106000000D03*
G04 #@! TD*
D12*
G04 #@! TO.P,J10,1*
G04 #@! TO.N,D6*
X121000000Y-96000000D03*
D13*
G04 #@! TO.P,J10,2*
G04 #@! TO.N,D7*
X123000000Y-96000000D03*
G04 #@! TO.P,J10,3*
G04 #@! TO.N,3V3*
X125000000Y-96000000D03*
G04 #@! TO.P,J10,4*
G04 #@! TO.N,GND*
X127000000Y-96000000D03*
G04 #@! TD*
D12*
G04 #@! TO.P,J11,1*
G04 #@! TO.N,D7*
X121000000Y-86000000D03*
D13*
G04 #@! TO.P,J11,2*
G04 #@! TO.N,D8*
X123000000Y-86000000D03*
G04 #@! TO.P,J11,3*
G04 #@! TO.N,3V3*
X125000000Y-86000000D03*
G04 #@! TO.P,J11,4*
G04 #@! TO.N,GND*
X127000000Y-86000000D03*
G04 #@! TD*
D14*
G04 #@! TO.P,JP00,1*
G04 #@! TO.N,Net-(JP00-Pad1)*
X87300000Y-138000000D03*
D15*
G04 #@! TD*
G04 #@! TO.N,Net-(JP00-Pad1)*
G04 #@! TO.C,JP00*
G36*
X86750000Y-138300000D02*
X86400000Y-138300000D01*
X86400000Y-137700000D01*
X86750000Y-137700000D01*
X86750000Y-137250000D01*
X87300000Y-137250000D01*
X87300000Y-137250602D01*
X87324534Y-137250602D01*
X87373365Y-137255412D01*
X87421490Y-137264984D01*
X87468445Y-137279228D01*
X87513778Y-137298005D01*
X87557051Y-137321136D01*
X87597850Y-137348396D01*
X87635779Y-137379524D01*
X87670476Y-137414221D01*
X87701604Y-137452150D01*
X87728864Y-137492949D01*
X87751995Y-137536222D01*
X87770772Y-137581555D01*
X87785016Y-137628510D01*
X87794588Y-137676635D01*
X87799398Y-137725466D01*
X87799398Y-137750000D01*
X87800000Y-137750000D01*
X87800000Y-138250000D01*
X87799398Y-138250000D01*
X87799398Y-138274534D01*
X87794588Y-138323365D01*
X87785016Y-138371490D01*
X87770772Y-138418445D01*
X87751995Y-138463778D01*
X87728864Y-138507051D01*
X87701604Y-138547850D01*
X87670476Y-138585779D01*
X87635779Y-138620476D01*
X87597850Y-138651604D01*
X87557051Y-138678864D01*
X87513778Y-138701995D01*
X87468445Y-138720772D01*
X87421490Y-138735016D01*
X87373365Y-138744588D01*
X87324534Y-138749398D01*
X87300000Y-138749398D01*
X87300000Y-138750000D01*
X86750000Y-138750000D01*
X86750000Y-138300000D01*
X86750000Y-138300000D01*
G37*
D14*
G04 #@! TO.P,JP00,3*
G04 #@! TO.N,Net-(JP00-Pad3)*
X84700000Y-138000000D03*
D15*
G04 #@! TD*
G04 #@! TO.N,Net-(JP00-Pad3)*
G04 #@! TO.C,JP00*
G36*
X84700000Y-138749398D02*
X84675466Y-138749398D01*
X84626635Y-138744588D01*
X84578510Y-138735016D01*
X84531555Y-138720772D01*
X84486222Y-138701995D01*
X84442949Y-138678864D01*
X84402150Y-138651604D01*
X84364221Y-138620476D01*
X84329524Y-138585779D01*
X84298396Y-138547850D01*
X84271136Y-138507051D01*
X84248005Y-138463778D01*
X84229228Y-138418445D01*
X84214984Y-138371490D01*
X84205412Y-138323365D01*
X84200602Y-138274534D01*
X84200602Y-138250000D01*
X84200000Y-138250000D01*
X84200000Y-137750000D01*
X84200602Y-137750000D01*
X84200602Y-137725466D01*
X84205412Y-137676635D01*
X84214984Y-137628510D01*
X84229228Y-137581555D01*
X84248005Y-137536222D01*
X84271136Y-137492949D01*
X84298396Y-137452150D01*
X84329524Y-137414221D01*
X84364221Y-137379524D01*
X84402150Y-137348396D01*
X84442949Y-137321136D01*
X84486222Y-137298005D01*
X84531555Y-137279228D01*
X84578510Y-137264984D01*
X84626635Y-137255412D01*
X84675466Y-137250602D01*
X84700000Y-137250602D01*
X84700000Y-137250000D01*
X85250000Y-137250000D01*
X85250000Y-138750000D01*
X84700000Y-138750000D01*
X84700000Y-138749398D01*
X84700000Y-138749398D01*
G37*
D16*
G04 #@! TO.P,JP00,2*
G04 #@! TO.N,Net-(JP00-Pad2)*
X86000000Y-138000000D03*
G04 #@! TD*
D17*
G04 #@! TO.N,GND*
X91100000Y-115300000D03*
X78700000Y-141100000D03*
X120500000Y-141600000D03*
X102489000Y-114236500D03*
X102600000Y-88500000D03*
X102600000Y-91100000D03*
X82800000Y-90700000D03*
X106500000Y-130500000D03*
X93500000Y-123000000D03*
X85500000Y-126500000D03*
X85000000Y-130000000D03*
X94500000Y-127000000D03*
X99000000Y-131000000D03*
X113500000Y-130000000D03*
X116000000Y-127000000D03*
X94500000Y-136500000D03*
X102500000Y-136000000D03*
X102500000Y-137000000D03*
X102500000Y-138000000D03*
X102500000Y-139000000D03*
X106000000Y-143500000D03*
X73500000Y-130500000D03*
X72000000Y-122000000D03*
X122000000Y-133000000D03*
X121500000Y-120500000D03*
G04 #@! TO.N,3V3*
X86614000Y-83566000D03*
X124015500Y-128397000D03*
X90000000Y-125500000D03*
X111000000Y-126000000D03*
X111000000Y-132000000D03*
G04 #@! TO.N,SDA*
X83000000Y-100000000D03*
X83000000Y-111000000D03*
X91500000Y-125500000D03*
G04 #@! TO.N,SCL*
X82000000Y-102000000D03*
X82000000Y-110000000D03*
X91500000Y-124000000D03*
G04 #@! TO.N,RX*
X101500000Y-132500000D03*
G04 #@! TO.N,TX*
X102600000Y-126500000D03*
X101000000Y-126500000D03*
X100500000Y-133500000D03*
G04 #@! TO.N,D9*
X95000000Y-121000000D03*
X98125000Y-121000000D03*
G04 #@! TO.N,D11*
X98869500Y-86042500D03*
X95567500Y-86042500D03*
G04 #@! TO.N,D13*
X97973248Y-80973248D03*
X103300000Y-83200000D03*
G04 #@! TO.N,Net-(JP00-Pad1)*
X87500000Y-136500000D03*
G04 #@! TO.N,Net-(JP00-Pad3)*
X85000000Y-136500000D03*
G04 #@! TO.N,Net-(JP00-Pad2)*
X103500000Y-123000000D03*
X100500000Y-123000000D03*
X97500000Y-136000000D03*
G04 #@! TO.N,VUSB*
X108500000Y-121500000D03*
X84000000Y-119500000D03*
G04 #@! TO.N,ALRT*
X99000000Y-91500000D03*
X99000000Y-125500000D03*
X99000000Y-89000000D03*
X94500000Y-125000000D03*
G04 #@! TD*
D18*
G04 #@! TO.N,3V3*
X77800000Y-83800000D02*
X85400000Y-83800000D01*
X77000000Y-84600000D02*
X77800000Y-83800000D01*
X77000000Y-86000000D02*
X77000000Y-84600000D01*
X86380000Y-83800000D02*
X86614000Y-83566000D01*
X85400000Y-83800000D02*
X86380000Y-83800000D01*
D19*
X124015500Y-128397000D02*
X117600000Y-128400000D01*
X90500000Y-128400000D02*
X90500000Y-126000000D01*
X90500000Y-126000000D02*
X90000000Y-125500000D01*
X111000000Y-128400000D02*
X111000000Y-126000000D01*
X117600000Y-128400000D02*
X111000000Y-128400000D01*
X111000000Y-128400000D02*
X90500000Y-128400000D01*
X111000000Y-128400000D02*
X111000000Y-132000000D01*
X77000000Y-127400000D02*
X78000000Y-128400000D01*
X77000000Y-126000000D02*
X77000000Y-127400000D01*
X90500000Y-128400000D02*
X78000000Y-128400000D01*
D20*
G04 #@! TO.N,SDA*
X83000000Y-100000000D02*
X83000000Y-111000000D01*
X76225001Y-124774999D02*
X90774999Y-124774999D01*
X90774999Y-124774999D02*
X91500000Y-125500000D01*
X75000000Y-126000000D02*
X76225001Y-124774999D01*
G04 #@! TO.N,SCL*
X82000000Y-102000000D02*
X82000000Y-110000000D01*
X73663010Y-124324990D02*
X73000000Y-124988000D01*
X73000000Y-124988000D02*
X73000000Y-126000000D01*
X73988000Y-124000000D02*
X73000000Y-124988000D01*
X91500000Y-124000000D02*
X73988000Y-124000000D01*
G04 #@! TO.N,RX*
X76500000Y-132500000D02*
X73000000Y-136000000D01*
X101500000Y-132500000D02*
X76500000Y-132500000D01*
G04 #@! TO.N,TX*
X102600000Y-126500000D02*
X101000000Y-126500000D01*
X77500000Y-133500000D02*
X75000000Y-136000000D01*
X100500000Y-133500000D02*
X77500000Y-133500000D01*
G04 #@! TO.N,D9*
X95000000Y-121000000D02*
X98125000Y-121000000D01*
G04 #@! TO.N,D11*
X96133185Y-86042500D02*
X98869500Y-86042500D01*
X95567500Y-86042500D02*
X96133185Y-86042500D01*
G04 #@! TO.N,D13*
X100973248Y-80973248D02*
X101000000Y-81000000D01*
X97973248Y-80973248D02*
X100973248Y-80973248D01*
X101073248Y-80973248D02*
X103300000Y-83200000D01*
X100973248Y-80973248D02*
X101073248Y-80973248D01*
G04 #@! TO.N,Net-(JP00-Pad1)*
X87500000Y-137800000D02*
X87300000Y-138000000D01*
X87500000Y-136500000D02*
X87500000Y-137800000D01*
G04 #@! TO.N,Net-(JP00-Pad3)*
X84700000Y-136800000D02*
X85000000Y-136500000D01*
X84700000Y-138000000D02*
X84700000Y-136800000D01*
G04 #@! TO.N,Net-(JP00-Pad2)*
X103500000Y-123000000D02*
X100500000Y-123000000D01*
X96000000Y-134500000D02*
X97500000Y-136000000D01*
X88426998Y-134500000D02*
X96000000Y-134500000D01*
X86000000Y-136926998D02*
X88426998Y-134500000D01*
X86000000Y-138000000D02*
X86000000Y-136926998D01*
D19*
G04 #@! TO.N,VUSB*
X106500000Y-119500000D02*
X84000000Y-119500000D01*
X108500000Y-121500000D02*
X106500000Y-119500000D01*
D20*
G04 #@! TO.N,ALRT*
X99000000Y-89000000D02*
X99000000Y-91500000D01*
X94500000Y-125000000D02*
X95000000Y-125500000D01*
X95000000Y-125500000D02*
X95500000Y-125500000D01*
X95500000Y-125500000D02*
X99000000Y-125500000D01*
G04 #@! TD*
D21*
G04 #@! TO.N,GND*
G36*
X127214615Y-76765000D02*
X126555431Y-76765000D01*
X125733974Y-77105259D01*
X125105259Y-77733974D01*
X124765000Y-78555431D01*
X124765000Y-79444569D01*
X125105259Y-80266026D01*
X125733974Y-80894741D01*
X126555431Y-81235000D01*
X127444569Y-81235000D01*
X128266026Y-80894741D01*
X128894741Y-80266026D01*
X129235000Y-79444569D01*
X129235000Y-78696587D01*
X129265000Y-79032732D01*
X129265001Y-143957290D01*
X129235000Y-144214615D01*
X129235000Y-143555431D01*
X128894741Y-142733974D01*
X128266026Y-142105259D01*
X127444569Y-141765000D01*
X126555431Y-141765000D01*
X125733974Y-142105259D01*
X125105259Y-142733974D01*
X124765000Y-143555431D01*
X124765000Y-144444569D01*
X125105259Y-145266026D01*
X125733974Y-145894741D01*
X126555431Y-146235000D01*
X127303414Y-146235000D01*
X126967269Y-146265000D01*
X122613794Y-146265000D01*
X122519738Y-145950500D01*
X122477890Y-145859932D01*
X122437164Y-145768889D01*
X122432327Y-145761324D01*
X122123899Y-145285478D01*
X122058310Y-145210293D01*
X121993672Y-145134343D01*
X121986906Y-145128440D01*
X121557321Y-144758285D01*
X121473248Y-144704518D01*
X121389908Y-144649774D01*
X121381757Y-144646007D01*
X120865549Y-144411302D01*
X120769779Y-144383297D01*
X120674410Y-144354140D01*
X120665530Y-144352812D01*
X120123869Y-144275240D01*
X120072388Y-144265000D01*
X116077951Y-144265000D01*
X116114603Y-144249818D01*
X116419818Y-143944603D01*
X116585000Y-143545820D01*
X116585000Y-143114180D01*
X116419818Y-142715397D01*
X116114603Y-142410182D01*
X115715820Y-142245000D01*
X115284180Y-142245000D01*
X114885397Y-142410182D01*
X114580182Y-142715397D01*
X114415000Y-143114180D01*
X114415000Y-143545820D01*
X114580182Y-143944603D01*
X114885397Y-144249818D01*
X114922049Y-144265000D01*
X113077951Y-144265000D01*
X113114603Y-144249818D01*
X113419818Y-143944603D01*
X113585000Y-143545820D01*
X113585000Y-143114180D01*
X113419818Y-142715397D01*
X113114603Y-142410182D01*
X112715820Y-142245000D01*
X112284180Y-142245000D01*
X111885397Y-142410182D01*
X111580182Y-142715397D01*
X111415000Y-143114180D01*
X111415000Y-143545820D01*
X111580182Y-143944603D01*
X111885397Y-144249818D01*
X111922049Y-144265000D01*
X89073674Y-144265000D01*
X89275183Y-144081358D01*
X89521486Y-143556892D01*
X89400819Y-143327000D01*
X88207000Y-143327000D01*
X88207000Y-143347000D01*
X87953000Y-143347000D01*
X87953000Y-143327000D01*
X87933000Y-143327000D01*
X87933000Y-143073000D01*
X87953000Y-143073000D01*
X87953000Y-141879845D01*
X88207000Y-141879845D01*
X88207000Y-143073000D01*
X89400819Y-143073000D01*
X89521486Y-142843108D01*
X89275183Y-142318642D01*
X88846924Y-141928355D01*
X88436890Y-141758524D01*
X88207000Y-141879845D01*
X87953000Y-141879845D01*
X87723110Y-141758524D01*
X87313076Y-141928355D01*
X86884817Y-142318642D01*
X86823843Y-142448478D01*
X86610625Y-142129375D01*
X86119418Y-141801161D01*
X85686256Y-141715000D01*
X85393744Y-141715000D01*
X84960582Y-141801161D01*
X84469375Y-142129375D01*
X84457184Y-142147619D01*
X84448157Y-142102235D01*
X84307809Y-141892191D01*
X84097765Y-141751843D01*
X83850000Y-141702560D01*
X82150000Y-141702560D01*
X81902235Y-141751843D01*
X81692191Y-141892191D01*
X81551843Y-142102235D01*
X81502560Y-142350000D01*
X81502560Y-144050000D01*
X81545326Y-144265000D01*
X79927612Y-144265000D01*
X79900705Y-144270352D01*
X79649912Y-144288989D01*
X79576677Y-144305091D01*
X79502403Y-144315265D01*
X79493785Y-144317785D01*
X78950500Y-144480262D01*
X78859932Y-144522110D01*
X78768889Y-144562836D01*
X78761324Y-144567673D01*
X78285478Y-144876101D01*
X78210293Y-144941690D01*
X78134343Y-145006328D01*
X78128440Y-145013094D01*
X77758285Y-145442679D01*
X77704518Y-145526752D01*
X77649774Y-145610092D01*
X77646007Y-145618243D01*
X77411302Y-146134451D01*
X77383297Y-146230221D01*
X77372664Y-146265000D01*
X73042702Y-146265000D01*
X72785385Y-146235000D01*
X73444569Y-146235000D01*
X74266026Y-145894741D01*
X74894741Y-145266026D01*
X75235000Y-144444569D01*
X75235000Y-143555431D01*
X74894741Y-142733974D01*
X74266026Y-142105259D01*
X73444569Y-141765000D01*
X72555431Y-141765000D01*
X71733974Y-142105259D01*
X71105259Y-142733974D01*
X70765000Y-143555431D01*
X70765000Y-144303414D01*
X70735000Y-143967269D01*
X70735000Y-135238000D01*
X71590560Y-135238000D01*
X71590560Y-136762000D01*
X71639843Y-137009765D01*
X71780191Y-137219809D01*
X71990235Y-137360157D01*
X72238000Y-137409440D01*
X73762000Y-137409440D01*
X74009765Y-137360157D01*
X74219809Y-137219809D01*
X74235966Y-137195629D01*
X74722119Y-137397000D01*
X75277881Y-137397000D01*
X75791337Y-137184320D01*
X76000000Y-136975657D01*
X76208663Y-137184320D01*
X76722119Y-137397000D01*
X77277881Y-137397000D01*
X77791337Y-137184320D01*
X77995444Y-136980213D01*
X78199392Y-136980213D01*
X78268857Y-137222397D01*
X78792302Y-137409144D01*
X79347368Y-137381362D01*
X79731143Y-137222397D01*
X79800608Y-136980213D01*
X79000000Y-136179605D01*
X78199392Y-136980213D01*
X77995444Y-136980213D01*
X78184320Y-136791337D01*
X78294106Y-136526289D01*
X78820395Y-136000000D01*
X79179605Y-136000000D01*
X79980213Y-136800608D01*
X80222397Y-136731143D01*
X80409144Y-136207698D01*
X80381362Y-135652632D01*
X80222397Y-135268857D01*
X79980213Y-135199392D01*
X79179605Y-136000000D01*
X78820395Y-136000000D01*
X78294106Y-135473711D01*
X78184320Y-135208663D01*
X77995444Y-135019787D01*
X78199392Y-135019787D01*
X79000000Y-135820395D01*
X79800608Y-135019787D01*
X79731143Y-134777603D01*
X79207698Y-134590856D01*
X78652632Y-134618638D01*
X78268857Y-134777603D01*
X78199392Y-135019787D01*
X77995444Y-135019787D01*
X77791337Y-134815680D01*
X77415004Y-134659798D01*
X77814802Y-134260000D01*
X87592195Y-134260000D01*
X85895311Y-135956886D01*
X85877431Y-135913720D01*
X85586280Y-135622569D01*
X85205874Y-135465000D01*
X84794126Y-135465000D01*
X84413720Y-135622569D01*
X84122569Y-135913720D01*
X83965000Y-136294126D01*
X83965000Y-136599470D01*
X83925112Y-136800000D01*
X83940001Y-136874851D01*
X83940001Y-136893370D01*
X83924994Y-136905686D01*
X83855686Y-136974994D01*
X83775169Y-137073104D01*
X83720713Y-137154603D01*
X83660881Y-137266540D01*
X83623372Y-137357096D01*
X83586530Y-137478549D01*
X83567408Y-137574682D01*
X83554968Y-137700991D01*
X83554968Y-137737894D01*
X83552560Y-137750000D01*
X83552560Y-138250000D01*
X83554968Y-138262106D01*
X83554968Y-138299009D01*
X83567408Y-138425318D01*
X83586530Y-138521451D01*
X83623372Y-138642904D01*
X83660881Y-138733460D01*
X83720713Y-138845397D01*
X83775169Y-138926896D01*
X83855686Y-139025006D01*
X83924994Y-139094314D01*
X84023104Y-139174831D01*
X84104603Y-139229287D01*
X84216540Y-139289119D01*
X84307096Y-139326628D01*
X84428549Y-139363470D01*
X84524682Y-139382592D01*
X84650991Y-139395032D01*
X84687894Y-139395032D01*
X84700000Y-139397440D01*
X85250000Y-139397440D01*
X85375000Y-139372576D01*
X85500000Y-139397440D01*
X86500000Y-139397440D01*
X86625000Y-139372576D01*
X86750000Y-139397440D01*
X87300000Y-139397440D01*
X87312106Y-139395032D01*
X87349009Y-139395032D01*
X87475318Y-139382592D01*
X87571451Y-139363470D01*
X87692904Y-139326628D01*
X87783460Y-139289119D01*
X87895397Y-139229287D01*
X87976896Y-139174831D01*
X88075006Y-139094314D01*
X88144314Y-139025006D01*
X88224831Y-138926896D01*
X88279287Y-138845397D01*
X88339119Y-138733460D01*
X88376628Y-138642904D01*
X88413470Y-138521451D01*
X88432592Y-138425318D01*
X88445032Y-138299009D01*
X88445032Y-138262106D01*
X88447440Y-138250000D01*
X88447440Y-137750000D01*
X88445032Y-137737894D01*
X88445032Y-137700991D01*
X88432592Y-137574682D01*
X88413470Y-137478549D01*
X88376628Y-137357096D01*
X88339119Y-137266540D01*
X88289674Y-137174037D01*
X88377431Y-137086280D01*
X88535000Y-136705874D01*
X88535000Y-136294126D01*
X88377431Y-135913720D01*
X88232756Y-135769045D01*
X88741801Y-135260000D01*
X95685199Y-135260000D01*
X96465000Y-136039802D01*
X96465000Y-136205874D01*
X96622569Y-136586280D01*
X96913720Y-136877431D01*
X97294126Y-137035000D01*
X97705874Y-137035000D01*
X98086280Y-136877431D01*
X98377431Y-136586280D01*
X98535000Y-136205874D01*
X98535000Y-135794126D01*
X98377431Y-135413720D01*
X98201711Y-135238000D01*
X119590560Y-135238000D01*
X119590560Y-136762000D01*
X119639843Y-137009765D01*
X119780191Y-137219809D01*
X119990235Y-137360157D01*
X120238000Y-137409440D01*
X121762000Y-137409440D01*
X122009765Y-137360157D01*
X122219809Y-137219809D01*
X122235966Y-137195629D01*
X122722119Y-137397000D01*
X123277881Y-137397000D01*
X123791337Y-137184320D01*
X124000000Y-136975657D01*
X124208663Y-137184320D01*
X124722119Y-137397000D01*
X125277881Y-137397000D01*
X125791337Y-137184320D01*
X125995444Y-136980213D01*
X126199392Y-136980213D01*
X126268857Y-137222397D01*
X126792302Y-137409144D01*
X127347368Y-137381362D01*
X127731143Y-137222397D01*
X127800608Y-136980213D01*
X127000000Y-136179605D01*
X126199392Y-136980213D01*
X125995444Y-136980213D01*
X126184320Y-136791337D01*
X126294106Y-136526289D01*
X126820395Y-136000000D01*
X127179605Y-136000000D01*
X127980213Y-136800608D01*
X128222397Y-136731143D01*
X128409144Y-136207698D01*
X128381362Y-135652632D01*
X128222397Y-135268857D01*
X127980213Y-135199392D01*
X127179605Y-136000000D01*
X126820395Y-136000000D01*
X126294106Y-135473711D01*
X126184320Y-135208663D01*
X125995444Y-135019787D01*
X126199392Y-135019787D01*
X127000000Y-135820395D01*
X127800608Y-135019787D01*
X127731143Y-134777603D01*
X127207698Y-134590856D01*
X126652632Y-134618638D01*
X126268857Y-134777603D01*
X126199392Y-135019787D01*
X125995444Y-135019787D01*
X125791337Y-134815680D01*
X125277881Y-134603000D01*
X124722119Y-134603000D01*
X124208663Y-134815680D01*
X124000000Y-135024343D01*
X123791337Y-134815680D01*
X123277881Y-134603000D01*
X122722119Y-134603000D01*
X122235966Y-134804371D01*
X122219809Y-134780191D01*
X122009765Y-134639843D01*
X121762000Y-134590560D01*
X120238000Y-134590560D01*
X119990235Y-134639843D01*
X119780191Y-134780191D01*
X119639843Y-134990235D01*
X119590560Y-135238000D01*
X98201711Y-135238000D01*
X98086280Y-135122569D01*
X97705874Y-134965000D01*
X97539802Y-134965000D01*
X96834801Y-134260000D01*
X99796289Y-134260000D01*
X99913720Y-134377431D01*
X100294126Y-134535000D01*
X100705874Y-134535000D01*
X101086280Y-134377431D01*
X101377431Y-134086280D01*
X101535000Y-133705874D01*
X101535000Y-133535000D01*
X101705874Y-133535000D01*
X102086280Y-133377431D01*
X102377431Y-133086280D01*
X102535000Y-132705874D01*
X102535000Y-132294126D01*
X102377431Y-131913720D01*
X102086280Y-131622569D01*
X101705874Y-131465000D01*
X101294126Y-131465000D01*
X100913720Y-131622569D01*
X100796289Y-131740000D01*
X76574846Y-131740000D01*
X76499999Y-131725112D01*
X76425152Y-131740000D01*
X76425148Y-131740000D01*
X76203463Y-131784096D01*
X76203461Y-131784097D01*
X76203462Y-131784097D01*
X76015526Y-131909671D01*
X76015524Y-131909673D01*
X75952071Y-131952071D01*
X75909673Y-132015524D01*
X73334638Y-134590560D01*
X72238000Y-134590560D01*
X71990235Y-134639843D01*
X71780191Y-134780191D01*
X71639843Y-134990235D01*
X71590560Y-135238000D01*
X70735000Y-135238000D01*
X70735000Y-125238000D01*
X71590560Y-125238000D01*
X71590560Y-126762000D01*
X71639843Y-127009765D01*
X71780191Y-127219809D01*
X71990235Y-127360157D01*
X72238000Y-127409440D01*
X73762000Y-127409440D01*
X74009765Y-127360157D01*
X74219809Y-127219809D01*
X74235966Y-127195629D01*
X74722119Y-127397000D01*
X75277881Y-127397000D01*
X75791337Y-127184320D01*
X76000000Y-126975657D01*
X76165001Y-127140658D01*
X76165001Y-127317762D01*
X76148643Y-127400000D01*
X76213448Y-127725800D01*
X76270190Y-127810720D01*
X76398000Y-128002001D01*
X76467718Y-128048585D01*
X77351415Y-128932282D01*
X77397999Y-129002001D01*
X77674199Y-129186552D01*
X77917763Y-129235000D01*
X78000000Y-129251358D01*
X78082237Y-129235000D01*
X90417763Y-129235000D01*
X90500000Y-129251358D01*
X90582237Y-129235000D01*
X110165000Y-129235000D01*
X110165001Y-131371288D01*
X110122569Y-131413720D01*
X109965000Y-131794126D01*
X109965000Y-132205874D01*
X110122569Y-132586280D01*
X110413720Y-132877431D01*
X110794126Y-133035000D01*
X111205874Y-133035000D01*
X111586280Y-132877431D01*
X111877431Y-132586280D01*
X112035000Y-132205874D01*
X112035000Y-131794126D01*
X111877431Y-131413720D01*
X111835000Y-131371289D01*
X111835000Y-129235000D01*
X117517962Y-129235000D01*
X117518154Y-129235038D01*
X117599415Y-129235000D01*
X117682237Y-129235000D01*
X117682432Y-129234961D01*
X123387083Y-129232294D01*
X123429220Y-129274431D01*
X123809626Y-129432000D01*
X124221374Y-129432000D01*
X124601780Y-129274431D01*
X124892931Y-128983280D01*
X125050500Y-128602874D01*
X125050500Y-128191126D01*
X124892931Y-127810720D01*
X124601780Y-127519569D01*
X124221374Y-127362000D01*
X123809626Y-127362000D01*
X123429220Y-127519569D01*
X123386495Y-127562294D01*
X117600772Y-127565000D01*
X111835000Y-127565000D01*
X111835000Y-126628711D01*
X111877431Y-126586280D01*
X112035000Y-126205874D01*
X112035000Y-125794126D01*
X111877431Y-125413720D01*
X111701711Y-125238000D01*
X119590560Y-125238000D01*
X119590560Y-126762000D01*
X119639843Y-127009765D01*
X119780191Y-127219809D01*
X119990235Y-127360157D01*
X120238000Y-127409440D01*
X121762000Y-127409440D01*
X122009765Y-127360157D01*
X122219809Y-127219809D01*
X122235966Y-127195629D01*
X122722119Y-127397000D01*
X123277881Y-127397000D01*
X123791337Y-127184320D01*
X124000000Y-126975657D01*
X124208663Y-127184320D01*
X124722119Y-127397000D01*
X125277881Y-127397000D01*
X125791337Y-127184320D01*
X125995444Y-126980213D01*
X126199392Y-126980213D01*
X126268857Y-127222397D01*
X126792302Y-127409144D01*
X127347368Y-127381362D01*
X127731143Y-127222397D01*
X127800608Y-126980213D01*
X127000000Y-126179605D01*
X126199392Y-126980213D01*
X125995444Y-126980213D01*
X126184320Y-126791337D01*
X126294106Y-126526289D01*
X126820395Y-126000000D01*
X127179605Y-126000000D01*
X127980213Y-126800608D01*
X128222397Y-126731143D01*
X128409144Y-126207698D01*
X128381362Y-125652632D01*
X128222397Y-125268857D01*
X127980213Y-125199392D01*
X127179605Y-126000000D01*
X126820395Y-126000000D01*
X126294106Y-125473711D01*
X126184320Y-125208663D01*
X125995444Y-125019787D01*
X126199392Y-125019787D01*
X127000000Y-125820395D01*
X127800608Y-125019787D01*
X127731143Y-124777603D01*
X127207698Y-124590856D01*
X126652632Y-124618638D01*
X126268857Y-124777603D01*
X126199392Y-125019787D01*
X125995444Y-125019787D01*
X125791337Y-124815680D01*
X125277881Y-124603000D01*
X124722119Y-124603000D01*
X124208663Y-124815680D01*
X124000000Y-125024343D01*
X123791337Y-124815680D01*
X123277881Y-124603000D01*
X122722119Y-124603000D01*
X122235966Y-124804371D01*
X122219809Y-124780191D01*
X122009765Y-124639843D01*
X121762000Y-124590560D01*
X120238000Y-124590560D01*
X119990235Y-124639843D01*
X119780191Y-124780191D01*
X119639843Y-124990235D01*
X119590560Y-125238000D01*
X111701711Y-125238000D01*
X111586280Y-125122569D01*
X111205874Y-124965000D01*
X110794126Y-124965000D01*
X110413720Y-125122569D01*
X110122569Y-125413720D01*
X109965000Y-125794126D01*
X109965000Y-126205874D01*
X110122569Y-126586280D01*
X110165001Y-126628712D01*
X110165000Y-127565000D01*
X91335000Y-127565000D01*
X91335000Y-126535000D01*
X91705874Y-126535000D01*
X92086280Y-126377431D01*
X92377431Y-126086280D01*
X92535000Y-125705874D01*
X92535000Y-125294126D01*
X92377431Y-124913720D01*
X92257837Y-124794126D01*
X93465000Y-124794126D01*
X93465000Y-125205874D01*
X93622569Y-125586280D01*
X93913720Y-125877431D01*
X94294126Y-126035000D01*
X94443432Y-126035000D01*
X94452071Y-126047929D01*
X94515527Y-126090329D01*
X94703462Y-126215904D01*
X94751605Y-126225480D01*
X94925148Y-126260000D01*
X94925152Y-126260000D01*
X95000000Y-126274888D01*
X95074848Y-126260000D01*
X98296289Y-126260000D01*
X98413720Y-126377431D01*
X98794126Y-126535000D01*
X99205874Y-126535000D01*
X99586280Y-126377431D01*
X99669585Y-126294126D01*
X99965000Y-126294126D01*
X99965000Y-126705874D01*
X100122569Y-127086280D01*
X100413720Y-127377431D01*
X100794126Y-127535000D01*
X101205874Y-127535000D01*
X101586280Y-127377431D01*
X101703711Y-127260000D01*
X101896289Y-127260000D01*
X102013720Y-127377431D01*
X102394126Y-127535000D01*
X102805874Y-127535000D01*
X103186280Y-127377431D01*
X103477431Y-127086280D01*
X103635000Y-126705874D01*
X103635000Y-126294126D01*
X103477431Y-125913720D01*
X103186280Y-125622569D01*
X102805874Y-125465000D01*
X102394126Y-125465000D01*
X102013720Y-125622569D01*
X101896289Y-125740000D01*
X101703711Y-125740000D01*
X101586280Y-125622569D01*
X101205874Y-125465000D01*
X100794126Y-125465000D01*
X100413720Y-125622569D01*
X100122569Y-125913720D01*
X99965000Y-126294126D01*
X99669585Y-126294126D01*
X99877431Y-126086280D01*
X100035000Y-125705874D01*
X100035000Y-125294126D01*
X99877431Y-124913720D01*
X99586280Y-124622569D01*
X99205874Y-124465000D01*
X98794126Y-124465000D01*
X98413720Y-124622569D01*
X98296289Y-124740000D01*
X95512580Y-124740000D01*
X95377431Y-124413720D01*
X95086280Y-124122569D01*
X94705874Y-123965000D01*
X94294126Y-123965000D01*
X93913720Y-124122569D01*
X93622569Y-124413720D01*
X93465000Y-124794126D01*
X92257837Y-124794126D01*
X92213711Y-124750000D01*
X92377431Y-124586280D01*
X92535000Y-124205874D01*
X92535000Y-123794126D01*
X92377431Y-123413720D01*
X92086280Y-123122569D01*
X91705874Y-122965000D01*
X91294126Y-122965000D01*
X90913720Y-123122569D01*
X90796289Y-123240000D01*
X74062847Y-123240000D01*
X73988000Y-123225112D01*
X73913153Y-123240000D01*
X73913148Y-123240000D01*
X73691463Y-123284096D01*
X73440071Y-123452071D01*
X73397671Y-123515527D01*
X73178537Y-123734661D01*
X72790630Y-124122569D01*
X72515530Y-124397669D01*
X72452071Y-124440071D01*
X72351518Y-124590560D01*
X72238000Y-124590560D01*
X71990235Y-124639843D01*
X71780191Y-124780191D01*
X71639843Y-124990235D01*
X71590560Y-125238000D01*
X70735000Y-125238000D01*
X70735000Y-122794126D01*
X99465000Y-122794126D01*
X99465000Y-123205874D01*
X99622569Y-123586280D01*
X99913720Y-123877431D01*
X100294126Y-124035000D01*
X100705874Y-124035000D01*
X101086280Y-123877431D01*
X101203711Y-123760000D01*
X102796289Y-123760000D01*
X102913720Y-123877431D01*
X103294126Y-124035000D01*
X103705874Y-124035000D01*
X104086280Y-123877431D01*
X104377431Y-123586280D01*
X104535000Y-123205874D01*
X104535000Y-122794126D01*
X104377431Y-122413720D01*
X104086280Y-122122569D01*
X103705874Y-121965000D01*
X103294126Y-121965000D01*
X102913720Y-122122569D01*
X102796289Y-122240000D01*
X101203711Y-122240000D01*
X101086280Y-122122569D01*
X100705874Y-121965000D01*
X100294126Y-121965000D01*
X99913720Y-122122569D01*
X99622569Y-122413720D01*
X99465000Y-122794126D01*
X70735000Y-122794126D01*
X70735000Y-119294126D01*
X82965000Y-119294126D01*
X82965000Y-119705874D01*
X83122569Y-120086280D01*
X83413720Y-120377431D01*
X83794126Y-120535000D01*
X84205874Y-120535000D01*
X84586280Y-120377431D01*
X84628711Y-120335000D01*
X94201289Y-120335000D01*
X94122569Y-120413720D01*
X93965000Y-120794126D01*
X93965000Y-121205874D01*
X94122569Y-121586280D01*
X94413720Y-121877431D01*
X94794126Y-122035000D01*
X95205874Y-122035000D01*
X95586280Y-121877431D01*
X95703711Y-121760000D01*
X97421289Y-121760000D01*
X97538720Y-121877431D01*
X97919126Y-122035000D01*
X98330874Y-122035000D01*
X98711280Y-121877431D01*
X99002431Y-121586280D01*
X99160000Y-121205874D01*
X99160000Y-120794126D01*
X99002431Y-120413720D01*
X98923711Y-120335000D01*
X106154133Y-120335000D01*
X107465000Y-121645868D01*
X107465000Y-121705874D01*
X107622569Y-122086280D01*
X107913720Y-122377431D01*
X108294126Y-122535000D01*
X108705874Y-122535000D01*
X109086280Y-122377431D01*
X109377431Y-122086280D01*
X109535000Y-121705874D01*
X109535000Y-121294126D01*
X109377431Y-120913720D01*
X109086280Y-120622569D01*
X108705874Y-120465000D01*
X108645868Y-120465000D01*
X107148587Y-118967720D01*
X107102001Y-118897999D01*
X106825801Y-118713448D01*
X106582237Y-118665000D01*
X106582233Y-118665000D01*
X106500000Y-118648643D01*
X106417767Y-118665000D01*
X84628711Y-118665000D01*
X84586280Y-118622569D01*
X84205874Y-118465000D01*
X83794126Y-118465000D01*
X83413720Y-118622569D01*
X83122569Y-118913720D01*
X82965000Y-119294126D01*
X70735000Y-119294126D01*
X70735000Y-115238000D01*
X71590560Y-115238000D01*
X71590560Y-116762000D01*
X71639843Y-117009765D01*
X71780191Y-117219809D01*
X71990235Y-117360157D01*
X72238000Y-117409440D01*
X73762000Y-117409440D01*
X74009765Y-117360157D01*
X74219809Y-117219809D01*
X74235966Y-117195629D01*
X74722119Y-117397000D01*
X75277881Y-117397000D01*
X75791337Y-117184320D01*
X76000000Y-116975657D01*
X76208663Y-117184320D01*
X76722119Y-117397000D01*
X77277881Y-117397000D01*
X77791337Y-117184320D01*
X77995444Y-116980213D01*
X78199392Y-116980213D01*
X78268857Y-117222397D01*
X78792302Y-117409144D01*
X79347368Y-117381362D01*
X79731143Y-117222397D01*
X79800608Y-116980213D01*
X79000000Y-116179605D01*
X78199392Y-116980213D01*
X77995444Y-116980213D01*
X78184320Y-116791337D01*
X78294106Y-116526289D01*
X78820395Y-116000000D01*
X79179605Y-116000000D01*
X79980213Y-116800608D01*
X80222397Y-116731143D01*
X80409144Y-116207698D01*
X80381362Y-115652632D01*
X80222397Y-115268857D01*
X80114817Y-115238000D01*
X119590560Y-115238000D01*
X119590560Y-116762000D01*
X119639843Y-117009765D01*
X119780191Y-117219809D01*
X119990235Y-117360157D01*
X120238000Y-117409440D01*
X121762000Y-117409440D01*
X122009765Y-117360157D01*
X122219809Y-117219809D01*
X122235966Y-117195629D01*
X122722119Y-117397000D01*
X123277881Y-117397000D01*
X123791337Y-117184320D01*
X124000000Y-116975657D01*
X124208663Y-117184320D01*
X124722119Y-117397000D01*
X125277881Y-117397000D01*
X125791337Y-117184320D01*
X125995444Y-116980213D01*
X126199392Y-116980213D01*
X126268857Y-117222397D01*
X126792302Y-117409144D01*
X127347368Y-117381362D01*
X127731143Y-117222397D01*
X127800608Y-116980213D01*
X127000000Y-116179605D01*
X126199392Y-116980213D01*
X125995444Y-116980213D01*
X126184320Y-116791337D01*
X126294106Y-116526289D01*
X126820395Y-116000000D01*
X127179605Y-116000000D01*
X127980213Y-116800608D01*
X128222397Y-116731143D01*
X128409144Y-116207698D01*
X128381362Y-115652632D01*
X128222397Y-115268857D01*
X127980213Y-115199392D01*
X127179605Y-116000000D01*
X126820395Y-116000000D01*
X126294106Y-115473711D01*
X126184320Y-115208663D01*
X125995444Y-115019787D01*
X126199392Y-115019787D01*
X127000000Y-115820395D01*
X127800608Y-115019787D01*
X127731143Y-114777603D01*
X127207698Y-114590856D01*
X126652632Y-114618638D01*
X126268857Y-114777603D01*
X126199392Y-115019787D01*
X125995444Y-115019787D01*
X125791337Y-114815680D01*
X125277881Y-114603000D01*
X124722119Y-114603000D01*
X124208663Y-114815680D01*
X124000000Y-115024343D01*
X123791337Y-114815680D01*
X123277881Y-114603000D01*
X122722119Y-114603000D01*
X122235966Y-114804371D01*
X122219809Y-114780191D01*
X122009765Y-114639843D01*
X121762000Y-114590560D01*
X120238000Y-114590560D01*
X119990235Y-114639843D01*
X119780191Y-114780191D01*
X119639843Y-114990235D01*
X119590560Y-115238000D01*
X80114817Y-115238000D01*
X79980213Y-115199392D01*
X79179605Y-116000000D01*
X78820395Y-116000000D01*
X78294106Y-115473711D01*
X78184320Y-115208663D01*
X77995444Y-115019787D01*
X78199392Y-115019787D01*
X79000000Y-115820395D01*
X79800608Y-115019787D01*
X79731143Y-114777603D01*
X79207698Y-114590856D01*
X78652632Y-114618638D01*
X78268857Y-114777603D01*
X78199392Y-115019787D01*
X77995444Y-115019787D01*
X77791337Y-114815680D01*
X77277881Y-114603000D01*
X76722119Y-114603000D01*
X76208663Y-114815680D01*
X76000000Y-115024343D01*
X75791337Y-114815680D01*
X75277881Y-114603000D01*
X74722119Y-114603000D01*
X74235966Y-114804371D01*
X74219809Y-114780191D01*
X74009765Y-114639843D01*
X73762000Y-114590560D01*
X72238000Y-114590560D01*
X71990235Y-114639843D01*
X71780191Y-114780191D01*
X71639843Y-114990235D01*
X71590560Y-115238000D01*
X70735000Y-115238000D01*
X70735000Y-105238000D01*
X71590560Y-105238000D01*
X71590560Y-106762000D01*
X71639843Y-107009765D01*
X71780191Y-107219809D01*
X71990235Y-107360157D01*
X72238000Y-107409440D01*
X73762000Y-107409440D01*
X74009765Y-107360157D01*
X74219809Y-107219809D01*
X74235966Y-107195629D01*
X74722119Y-107397000D01*
X75277881Y-107397000D01*
X75791337Y-107184320D01*
X76000000Y-106975657D01*
X76208663Y-107184320D01*
X76722119Y-107397000D01*
X77277881Y-107397000D01*
X77791337Y-107184320D01*
X77995444Y-106980213D01*
X78199392Y-106980213D01*
X78268857Y-107222397D01*
X78792302Y-107409144D01*
X79347368Y-107381362D01*
X79731143Y-107222397D01*
X79800608Y-106980213D01*
X79000000Y-106179605D01*
X78199392Y-106980213D01*
X77995444Y-106980213D01*
X78184320Y-106791337D01*
X78294106Y-106526289D01*
X78820395Y-106000000D01*
X79179605Y-106000000D01*
X79980213Y-106800608D01*
X80222397Y-106731143D01*
X80409144Y-106207698D01*
X80381362Y-105652632D01*
X80222397Y-105268857D01*
X79980213Y-105199392D01*
X79179605Y-106000000D01*
X78820395Y-106000000D01*
X78294106Y-105473711D01*
X78184320Y-105208663D01*
X77995444Y-105019787D01*
X78199392Y-105019787D01*
X79000000Y-105820395D01*
X79800608Y-105019787D01*
X79731143Y-104777603D01*
X79207698Y-104590856D01*
X78652632Y-104618638D01*
X78268857Y-104777603D01*
X78199392Y-105019787D01*
X77995444Y-105019787D01*
X77791337Y-104815680D01*
X77277881Y-104603000D01*
X76722119Y-104603000D01*
X76208663Y-104815680D01*
X76000000Y-105024343D01*
X75791337Y-104815680D01*
X75277881Y-104603000D01*
X74722119Y-104603000D01*
X74235966Y-104804371D01*
X74219809Y-104780191D01*
X74009765Y-104639843D01*
X73762000Y-104590560D01*
X72238000Y-104590560D01*
X71990235Y-104639843D01*
X71780191Y-104780191D01*
X71639843Y-104990235D01*
X71590560Y-105238000D01*
X70735000Y-105238000D01*
X70735000Y-101794126D01*
X80965000Y-101794126D01*
X80965000Y-102205874D01*
X81122569Y-102586280D01*
X81240000Y-102703711D01*
X81240001Y-109296288D01*
X81122569Y-109413720D01*
X80965000Y-109794126D01*
X80965000Y-110205874D01*
X81122569Y-110586280D01*
X81413720Y-110877431D01*
X81794126Y-111035000D01*
X81965000Y-111035000D01*
X81965000Y-111205874D01*
X82122569Y-111586280D01*
X82413720Y-111877431D01*
X82794126Y-112035000D01*
X83205874Y-112035000D01*
X83586280Y-111877431D01*
X83877431Y-111586280D01*
X84035000Y-111205874D01*
X84035000Y-110794126D01*
X83877431Y-110413720D01*
X83760000Y-110296289D01*
X83760000Y-105238000D01*
X119590560Y-105238000D01*
X119590560Y-106762000D01*
X119639843Y-107009765D01*
X119780191Y-107219809D01*
X119990235Y-107360157D01*
X120238000Y-107409440D01*
X121762000Y-107409440D01*
X122009765Y-107360157D01*
X122219809Y-107219809D01*
X122235966Y-107195629D01*
X122722119Y-107397000D01*
X123277881Y-107397000D01*
X123791337Y-107184320D01*
X124000000Y-106975657D01*
X124208663Y-107184320D01*
X124722119Y-107397000D01*
X125277881Y-107397000D01*
X125791337Y-107184320D01*
X125995444Y-106980213D01*
X126199392Y-106980213D01*
X126268857Y-107222397D01*
X126792302Y-107409144D01*
X127347368Y-107381362D01*
X127731143Y-107222397D01*
X127800608Y-106980213D01*
X127000000Y-106179605D01*
X126199392Y-106980213D01*
X125995444Y-106980213D01*
X126184320Y-106791337D01*
X126294106Y-106526289D01*
X126820395Y-106000000D01*
X127179605Y-106000000D01*
X127980213Y-106800608D01*
X128222397Y-106731143D01*
X128409144Y-106207698D01*
X128381362Y-105652632D01*
X128222397Y-105268857D01*
X127980213Y-105199392D01*
X127179605Y-106000000D01*
X126820395Y-106000000D01*
X126294106Y-105473711D01*
X126184320Y-105208663D01*
X125995444Y-105019787D01*
X126199392Y-105019787D01*
X127000000Y-105820395D01*
X127800608Y-105019787D01*
X127731143Y-104777603D01*
X127207698Y-104590856D01*
X126652632Y-104618638D01*
X126268857Y-104777603D01*
X126199392Y-105019787D01*
X125995444Y-105019787D01*
X125791337Y-104815680D01*
X125277881Y-104603000D01*
X124722119Y-104603000D01*
X124208663Y-104815680D01*
X124000000Y-105024343D01*
X123791337Y-104815680D01*
X123277881Y-104603000D01*
X122722119Y-104603000D01*
X122235966Y-104804371D01*
X122219809Y-104780191D01*
X122009765Y-104639843D01*
X121762000Y-104590560D01*
X120238000Y-104590560D01*
X119990235Y-104639843D01*
X119780191Y-104780191D01*
X119639843Y-104990235D01*
X119590560Y-105238000D01*
X83760000Y-105238000D01*
X83760000Y-100703711D01*
X83877431Y-100586280D01*
X84035000Y-100205874D01*
X84035000Y-99794126D01*
X83877431Y-99413720D01*
X83586280Y-99122569D01*
X83205874Y-98965000D01*
X82794126Y-98965000D01*
X82413720Y-99122569D01*
X82122569Y-99413720D01*
X81965000Y-99794126D01*
X81965000Y-100205874D01*
X82122569Y-100586280D01*
X82240000Y-100703711D01*
X82240000Y-100979135D01*
X82205874Y-100965000D01*
X81794126Y-100965000D01*
X81413720Y-101122569D01*
X81122569Y-101413720D01*
X80965000Y-101794126D01*
X70735000Y-101794126D01*
X70735000Y-95238000D01*
X71590560Y-95238000D01*
X71590560Y-96762000D01*
X71639843Y-97009765D01*
X71780191Y-97219809D01*
X71990235Y-97360157D01*
X72238000Y-97409440D01*
X73762000Y-97409440D01*
X74009765Y-97360157D01*
X74219809Y-97219809D01*
X74235966Y-97195629D01*
X74722119Y-97397000D01*
X75277881Y-97397000D01*
X75791337Y-97184320D01*
X76000000Y-96975657D01*
X76208663Y-97184320D01*
X76722119Y-97397000D01*
X77277881Y-97397000D01*
X77791337Y-97184320D01*
X77995444Y-96980213D01*
X78199392Y-96980213D01*
X78268857Y-97222397D01*
X78792302Y-97409144D01*
X79347368Y-97381362D01*
X79731143Y-97222397D01*
X79800608Y-96980213D01*
X79000000Y-96179605D01*
X78199392Y-96980213D01*
X77995444Y-96980213D01*
X78184320Y-96791337D01*
X78294106Y-96526289D01*
X78820395Y-96000000D01*
X79179605Y-96000000D01*
X79980213Y-96800608D01*
X80222397Y-96731143D01*
X80409144Y-96207698D01*
X80381362Y-95652632D01*
X80222397Y-95268857D01*
X80114817Y-95238000D01*
X119590560Y-95238000D01*
X119590560Y-96762000D01*
X119639843Y-97009765D01*
X119780191Y-97219809D01*
X119990235Y-97360157D01*
X120238000Y-97409440D01*
X121762000Y-97409440D01*
X122009765Y-97360157D01*
X122219809Y-97219809D01*
X122235966Y-97195629D01*
X122722119Y-97397000D01*
X123277881Y-97397000D01*
X123791337Y-97184320D01*
X124000000Y-96975657D01*
X124208663Y-97184320D01*
X124722119Y-97397000D01*
X125277881Y-97397000D01*
X125791337Y-97184320D01*
X125995444Y-96980213D01*
X126199392Y-96980213D01*
X126268857Y-97222397D01*
X126792302Y-97409144D01*
X127347368Y-97381362D01*
X127731143Y-97222397D01*
X127800608Y-96980213D01*
X127000000Y-96179605D01*
X126199392Y-96980213D01*
X125995444Y-96980213D01*
X126184320Y-96791337D01*
X126294106Y-96526289D01*
X126820395Y-96000000D01*
X127179605Y-96000000D01*
X127980213Y-96800608D01*
X128222397Y-96731143D01*
X128409144Y-96207698D01*
X128381362Y-95652632D01*
X128222397Y-95268857D01*
X127980213Y-95199392D01*
X127179605Y-96000000D01*
X126820395Y-96000000D01*
X126294106Y-95473711D01*
X126184320Y-95208663D01*
X125995444Y-95019787D01*
X126199392Y-95019787D01*
X127000000Y-95820395D01*
X127800608Y-95019787D01*
X127731143Y-94777603D01*
X127207698Y-94590856D01*
X126652632Y-94618638D01*
X126268857Y-94777603D01*
X126199392Y-95019787D01*
X125995444Y-95019787D01*
X125791337Y-94815680D01*
X125277881Y-94603000D01*
X124722119Y-94603000D01*
X124208663Y-94815680D01*
X124000000Y-95024343D01*
X123791337Y-94815680D01*
X123277881Y-94603000D01*
X122722119Y-94603000D01*
X122235966Y-94804371D01*
X122219809Y-94780191D01*
X122009765Y-94639843D01*
X121762000Y-94590560D01*
X120238000Y-94590560D01*
X119990235Y-94639843D01*
X119780191Y-94780191D01*
X119639843Y-94990235D01*
X119590560Y-95238000D01*
X80114817Y-95238000D01*
X79980213Y-95199392D01*
X79179605Y-96000000D01*
X78820395Y-96000000D01*
X78294106Y-95473711D01*
X78184320Y-95208663D01*
X77995444Y-95019787D01*
X78199392Y-95019787D01*
X79000000Y-95820395D01*
X79800608Y-95019787D01*
X79731143Y-94777603D01*
X79207698Y-94590856D01*
X78652632Y-94618638D01*
X78268857Y-94777603D01*
X78199392Y-95019787D01*
X77995444Y-95019787D01*
X77791337Y-94815680D01*
X77277881Y-94603000D01*
X76722119Y-94603000D01*
X76208663Y-94815680D01*
X76000000Y-95024343D01*
X75791337Y-94815680D01*
X75277881Y-94603000D01*
X74722119Y-94603000D01*
X74235966Y-94804371D01*
X74219809Y-94780191D01*
X74009765Y-94639843D01*
X73762000Y-94590560D01*
X72238000Y-94590560D01*
X71990235Y-94639843D01*
X71780191Y-94780191D01*
X71639843Y-94990235D01*
X71590560Y-95238000D01*
X70735000Y-95238000D01*
X70735000Y-88794126D01*
X97965000Y-88794126D01*
X97965000Y-89205874D01*
X98122569Y-89586280D01*
X98240000Y-89703711D01*
X98240001Y-90796288D01*
X98122569Y-90913720D01*
X97965000Y-91294126D01*
X97965000Y-91705874D01*
X98122569Y-92086280D01*
X98413720Y-92377431D01*
X98794126Y-92535000D01*
X99205874Y-92535000D01*
X99586280Y-92377431D01*
X99877431Y-92086280D01*
X100035000Y-91705874D01*
X100035000Y-91294126D01*
X99877431Y-90913720D01*
X99760000Y-90796289D01*
X99760000Y-89703711D01*
X99877431Y-89586280D01*
X100035000Y-89205874D01*
X100035000Y-88794126D01*
X99877431Y-88413720D01*
X99586280Y-88122569D01*
X99205874Y-87965000D01*
X98794126Y-87965000D01*
X98413720Y-88122569D01*
X98122569Y-88413720D01*
X97965000Y-88794126D01*
X70735000Y-88794126D01*
X70735000Y-85238000D01*
X71590560Y-85238000D01*
X71590560Y-86762000D01*
X71639843Y-87009765D01*
X71780191Y-87219809D01*
X71990235Y-87360157D01*
X72238000Y-87409440D01*
X73762000Y-87409440D01*
X74009765Y-87360157D01*
X74219809Y-87219809D01*
X74235966Y-87195629D01*
X74722119Y-87397000D01*
X75277881Y-87397000D01*
X75791337Y-87184320D01*
X76000000Y-86975657D01*
X76208663Y-87184320D01*
X76722119Y-87397000D01*
X77277881Y-87397000D01*
X77791337Y-87184320D01*
X77995444Y-86980213D01*
X78199392Y-86980213D01*
X78268857Y-87222397D01*
X78792302Y-87409144D01*
X79347368Y-87381362D01*
X79731143Y-87222397D01*
X79800608Y-86980213D01*
X79000000Y-86179605D01*
X78199392Y-86980213D01*
X77995444Y-86980213D01*
X78184320Y-86791337D01*
X78294106Y-86526289D01*
X78820395Y-86000000D01*
X79179605Y-86000000D01*
X79980213Y-86800608D01*
X80222397Y-86731143D01*
X80409144Y-86207698D01*
X80390572Y-85836626D01*
X94532500Y-85836626D01*
X94532500Y-86248374D01*
X94690069Y-86628780D01*
X94981220Y-86919931D01*
X95361626Y-87077500D01*
X95773374Y-87077500D01*
X96153780Y-86919931D01*
X96271211Y-86802500D01*
X98165789Y-86802500D01*
X98283220Y-86919931D01*
X98663626Y-87077500D01*
X99075374Y-87077500D01*
X99455780Y-86919931D01*
X99746931Y-86628780D01*
X99904500Y-86248374D01*
X99904500Y-85836626D01*
X99746931Y-85456220D01*
X99528711Y-85238000D01*
X119590560Y-85238000D01*
X119590560Y-86762000D01*
X119639843Y-87009765D01*
X119780191Y-87219809D01*
X119990235Y-87360157D01*
X120238000Y-87409440D01*
X121762000Y-87409440D01*
X122009765Y-87360157D01*
X122219809Y-87219809D01*
X122235966Y-87195629D01*
X122722119Y-87397000D01*
X123277881Y-87397000D01*
X123791337Y-87184320D01*
X124000000Y-86975657D01*
X124208663Y-87184320D01*
X124722119Y-87397000D01*
X125277881Y-87397000D01*
X125791337Y-87184320D01*
X125995444Y-86980213D01*
X126199392Y-86980213D01*
X126268857Y-87222397D01*
X126792302Y-87409144D01*
X127347368Y-87381362D01*
X127731143Y-87222397D01*
X127800608Y-86980213D01*
X127000000Y-86179605D01*
X126199392Y-86980213D01*
X125995444Y-86980213D01*
X126184320Y-86791337D01*
X126294106Y-86526289D01*
X126820395Y-86000000D01*
X127179605Y-86000000D01*
X127980213Y-86800608D01*
X128222397Y-86731143D01*
X128409144Y-86207698D01*
X128381362Y-85652632D01*
X128222397Y-85268857D01*
X127980213Y-85199392D01*
X127179605Y-86000000D01*
X126820395Y-86000000D01*
X126294106Y-85473711D01*
X126184320Y-85208663D01*
X125995444Y-85019787D01*
X126199392Y-85019787D01*
X127000000Y-85820395D01*
X127800608Y-85019787D01*
X127731143Y-84777603D01*
X127207698Y-84590856D01*
X126652632Y-84618638D01*
X126268857Y-84777603D01*
X126199392Y-85019787D01*
X125995444Y-85019787D01*
X125791337Y-84815680D01*
X125277881Y-84603000D01*
X124722119Y-84603000D01*
X124208663Y-84815680D01*
X124000000Y-85024343D01*
X123791337Y-84815680D01*
X123277881Y-84603000D01*
X122722119Y-84603000D01*
X122235966Y-84804371D01*
X122219809Y-84780191D01*
X122009765Y-84639843D01*
X121762000Y-84590560D01*
X120238000Y-84590560D01*
X119990235Y-84639843D01*
X119780191Y-84780191D01*
X119639843Y-84990235D01*
X119590560Y-85238000D01*
X99528711Y-85238000D01*
X99455780Y-85165069D01*
X99075374Y-85007500D01*
X98663626Y-85007500D01*
X98283220Y-85165069D01*
X98165789Y-85282500D01*
X96271211Y-85282500D01*
X96153780Y-85165069D01*
X95773374Y-85007500D01*
X95361626Y-85007500D01*
X94981220Y-85165069D01*
X94690069Y-85456220D01*
X94532500Y-85836626D01*
X80390572Y-85836626D01*
X80381362Y-85652632D01*
X80222397Y-85268857D01*
X79980213Y-85199392D01*
X79179605Y-86000000D01*
X78820395Y-86000000D01*
X78294106Y-85473711D01*
X78184320Y-85208663D01*
X77913618Y-84937961D01*
X78166579Y-84685000D01*
X78492420Y-84685000D01*
X78268857Y-84777603D01*
X78199392Y-85019787D01*
X79000000Y-85820395D01*
X79800608Y-85019787D01*
X79731143Y-84777603D01*
X79471580Y-84685000D01*
X86292839Y-84685000D01*
X86380000Y-84702337D01*
X86467161Y-84685000D01*
X86467165Y-84685000D01*
X86725310Y-84633652D01*
X86774177Y-84601000D01*
X86819874Y-84601000D01*
X87200280Y-84443431D01*
X87491431Y-84152280D01*
X87649000Y-83771874D01*
X87649000Y-83360126D01*
X87491431Y-82979720D01*
X87200280Y-82688569D01*
X86819874Y-82531000D01*
X86408126Y-82531000D01*
X86027720Y-82688569D01*
X85801289Y-82915000D01*
X77887161Y-82915000D01*
X77800000Y-82897663D01*
X77712839Y-82915000D01*
X77712835Y-82915000D01*
X77454690Y-82966348D01*
X77235845Y-83112576D01*
X77235844Y-83112577D01*
X77161951Y-83161951D01*
X77112577Y-83235844D01*
X76435845Y-83912577D01*
X76361952Y-83961951D01*
X76312578Y-84035844D01*
X76312576Y-84035846D01*
X76166348Y-84254691D01*
X76097663Y-84600000D01*
X76115001Y-84687165D01*
X76115001Y-84909342D01*
X76000000Y-85024343D01*
X75791337Y-84815680D01*
X75277881Y-84603000D01*
X74722119Y-84603000D01*
X74235966Y-84804371D01*
X74219809Y-84780191D01*
X74009765Y-84639843D01*
X73762000Y-84590560D01*
X72238000Y-84590560D01*
X71990235Y-84639843D01*
X71780191Y-84780191D01*
X71639843Y-84990235D01*
X71590560Y-85238000D01*
X70735000Y-85238000D01*
X70735000Y-79042702D01*
X70765000Y-78785385D01*
X70765000Y-79444569D01*
X71105259Y-80266026D01*
X71733974Y-80894741D01*
X72555431Y-81235000D01*
X73444569Y-81235000D01*
X74266026Y-80894741D01*
X74393393Y-80767374D01*
X96938248Y-80767374D01*
X96938248Y-81179122D01*
X97095817Y-81559528D01*
X97386968Y-81850679D01*
X97767374Y-82008248D01*
X98179122Y-82008248D01*
X98559528Y-81850679D01*
X98676959Y-81733248D01*
X100758447Y-81733248D01*
X102265000Y-83239802D01*
X102265000Y-83405874D01*
X102422569Y-83786280D01*
X102713720Y-84077431D01*
X103094126Y-84235000D01*
X103505874Y-84235000D01*
X103886280Y-84077431D01*
X104177431Y-83786280D01*
X104335000Y-83405874D01*
X104335000Y-82994126D01*
X104177431Y-82613720D01*
X103886280Y-82322569D01*
X103505874Y-82165000D01*
X103339802Y-82165000D01*
X101663579Y-80488778D01*
X101621177Y-80425319D01*
X101369785Y-80257344D01*
X101148100Y-80213248D01*
X101148095Y-80213248D01*
X101073248Y-80198360D01*
X101023248Y-80208306D01*
X100973248Y-80198360D01*
X100898401Y-80213248D01*
X98676959Y-80213248D01*
X98559528Y-80095817D01*
X98179122Y-79938248D01*
X97767374Y-79938248D01*
X97386968Y-80095817D01*
X97095817Y-80386968D01*
X96938248Y-80767374D01*
X74393393Y-80767374D01*
X74894741Y-80266026D01*
X75235000Y-79444569D01*
X75235000Y-78555431D01*
X74894741Y-77733974D01*
X74266026Y-77105259D01*
X73444569Y-76765000D01*
X72696587Y-76765000D01*
X73032732Y-76735000D01*
X126957298Y-76735000D01*
X127214615Y-76765000D01*
X127214615Y-76765000D01*
G37*
X127214615Y-76765000D02*
X126555431Y-76765000D01*
X125733974Y-77105259D01*
X125105259Y-77733974D01*
X124765000Y-78555431D01*
X124765000Y-79444569D01*
X125105259Y-80266026D01*
X125733974Y-80894741D01*
X126555431Y-81235000D01*
X127444569Y-81235000D01*
X128266026Y-80894741D01*
X128894741Y-80266026D01*
X129235000Y-79444569D01*
X129235000Y-78696587D01*
X129265000Y-79032732D01*
X129265001Y-143957290D01*
X129235000Y-144214615D01*
X129235000Y-143555431D01*
X128894741Y-142733974D01*
X128266026Y-142105259D01*
X127444569Y-141765000D01*
X126555431Y-141765000D01*
X125733974Y-142105259D01*
X125105259Y-142733974D01*
X124765000Y-143555431D01*
X124765000Y-144444569D01*
X125105259Y-145266026D01*
X125733974Y-145894741D01*
X126555431Y-146235000D01*
X127303414Y-146235000D01*
X126967269Y-146265000D01*
X122613794Y-146265000D01*
X122519738Y-145950500D01*
X122477890Y-145859932D01*
X122437164Y-145768889D01*
X122432327Y-145761324D01*
X122123899Y-145285478D01*
X122058310Y-145210293D01*
X121993672Y-145134343D01*
X121986906Y-145128440D01*
X121557321Y-144758285D01*
X121473248Y-144704518D01*
X121389908Y-144649774D01*
X121381757Y-144646007D01*
X120865549Y-144411302D01*
X120769779Y-144383297D01*
X120674410Y-144354140D01*
X120665530Y-144352812D01*
X120123869Y-144275240D01*
X120072388Y-144265000D01*
X116077951Y-144265000D01*
X116114603Y-144249818D01*
X116419818Y-143944603D01*
X116585000Y-143545820D01*
X116585000Y-143114180D01*
X116419818Y-142715397D01*
X116114603Y-142410182D01*
X115715820Y-142245000D01*
X115284180Y-142245000D01*
X114885397Y-142410182D01*
X114580182Y-142715397D01*
X114415000Y-143114180D01*
X114415000Y-143545820D01*
X114580182Y-143944603D01*
X114885397Y-144249818D01*
X114922049Y-144265000D01*
X113077951Y-144265000D01*
X113114603Y-144249818D01*
X113419818Y-143944603D01*
X113585000Y-143545820D01*
X113585000Y-143114180D01*
X113419818Y-142715397D01*
X113114603Y-142410182D01*
X112715820Y-142245000D01*
X112284180Y-142245000D01*
X111885397Y-142410182D01*
X111580182Y-142715397D01*
X111415000Y-143114180D01*
X111415000Y-143545820D01*
X111580182Y-143944603D01*
X111885397Y-144249818D01*
X111922049Y-144265000D01*
X89073674Y-144265000D01*
X89275183Y-144081358D01*
X89521486Y-143556892D01*
X89400819Y-143327000D01*
X88207000Y-143327000D01*
X88207000Y-143347000D01*
X87953000Y-143347000D01*
X87953000Y-143327000D01*
X87933000Y-143327000D01*
X87933000Y-143073000D01*
X87953000Y-143073000D01*
X87953000Y-141879845D01*
X88207000Y-141879845D01*
X88207000Y-143073000D01*
X89400819Y-143073000D01*
X89521486Y-142843108D01*
X89275183Y-142318642D01*
X88846924Y-141928355D01*
X88436890Y-141758524D01*
X88207000Y-141879845D01*
X87953000Y-141879845D01*
X87723110Y-141758524D01*
X87313076Y-141928355D01*
X86884817Y-142318642D01*
X86823843Y-142448478D01*
X86610625Y-142129375D01*
X86119418Y-141801161D01*
X85686256Y-141715000D01*
X85393744Y-141715000D01*
X84960582Y-141801161D01*
X84469375Y-142129375D01*
X84457184Y-142147619D01*
X84448157Y-142102235D01*
X84307809Y-141892191D01*
X84097765Y-141751843D01*
X83850000Y-141702560D01*
X82150000Y-141702560D01*
X81902235Y-141751843D01*
X81692191Y-141892191D01*
X81551843Y-142102235D01*
X81502560Y-142350000D01*
X81502560Y-144050000D01*
X81545326Y-144265000D01*
X79927612Y-144265000D01*
X79900705Y-144270352D01*
X79649912Y-144288989D01*
X79576677Y-144305091D01*
X79502403Y-144315265D01*
X79493785Y-144317785D01*
X78950500Y-144480262D01*
X78859932Y-144522110D01*
X78768889Y-144562836D01*
X78761324Y-144567673D01*
X78285478Y-144876101D01*
X78210293Y-144941690D01*
X78134343Y-145006328D01*
X78128440Y-145013094D01*
X77758285Y-145442679D01*
X77704518Y-145526752D01*
X77649774Y-145610092D01*
X77646007Y-145618243D01*
X77411302Y-146134451D01*
X77383297Y-146230221D01*
X77372664Y-146265000D01*
X73042702Y-146265000D01*
X72785385Y-146235000D01*
X73444569Y-146235000D01*
X74266026Y-145894741D01*
X74894741Y-145266026D01*
X75235000Y-144444569D01*
X75235000Y-143555431D01*
X74894741Y-142733974D01*
X74266026Y-142105259D01*
X73444569Y-141765000D01*
X72555431Y-141765000D01*
X71733974Y-142105259D01*
X71105259Y-142733974D01*
X70765000Y-143555431D01*
X70765000Y-144303414D01*
X70735000Y-143967269D01*
X70735000Y-135238000D01*
X71590560Y-135238000D01*
X71590560Y-136762000D01*
X71639843Y-137009765D01*
X71780191Y-137219809D01*
X71990235Y-137360157D01*
X72238000Y-137409440D01*
X73762000Y-137409440D01*
X74009765Y-137360157D01*
X74219809Y-137219809D01*
X74235966Y-137195629D01*
X74722119Y-137397000D01*
X75277881Y-137397000D01*
X75791337Y-137184320D01*
X76000000Y-136975657D01*
X76208663Y-137184320D01*
X76722119Y-137397000D01*
X77277881Y-137397000D01*
X77791337Y-137184320D01*
X77995444Y-136980213D01*
X78199392Y-136980213D01*
X78268857Y-137222397D01*
X78792302Y-137409144D01*
X79347368Y-137381362D01*
X79731143Y-137222397D01*
X79800608Y-136980213D01*
X79000000Y-136179605D01*
X78199392Y-136980213D01*
X77995444Y-136980213D01*
X78184320Y-136791337D01*
X78294106Y-136526289D01*
X78820395Y-136000000D01*
X79179605Y-136000000D01*
X79980213Y-136800608D01*
X80222397Y-136731143D01*
X80409144Y-136207698D01*
X80381362Y-135652632D01*
X80222397Y-135268857D01*
X79980213Y-135199392D01*
X79179605Y-136000000D01*
X78820395Y-136000000D01*
X78294106Y-135473711D01*
X78184320Y-135208663D01*
X77995444Y-135019787D01*
X78199392Y-135019787D01*
X79000000Y-135820395D01*
X79800608Y-135019787D01*
X79731143Y-134777603D01*
X79207698Y-134590856D01*
X78652632Y-134618638D01*
X78268857Y-134777603D01*
X78199392Y-135019787D01*
X77995444Y-135019787D01*
X77791337Y-134815680D01*
X77415004Y-134659798D01*
X77814802Y-134260000D01*
X87592195Y-134260000D01*
X85895311Y-135956886D01*
X85877431Y-135913720D01*
X85586280Y-135622569D01*
X85205874Y-135465000D01*
X84794126Y-135465000D01*
X84413720Y-135622569D01*
X84122569Y-135913720D01*
X83965000Y-136294126D01*
X83965000Y-136599470D01*
X83925112Y-136800000D01*
X83940001Y-136874851D01*
X83940001Y-136893370D01*
X83924994Y-136905686D01*
X83855686Y-136974994D01*
X83775169Y-137073104D01*
X83720713Y-137154603D01*
X83660881Y-137266540D01*
X83623372Y-137357096D01*
X83586530Y-137478549D01*
X83567408Y-137574682D01*
X83554968Y-137700991D01*
X83554968Y-137737894D01*
X83552560Y-137750000D01*
X83552560Y-138250000D01*
X83554968Y-138262106D01*
X83554968Y-138299009D01*
X83567408Y-138425318D01*
X83586530Y-138521451D01*
X83623372Y-138642904D01*
X83660881Y-138733460D01*
X83720713Y-138845397D01*
X83775169Y-138926896D01*
X83855686Y-139025006D01*
X83924994Y-139094314D01*
X84023104Y-139174831D01*
X84104603Y-139229287D01*
X84216540Y-139289119D01*
X84307096Y-139326628D01*
X84428549Y-139363470D01*
X84524682Y-139382592D01*
X84650991Y-139395032D01*
X84687894Y-139395032D01*
X84700000Y-139397440D01*
X85250000Y-139397440D01*
X85375000Y-139372576D01*
X85500000Y-139397440D01*
X86500000Y-139397440D01*
X86625000Y-139372576D01*
X86750000Y-139397440D01*
X87300000Y-139397440D01*
X87312106Y-139395032D01*
X87349009Y-139395032D01*
X87475318Y-139382592D01*
X87571451Y-139363470D01*
X87692904Y-139326628D01*
X87783460Y-139289119D01*
X87895397Y-139229287D01*
X87976896Y-139174831D01*
X88075006Y-139094314D01*
X88144314Y-139025006D01*
X88224831Y-138926896D01*
X88279287Y-138845397D01*
X88339119Y-138733460D01*
X88376628Y-138642904D01*
X88413470Y-138521451D01*
X88432592Y-138425318D01*
X88445032Y-138299009D01*
X88445032Y-138262106D01*
X88447440Y-138250000D01*
X88447440Y-137750000D01*
X88445032Y-137737894D01*
X88445032Y-137700991D01*
X88432592Y-137574682D01*
X88413470Y-137478549D01*
X88376628Y-137357096D01*
X88339119Y-137266540D01*
X88289674Y-137174037D01*
X88377431Y-137086280D01*
X88535000Y-136705874D01*
X88535000Y-136294126D01*
X88377431Y-135913720D01*
X88232756Y-135769045D01*
X88741801Y-135260000D01*
X95685199Y-135260000D01*
X96465000Y-136039802D01*
X96465000Y-136205874D01*
X96622569Y-136586280D01*
X96913720Y-136877431D01*
X97294126Y-137035000D01*
X97705874Y-137035000D01*
X98086280Y-136877431D01*
X98377431Y-136586280D01*
X98535000Y-136205874D01*
X98535000Y-135794126D01*
X98377431Y-135413720D01*
X98201711Y-135238000D01*
X119590560Y-135238000D01*
X119590560Y-136762000D01*
X119639843Y-137009765D01*
X119780191Y-137219809D01*
X119990235Y-137360157D01*
X120238000Y-137409440D01*
X121762000Y-137409440D01*
X122009765Y-137360157D01*
X122219809Y-137219809D01*
X122235966Y-137195629D01*
X122722119Y-137397000D01*
X123277881Y-137397000D01*
X123791337Y-137184320D01*
X124000000Y-136975657D01*
X124208663Y-137184320D01*
X124722119Y-137397000D01*
X125277881Y-137397000D01*
X125791337Y-137184320D01*
X125995444Y-136980213D01*
X126199392Y-136980213D01*
X126268857Y-137222397D01*
X126792302Y-137409144D01*
X127347368Y-137381362D01*
X127731143Y-137222397D01*
X127800608Y-136980213D01*
X127000000Y-136179605D01*
X126199392Y-136980213D01*
X125995444Y-136980213D01*
X126184320Y-136791337D01*
X126294106Y-136526289D01*
X126820395Y-136000000D01*
X127179605Y-136000000D01*
X127980213Y-136800608D01*
X128222397Y-136731143D01*
X128409144Y-136207698D01*
X128381362Y-135652632D01*
X128222397Y-135268857D01*
X127980213Y-135199392D01*
X127179605Y-136000000D01*
X126820395Y-136000000D01*
X126294106Y-135473711D01*
X126184320Y-135208663D01*
X125995444Y-135019787D01*
X126199392Y-135019787D01*
X127000000Y-135820395D01*
X127800608Y-135019787D01*
X127731143Y-134777603D01*
X127207698Y-134590856D01*
X126652632Y-134618638D01*
X126268857Y-134777603D01*
X126199392Y-135019787D01*
X125995444Y-135019787D01*
X125791337Y-134815680D01*
X125277881Y-134603000D01*
X124722119Y-134603000D01*
X124208663Y-134815680D01*
X124000000Y-135024343D01*
X123791337Y-134815680D01*
X123277881Y-134603000D01*
X122722119Y-134603000D01*
X122235966Y-134804371D01*
X122219809Y-134780191D01*
X122009765Y-134639843D01*
X121762000Y-134590560D01*
X120238000Y-134590560D01*
X119990235Y-134639843D01*
X119780191Y-134780191D01*
X119639843Y-134990235D01*
X119590560Y-135238000D01*
X98201711Y-135238000D01*
X98086280Y-135122569D01*
X97705874Y-134965000D01*
X97539802Y-134965000D01*
X96834801Y-134260000D01*
X99796289Y-134260000D01*
X99913720Y-134377431D01*
X100294126Y-134535000D01*
X100705874Y-134535000D01*
X101086280Y-134377431D01*
X101377431Y-134086280D01*
X101535000Y-133705874D01*
X101535000Y-133535000D01*
X101705874Y-133535000D01*
X102086280Y-133377431D01*
X102377431Y-133086280D01*
X102535000Y-132705874D01*
X102535000Y-132294126D01*
X102377431Y-131913720D01*
X102086280Y-131622569D01*
X101705874Y-131465000D01*
X101294126Y-131465000D01*
X100913720Y-131622569D01*
X100796289Y-131740000D01*
X76574846Y-131740000D01*
X76499999Y-131725112D01*
X76425152Y-131740000D01*
X76425148Y-131740000D01*
X76203463Y-131784096D01*
X76203461Y-131784097D01*
X76203462Y-131784097D01*
X76015526Y-131909671D01*
X76015524Y-131909673D01*
X75952071Y-131952071D01*
X75909673Y-132015524D01*
X73334638Y-134590560D01*
X72238000Y-134590560D01*
X71990235Y-134639843D01*
X71780191Y-134780191D01*
X71639843Y-134990235D01*
X71590560Y-135238000D01*
X70735000Y-135238000D01*
X70735000Y-125238000D01*
X71590560Y-125238000D01*
X71590560Y-126762000D01*
X71639843Y-127009765D01*
X71780191Y-127219809D01*
X71990235Y-127360157D01*
X72238000Y-127409440D01*
X73762000Y-127409440D01*
X74009765Y-127360157D01*
X74219809Y-127219809D01*
X74235966Y-127195629D01*
X74722119Y-127397000D01*
X75277881Y-127397000D01*
X75791337Y-127184320D01*
X76000000Y-126975657D01*
X76165001Y-127140658D01*
X76165001Y-127317762D01*
X76148643Y-127400000D01*
X76213448Y-127725800D01*
X76270190Y-127810720D01*
X76398000Y-128002001D01*
X76467718Y-128048585D01*
X77351415Y-128932282D01*
X77397999Y-129002001D01*
X77674199Y-129186552D01*
X77917763Y-129235000D01*
X78000000Y-129251358D01*
X78082237Y-129235000D01*
X90417763Y-129235000D01*
X90500000Y-129251358D01*
X90582237Y-129235000D01*
X110165000Y-129235000D01*
X110165001Y-131371288D01*
X110122569Y-131413720D01*
X109965000Y-131794126D01*
X109965000Y-132205874D01*
X110122569Y-132586280D01*
X110413720Y-132877431D01*
X110794126Y-133035000D01*
X111205874Y-133035000D01*
X111586280Y-132877431D01*
X111877431Y-132586280D01*
X112035000Y-132205874D01*
X112035000Y-131794126D01*
X111877431Y-131413720D01*
X111835000Y-131371289D01*
X111835000Y-129235000D01*
X117517962Y-129235000D01*
X117518154Y-129235038D01*
X117599415Y-129235000D01*
X117682237Y-129235000D01*
X117682432Y-129234961D01*
X123387083Y-129232294D01*
X123429220Y-129274431D01*
X123809626Y-129432000D01*
X124221374Y-129432000D01*
X124601780Y-129274431D01*
X124892931Y-128983280D01*
X125050500Y-128602874D01*
X125050500Y-128191126D01*
X124892931Y-127810720D01*
X124601780Y-127519569D01*
X124221374Y-127362000D01*
X123809626Y-127362000D01*
X123429220Y-127519569D01*
X123386495Y-127562294D01*
X117600772Y-127565000D01*
X111835000Y-127565000D01*
X111835000Y-126628711D01*
X111877431Y-126586280D01*
X112035000Y-126205874D01*
X112035000Y-125794126D01*
X111877431Y-125413720D01*
X111701711Y-125238000D01*
X119590560Y-125238000D01*
X119590560Y-126762000D01*
X119639843Y-127009765D01*
X119780191Y-127219809D01*
X119990235Y-127360157D01*
X120238000Y-127409440D01*
X121762000Y-127409440D01*
X122009765Y-127360157D01*
X122219809Y-127219809D01*
X122235966Y-127195629D01*
X122722119Y-127397000D01*
X123277881Y-127397000D01*
X123791337Y-127184320D01*
X124000000Y-126975657D01*
X124208663Y-127184320D01*
X124722119Y-127397000D01*
X125277881Y-127397000D01*
X125791337Y-127184320D01*
X125995444Y-126980213D01*
X126199392Y-126980213D01*
X126268857Y-127222397D01*
X126792302Y-127409144D01*
X127347368Y-127381362D01*
X127731143Y-127222397D01*
X127800608Y-126980213D01*
X127000000Y-126179605D01*
X126199392Y-126980213D01*
X125995444Y-126980213D01*
X126184320Y-126791337D01*
X126294106Y-126526289D01*
X126820395Y-126000000D01*
X127179605Y-126000000D01*
X127980213Y-126800608D01*
X128222397Y-126731143D01*
X128409144Y-126207698D01*
X128381362Y-125652632D01*
X128222397Y-125268857D01*
X127980213Y-125199392D01*
X127179605Y-126000000D01*
X126820395Y-126000000D01*
X126294106Y-125473711D01*
X126184320Y-125208663D01*
X125995444Y-125019787D01*
X126199392Y-125019787D01*
X127000000Y-125820395D01*
X127800608Y-125019787D01*
X127731143Y-124777603D01*
X127207698Y-124590856D01*
X126652632Y-124618638D01*
X126268857Y-124777603D01*
X126199392Y-125019787D01*
X125995444Y-125019787D01*
X125791337Y-124815680D01*
X125277881Y-124603000D01*
X124722119Y-124603000D01*
X124208663Y-124815680D01*
X124000000Y-125024343D01*
X123791337Y-124815680D01*
X123277881Y-124603000D01*
X122722119Y-124603000D01*
X122235966Y-124804371D01*
X122219809Y-124780191D01*
X122009765Y-124639843D01*
X121762000Y-124590560D01*
X120238000Y-124590560D01*
X119990235Y-124639843D01*
X119780191Y-124780191D01*
X119639843Y-124990235D01*
X119590560Y-125238000D01*
X111701711Y-125238000D01*
X111586280Y-125122569D01*
X111205874Y-124965000D01*
X110794126Y-124965000D01*
X110413720Y-125122569D01*
X110122569Y-125413720D01*
X109965000Y-125794126D01*
X109965000Y-126205874D01*
X110122569Y-126586280D01*
X110165001Y-126628712D01*
X110165000Y-127565000D01*
X91335000Y-127565000D01*
X91335000Y-126535000D01*
X91705874Y-126535000D01*
X92086280Y-126377431D01*
X92377431Y-126086280D01*
X92535000Y-125705874D01*
X92535000Y-125294126D01*
X92377431Y-124913720D01*
X92257837Y-124794126D01*
X93465000Y-124794126D01*
X93465000Y-125205874D01*
X93622569Y-125586280D01*
X93913720Y-125877431D01*
X94294126Y-126035000D01*
X94443432Y-126035000D01*
X94452071Y-126047929D01*
X94515527Y-126090329D01*
X94703462Y-126215904D01*
X94751605Y-126225480D01*
X94925148Y-126260000D01*
X94925152Y-126260000D01*
X95000000Y-126274888D01*
X95074848Y-126260000D01*
X98296289Y-126260000D01*
X98413720Y-126377431D01*
X98794126Y-126535000D01*
X99205874Y-126535000D01*
X99586280Y-126377431D01*
X99669585Y-126294126D01*
X99965000Y-126294126D01*
X99965000Y-126705874D01*
X100122569Y-127086280D01*
X100413720Y-127377431D01*
X100794126Y-127535000D01*
X101205874Y-127535000D01*
X101586280Y-127377431D01*
X101703711Y-127260000D01*
X101896289Y-127260000D01*
X102013720Y-127377431D01*
X102394126Y-127535000D01*
X102805874Y-127535000D01*
X103186280Y-127377431D01*
X103477431Y-127086280D01*
X103635000Y-126705874D01*
X103635000Y-126294126D01*
X103477431Y-125913720D01*
X103186280Y-125622569D01*
X102805874Y-125465000D01*
X102394126Y-125465000D01*
X102013720Y-125622569D01*
X101896289Y-125740000D01*
X101703711Y-125740000D01*
X101586280Y-125622569D01*
X101205874Y-125465000D01*
X100794126Y-125465000D01*
X100413720Y-125622569D01*
X100122569Y-125913720D01*
X99965000Y-126294126D01*
X99669585Y-126294126D01*
X99877431Y-126086280D01*
X100035000Y-125705874D01*
X100035000Y-125294126D01*
X99877431Y-124913720D01*
X99586280Y-124622569D01*
X99205874Y-124465000D01*
X98794126Y-124465000D01*
X98413720Y-124622569D01*
X98296289Y-124740000D01*
X95512580Y-124740000D01*
X95377431Y-124413720D01*
X95086280Y-124122569D01*
X94705874Y-123965000D01*
X94294126Y-123965000D01*
X93913720Y-124122569D01*
X93622569Y-124413720D01*
X93465000Y-124794126D01*
X92257837Y-124794126D01*
X92213711Y-124750000D01*
X92377431Y-124586280D01*
X92535000Y-124205874D01*
X92535000Y-123794126D01*
X92377431Y-123413720D01*
X92086280Y-123122569D01*
X91705874Y-122965000D01*
X91294126Y-122965000D01*
X90913720Y-123122569D01*
X90796289Y-123240000D01*
X74062847Y-123240000D01*
X73988000Y-123225112D01*
X73913153Y-123240000D01*
X73913148Y-123240000D01*
X73691463Y-123284096D01*
X73440071Y-123452071D01*
X73397671Y-123515527D01*
X73178537Y-123734661D01*
X72790630Y-124122569D01*
X72515530Y-124397669D01*
X72452071Y-124440071D01*
X72351518Y-124590560D01*
X72238000Y-124590560D01*
X71990235Y-124639843D01*
X71780191Y-124780191D01*
X71639843Y-124990235D01*
X71590560Y-125238000D01*
X70735000Y-125238000D01*
X70735000Y-122794126D01*
X99465000Y-122794126D01*
X99465000Y-123205874D01*
X99622569Y-123586280D01*
X99913720Y-123877431D01*
X100294126Y-124035000D01*
X100705874Y-124035000D01*
X101086280Y-123877431D01*
X101203711Y-123760000D01*
X102796289Y-123760000D01*
X102913720Y-123877431D01*
X103294126Y-124035000D01*
X103705874Y-124035000D01*
X104086280Y-123877431D01*
X104377431Y-123586280D01*
X104535000Y-123205874D01*
X104535000Y-122794126D01*
X104377431Y-122413720D01*
X104086280Y-122122569D01*
X103705874Y-121965000D01*
X103294126Y-121965000D01*
X102913720Y-122122569D01*
X102796289Y-122240000D01*
X101203711Y-122240000D01*
X101086280Y-122122569D01*
X100705874Y-121965000D01*
X100294126Y-121965000D01*
X99913720Y-122122569D01*
X99622569Y-122413720D01*
X99465000Y-122794126D01*
X70735000Y-122794126D01*
X70735000Y-119294126D01*
X82965000Y-119294126D01*
X82965000Y-119705874D01*
X83122569Y-120086280D01*
X83413720Y-120377431D01*
X83794126Y-120535000D01*
X84205874Y-120535000D01*
X84586280Y-120377431D01*
X84628711Y-120335000D01*
X94201289Y-120335000D01*
X94122569Y-120413720D01*
X93965000Y-120794126D01*
X93965000Y-121205874D01*
X94122569Y-121586280D01*
X94413720Y-121877431D01*
X94794126Y-122035000D01*
X95205874Y-122035000D01*
X95586280Y-121877431D01*
X95703711Y-121760000D01*
X97421289Y-121760000D01*
X97538720Y-121877431D01*
X97919126Y-122035000D01*
X98330874Y-122035000D01*
X98711280Y-121877431D01*
X99002431Y-121586280D01*
X99160000Y-121205874D01*
X99160000Y-120794126D01*
X99002431Y-120413720D01*
X98923711Y-120335000D01*
X106154133Y-120335000D01*
X107465000Y-121645868D01*
X107465000Y-121705874D01*
X107622569Y-122086280D01*
X107913720Y-122377431D01*
X108294126Y-122535000D01*
X108705874Y-122535000D01*
X109086280Y-122377431D01*
X109377431Y-122086280D01*
X109535000Y-121705874D01*
X109535000Y-121294126D01*
X109377431Y-120913720D01*
X109086280Y-120622569D01*
X108705874Y-120465000D01*
X108645868Y-120465000D01*
X107148587Y-118967720D01*
X107102001Y-118897999D01*
X106825801Y-118713448D01*
X106582237Y-118665000D01*
X106582233Y-118665000D01*
X106500000Y-118648643D01*
X106417767Y-118665000D01*
X84628711Y-118665000D01*
X84586280Y-118622569D01*
X84205874Y-118465000D01*
X83794126Y-118465000D01*
X83413720Y-118622569D01*
X83122569Y-118913720D01*
X82965000Y-119294126D01*
X70735000Y-119294126D01*
X70735000Y-115238000D01*
X71590560Y-115238000D01*
X71590560Y-116762000D01*
X71639843Y-117009765D01*
X71780191Y-117219809D01*
X71990235Y-117360157D01*
X72238000Y-117409440D01*
X73762000Y-117409440D01*
X74009765Y-117360157D01*
X74219809Y-117219809D01*
X74235966Y-117195629D01*
X74722119Y-117397000D01*
X75277881Y-117397000D01*
X75791337Y-117184320D01*
X76000000Y-116975657D01*
X76208663Y-117184320D01*
X76722119Y-117397000D01*
X77277881Y-117397000D01*
X77791337Y-117184320D01*
X77995444Y-116980213D01*
X78199392Y-116980213D01*
X78268857Y-117222397D01*
X78792302Y-117409144D01*
X79347368Y-117381362D01*
X79731143Y-117222397D01*
X79800608Y-116980213D01*
X79000000Y-116179605D01*
X78199392Y-116980213D01*
X77995444Y-116980213D01*
X78184320Y-116791337D01*
X78294106Y-116526289D01*
X78820395Y-116000000D01*
X79179605Y-116000000D01*
X79980213Y-116800608D01*
X80222397Y-116731143D01*
X80409144Y-116207698D01*
X80381362Y-115652632D01*
X80222397Y-115268857D01*
X80114817Y-115238000D01*
X119590560Y-115238000D01*
X119590560Y-116762000D01*
X119639843Y-117009765D01*
X119780191Y-117219809D01*
X119990235Y-117360157D01*
X120238000Y-117409440D01*
X121762000Y-117409440D01*
X122009765Y-117360157D01*
X122219809Y-117219809D01*
X122235966Y-117195629D01*
X122722119Y-117397000D01*
X123277881Y-117397000D01*
X123791337Y-117184320D01*
X124000000Y-116975657D01*
X124208663Y-117184320D01*
X124722119Y-117397000D01*
X125277881Y-117397000D01*
X125791337Y-117184320D01*
X125995444Y-116980213D01*
X126199392Y-116980213D01*
X126268857Y-117222397D01*
X126792302Y-117409144D01*
X127347368Y-117381362D01*
X127731143Y-117222397D01*
X127800608Y-116980213D01*
X127000000Y-116179605D01*
X126199392Y-116980213D01*
X125995444Y-116980213D01*
X126184320Y-116791337D01*
X126294106Y-116526289D01*
X126820395Y-116000000D01*
X127179605Y-116000000D01*
X127980213Y-116800608D01*
X128222397Y-116731143D01*
X128409144Y-116207698D01*
X128381362Y-115652632D01*
X128222397Y-115268857D01*
X127980213Y-115199392D01*
X127179605Y-116000000D01*
X126820395Y-116000000D01*
X126294106Y-115473711D01*
X126184320Y-115208663D01*
X125995444Y-115019787D01*
X126199392Y-115019787D01*
X127000000Y-115820395D01*
X127800608Y-115019787D01*
X127731143Y-114777603D01*
X127207698Y-114590856D01*
X126652632Y-114618638D01*
X126268857Y-114777603D01*
X126199392Y-115019787D01*
X125995444Y-115019787D01*
X125791337Y-114815680D01*
X125277881Y-114603000D01*
X124722119Y-114603000D01*
X124208663Y-114815680D01*
X124000000Y-115024343D01*
X123791337Y-114815680D01*
X123277881Y-114603000D01*
X122722119Y-114603000D01*
X122235966Y-114804371D01*
X122219809Y-114780191D01*
X122009765Y-114639843D01*
X121762000Y-114590560D01*
X120238000Y-114590560D01*
X119990235Y-114639843D01*
X119780191Y-114780191D01*
X119639843Y-114990235D01*
X119590560Y-115238000D01*
X80114817Y-115238000D01*
X79980213Y-115199392D01*
X79179605Y-116000000D01*
X78820395Y-116000000D01*
X78294106Y-115473711D01*
X78184320Y-115208663D01*
X77995444Y-115019787D01*
X78199392Y-115019787D01*
X79000000Y-115820395D01*
X79800608Y-115019787D01*
X79731143Y-114777603D01*
X79207698Y-114590856D01*
X78652632Y-114618638D01*
X78268857Y-114777603D01*
X78199392Y-115019787D01*
X77995444Y-115019787D01*
X77791337Y-114815680D01*
X77277881Y-114603000D01*
X76722119Y-114603000D01*
X76208663Y-114815680D01*
X76000000Y-115024343D01*
X75791337Y-114815680D01*
X75277881Y-114603000D01*
X74722119Y-114603000D01*
X74235966Y-114804371D01*
X74219809Y-114780191D01*
X74009765Y-114639843D01*
X73762000Y-114590560D01*
X72238000Y-114590560D01*
X71990235Y-114639843D01*
X71780191Y-114780191D01*
X71639843Y-114990235D01*
X71590560Y-115238000D01*
X70735000Y-115238000D01*
X70735000Y-105238000D01*
X71590560Y-105238000D01*
X71590560Y-106762000D01*
X71639843Y-107009765D01*
X71780191Y-107219809D01*
X71990235Y-107360157D01*
X72238000Y-107409440D01*
X73762000Y-107409440D01*
X74009765Y-107360157D01*
X74219809Y-107219809D01*
X74235966Y-107195629D01*
X74722119Y-107397000D01*
X75277881Y-107397000D01*
X75791337Y-107184320D01*
X76000000Y-106975657D01*
X76208663Y-107184320D01*
X76722119Y-107397000D01*
X77277881Y-107397000D01*
X77791337Y-107184320D01*
X77995444Y-106980213D01*
X78199392Y-106980213D01*
X78268857Y-107222397D01*
X78792302Y-107409144D01*
X79347368Y-107381362D01*
X79731143Y-107222397D01*
X79800608Y-106980213D01*
X79000000Y-106179605D01*
X78199392Y-106980213D01*
X77995444Y-106980213D01*
X78184320Y-106791337D01*
X78294106Y-106526289D01*
X78820395Y-106000000D01*
X79179605Y-106000000D01*
X79980213Y-106800608D01*
X80222397Y-106731143D01*
X80409144Y-106207698D01*
X80381362Y-105652632D01*
X80222397Y-105268857D01*
X79980213Y-105199392D01*
X79179605Y-106000000D01*
X78820395Y-106000000D01*
X78294106Y-105473711D01*
X78184320Y-105208663D01*
X77995444Y-105019787D01*
X78199392Y-105019787D01*
X79000000Y-105820395D01*
X79800608Y-105019787D01*
X79731143Y-104777603D01*
X79207698Y-104590856D01*
X78652632Y-104618638D01*
X78268857Y-104777603D01*
X78199392Y-105019787D01*
X77995444Y-105019787D01*
X77791337Y-104815680D01*
X77277881Y-104603000D01*
X76722119Y-104603000D01*
X76208663Y-104815680D01*
X76000000Y-105024343D01*
X75791337Y-104815680D01*
X75277881Y-104603000D01*
X74722119Y-104603000D01*
X74235966Y-104804371D01*
X74219809Y-104780191D01*
X74009765Y-104639843D01*
X73762000Y-104590560D01*
X72238000Y-104590560D01*
X71990235Y-104639843D01*
X71780191Y-104780191D01*
X71639843Y-104990235D01*
X71590560Y-105238000D01*
X70735000Y-105238000D01*
X70735000Y-101794126D01*
X80965000Y-101794126D01*
X80965000Y-102205874D01*
X81122569Y-102586280D01*
X81240000Y-102703711D01*
X81240001Y-109296288D01*
X81122569Y-109413720D01*
X80965000Y-109794126D01*
X80965000Y-110205874D01*
X81122569Y-110586280D01*
X81413720Y-110877431D01*
X81794126Y-111035000D01*
X81965000Y-111035000D01*
X81965000Y-111205874D01*
X82122569Y-111586280D01*
X82413720Y-111877431D01*
X82794126Y-112035000D01*
X83205874Y-112035000D01*
X83586280Y-111877431D01*
X83877431Y-111586280D01*
X84035000Y-111205874D01*
X84035000Y-110794126D01*
X83877431Y-110413720D01*
X83760000Y-110296289D01*
X83760000Y-105238000D01*
X119590560Y-105238000D01*
X119590560Y-106762000D01*
X119639843Y-107009765D01*
X119780191Y-107219809D01*
X119990235Y-107360157D01*
X120238000Y-107409440D01*
X121762000Y-107409440D01*
X122009765Y-107360157D01*
X122219809Y-107219809D01*
X122235966Y-107195629D01*
X122722119Y-107397000D01*
X123277881Y-107397000D01*
X123791337Y-107184320D01*
X124000000Y-106975657D01*
X124208663Y-107184320D01*
X124722119Y-107397000D01*
X125277881Y-107397000D01*
X125791337Y-107184320D01*
X125995444Y-106980213D01*
X126199392Y-106980213D01*
X126268857Y-107222397D01*
X126792302Y-107409144D01*
X127347368Y-107381362D01*
X127731143Y-107222397D01*
X127800608Y-106980213D01*
X127000000Y-106179605D01*
X126199392Y-106980213D01*
X125995444Y-106980213D01*
X126184320Y-106791337D01*
X126294106Y-106526289D01*
X126820395Y-106000000D01*
X127179605Y-106000000D01*
X127980213Y-106800608D01*
X128222397Y-106731143D01*
X128409144Y-106207698D01*
X128381362Y-105652632D01*
X128222397Y-105268857D01*
X127980213Y-105199392D01*
X127179605Y-106000000D01*
X126820395Y-106000000D01*
X126294106Y-105473711D01*
X126184320Y-105208663D01*
X125995444Y-105019787D01*
X126199392Y-105019787D01*
X127000000Y-105820395D01*
X127800608Y-105019787D01*
X127731143Y-104777603D01*
X127207698Y-104590856D01*
X126652632Y-104618638D01*
X126268857Y-104777603D01*
X126199392Y-105019787D01*
X125995444Y-105019787D01*
X125791337Y-104815680D01*
X125277881Y-104603000D01*
X124722119Y-104603000D01*
X124208663Y-104815680D01*
X124000000Y-105024343D01*
X123791337Y-104815680D01*
X123277881Y-104603000D01*
X122722119Y-104603000D01*
X122235966Y-104804371D01*
X122219809Y-104780191D01*
X122009765Y-104639843D01*
X121762000Y-104590560D01*
X120238000Y-104590560D01*
X119990235Y-104639843D01*
X119780191Y-104780191D01*
X119639843Y-104990235D01*
X119590560Y-105238000D01*
X83760000Y-105238000D01*
X83760000Y-100703711D01*
X83877431Y-100586280D01*
X84035000Y-100205874D01*
X84035000Y-99794126D01*
X83877431Y-99413720D01*
X83586280Y-99122569D01*
X83205874Y-98965000D01*
X82794126Y-98965000D01*
X82413720Y-99122569D01*
X82122569Y-99413720D01*
X81965000Y-99794126D01*
X81965000Y-100205874D01*
X82122569Y-100586280D01*
X82240000Y-100703711D01*
X82240000Y-100979135D01*
X82205874Y-100965000D01*
X81794126Y-100965000D01*
X81413720Y-101122569D01*
X81122569Y-101413720D01*
X80965000Y-101794126D01*
X70735000Y-101794126D01*
X70735000Y-95238000D01*
X71590560Y-95238000D01*
X71590560Y-96762000D01*
X71639843Y-97009765D01*
X71780191Y-97219809D01*
X71990235Y-97360157D01*
X72238000Y-97409440D01*
X73762000Y-97409440D01*
X74009765Y-97360157D01*
X74219809Y-97219809D01*
X74235966Y-97195629D01*
X74722119Y-97397000D01*
X75277881Y-97397000D01*
X75791337Y-97184320D01*
X76000000Y-96975657D01*
X76208663Y-97184320D01*
X76722119Y-97397000D01*
X77277881Y-97397000D01*
X77791337Y-97184320D01*
X77995444Y-96980213D01*
X78199392Y-96980213D01*
X78268857Y-97222397D01*
X78792302Y-97409144D01*
X79347368Y-97381362D01*
X79731143Y-97222397D01*
X79800608Y-96980213D01*
X79000000Y-96179605D01*
X78199392Y-96980213D01*
X77995444Y-96980213D01*
X78184320Y-96791337D01*
X78294106Y-96526289D01*
X78820395Y-96000000D01*
X79179605Y-96000000D01*
X79980213Y-96800608D01*
X80222397Y-96731143D01*
X80409144Y-96207698D01*
X80381362Y-95652632D01*
X80222397Y-95268857D01*
X80114817Y-95238000D01*
X119590560Y-95238000D01*
X119590560Y-96762000D01*
X119639843Y-97009765D01*
X119780191Y-97219809D01*
X119990235Y-97360157D01*
X120238000Y-97409440D01*
X121762000Y-97409440D01*
X122009765Y-97360157D01*
X122219809Y-97219809D01*
X122235966Y-97195629D01*
X122722119Y-97397000D01*
X123277881Y-97397000D01*
X123791337Y-97184320D01*
X124000000Y-96975657D01*
X124208663Y-97184320D01*
X124722119Y-97397000D01*
X125277881Y-97397000D01*
X125791337Y-97184320D01*
X125995444Y-96980213D01*
X126199392Y-96980213D01*
X126268857Y-97222397D01*
X126792302Y-97409144D01*
X127347368Y-97381362D01*
X127731143Y-97222397D01*
X127800608Y-96980213D01*
X127000000Y-96179605D01*
X126199392Y-96980213D01*
X125995444Y-96980213D01*
X126184320Y-96791337D01*
X126294106Y-96526289D01*
X126820395Y-96000000D01*
X127179605Y-96000000D01*
X127980213Y-96800608D01*
X128222397Y-96731143D01*
X128409144Y-96207698D01*
X128381362Y-95652632D01*
X128222397Y-95268857D01*
X127980213Y-95199392D01*
X127179605Y-96000000D01*
X126820395Y-96000000D01*
X126294106Y-95473711D01*
X126184320Y-95208663D01*
X125995444Y-95019787D01*
X126199392Y-95019787D01*
X127000000Y-95820395D01*
X127800608Y-95019787D01*
X127731143Y-94777603D01*
X127207698Y-94590856D01*
X126652632Y-94618638D01*
X126268857Y-94777603D01*
X126199392Y-95019787D01*
X125995444Y-95019787D01*
X125791337Y-94815680D01*
X125277881Y-94603000D01*
X124722119Y-94603000D01*
X124208663Y-94815680D01*
X124000000Y-95024343D01*
X123791337Y-94815680D01*
X123277881Y-94603000D01*
X122722119Y-94603000D01*
X122235966Y-94804371D01*
X122219809Y-94780191D01*
X122009765Y-94639843D01*
X121762000Y-94590560D01*
X120238000Y-94590560D01*
X119990235Y-94639843D01*
X119780191Y-94780191D01*
X119639843Y-94990235D01*
X119590560Y-95238000D01*
X80114817Y-95238000D01*
X79980213Y-95199392D01*
X79179605Y-96000000D01*
X78820395Y-96000000D01*
X78294106Y-95473711D01*
X78184320Y-95208663D01*
X77995444Y-95019787D01*
X78199392Y-95019787D01*
X79000000Y-95820395D01*
X79800608Y-95019787D01*
X79731143Y-94777603D01*
X79207698Y-94590856D01*
X78652632Y-94618638D01*
X78268857Y-94777603D01*
X78199392Y-95019787D01*
X77995444Y-95019787D01*
X77791337Y-94815680D01*
X77277881Y-94603000D01*
X76722119Y-94603000D01*
X76208663Y-94815680D01*
X76000000Y-95024343D01*
X75791337Y-94815680D01*
X75277881Y-94603000D01*
X74722119Y-94603000D01*
X74235966Y-94804371D01*
X74219809Y-94780191D01*
X74009765Y-94639843D01*
X73762000Y-94590560D01*
X72238000Y-94590560D01*
X71990235Y-94639843D01*
X71780191Y-94780191D01*
X71639843Y-94990235D01*
X71590560Y-95238000D01*
X70735000Y-95238000D01*
X70735000Y-88794126D01*
X97965000Y-88794126D01*
X97965000Y-89205874D01*
X98122569Y-89586280D01*
X98240000Y-89703711D01*
X98240001Y-90796288D01*
X98122569Y-90913720D01*
X97965000Y-91294126D01*
X97965000Y-91705874D01*
X98122569Y-92086280D01*
X98413720Y-92377431D01*
X98794126Y-92535000D01*
X99205874Y-92535000D01*
X99586280Y-92377431D01*
X99877431Y-92086280D01*
X100035000Y-91705874D01*
X100035000Y-91294126D01*
X99877431Y-90913720D01*
X99760000Y-90796289D01*
X99760000Y-89703711D01*
X99877431Y-89586280D01*
X100035000Y-89205874D01*
X100035000Y-88794126D01*
X99877431Y-88413720D01*
X99586280Y-88122569D01*
X99205874Y-87965000D01*
X98794126Y-87965000D01*
X98413720Y-88122569D01*
X98122569Y-88413720D01*
X97965000Y-88794126D01*
X70735000Y-88794126D01*
X70735000Y-85238000D01*
X71590560Y-85238000D01*
X71590560Y-86762000D01*
X71639843Y-87009765D01*
X71780191Y-87219809D01*
X71990235Y-87360157D01*
X72238000Y-87409440D01*
X73762000Y-87409440D01*
X74009765Y-87360157D01*
X74219809Y-87219809D01*
X74235966Y-87195629D01*
X74722119Y-87397000D01*
X75277881Y-87397000D01*
X75791337Y-87184320D01*
X76000000Y-86975657D01*
X76208663Y-87184320D01*
X76722119Y-87397000D01*
X77277881Y-87397000D01*
X77791337Y-87184320D01*
X77995444Y-86980213D01*
X78199392Y-86980213D01*
X78268857Y-87222397D01*
X78792302Y-87409144D01*
X79347368Y-87381362D01*
X79731143Y-87222397D01*
X79800608Y-86980213D01*
X79000000Y-86179605D01*
X78199392Y-86980213D01*
X77995444Y-86980213D01*
X78184320Y-86791337D01*
X78294106Y-86526289D01*
X78820395Y-86000000D01*
X79179605Y-86000000D01*
X79980213Y-86800608D01*
X80222397Y-86731143D01*
X80409144Y-86207698D01*
X80390572Y-85836626D01*
X94532500Y-85836626D01*
X94532500Y-86248374D01*
X94690069Y-86628780D01*
X94981220Y-86919931D01*
X95361626Y-87077500D01*
X95773374Y-87077500D01*
X96153780Y-86919931D01*
X96271211Y-86802500D01*
X98165789Y-86802500D01*
X98283220Y-86919931D01*
X98663626Y-87077500D01*
X99075374Y-87077500D01*
X99455780Y-86919931D01*
X99746931Y-86628780D01*
X99904500Y-86248374D01*
X99904500Y-85836626D01*
X99746931Y-85456220D01*
X99528711Y-85238000D01*
X119590560Y-85238000D01*
X119590560Y-86762000D01*
X119639843Y-87009765D01*
X119780191Y-87219809D01*
X119990235Y-87360157D01*
X120238000Y-87409440D01*
X121762000Y-87409440D01*
X122009765Y-87360157D01*
X122219809Y-87219809D01*
X122235966Y-87195629D01*
X122722119Y-87397000D01*
X123277881Y-87397000D01*
X123791337Y-87184320D01*
X124000000Y-86975657D01*
X124208663Y-87184320D01*
X124722119Y-87397000D01*
X125277881Y-87397000D01*
X125791337Y-87184320D01*
X125995444Y-86980213D01*
X126199392Y-86980213D01*
X126268857Y-87222397D01*
X126792302Y-87409144D01*
X127347368Y-87381362D01*
X127731143Y-87222397D01*
X127800608Y-86980213D01*
X127000000Y-86179605D01*
X126199392Y-86980213D01*
X125995444Y-86980213D01*
X126184320Y-86791337D01*
X126294106Y-86526289D01*
X126820395Y-86000000D01*
X127179605Y-86000000D01*
X127980213Y-86800608D01*
X128222397Y-86731143D01*
X128409144Y-86207698D01*
X128381362Y-85652632D01*
X128222397Y-85268857D01*
X127980213Y-85199392D01*
X127179605Y-86000000D01*
X126820395Y-86000000D01*
X126294106Y-85473711D01*
X126184320Y-85208663D01*
X125995444Y-85019787D01*
X126199392Y-85019787D01*
X127000000Y-85820395D01*
X127800608Y-85019787D01*
X127731143Y-84777603D01*
X127207698Y-84590856D01*
X126652632Y-84618638D01*
X126268857Y-84777603D01*
X126199392Y-85019787D01*
X125995444Y-85019787D01*
X125791337Y-84815680D01*
X125277881Y-84603000D01*
X124722119Y-84603000D01*
X124208663Y-84815680D01*
X124000000Y-85024343D01*
X123791337Y-84815680D01*
X123277881Y-84603000D01*
X122722119Y-84603000D01*
X122235966Y-84804371D01*
X122219809Y-84780191D01*
X122009765Y-84639843D01*
X121762000Y-84590560D01*
X120238000Y-84590560D01*
X119990235Y-84639843D01*
X119780191Y-84780191D01*
X119639843Y-84990235D01*
X119590560Y-85238000D01*
X99528711Y-85238000D01*
X99455780Y-85165069D01*
X99075374Y-85007500D01*
X98663626Y-85007500D01*
X98283220Y-85165069D01*
X98165789Y-85282500D01*
X96271211Y-85282500D01*
X96153780Y-85165069D01*
X95773374Y-85007500D01*
X95361626Y-85007500D01*
X94981220Y-85165069D01*
X94690069Y-85456220D01*
X94532500Y-85836626D01*
X80390572Y-85836626D01*
X80381362Y-85652632D01*
X80222397Y-85268857D01*
X79980213Y-85199392D01*
X79179605Y-86000000D01*
X78820395Y-86000000D01*
X78294106Y-85473711D01*
X78184320Y-85208663D01*
X77913618Y-84937961D01*
X78166579Y-84685000D01*
X78492420Y-84685000D01*
X78268857Y-84777603D01*
X78199392Y-85019787D01*
X79000000Y-85820395D01*
X79800608Y-85019787D01*
X79731143Y-84777603D01*
X79471580Y-84685000D01*
X86292839Y-84685000D01*
X86380000Y-84702337D01*
X86467161Y-84685000D01*
X86467165Y-84685000D01*
X86725310Y-84633652D01*
X86774177Y-84601000D01*
X86819874Y-84601000D01*
X87200280Y-84443431D01*
X87491431Y-84152280D01*
X87649000Y-83771874D01*
X87649000Y-83360126D01*
X87491431Y-82979720D01*
X87200280Y-82688569D01*
X86819874Y-82531000D01*
X86408126Y-82531000D01*
X86027720Y-82688569D01*
X85801289Y-82915000D01*
X77887161Y-82915000D01*
X77800000Y-82897663D01*
X77712839Y-82915000D01*
X77712835Y-82915000D01*
X77454690Y-82966348D01*
X77235845Y-83112576D01*
X77235844Y-83112577D01*
X77161951Y-83161951D01*
X77112577Y-83235844D01*
X76435845Y-83912577D01*
X76361952Y-83961951D01*
X76312578Y-84035844D01*
X76312576Y-84035846D01*
X76166348Y-84254691D01*
X76097663Y-84600000D01*
X76115001Y-84687165D01*
X76115001Y-84909342D01*
X76000000Y-85024343D01*
X75791337Y-84815680D01*
X75277881Y-84603000D01*
X74722119Y-84603000D01*
X74235966Y-84804371D01*
X74219809Y-84780191D01*
X74009765Y-84639843D01*
X73762000Y-84590560D01*
X72238000Y-84590560D01*
X71990235Y-84639843D01*
X71780191Y-84780191D01*
X71639843Y-84990235D01*
X71590560Y-85238000D01*
X70735000Y-85238000D01*
X70735000Y-79042702D01*
X70765000Y-78785385D01*
X70765000Y-79444569D01*
X71105259Y-80266026D01*
X71733974Y-80894741D01*
X72555431Y-81235000D01*
X73444569Y-81235000D01*
X74266026Y-80894741D01*
X74393393Y-80767374D01*
X96938248Y-80767374D01*
X96938248Y-81179122D01*
X97095817Y-81559528D01*
X97386968Y-81850679D01*
X97767374Y-82008248D01*
X98179122Y-82008248D01*
X98559528Y-81850679D01*
X98676959Y-81733248D01*
X100758447Y-81733248D01*
X102265000Y-83239802D01*
X102265000Y-83405874D01*
X102422569Y-83786280D01*
X102713720Y-84077431D01*
X103094126Y-84235000D01*
X103505874Y-84235000D01*
X103886280Y-84077431D01*
X104177431Y-83786280D01*
X104335000Y-83405874D01*
X104335000Y-82994126D01*
X104177431Y-82613720D01*
X103886280Y-82322569D01*
X103505874Y-82165000D01*
X103339802Y-82165000D01*
X101663579Y-80488778D01*
X101621177Y-80425319D01*
X101369785Y-80257344D01*
X101148100Y-80213248D01*
X101148095Y-80213248D01*
X101073248Y-80198360D01*
X101023248Y-80208306D01*
X100973248Y-80198360D01*
X100898401Y-80213248D01*
X98676959Y-80213248D01*
X98559528Y-80095817D01*
X98179122Y-79938248D01*
X97767374Y-79938248D01*
X97386968Y-80095817D01*
X97095817Y-80386968D01*
X96938248Y-80767374D01*
X74393393Y-80767374D01*
X74894741Y-80266026D01*
X75235000Y-79444569D01*
X75235000Y-78555431D01*
X74894741Y-77733974D01*
X74266026Y-77105259D01*
X73444569Y-76765000D01*
X72696587Y-76765000D01*
X73032732Y-76735000D01*
X126957298Y-76735000D01*
X127214615Y-76765000D01*
G36*
X88965000Y-125705874D02*
X89122569Y-126086280D01*
X89413720Y-126377431D01*
X89665001Y-126481515D01*
X89665000Y-127565000D01*
X78345868Y-127565000D01*
X77878262Y-127097395D01*
X77995444Y-126980213D01*
X78199392Y-126980213D01*
X78268857Y-127222397D01*
X78792302Y-127409144D01*
X79347368Y-127381362D01*
X79731143Y-127222397D01*
X79800608Y-126980213D01*
X79000000Y-126179605D01*
X78199392Y-126980213D01*
X77995444Y-126980213D01*
X78184320Y-126791337D01*
X78294106Y-126526289D01*
X78820395Y-126000000D01*
X78806253Y-125985858D01*
X78985858Y-125806253D01*
X79000000Y-125820395D01*
X79014143Y-125806253D01*
X79193748Y-125985858D01*
X79179605Y-126000000D01*
X79980213Y-126800608D01*
X80222397Y-126731143D01*
X80409144Y-126207698D01*
X80381362Y-125652632D01*
X80332637Y-125534999D01*
X88965000Y-125534999D01*
X88965000Y-125705874D01*
X88965000Y-125705874D01*
G37*
X88965000Y-125705874D02*
X89122569Y-126086280D01*
X89413720Y-126377431D01*
X89665001Y-126481515D01*
X89665000Y-127565000D01*
X78345868Y-127565000D01*
X77878262Y-127097395D01*
X77995444Y-126980213D01*
X78199392Y-126980213D01*
X78268857Y-127222397D01*
X78792302Y-127409144D01*
X79347368Y-127381362D01*
X79731143Y-127222397D01*
X79800608Y-126980213D01*
X79000000Y-126179605D01*
X78199392Y-126980213D01*
X77995444Y-126980213D01*
X78184320Y-126791337D01*
X78294106Y-126526289D01*
X78820395Y-126000000D01*
X78806253Y-125985858D01*
X78985858Y-125806253D01*
X79000000Y-125820395D01*
X79014143Y-125806253D01*
X79193748Y-125985858D01*
X79179605Y-126000000D01*
X79980213Y-126800608D01*
X80222397Y-126731143D01*
X80409144Y-126207698D01*
X80381362Y-125652632D01*
X80332637Y-125534999D01*
X88965000Y-125534999D01*
X88965000Y-125705874D01*
G04 #@! TD*
M02*
