<?xml version="1.0" standalone="no"?>
 <!DOCTYPE svg PUBLIC "-//W3C//DTD SVG 1.1//EN" 
 "http://www.w3.org/Graphics/SVG/1.1/DTD/svg11.dtd"> 
<svg xmlns="http://www.w3.org/2000/svg" version="1.1" 
    width="29.7002cm" height="21.0007cm" viewBox="0 0 116930 82680 ">
<title>SVG Picture created as nanoExpander_v12-brd.svg date 2020/07/20 13:19:37 </title>
  <desc>Picture generated by PCBNEW </desc>
<g style="fill:#000000; fill-opacity:1;stroke:#000000; stroke-opacity:1;
stroke-linecap:round; stroke-linejoin:round; "
 transform="translate(0 0) scale(1 1)">
</g>
<g style="fill:#000000; fill-opacity:0.0; 
stroke:#000000; stroke-width:-0.000393701; stroke-opacity:1; 
stroke-linecap:round; stroke-linejoin:round;">
</g>
<g style="fill:#000000; fill-opacity:0.0; 
stroke:#000000; stroke-width:39.3701; stroke-opacity:1; 
stroke-linecap:round; stroke-linejoin:round;">
</g>
<g style="fill:#000000; fill-opacity:0.0; 
stroke:#000000; stroke-width:59.0551; stroke-opacity:1; 
stroke-linecap:round; stroke-linejoin:round;">
<rect x="69685.9" y="65357.2" width="42519.7" height="12598.4" rx="0" />
</g>
<g style="fill:#000000; fill-opacity:0.0; 
stroke:#000000; stroke-width:39.3701; stroke-opacity:1; 
stroke-linecap:round; stroke-linejoin:round;">
</g>
<g style="fill:#000000; fill-opacity:0.0; 
stroke:#000000; stroke-width:59.0551; stroke-opacity:1; 
stroke-linecap:round; stroke-linejoin:round;">
<rect x="3937.01" y="3937.01" width="109056" height="74806" rx="0" />
</g>
<g style="fill:#000000; fill-opacity:0.0; 
stroke:#000000; stroke-width:39.3701; stroke-opacity:1; 
stroke-linecap:round; stroke-linejoin:round;">
</g>
<g style="fill:#000000; fill-opacity:0.0; 
stroke:#000000; stroke-width:59.0551; stroke-opacity:1; 
stroke-linecap:round; stroke-linejoin:round;">
<rect x="4724.41" y="4724.41" width="107481" height="73231.2" rx="0" />
</g>
<g style="fill:#000000; fill-opacity:0.0; 
stroke:#000000; stroke-width:39.3701; stroke-opacity:1; 
stroke-linecap:round; stroke-linejoin:round;">
</g>
<g style="fill:#000000; fill-opacity:0.0; 
stroke:#000000; stroke-width:59.0551; stroke-opacity:1; 
stroke-linecap:round; stroke-linejoin:round;">
<path d="M23622 4724
L23622 3937
" />
</g>
<g style="fill:#000000; fill-opacity:0.0; 
stroke:#000000; stroke-width:39.3701; stroke-opacity:1; 
stroke-linecap:round; stroke-linejoin:round;">
</g>
<g style="fill:#000000; fill-opacity:0.0; 
stroke:#000000; stroke-width:59.0551; stroke-opacity:1; 
stroke-linecap:round; stroke-linejoin:round;">
<path d="M43307 4724
L43307 3937
" />
</g>
<g style="fill:#000000; fill-opacity:0.0; 
stroke:#000000; stroke-width:39.3701; stroke-opacity:1; 
stroke-linecap:round; stroke-linejoin:round;">
</g>
<g style="fill:#000000; fill-opacity:0.0; 
stroke:#000000; stroke-width:59.0551; stroke-opacity:1; 
stroke-linecap:round; stroke-linejoin:round;">
<path d="M62992 4724
L62992 3937
" />
</g>
<g style="fill:#000000; fill-opacity:0.0; 
stroke:#000000; stroke-width:39.3701; stroke-opacity:1; 
stroke-linecap:round; stroke-linejoin:round;">
</g>
<g style="fill:#000000; fill-opacity:0.0; 
stroke:#000000; stroke-width:59.0551; stroke-opacity:1; 
stroke-linecap:round; stroke-linejoin:round;">
<path d="M82677 4724
L82677 3937
" />
</g>
<g style="fill:#000000; fill-opacity:0.0; 
stroke:#000000; stroke-width:39.3701; stroke-opacity:1; 
stroke-linecap:round; stroke-linejoin:round;">
</g>
<g style="fill:#000000; fill-opacity:0.0; 
stroke:#000000; stroke-width:59.0551; stroke-opacity:1; 
stroke-linecap:round; stroke-linejoin:round;">
<path d="M102362 4724
L102362 3937
" />
</g>
<g style="fill:#000000; fill-opacity:0.0; 
stroke:#000000; stroke-width:39.3701; stroke-opacity:1; 
stroke-linecap:round; stroke-linejoin:round;">
</g>
<g style="fill:#000000; fill-opacity:0.0; 
stroke:#000000; stroke-width:59.0551; stroke-opacity:1; 
stroke-linecap:round; stroke-linejoin:round;">
<path d="M14199 4562
L13906 4562
" />
<path d="M14052 4562
L14052 4050
L14004 4123
L13955 4172
L13906 4196
" />
</g>
<g style="fill:#000000; fill-opacity:0.0; 
stroke:#000000; stroke-width:39.3701; stroke-opacity:1; 
stroke-linecap:round; stroke-linejoin:round;">
</g>
<g style="fill:#000000; fill-opacity:0.0; 
stroke:#000000; stroke-width:59.0551; stroke-opacity:1; 
stroke-linecap:round; stroke-linejoin:round;">
<path d="M33591 4099
L33615 4074
L33664 4050
L33786 4050
L33835 4074
L33859 4099
L33884 4147
L33884 4196
L33859 4269
L33567 4562
L33884 4562
" />
</g>
<g style="fill:#000000; fill-opacity:0.0; 
stroke:#000000; stroke-width:39.3701; stroke-opacity:1; 
stroke-linecap:round; stroke-linejoin:round;">
</g>
<g style="fill:#000000; fill-opacity:0.0; 
stroke:#000000; stroke-width:59.0551; stroke-opacity:1; 
stroke-linecap:round; stroke-linejoin:round;">
<path d="M53252 4050
L53569 4050
L53398 4245
L53471 4245
L53520 4269
L53544 4294
L53569 4342
L53569 4464
L53544 4513
L53520 4537
L53471 4562
L53325 4562
L53276 4537
L53252 4513
" />
</g>
<g style="fill:#000000; fill-opacity:0.0; 
stroke:#000000; stroke-width:39.3701; stroke-opacity:1; 
stroke-linecap:round; stroke-linejoin:round;">
</g>
<g style="fill:#000000; fill-opacity:0.0; 
stroke:#000000; stroke-width:59.0551; stroke-opacity:1; 
stroke-linecap:round; stroke-linejoin:round;">
<path d="M73205 4221
L73205 4562
" />
<path d="M73083 4026
L72961 4391
L73278 4391
" />
</g>
<g style="fill:#000000; fill-opacity:0.0; 
stroke:#000000; stroke-width:39.3701; stroke-opacity:1; 
stroke-linecap:round; stroke-linejoin:round;">
</g>
<g style="fill:#000000; fill-opacity:0.0; 
stroke:#000000; stroke-width:59.0551; stroke-opacity:1; 
stroke-linecap:round; stroke-linejoin:round;">
<path d="M92914 4050
L92671 4050
L92646 4294
L92671 4269
L92719 4245
L92841 4245
L92890 4269
L92914 4294
L92939 4342
L92939 4464
L92914 4513
L92890 4537
L92841 4562
L92719 4562
L92671 4537
L92646 4513
" />
</g>
<g style="fill:#000000; fill-opacity:0.0; 
stroke:#000000; stroke-width:39.3701; stroke-opacity:1; 
stroke-linecap:round; stroke-linejoin:round;">
</g>
<g style="fill:#000000; fill-opacity:0.0; 
stroke:#000000; stroke-width:59.0551; stroke-opacity:1; 
stroke-linecap:round; stroke-linejoin:round;">
<path d="M112575 4050
L112477 4050
L112429 4074
L112404 4099
L112356 4172
L112331 4269
L112331 4464
L112356 4513
L112380 4537
L112429 4562
L112526 4562
L112575 4537
L112599 4513
L112624 4464
L112624 4342
L112599 4294
L112575 4269
L112526 4245
L112429 4245
L112380 4269
L112356 4294
L112331 4342
" />
</g>
<g style="fill:#000000; fill-opacity:0.0; 
stroke:#000000; stroke-width:39.3701; stroke-opacity:1; 
stroke-linecap:round; stroke-linejoin:round;">
</g>
<g style="fill:#000000; fill-opacity:0.0; 
stroke:#000000; stroke-width:59.0551; stroke-opacity:1; 
stroke-linecap:round; stroke-linejoin:round;">
<path d="M23622 77955
L23622 78742
" />
</g>
<g style="fill:#000000; fill-opacity:0.0; 
stroke:#000000; stroke-width:39.3701; stroke-opacity:1; 
stroke-linecap:round; stroke-linejoin:round;">
</g>
<g style="fill:#000000; fill-opacity:0.0; 
stroke:#000000; stroke-width:59.0551; stroke-opacity:1; 
stroke-linecap:round; stroke-linejoin:round;">
<path d="M43307 77955
L43307 78742
" />
</g>
<g style="fill:#000000; fill-opacity:0.0; 
stroke:#000000; stroke-width:39.3701; stroke-opacity:1; 
stroke-linecap:round; stroke-linejoin:round;">
</g>
<g style="fill:#000000; fill-opacity:0.0; 
stroke:#000000; stroke-width:59.0551; stroke-opacity:1; 
stroke-linecap:round; stroke-linejoin:round;">
<path d="M62992 77955
L62992 78742
" />
</g>
<g style="fill:#000000; fill-opacity:0.0; 
stroke:#000000; stroke-width:39.3701; stroke-opacity:1; 
stroke-linecap:round; stroke-linejoin:round;">
</g>
<g style="fill:#000000; fill-opacity:0.0; 
stroke:#000000; stroke-width:59.0551; stroke-opacity:1; 
stroke-linecap:round; stroke-linejoin:round;">
<path d="M82677 77955
L82677 78742
" />
</g>
<g style="fill:#000000; fill-opacity:0.0; 
stroke:#000000; stroke-width:39.3701; stroke-opacity:1; 
stroke-linecap:round; stroke-linejoin:round;">
</g>
<g style="fill:#000000; fill-opacity:0.0; 
stroke:#000000; stroke-width:59.0551; stroke-opacity:1; 
stroke-linecap:round; stroke-linejoin:round;">
<path d="M102362 77955
L102362 78742
" />
</g>
<g style="fill:#000000; fill-opacity:0.0; 
stroke:#000000; stroke-width:39.3701; stroke-opacity:1; 
stroke-linecap:round; stroke-linejoin:round;">
</g>
<g style="fill:#000000; fill-opacity:0.0; 
stroke:#000000; stroke-width:59.0551; stroke-opacity:1; 
stroke-linecap:round; stroke-linejoin:round;">
<path d="M14199 78580
L13906 78580
" />
<path d="M14052 78580
L14052 78069
L14004 78142
L13955 78190
L13906 78215
" />
</g>
<g style="fill:#000000; fill-opacity:0.0; 
stroke:#000000; stroke-width:39.3701; stroke-opacity:1; 
stroke-linecap:round; stroke-linejoin:round;">
</g>
<g style="fill:#000000; fill-opacity:0.0; 
stroke:#000000; stroke-width:59.0551; stroke-opacity:1; 
stroke-linecap:round; stroke-linejoin:round;">
<path d="M33591 78117
L33615 78093
L33664 78069
L33786 78069
L33835 78093
L33859 78117
L33884 78166
L33884 78215
L33859 78288
L33567 78580
L33884 78580
" />
</g>
<g style="fill:#000000; fill-opacity:0.0; 
stroke:#000000; stroke-width:39.3701; stroke-opacity:1; 
stroke-linecap:round; stroke-linejoin:round;">
</g>
<g style="fill:#000000; fill-opacity:0.0; 
stroke:#000000; stroke-width:59.0551; stroke-opacity:1; 
stroke-linecap:round; stroke-linejoin:round;">
<path d="M53252 78069
L53569 78069
L53398 78263
L53471 78263
L53520 78288
L53544 78312
L53569 78361
L53569 78483
L53544 78532
L53520 78556
L53471 78580
L53325 78580
L53276 78556
L53252 78532
" />
</g>
<g style="fill:#000000; fill-opacity:0.0; 
stroke:#000000; stroke-width:39.3701; stroke-opacity:1; 
stroke-linecap:round; stroke-linejoin:round;">
</g>
<g style="fill:#000000; fill-opacity:0.0; 
stroke:#000000; stroke-width:59.0551; stroke-opacity:1; 
stroke-linecap:round; stroke-linejoin:round;">
<path d="M73205 78239
L73205 78580
" />
<path d="M73083 78044
L72961 78410
L73278 78410
" />
</g>
<g style="fill:#000000; fill-opacity:0.0; 
stroke:#000000; stroke-width:39.3701; stroke-opacity:1; 
stroke-linecap:round; stroke-linejoin:round;">
</g>
<g style="fill:#000000; fill-opacity:0.0; 
stroke:#000000; stroke-width:59.0551; stroke-opacity:1; 
stroke-linecap:round; stroke-linejoin:round;">
<path d="M92914 78069
L92671 78069
L92646 78312
L92671 78288
L92719 78263
L92841 78263
L92890 78288
L92914 78312
L92939 78361
L92939 78483
L92914 78532
L92890 78556
L92841 78580
L92719 78580
L92671 78556
L92646 78532
" />
</g>
<g style="fill:#000000; fill-opacity:0.0; 
stroke:#000000; stroke-width:39.3701; stroke-opacity:1; 
stroke-linecap:round; stroke-linejoin:round;">
</g>
<g style="fill:#000000; fill-opacity:0.0; 
stroke:#000000; stroke-width:59.0551; stroke-opacity:1; 
stroke-linecap:round; stroke-linejoin:round;">
<path d="M112575 78069
L112477 78069
L112429 78093
L112404 78117
L112356 78190
L112331 78288
L112331 78483
L112356 78532
L112380 78556
L112429 78580
L112526 78580
L112575 78556
L112599 78532
L112624 78483
L112624 78361
L112599 78312
L112575 78288
L112526 78263
L112429 78263
L112380 78288
L112356 78312
L112331 78361
" />
</g>
<g style="fill:#000000; fill-opacity:0.0; 
stroke:#000000; stroke-width:39.3701; stroke-opacity:1; 
stroke-linecap:round; stroke-linejoin:round;">
</g>
<g style="fill:#000000; fill-opacity:0.0; 
stroke:#000000; stroke-width:59.0551; stroke-opacity:1; 
stroke-linecap:round; stroke-linejoin:round;">
<path d="M3937 23622
L4724 23622
" />
</g>
<g style="fill:#000000; fill-opacity:0.0; 
stroke:#000000; stroke-width:39.3701; stroke-opacity:1; 
stroke-linecap:round; stroke-linejoin:round;">
</g>
<g style="fill:#000000; fill-opacity:0.0; 
stroke:#000000; stroke-width:59.0551; stroke-opacity:1; 
stroke-linecap:round; stroke-linejoin:round;">
<path d="M3937 43307
L4724 43307
" />
</g>
<g style="fill:#000000; fill-opacity:0.0; 
stroke:#000000; stroke-width:39.3701; stroke-opacity:1; 
stroke-linecap:round; stroke-linejoin:round;">
</g>
<g style="fill:#000000; fill-opacity:0.0; 
stroke:#000000; stroke-width:59.0551; stroke-opacity:1; 
stroke-linecap:round; stroke-linejoin:round;">
<path d="M3937 62992
L4724 62992
" />
</g>
<g style="fill:#000000; fill-opacity:0.0; 
stroke:#000000; stroke-width:39.3701; stroke-opacity:1; 
stroke-linecap:round; stroke-linejoin:round;">
</g>
<g style="fill:#000000; fill-opacity:0.0; 
stroke:#000000; stroke-width:59.0551; stroke-opacity:1; 
stroke-linecap:round; stroke-linejoin:round;">
<path d="M4208 13864
L4452 13864
" />
<path d="M4160 14011
L4330 13499
L4501 14011
" />
</g>
<g style="fill:#000000; fill-opacity:0.0; 
stroke:#000000; stroke-width:39.3701; stroke-opacity:1; 
stroke-linecap:round; stroke-linejoin:round;">
</g>
<g style="fill:#000000; fill-opacity:0.0; 
stroke:#000000; stroke-width:59.0551; stroke-opacity:1; 
stroke-linecap:round; stroke-linejoin:round;">
<path d="M4367 33428
L4440 33452
L4464 33476
L4489 33525
L4489 33598
L4464 33647
L4440 33671
L4391 33696
L4196 33696
L4196 33184
L4367 33184
L4416 33208
L4440 33233
L4464 33281
L4464 33330
L4440 33379
L4416 33403
L4367 33428
L4196 33428
" />
</g>
<g style="fill:#000000; fill-opacity:0.0; 
stroke:#000000; stroke-width:39.3701; stroke-opacity:1; 
stroke-linecap:round; stroke-linejoin:round;">
</g>
<g style="fill:#000000; fill-opacity:0.0; 
stroke:#000000; stroke-width:59.0551; stroke-opacity:1; 
stroke-linecap:round; stroke-linejoin:round;">
<path d="M4489 53332
L4464 53356
L4391 53381
L4342 53381
L4269 53356
L4221 53308
L4196 53259
L4172 53161
L4172 53088
L4196 52991
L4221 52942
L4269 52893
L4342 52869
L4391 52869
L4464 52893
L4489 52918
" />
</g>
<g style="fill:#000000; fill-opacity:0.0; 
stroke:#000000; stroke-width:39.3701; stroke-opacity:1; 
stroke-linecap:round; stroke-linejoin:round;">
</g>
<g style="fill:#000000; fill-opacity:0.0; 
stroke:#000000; stroke-width:59.0551; stroke-opacity:1; 
stroke-linecap:round; stroke-linejoin:round;">
<path d="M4196 73066
L4196 72554
L4318 72554
L4391 72578
L4440 72627
L4464 72676
L4489 72773
L4489 72846
L4464 72944
L4440 72993
L4391 73041
L4318 73066
L4196 73066
" />
</g>
<g style="fill:#000000; fill-opacity:0.0; 
stroke:#000000; stroke-width:39.3701; stroke-opacity:1; 
stroke-linecap:round; stroke-linejoin:round;">
</g>
<g style="fill:#000000; fill-opacity:0.0; 
stroke:#000000; stroke-width:59.0551; stroke-opacity:1; 
stroke-linecap:round; stroke-linejoin:round;">
<path d="M112992 23622
L112205 23622
" />
</g>
<g style="fill:#000000; fill-opacity:0.0; 
stroke:#000000; stroke-width:39.3701; stroke-opacity:1; 
stroke-linecap:round; stroke-linejoin:round;">
</g>
<g style="fill:#000000; fill-opacity:0.0; 
stroke:#000000; stroke-width:59.0551; stroke-opacity:1; 
stroke-linecap:round; stroke-linejoin:round;">
<path d="M112992 43307
L112205 43307
" />
</g>
<g style="fill:#000000; fill-opacity:0.0; 
stroke:#000000; stroke-width:39.3701; stroke-opacity:1; 
stroke-linecap:round; stroke-linejoin:round;">
</g>
<g style="fill:#000000; fill-opacity:0.0; 
stroke:#000000; stroke-width:59.0551; stroke-opacity:1; 
stroke-linecap:round; stroke-linejoin:round;">
<path d="M112992 62992
L112205 62992
" />
</g>
<g style="fill:#000000; fill-opacity:0.0; 
stroke:#000000; stroke-width:39.3701; stroke-opacity:1; 
stroke-linecap:round; stroke-linejoin:round;">
</g>
<g style="fill:#000000; fill-opacity:0.0; 
stroke:#000000; stroke-width:59.0551; stroke-opacity:1; 
stroke-linecap:round; stroke-linejoin:round;">
<path d="M112477 13864
L112721 13864
" />
<path d="M112428 14011
L112599 13499
L112769 14011
" />
</g>
<g style="fill:#000000; fill-opacity:0.0; 
stroke:#000000; stroke-width:39.3701; stroke-opacity:1; 
stroke-linecap:round; stroke-linejoin:round;">
</g>
<g style="fill:#000000; fill-opacity:0.0; 
stroke:#000000; stroke-width:59.0551; stroke-opacity:1; 
stroke-linecap:round; stroke-linejoin:round;">
<path d="M112635 33428
L112708 33452
L112733 33476
L112757 33525
L112757 33598
L112733 33647
L112708 33671
L112660 33696
L112465 33696
L112465 33184
L112635 33184
L112684 33208
L112708 33233
L112733 33281
L112733 33330
L112708 33379
L112684 33403
L112635 33428
L112465 33428
" />
</g>
<g style="fill:#000000; fill-opacity:0.0; 
stroke:#000000; stroke-width:39.3701; stroke-opacity:1; 
stroke-linecap:round; stroke-linejoin:round;">
</g>
<g style="fill:#000000; fill-opacity:0.0; 
stroke:#000000; stroke-width:59.0551; stroke-opacity:1; 
stroke-linecap:round; stroke-linejoin:round;">
<path d="M112757 53332
L112733 53356
L112660 53381
L112611 53381
L112538 53356
L112489 53308
L112465 53259
L112440 53161
L112440 53088
L112465 52991
L112489 52942
L112538 52893
L112611 52869
L112660 52869
L112733 52893
L112757 52918
" />
</g>
<g style="fill:#000000; fill-opacity:0.0; 
stroke:#000000; stroke-width:39.3701; stroke-opacity:1; 
stroke-linecap:round; stroke-linejoin:round;">
</g>
<g style="fill:#000000; fill-opacity:0.0; 
stroke:#000000; stroke-width:59.0551; stroke-opacity:1; 
stroke-linecap:round; stroke-linejoin:round;">
<path d="M112465 73066
L112465 72554
L112587 72554
L112660 72578
L112708 72627
L112733 72676
L112757 72773
L112757 72846
L112733 72944
L112708 72993
L112660 73041
L112587 73066
L112465 73066
" />
</g>
<g style="fill:#000000; fill-opacity:0.0; 
stroke:#000000; stroke-width:39.3701; stroke-opacity:1; 
stroke-linecap:round; stroke-linejoin:round;">
</g>
<g style="fill:#000000; fill-opacity:0.0; 
stroke:#000000; stroke-width:59.0551; stroke-opacity:1; 
stroke-linecap:round; stroke-linejoin:round;">
<path d="M78911 76293
L78911 75703
L79051 75703
L79136 75731
L79192 75787
L79220 75843
L79248 75956
L79248 76040
L79220 76153
L79192 76209
L79136 76265
L79051 76293
L78911 76293
" />
<path d="M79754 76293
L79754 75984
L79726 75928
L79670 75899
L79557 75899
L79501 75928
" />
<path d="M79754 76265
L79698 76293
L79557 76293
L79501 76265
L79473 76209
L79473 76153
L79501 76096
L79557 76068
L79698 76068
L79754 76040
" />
<path d="M79951 75899
L80176 75899
" />
<path d="M80036 75703
L80036 76209
L80064 76265
L80120 76293
L80176 76293
" />
<path d="M80598 76265
L80542 76293
L80429 76293
L80373 76265
L80345 76209
L80345 75984
L80373 75928
L80429 75899
L80542 75899
L80598 75928
L80626 75984
L80626 76040
L80345 76096
" />
<path d="M80879 76237
L80907 76265
L80879 76293
L80851 76265
L80879 76237
L80879 76293
" />
<path d="M80879 75928
L80907 75956
L80879 75984
L80851 75956
L80879 75928
L80879 75984
" />
</g>
<g style="fill:#000000; fill-opacity:0.0; 
stroke:#000000; stroke-width:39.3701; stroke-opacity:1; 
stroke-linecap:round; stroke-linejoin:round;">
</g>
<g style="fill:#000000; fill-opacity:0.0; 
stroke:#000000; stroke-width:59.0551; stroke-opacity:1; 
stroke-linecap:round; stroke-linejoin:round;">
<path d="M69685 76577
L112205 76577
" />
</g>
<g style="fill:#000000; fill-opacity:0.0; 
stroke:#000000; stroke-width:39.3701; stroke-opacity:1; 
stroke-linecap:round; stroke-linejoin:round;">
</g>
<g style="fill:#000000; fill-opacity:0.0; 
stroke:#000000; stroke-width:59.0551; stroke-opacity:1; 
stroke-linecap:round; stroke-linejoin:round;">
<path d="M70249 77395
L70249 76805
" />
<path d="M70587 77395
L70334 77058
" />
<path d="M70587 76805
L70249 77142
" />
<path d="M70840 77395
L70840 77002
" />
<path d="M70840 76805
L70812 76833
L70840 76861
L70868 76833
L70840 76805
L70840 76861
" />
<path d="M71458 77339
L71430 77367
L71346 77395
L71290 77395
L71205 77367
L71149 77311
L71121 77255
L71093 77142
L71093 77058
L71121 76946
L71149 76889
L71205 76833
L71290 76805
L71346 76805
L71430 76833
L71458 76861
" />
<path d="M71965 77395
L71965 77086
L71937 77030
L71880 77002
L71768 77002
L71712 77030
" />
<path d="M71965 77367
L71908 77395
L71768 77395
L71712 77367
L71683 77311
L71683 77255
L71712 77199
L71768 77171
L71908 77171
L71965 77142
" />
<path d="M72499 77395
L72499 76805
" />
<path d="M72499 77367
L72443 77395
L72330 77395
L72274 77367
L72246 77339
L72218 77283
L72218 77114
L72246 77058
L72274 77030
L72330 77002
L72443 77002
L72499 77030
" />
<path d="M73230 77086
L73427 77086
" />
<path d="M73511 77395
L73230 77395
L73230 76805
L73511 76805
" />
<path d="M73764 77339
L73793 77367
L73764 77395
L73736 77367
L73764 77339
L73764 77395
" />
<path d="M74046 77395
L74046 76805
L74186 76805
L74271 76833
L74327 76889
L74355 76946
L74383 77058
L74383 77142
L74355 77255
L74327 77311
L74271 77367
L74186 77395
L74046 77395
" />
<path d="M74636 77339
L74664 77367
L74636 77395
L74608 77367
L74636 77339
L74636 77395
" />
<path d="M74889 77227
L75171 77227
" />
<path d="M74833 77395
L75030 76805
L75227 77395
" />
<path d="M75424 77339
L75452 77367
L75424 77395
L75395 77367
L75424 77339
L75424 77395
" />
<path d="M76605 77395
L76605 76805
" />
<path d="M76661 77171
L76830 77395
" />
<path d="M76830 77002
L76605 77227
" />
<path d="M77083 77395
L77083 77002
" />
<path d="M77083 76805
L77055 76833
L77083 76861
L77111 76833
L77083 76805
L77083 76861
" />
<path d="M77617 77367
L77561 77395
L77448 77395
L77392 77367
L77364 77339
L77336 77283
L77336 77114
L77364 77058
L77392 77030
L77448 77002
L77561 77002
L77617 77030
" />
<path d="M78123 77395
L78123 77086
L78095 77030
L78039 77002
L77926 77002
L77870 77030
" />
<path d="M78123 77367
L78067 77395
L77926 77395
L77870 77367
L77842 77311
L77842 77255
L77870 77199
L77926 77171
L78067 77171
L78123 77142
" />
<path d="M78658 77395
L78658 76805
" />
<path d="M78658 77367
L78601 77395
L78489 77395
L78433 77367
L78404 77339
L78376 77283
L78376 77114
L78404 77058
L78433 77030
L78489 77002
L78601 77002
L78658 77030
" />
<path d="M79557 77620
L79529 77592
L79473 77508
L79445 77452
L79417 77367
L79389 77227
L79389 77114
L79417 76974
L79445 76889
L79473 76833
L79529 76749
L79557 76721
" />
<path d="M80064 76805
L79782 76805
L79754 77086
L79782 77058
L79839 77030
L79979 77030
L80036 77058
L80064 77086
L80092 77142
L80092 77283
L80064 77339
L80036 77367
L79979 77395
L79839 77395
L79782 77367
L79754 77339
" />
<path d="M80345 77339
L80373 77367
L80345 77395
L80317 77367
L80345 77339
L80345 77395
" />
<path d="M80739 76805
L80795 76805
L80851 76833
L80879 76861
L80907 76917
L80935 77030
L80935 77171
L80907 77283
L80879 77339
L80851 77367
L80795 77395
L80739 77395
L80682 77367
L80654 77339
L80626 77283
L80598 77171
L80598 77030
L80626 76917
L80654 76861
L80682 76833
L80739 76805
" />
<path d="M81188 77339
L81217 77367
L81188 77395
L81160 77367
L81188 77339
L81188 77395
" />
<path d="M81779 77395
L81442 77395
" />
<path d="M81610 77395
L81610 76805
L81554 76889
L81498 76946
L81442 76974
" />
<path d="M82032 77171
L82482 77171
" />
<path d="M82707 76805
L83073 76805
L82876 77030
L82960 77030
L83016 77058
L83045 77086
L83073 77142
L83073 77283
L83045 77339
L83016 77367
L82960 77395
L82791 77395
L82735 77367
L82707 77339
" />
<path d="M83326 77171
L83776 77171
" />
<path d="M84310 77002
L84310 77480
L84282 77536
L84254 77564
L84197 77592
L84113 77592
L84057 77564
" />
<path d="M84310 77367
L84254 77395
L84141 77395
L84085 77367
L84057 77339
L84029 77283
L84029 77114
L84057 77058
L84085 77030
L84141 77002
L84254 77002
L84310 77030
" />
<path d="M84619 77395
L84732 77395
L84788 77367
L84816 77339
L84872 77255
L84901 77142
L84901 76917
L84872 76861
L84844 76833
L84788 76805
L84676 76805
L84619 76833
L84591 76861
L84563 76917
L84563 77058
L84591 77114
L84619 77142
L84676 77171
L84788 77171
L84844 77142
L84872 77114
L84901 77058
" />
<path d="M85407 76805
L85294 76805
L85238 76833
L85210 76861
L85154 76946
L85126 77058
L85126 77283
L85154 77339
L85182 77367
L85238 77395
L85350 77395
L85407 77367
L85435 77339
L85463 77283
L85463 77142
L85435 77086
L85407 77058
L85350 77030
L85238 77030
L85182 77058
L85154 77086
L85126 77142
" />
<path d="M85660 76805
L86025 76805
L85829 77030
L85913 77030
L85969 77058
L85997 77086
L86025 77142
L86025 77283
L85997 77339
L85969 77367
L85913 77395
L85744 77395
L85688 77367
L85660 77339
" />
<path d="M86503 77367
L86447 77395
L86335 77395
L86278 77367
L86250 77311
L86250 77086
L86278 77030
L86335 77002
L86447 77002
L86503 77030
L86532 77086
L86532 77142
L86250 77199
" />
<path d="M86700 77002
L86925 77002
" />
<path d="M86785 77395
L86785 76889
L86813 76833
L86869 76805
L86925 76805
" />
<path d="M87206 77058
L87150 77030
L87122 77002
L87094 76946
L87094 76917
L87122 76861
L87150 76833
L87206 76805
L87319 76805
L87375 76833
L87403 76861
L87431 76917
L87431 76946
L87403 77002
L87375 77030
L87319 77058
L87206 77058
L87150 77086
L87122 77114
L87094 77171
L87094 77283
L87122 77339
L87150 77367
L87206 77395
L87319 77395
L87375 77367
L87403 77339
L87431 77283
L87431 77171
L87403 77114
L87375 77086
L87319 77058
" />
<path d="M87685 77395
L87685 76805
" />
<path d="M87685 77030
L87741 77002
L87853 77002
L87910 77030
L87938 77058
L87966 77114
L87966 77283
L87938 77339
L87910 77367
L87853 77395
L87741 77395
L87685 77367
" />
<path d="M88219 77395
L88219 76805
" />
<path d="M88219 77030
L88275 77002
L88388 77002
L88444 77030
L88472 77058
L88500 77114
L88500 77283
L88472 77339
L88444 77367
L88388 77395
L88275 77395
L88219 77367
" />
<path d="M89034 76805
L88753 76805
L88725 77086
L88753 77058
L88809 77030
L88950 77030
L89006 77058
L89034 77086
L89063 77142
L89063 77283
L89034 77339
L89006 77367
L88950 77395
L88809 77395
L88753 77367
L88725 77339
" />
<path d="M89259 77620
L89287 77592
L89344 77508
L89372 77452
L89400 77367
L89428 77227
L89428 77114
L89400 76974
L89372 76889
L89344 76833
L89287 76749
L89259 76721
" />
</g>
<g style="fill:#000000; fill-opacity:0.0; 
stroke:#000000; stroke-width:39.3701; stroke-opacity:1; 
stroke-linecap:round; stroke-linejoin:round;">
</g>
<g style="fill:#000000; fill-opacity:0.0; 
stroke:#000000; stroke-width:59.0551; stroke-opacity:1; 
stroke-linecap:round; stroke-linejoin:round;">
<path d="M69685 75396
L112205 75396
" />
</g>
<g style="fill:#000000; fill-opacity:0.0; 
stroke:#000000; stroke-width:39.3701; stroke-opacity:1; 
stroke-linecap:round; stroke-linejoin:round;">
</g>
<g style="fill:#000000; fill-opacity:0.0; 
stroke:#000000; stroke-width:118.11; stroke-opacity:1; 
stroke-linecap:round; stroke-linejoin:round;">
<path d="M104099 76293
L103902 76012
" />
<path d="M103761 76293
L103761 75703
L103986 75703
L104042 75731
L104070 75759
L104099 75815
L104099 75899
L104070 75956
L104042 75984
L103986 76012
L103761 76012
" />
<path d="M104577 76265
L104520 76293
L104408 76293
L104352 76265
L104323 76209
L104323 75984
L104352 75928
L104408 75899
L104520 75899
L104577 75928
L104605 75984
L104605 76040
L104323 76096
" />
<path d="M104802 75899
L104942 76293
L105083 75899
" />
<path d="M105308 76237
L105336 76265
L105308 76293
L105280 76265
L105308 76237
L105308 76293
" />
<path d="M105308 75928
L105336 75956
L105308 75984
L105280 75956
L105308 75928
L105308 75984
" />
</g>
<g style="fill:#000000; fill-opacity:0.0; 
stroke:#000000; stroke-width:39.3701; stroke-opacity:1; 
stroke-linecap:round; stroke-linejoin:round;">
</g>
<g style="fill:#000000; fill-opacity:0.0; 
stroke:#000000; stroke-width:59.0551; stroke-opacity:1; 
stroke-linecap:round; stroke-linejoin:round;">
<path d="M70221 76265
L70305 76293
L70446 76293
L70502 76265
L70530 76237
L70559 76181
L70559 76124
L70530 76068
L70502 76040
L70446 76012
L70334 75984
L70277 75956
L70249 75928
L70221 75871
L70221 75815
L70249 75759
L70277 75731
L70334 75703
L70474 75703
L70559 75731
" />
<path d="M70812 76293
L70812 75899
" />
<path d="M70812 75703
L70784 75731
L70812 75759
L70840 75731
L70812 75703
L70812 75759
" />
<path d="M71037 75899
L71346 75899
L71037 76293
L71346 76293
" />
<path d="M71796 76265
L71740 76293
L71627 76293
L71571 76265
L71543 76209
L71543 75984
L71571 75928
L71627 75899
L71740 75899
L71796 75928
L71824 75984
L71824 76040
L71543 76096
" />
<path d="M72077 76237
L72105 76265
L72077 76293
L72049 76265
L72077 76237
L72077 76293
" />
<path d="M72077 75928
L72105 75956
L72077 75984
L72049 75956
L72077 75928
L72077 75984
" />
<path d="M72780 76124
L73061 76124
" />
<path d="M72724 76293
L72921 75703
L73118 76293
" />
<path d="M73568 75899
L73568 76293
" />
<path d="M73427 75674
L73286 76096
L73652 76096
" />
</g>
<g style="fill:#000000; fill-opacity:0.0; 
stroke:#000000; stroke-width:39.3701; stroke-opacity:1; 
stroke-linecap:round; stroke-linejoin:round;">
</g>
<g style="fill:#000000; fill-opacity:0.0; 
stroke:#000000; stroke-width:59.0551; stroke-opacity:1; 
stroke-linecap:round; stroke-linejoin:round;">
<path d="M103714 77395
L103714 76805
" />
<path d="M104248 77395
L104248 76805
" />
<path d="M104248 77367
L104192 77395
L104079 77395
L104023 77367
L103995 77339
L103967 77283
L103967 77114
L103995 77058
L104023 77030
L104079 77002
L104192 77002
L104248 77030
" />
<path d="M104529 77339
L104557 77367
L104529 77395
L104501 77367
L104529 77339
L104529 77395
" />
<path d="M104529 77030
L104557 77058
L104529 77086
L104501 77058
L104529 77030
L104529 77086
" />
<path d="M105570 77395
L105232 77395
" />
<path d="M105401 77395
L105401 76805
L105345 76889
L105289 76946
L105232 76974
" />
<path d="M106245 76777
L105739 77536
" />
<path d="M106751 77395
L106413 77395
" />
<path d="M106582 77395
L106582 76805
L106526 76889
L106470 76946
L106413 76974
" />
</g>
<g style="fill:#000000; fill-opacity:0.0; 
stroke:#000000; stroke-width:39.3701; stroke-opacity:1; 
stroke-linecap:round; stroke-linejoin:round;">
</g>
<g style="fill:#000000; fill-opacity:0.0; 
stroke:#000000; stroke-width:59.0551; stroke-opacity:1; 
stroke-linecap:round; stroke-linejoin:round;">
<path d="M69685 73821
L112205 73821
" />
</g>
<g style="fill:#000000; fill-opacity:0.0; 
stroke:#000000; stroke-width:39.3701; stroke-opacity:1; 
stroke-linecap:round; stroke-linejoin:round;">
</g>
<g style="fill:#000000; fill-opacity:0.0; 
stroke:#000000; stroke-width:157.48; stroke-opacity:1; 
stroke-linecap:round; stroke-linejoin:round;">
<path d="M70360 74099
L70810 74099
" />
<path d="M70486 74886
L70585 74099
" />
<path d="M70974 74886
L71039 74361
" />
<path d="M71072 74099
L71030 74136
L71063 74174
L71105 74136
L71072 74099
L71063 74174
" />
<path d="M71302 74361
L71602 74361
" />
<path d="M71447 74099
L71363 74774
L71391 74849
L71461 74886
L71536 74886
" />
<path d="M71911 74886
L71841 74849
L71813 74774
L71897 74099
" />
<path d="M72516 74849
L72436 74886
L72286 74886
L72216 74849
L72187 74774
L72225 74474
L72272 74399
L72352 74361
L72501 74361
L72572 74399
L72600 74474
L72591 74549
L72206 74624
" />
<path d="M72895 74811
L72928 74849
L72886 74886
L72853 74849
L72895 74811
L72886 74886
" />
<path d="M72947 74399
L72980 74436
L72937 74474
L72905 74436
L72947 74399
L72937 74474
" />
</g>
<g style="fill:#000000; fill-opacity:0.0; 
stroke:#000000; stroke-width:39.3701; stroke-opacity:1; 
stroke-linecap:round; stroke-linejoin:round;">
</g>
<g style="fill:#000000; fill-opacity:0.0; 
stroke:#000000; stroke-width:59.0551; stroke-opacity:1; 
stroke-linecap:round; stroke-linejoin:round;">
<path d="M70446 73070
L70249 73070
" />
<path d="M70249 73380
L70249 72789
L70530 72789
" />
<path d="M70755 73380
L70755 72986
" />
<path d="M70755 72789
L70727 72817
L70755 72845
L70784 72817
L70755 72789
L70755 72845
" />
<path d="M71121 73380
L71065 73352
L71037 73295
L71037 72789
" />
<path d="M71571 73352
L71515 73380
L71402 73380
L71346 73352
L71318 73295
L71318 73070
L71346 73014
L71402 72986
L71515 72986
L71571 73014
L71599 73070
L71599 73127
L71318 73183
" />
<path d="M71852 73323
L71880 73352
L71852 73380
L71824 73352
L71852 73323
L71852 73380
" />
<path d="M71852 73014
L71880 73042
L71852 73070
L71824 73042
L71852 73014
L71852 73070
" />
<path d="M72583 72986
L72583 73380
" />
<path d="M72583 73042
L72611 73014
L72668 72986
L72752 72986
L72808 73014
L72836 73070
L72836 73380
" />
<path d="M73371 73380
L73371 73070
L73343 73014
L73286 72986
L73174 72986
L73118 73014
" />
<path d="M73371 73352
L73314 73380
L73174 73380
L73118 73352
L73090 73295
L73090 73239
L73118 73183
L73174 73155
L73314 73155
L73371 73127
" />
<path d="M73652 72986
L73652 73380
" />
<path d="M73652 73042
L73680 73014
L73736 72986
L73821 72986
L73877 73014
L73905 73070
L73905 73380
" />
<path d="M74271 73380
L74214 73352
L74186 73323
L74158 73267
L74158 73099
L74186 73042
L74214 73014
L74271 72986
L74355 72986
L74411 73014
L74439 73042
L74467 73099
L74467 73267
L74439 73323
L74411 73352
L74355 73380
L74271 73380
" />
<path d="M74721 73070
L74917 73070
" />
<path d="M75002 73380
L74721 73380
L74721 72789
L75002 72789
" />
<path d="M75199 73380
L75508 72986
" />
<path d="M75199 72986
L75508 73380
" />
<path d="M75733 72986
L75733 73577
" />
<path d="M75733 73014
L75789 72986
L75902 72986
L75958 73014
L75986 73042
L76014 73099
L76014 73267
L75986 73323
L75958 73352
L75902 73380
L75789 73380
L75733 73352
" />
<path d="M76520 73380
L76520 73070
L76492 73014
L76436 72986
L76323 72986
L76267 73014
" />
<path d="M76520 73352
L76464 73380
L76323 73380
L76267 73352
L76239 73295
L76239 73239
L76267 73183
L76323 73155
L76464 73155
L76520 73127
" />
<path d="M76802 72986
L76802 73380
" />
<path d="M76802 73042
L76830 73014
L76886 72986
L76970 72986
L77027 73014
L77055 73070
L77055 73380
" />
<path d="M77589 73380
L77589 72789
" />
<path d="M77589 73352
L77533 73380
L77420 73380
L77364 73352
L77336 73323
L77308 73267
L77308 73099
L77336 73042
L77364 73014
L77420 72986
L77533 72986
L77589 73014
" />
<path d="M78095 73352
L78039 73380
L77926 73380
L77870 73352
L77842 73295
L77842 73070
L77870 73014
L77926 72986
L78039 72986
L78095 73014
L78123 73070
L78123 73127
L77842 73183
" />
<path d="M78376 73380
L78376 72986
" />
<path d="M78376 73099
L78404 73042
L78433 73014
L78489 72986
L78545 72986
" />
<path d="M78601 73436
L79051 73436
" />
<path d="M79136 72986
L79276 73380
L79417 72986
" />
<path d="M79951 73380
L79614 73380
" />
<path d="M79782 73380
L79782 72789
L79726 72874
L79670 72930
L79614 72958
" />
<path d="M80176 72845
L80204 72817
L80260 72789
L80401 72789
L80457 72817
L80485 72845
L80514 72902
L80514 72958
L80485 73042
L80148 73380
L80514 73380
" />
<path d="M80767 73323
L80795 73352
L80767 73380
L80739 73352
L80767 73323
L80767 73380
" />
<path d="M81048 73380
L81048 72789
" />
<path d="M81104 73155
L81273 73380
" />
<path d="M81273 72986
L81048 73211
" />
<path d="M81526 73380
L81526 72986
" />
<path d="M81526 72789
L81498 72817
L81526 72845
L81554 72817
L81526 72789
L81526 72845
" />
<path d="M82060 73352
L82004 73380
L81892 73380
L81835 73352
L81807 73323
L81779 73267
L81779 73099
L81807 73042
L81835 73014
L81892 72986
L82004 72986
L82060 73014
" />
<path d="M82566 73380
L82566 73070
L82538 73014
L82482 72986
L82370 72986
L82313 73014
" />
<path d="M82566 73352
L82510 73380
L82370 73380
L82313 73352
L82285 73295
L82285 73239
L82313 73183
L82370 73155
L82510 73155
L82566 73127
" />
<path d="M83101 73380
L83101 72789
" />
<path d="M83101 73352
L83045 73380
L82932 73380
L82876 73352
L82848 73323
L82820 73267
L82820 73099
L82848 73042
L82876 73014
L82932 72986
L83045 72986
L83101 73014
" />
<path d="M83241 73436
L83691 73436
" />
<path d="M83832 72986
L83832 73577
" />
<path d="M83832 73014
L83888 72986
L84001 72986
L84057 73014
L84085 73042
L84113 73099
L84113 73267
L84085 73323
L84057 73352
L84001 73380
L83888 73380
L83832 73352
" />
<path d="M84619 73352
L84563 73380
L84451 73380
L84394 73352
L84366 73323
L84338 73267
L84338 73099
L84366 73042
L84394 73014
L84451 72986
L84563 72986
L84619 73014
" />
<path d="M84872 73380
L84872 72789
" />
<path d="M84872 73014
L84929 72986
L85041 72986
L85097 73014
L85126 73042
L85154 73099
L85154 73267
L85126 73323
L85097 73352
L85041 73380
L84929 73380
L84872 73352
" />
</g>
<g style="fill:#000000; fill-opacity:0.0; 
stroke:#000000; stroke-width:39.3701; stroke-opacity:1; 
stroke-linecap:round; stroke-linejoin:round;">
</g>
<g style="fill:#000000; fill-opacity:0.0; 
stroke:#000000; stroke-width:59.0551; stroke-opacity:1; 
stroke-linecap:round; stroke-linejoin:round;">
<path d="M69685 71459
L112205 71459
" />
</g>
<g style="fill:#000000; fill-opacity:0.0; 
stroke:#000000; stroke-width:39.3701; stroke-opacity:1; 
stroke-linecap:round; stroke-linejoin:round;">
</g>
<g style="fill:#000000; fill-opacity:0.0; 
stroke:#000000; stroke-width:59.0551; stroke-opacity:1; 
stroke-linecap:round; stroke-linejoin:round;">
<path d="M70221 72289
L70305 72317
L70446 72317
L70502 72289
L70530 72260
L70559 72204
L70559 72148
L70530 72092
L70502 72064
L70446 72036
L70334 72007
L70277 71979
L70249 71951
L70221 71895
L70221 71839
L70249 71782
L70277 71754
L70334 71726
L70474 71726
L70559 71754
" />
<path d="M70812 72317
L70812 71726
" />
<path d="M71065 72317
L71065 72007
L71037 71951
L70980 71923
L70896 71923
L70840 71951
L70812 71979
" />
<path d="M71571 72289
L71515 72317
L71402 72317
L71346 72289
L71318 72232
L71318 72007
L71346 71951
L71402 71923
L71515 71923
L71571 71951
L71599 72007
L71599 72064
L71318 72120
" />
<path d="M72077 72289
L72021 72317
L71908 72317
L71852 72289
L71824 72232
L71824 72007
L71852 71951
L71908 71923
L72021 71923
L72077 71951
L72105 72007
L72105 72064
L71824 72120
" />
<path d="M72274 71923
L72499 71923
" />
<path d="M72358 71726
L72358 72232
L72386 72289
L72443 72317
L72499 72317
" />
<path d="M72696 72260
L72724 72289
L72696 72317
L72668 72289
L72696 72260
L72696 72317
" />
<path d="M72696 71951
L72724 71979
L72696 72007
L72668 71979
L72696 71951
L72696 72007
" />
</g>
<g style="fill:#000000; fill-opacity:0.0; 
stroke:#000000; stroke-width:39.3701; stroke-opacity:1; 
stroke-linecap:round; stroke-linejoin:round;">
</g>
<g style="fill:#000000; fill-opacity:0.0; 
stroke:#000000; stroke-width:59.0551; stroke-opacity:1; 
stroke-linecap:round; stroke-linejoin:round;">
<path d="M77559 75396
L77559 76577
" />
</g>
<g style="fill:#000000; fill-opacity:0.0; 
stroke:#000000; stroke-width:39.3701; stroke-opacity:1; 
stroke-linecap:round; stroke-linejoin:round;">
</g>
<g style="fill:#000000; fill-opacity:0.0; 
stroke:#000000; stroke-width:59.0551; stroke-opacity:1; 
stroke-linecap:round; stroke-linejoin:round;">
<path d="M102756 75396
L102756 77955
" />
</g>
<g style="fill:#848400; fill-opacity:0.0; 
stroke:#848400; stroke-width:-0.000393701; stroke-opacity:1; 
stroke-linecap:round; stroke-linejoin:round;">
</g>
<g style="fill:#848400; fill-opacity:1.0; 
stroke:#848400; stroke-width:0; stroke-opacity:1; 
stroke-linecap:round; stroke-linejoin:round;">
<polyline style="fill-rule:evenodd;"
points="66782,56059
66740,56067
66622,56116
66608,56125
66515,56188
66425,56278
66353,56385
66304,56503
66280,56628
66280,56756
66304,56882
66353,57000
66425,57107
66515,57197
66515,57197
66622,57268
66740,57317
66782,57326
66865,57342
66994,57342
67077,57326
67119,57317
67237,57268
67344,57197
67344,57197
67434,57107
67506,57000
67555,56882
67580,56756
67580,56628
67555,56503
67506,56385
67434,56278
67344,56188
67251,56125
67237,56116
67119,56067
67077,56059
66994,56042
66865,56042
66782,56059
" /> 
<polyline style="fill-rule:evenodd;"
points="88042,56059
88000,56067
87881,56116
87868,56125
87775,56188
87684,56278
87613,56385
87564,56503
87539,56628
87539,56756
87564,56882
87613,57000
87684,57107
87775,57197
87775,57197
87881,57268
88000,57317
88042,57326
88125,57342
88253,57342
88337,57326
88379,57317
88497,57268
88604,57197
88604,57197
88694,57107
88765,57000
88814,56882
88839,56756
88839,56628
88814,56503
88765,56385
88694,56278
88604,56188
88511,56125
88497,56116
88379,56067
88337,56059
88253,56042
88125,56042
88042,56059
" /> 
<polyline style="fill-rule:evenodd;"
points="82209,56025
82183,56028
82138,56041
82116,56048
82080,56067
82054,56081
82040,56093
82000,56125
81968,56165
81956,56179
81956,56179
81923,56241
81923,56241
81903,56308
81896,56377
81903,56447
81915,56486
81923,56514
81945,56554
81956,56575
81961,56582
82000,56629
82040,56662
82054,56674
82054,56674
82116,56707
82138,56714
82183,56727
82209,56730
82235,56732
82270,56732
82296,56730
82322,56727
82366,56714
82389,56707
82450,56674
82450,56674
82464,56662
82504,56629
82543,56582
82549,56575
82560,56554
82582,56514
82590,56486
82602,56447
82609,56377
82602,56308
82582,56241
82582,56241
82549,56179
82549,56179
82537,56165
82504,56125
82464,56093
82450,56081
82425,56067
82389,56048
82366,56041
82322,56028
82296,56025
82270,56023
82235,56023
82209,56025
" /> 
<polyline style="fill-rule:evenodd;"
points="83209,56025
83183,56028
83138,56041
83116,56048
83080,56067
83054,56081
83040,56093
83000,56125
82968,56165
82956,56179
82956,56179
82923,56241
82923,56241
82903,56308
82896,56377
82903,56447
82915,56486
82923,56514
82945,56554
82956,56575
82961,56582
83000,56629
83040,56662
83054,56674
83054,56674
83116,56707
83138,56714
83183,56727
83209,56730
83235,56732
83270,56732
83296,56730
83322,56727
83366,56714
83389,56707
83450,56674
83450,56674
83464,56662
83504,56629
83543,56582
83549,56575
83560,56554
83582,56514
83590,56486
83602,56447
83609,56377
83602,56308
83582,56241
83582,56241
83549,56179
83549,56179
83537,56165
83504,56125
83464,56093
83450,56081
83425,56067
83389,56048
83366,56041
83322,56028
83296,56025
83270,56023
83235,56023
83209,56025
" /> 
<polyline style="fill-rule:evenodd;"
points="83898,56732
84607,56732
84607,56023
83898,56023
83898,56732
" /> 
<polyline style="fill-rule:evenodd;"
points="71400,56239
71364,56254
71331,56275
71304,56303
71282,56335
71267,56371
71260,56409
71260,56448
71267,56486
71282,56522
71304,56554
71331,56582
71364,56603
71400,56618
71438,56626
71476,56626
71515,56618
71550,56603
71583,56582
71610,56554
71632,56522
71647,56486
71654,56448
71654,56409
71647,56371
71632,56335
71610,56303
71583,56275
71550,56254
71515,56239
71476,56231
71438,56231
71400,56239
" /> 
<polyline style="fill-rule:evenodd;"
points="72581,56239
72545,56254
72512,56275
72485,56303
72463,56335
72448,56371
72441,56409
72441,56448
72448,56486
72463,56522
72485,56554
72512,56582
72545,56603
72581,56618
72619,56626
72658,56626
72696,56618
72732,56603
72764,56582
72791,56554
72813,56522
72828,56486
72835,56448
72835,56409
72828,56371
72813,56335
72791,56303
72764,56275
72732,56254
72696,56239
72658,56231
72619,56231
72581,56239
" /> 
<polyline style="fill-rule:evenodd;"
points="83898,55748
84607,55748
84607,55038
83898,55038
83898,55748
" /> 
<polyline style="fill-rule:evenodd;"
points="83209,55041
83183,55044
83138,55057
83116,55064
83061,55093
83054,55097
83040,55108
83000,55141
82968,55181
82956,55195
82956,55195
82923,55257
82923,55257
82903,55324
82896,55393
82903,55463
82916,55507
82923,55530
82952,55584
82956,55591
82968,55605
83000,55645
83040,55678
83054,55690
83054,55690
83116,55723
83138,55729
83183,55743
83209,55745
83235,55748
83270,55748
83296,55745
83322,55743
83366,55729
83389,55723
83450,55690
83450,55690
83464,55678
83504,55645
83537,55605
83549,55591
83552,55584
83582,55530
83588,55507
83602,55463
83609,55393
83602,55324
83582,55257
83582,55257
83549,55195
83549,55195
83537,55181
83504,55141
83464,55108
83450,55097
83443,55093
83389,55064
83366,55057
83322,55044
83296,55041
83270,55038
83235,55038
83209,55041
" /> 
<polyline style="fill-rule:evenodd;"
points="82209,55041
82183,55044
82138,55057
82116,55064
82061,55093
82054,55097
82040,55108
82000,55141
81968,55181
81956,55195
81956,55195
81923,55257
81923,55257
81903,55324
81896,55393
81903,55463
81916,55507
81923,55530
81952,55584
81956,55591
81968,55605
82000,55645
82040,55678
82054,55690
82054,55690
82116,55723
82138,55729
82183,55743
82209,55745
82235,55748
82270,55748
82296,55745
82322,55743
82366,55729
82389,55723
82450,55690
82450,55690
82464,55678
82504,55645
82537,55605
82549,55591
82552,55584
82582,55530
82588,55507
82602,55463
82609,55393
82602,55324
82582,55257
82582,55257
82549,55195
82549,55195
82537,55181
82504,55141
82464,55108
82450,55097
82443,55093
82389,55064
82366,55057
82322,55044
82296,55041
82270,55038
82235,55038
82209,55041
" /> 
<polyline style="fill-rule:evenodd;"
points="86521,53235
86463,53259
86437,53277
86413,53293
86411,53294
86366,53339
86331,53391
86307,53449
86294,53511
86294,53574
86307,53636
86331,53694
86366,53747
86411,53791
86463,53826
86521,53851
86583,53863
86646,53863
86708,53851
86766,53826
86819,53791
86863,53747
86898,53694
86922,53636
86935,53574
86935,53511
86922,53449
86898,53391
86863,53339
86819,53294
86816,53293
86793,53277
86766,53259
86708,53235
86646,53223
86583,53223
86521,53235
" /> 
<polyline style="fill-rule:evenodd;"
points="85734,53235
85676,53259
85649,53277
85625,53293
85623,53294
85579,53339
85543,53391
85519,53449
85507,53511
85507,53574
85519,53636
85543,53694
85579,53747
85623,53791
85676,53826
85734,53851
85796,53863
85859,53863
85921,53851
85979,53826
86031,53791
86076,53747
86111,53694
86135,53636
86147,53574
86147,53511
86135,53449
86111,53391
86076,53339
86031,53294
86029,53293
86005,53277
85979,53259
85921,53235
85859,53223
85796,53223
85734,53235
" /> 
<polyline style="fill-rule:evenodd;"
points="68972,53863
69612,53863
69612,53223
68972,53223
68972,53863
" /> 
<polyline style="fill-rule:evenodd;"
points="68411,53235
68353,53259
68326,53277
68303,53293
68300,53294
68256,53339
68221,53391
68197,53449
68184,53511
68184,53574
68197,53636
68221,53694
68256,53747
68300,53791
68353,53826
68411,53851
68473,53863
68536,53863
68598,53851
68656,53826
68708,53791
68753,53747
68788,53694
68812,53636
68824,53574
68824,53511
68812,53449
68788,53391
68753,53339
68708,53294
68706,53293
68682,53277
68656,53259
68598,53235
68536,53223
68473,53223
68411,53235
" /> 
<polyline style="fill-rule:evenodd;"
points="67624,53235
67565,53259
67539,53277
67515,53293
67513,53294
67468,53339
67433,53391
67409,53449
67397,53511
67397,53574
67409,53636
67433,53694
67468,53747
67513,53791
67565,53826
67624,53851
67685,53863
67748,53863
67810,53851
67869,53826
67921,53791
67966,53747
68001,53694
68025,53636
68037,53574
68037,53511
68025,53449
68001,53391
67966,53339
67921,53294
67919,53293
67895,53277
67869,53259
67810,53235
67748,53223
67685,53223
67624,53235
" /> 
<polyline style="fill-rule:evenodd;"
points="87869,53863
88509,53863
88509,53223
87869,53223
87869,53863
" /> 
<polyline style="fill-rule:evenodd;"
points="87309,53235
87250,53259
87224,53277
87200,53293
87198,53294
87153,53339
87118,53391
87094,53449
87082,53511
87082,53574
87094,53636
87118,53694
87153,53747
87198,53791
87250,53826
87309,53851
87370,53863
87433,53863
87495,53851
87554,53826
87606,53791
87651,53747
87686,53694
87710,53636
87722,53574
87722,53511
87710,53449
87686,53391
87651,53339
87606,53294
87604,53293
87580,53277
87554,53259
87495,53235
87433,53223
87370,53223
87309,53235
" /> 
<polyline style="fill-rule:evenodd;"
points="66836,53235
66778,53259
66751,53277
66728,53293
66725,53294
66681,53339
66646,53391
66622,53449
66609,53511
66609,53574
66622,53636
66646,53694
66681,53747
66725,53791
66778,53826
66836,53851
66898,53863
66961,53863
67023,53851
67081,53826
67134,53791
67178,53747
67213,53694
67237,53636
67250,53574
67250,53511
67237,53449
67213,53391
67178,53339
67134,53294
67131,53293
67108,53277
67081,53259
67023,53235
66961,53223
66898,53223
66836,53235
" /> 
<polyline style="fill-rule:evenodd;"
points="83323,52873
83317,52875
83312,52877
83303,52879
83293,52879
83284,52877
83275,52874
83274,52873
82789,52873
82785,52876
82775,52878
82766,52879
82756,52878
82749,52876
82749,52876
82741,52873
82734,52873
82522,52873
82515,52873
82510,52874
82503,52874
82494,52875
82461,52881
82453,52884
82422,52897
82414,52901
82386,52920
82379,52925
82355,52949
82350,52956
82331,52984
82327,52992
82314,53023
82311,53031
82305,53064
82304,53073
82304,53080
82303,53085
82303,53092
82303,53284
82303,53292
82304,53297
82304,53304
82305,53313
82311,53346
82314,53354
82327,53385
82331,53393
82350,53421
82355,53428
82379,53452
82386,53457
82414,53476
82422,53480
82453,53493
82461,53496
82494,53502
82503,53503
82510,53503
82515,53503
82522,53504
82734,53504
82741,53504
82746,53502
82751,53500
82761,53498
82771,53498
82780,53500
82789,53503
82790,53504
83274,53504
83279,53501
83288,53498
83298,53498
83308,53498
83315,53501
83315,53501
83323,53504
83330,53504
83541,53504
83548,53503
83553,53503
83561,53503
83569,53502
83602,53496
83611,53493
83642,53480
83650,53476
83678,53457
83685,53452
83709,53428
83714,53421
83733,53393
83737,53385
83750,53354
83753,53346
83759,53313
83760,53304
83760,53297
83760,53292
83761,53284
83761,53092
83760,53085
83760,53080
83760,53073
83759,53064
83753,53031
83750,53023
83737,52992
83733,52984
83714,52956
83709,52949
83685,52925
83678,52920
83650,52901
83642,52897
83611,52884
83602,52881
83569,52875
83561,52874
83553,52874
83548,52873
83541,52873
83330,52873
83323,52873
" /> 
<polyline style="fill-rule:evenodd;"
points="87869,49926
88509,49926
88509,49286
87869,49286
87869,49926
" /> 
<polyline style="fill-rule:evenodd;"
points="66836,49298
66778,49322
66725,49357
66681,49402
66646,49454
66622,49512
66609,49574
66609,49637
66622,49699
66646,49757
66681,49810
66725,49854
66778,49889
66836,49914
66898,49926
66961,49926
67023,49914
67081,49889
67134,49854
67178,49810
67213,49757
67237,49699
67250,49637
67250,49574
67237,49512
67213,49454
67178,49402
67134,49357
67081,49322
67023,49298
66961,49286
66898,49286
66836,49298
" /> 
<polyline style="fill-rule:evenodd;"
points="67624,49298
67565,49322
67513,49357
67468,49402
67433,49454
67409,49512
67397,49574
67397,49637
67409,49699
67433,49757
67468,49810
67513,49854
67565,49889
67624,49914
67685,49926
67748,49926
67810,49914
67869,49889
67921,49854
67966,49810
68001,49757
68025,49699
68037,49637
68037,49574
68025,49512
68001,49454
67966,49402
67921,49357
67869,49322
67810,49298
67748,49286
67685,49286
67624,49298
" /> 
<polyline style="fill-rule:evenodd;"
points="68411,49298
68353,49322
68300,49357
68256,49402
68221,49454
68197,49512
68184,49574
68184,49637
68197,49699
68221,49757
68256,49810
68300,49854
68353,49889
68411,49914
68473,49926
68536,49926
68598,49914
68656,49889
68708,49854
68753,49810
68788,49757
68812,49699
68824,49637
68824,49574
68812,49512
68788,49454
68753,49402
68708,49357
68656,49322
68598,49298
68536,49286
68473,49286
68411,49298
" /> 
<polyline style="fill-rule:evenodd;"
points="68972,49926
69612,49926
69612,49286
68972,49286
68972,49926
" /> 
<polyline style="fill-rule:evenodd;"
points="87309,49298
87250,49322
87198,49357
87153,49402
87118,49454
87094,49512
87082,49574
87082,49637
87094,49699
87118,49757
87153,49810
87198,49854
87250,49889
87309,49914
87370,49926
87433,49926
87495,49914
87554,49889
87606,49854
87651,49810
87686,49757
87710,49699
87722,49637
87722,49574
87710,49512
87686,49454
87651,49402
87606,49357
87554,49322
87495,49298
87433,49286
87370,49286
87309,49298
" /> 
<polyline style="fill-rule:evenodd;"
points="86521,49298
86463,49322
86411,49357
86366,49402
86331,49454
86307,49512
86294,49574
86294,49637
86307,49699
86331,49757
86366,49810
86411,49854
86463,49889
86521,49914
86583,49926
86646,49926
86708,49914
86766,49889
86819,49854
86863,49810
86898,49757
86922,49699
86935,49637
86935,49574
86922,49512
86898,49454
86863,49402
86819,49357
86766,49322
86708,49298
86646,49286
86583,49286
86521,49298
" /> 
<polyline style="fill-rule:evenodd;"
points="85734,49298
85676,49322
85623,49357
85579,49402
85543,49454
85519,49512
85507,49574
85507,49637
85519,49699
85543,49757
85579,49810
85623,49854
85676,49889
85734,49914
85796,49926
85859,49926
85921,49914
85979,49889
86031,49854
86076,49810
86111,49757
86135,49699
86147,49637
86147,49574
86135,49512
86111,49454
86076,49402
86031,49357
85979,49322
85921,49298
85859,49286
85796,49286
85734,49298
" /> 
<polyline style="fill-rule:evenodd;"
points="68411,45361
68353,45385
68300,45420
68256,45465
68221,45517
68197,45575
68184,45637
68184,45700
68197,45762
68221,45820
68256,45873
68300,45917
68353,45952
68411,45977
68473,45989
68536,45989
68598,45977
68656,45952
68708,45917
68753,45873
68788,45820
68812,45762
68824,45700
68824,45637
68812,45575
68788,45517
68753,45465
68708,45420
68656,45385
68598,45361
68536,45349
68473,45349
68411,45361
" /> 
<polyline style="fill-rule:evenodd;"
points="85734,45361
85676,45385
85623,45420
85579,45465
85543,45517
85519,45575
85507,45637
85507,45700
85519,45762
85543,45820
85579,45873
85623,45917
85676,45952
85734,45977
85796,45989
85859,45989
85921,45977
85979,45952
86031,45917
86076,45873
86111,45820
86135,45762
86147,45700
86147,45637
86135,45575
86111,45517
86076,45465
86031,45420
85979,45385
85921,45361
85859,45349
85796,45349
85734,45361
" /> 
<polyline style="fill-rule:evenodd;"
points="66836,45361
66778,45385
66725,45420
66681,45465
66646,45517
66622,45575
66609,45637
66609,45700
66622,45762
66646,45820
66681,45873
66725,45917
66778,45952
66836,45977
66898,45989
66961,45989
67023,45977
67081,45952
67134,45917
67178,45873
67213,45820
67237,45762
67250,45700
67250,45637
67237,45575
67213,45517
67178,45465
67134,45420
67081,45385
67023,45361
66961,45349
66898,45349
66836,45361
" /> 
<polyline style="fill-rule:evenodd;"
points="67624,45361
67565,45385
67513,45420
67468,45465
67433,45517
67409,45575
67397,45637
67397,45700
67409,45762
67433,45820
67468,45873
67513,45917
67565,45952
67624,45977
67685,45989
67748,45989
67810,45977
67869,45952
67921,45917
67966,45873
68001,45820
68025,45762
68037,45700
68037,45637
68025,45575
68001,45517
67966,45465
67921,45420
67869,45385
67810,45361
67748,45349
67685,45349
67624,45361
" /> 
<polyline style="fill-rule:evenodd;"
points="68972,45989
69612,45989
69612,45349
68972,45349
68972,45989
" /> 
<polyline style="fill-rule:evenodd;"
points="86521,45361
86463,45385
86411,45420
86366,45465
86331,45517
86307,45575
86294,45637
86294,45700
86307,45762
86331,45820
86366,45873
86411,45917
86463,45952
86521,45977
86583,45989
86646,45989
86708,45977
86766,45952
86819,45917
86863,45873
86898,45820
86922,45762
86935,45700
86935,45637
86922,45575
86898,45517
86863,45465
86819,45420
86766,45385
86708,45361
86646,45349
86583,45349
86521,45361
" /> 
<polyline style="fill-rule:evenodd;"
points="87309,45361
87250,45385
87198,45420
87153,45465
87118,45517
87094,45575
87082,45637
87082,45700
87094,45762
87118,45820
87153,45873
87198,45917
87250,45952
87309,45977
87370,45989
87433,45989
87495,45977
87554,45952
87606,45917
87651,45873
87686,45820
87710,45762
87722,45700
87722,45637
87710,45575
87686,45517
87651,45465
87606,45420
87554,45385
87495,45361
87433,45349
87370,45349
87309,45361
" /> 
<polyline style="fill-rule:evenodd;"
points="87869,45989
88509,45989
88509,45349
87869,45349
87869,45989
" /> 
<polyline style="fill-rule:evenodd;"
points="66836,41424
66778,41448
66725,41483
66681,41528
66646,41580
66622,41638
66609,41700
66609,41763
66622,41825
66646,41883
66681,41936
66725,41980
66778,42015
66836,42040
66898,42052
66961,42052
67023,42040
67081,42015
67134,41980
67178,41936
67213,41883
67237,41825
67250,41763
67250,41700
67237,41638
67213,41580
67178,41528
67134,41483
67081,41448
67023,41424
66961,41412
66898,41412
66836,41424
" /> 
<polyline style="fill-rule:evenodd;"
points="67624,41424
67565,41448
67513,41483
67468,41528
67433,41580
67409,41638
67397,41700
67397,41763
67409,41825
67433,41883
67468,41936
67513,41980
67565,42015
67624,42040
67685,42052
67748,42052
67810,42040
67869,42015
67921,41980
67966,41936
68001,41883
68025,41825
68037,41763
68037,41700
68025,41638
68001,41580
67966,41528
67921,41483
67869,41448
67810,41424
67748,41412
67685,41412
67624,41424
" /> 
<polyline style="fill-rule:evenodd;"
points="68411,41424
68353,41448
68300,41483
68256,41528
68221,41580
68197,41638
68184,41700
68184,41763
68197,41825
68221,41883
68256,41936
68300,41980
68353,42015
68411,42040
68473,42052
68536,42052
68598,42040
68656,42015
68708,41980
68753,41936
68788,41883
68812,41825
68824,41763
68824,41700
68812,41638
68788,41580
68753,41528
68708,41483
68656,41448
68598,41424
68536,41412
68473,41412
68411,41424
" /> 
<polyline style="fill-rule:evenodd;"
points="68972,42052
69612,42052
69612,41412
68972,41412
68972,42052
" /> 
<polyline style="fill-rule:evenodd;"
points="85734,41424
85676,41448
85623,41483
85579,41528
85543,41580
85519,41638
85507,41700
85507,41763
85519,41825
85543,41883
85579,41936
85623,41980
85676,42015
85734,42040
85796,42052
85859,42052
85921,42040
85979,42015
86031,41980
86076,41936
86111,41883
86135,41825
86147,41763
86147,41700
86135,41638
86111,41580
86076,41528
86031,41483
85979,41448
85921,41424
85859,41412
85796,41412
85734,41424
" /> 
<polyline style="fill-rule:evenodd;"
points="87309,41424
87250,41448
87198,41483
87153,41528
87118,41580
87094,41638
87082,41700
87082,41763
87094,41825
87118,41883
87153,41936
87198,41980
87250,42015
87309,42040
87370,42052
87433,42052
87495,42040
87554,42015
87606,41980
87651,41936
87686,41883
87710,41825
87722,41763
87722,41700
87710,41638
87686,41580
87651,41528
87606,41483
87554,41448
87495,41424
87433,41412
87370,41412
87309,41424
" /> 
<polyline style="fill-rule:evenodd;"
points="86521,41424
86463,41448
86411,41483
86366,41528
86331,41580
86307,41638
86294,41700
86294,41763
86307,41825
86331,41883
86366,41936
86411,41980
86463,42015
86521,42040
86583,42052
86646,42052
86708,42040
86766,42015
86819,41980
86863,41936
86898,41883
86922,41825
86935,41763
86935,41700
86922,41638
86898,41580
86863,41528
86819,41483
86766,41448
86708,41424
86646,41412
86583,41412
86521,41424
" /> 
<polyline style="fill-rule:evenodd;"
points="87869,42052
88509,42052
88509,41412
87869,41412
87869,42052
" /> 
<polyline style="fill-rule:evenodd;"
points="85734,37487
85676,37511
85623,37546
85579,37591
85543,37643
85519,37701
85507,37763
85507,37826
85519,37888
85543,37946
85579,37999
85623,38043
85676,38078
85734,38103
85796,38115
85859,38115
85921,38103
85979,38078
86031,38043
86076,37999
86111,37946
86135,37888
86147,37826
86147,37763
86135,37701
86111,37643
86076,37591
86031,37546
85979,37511
85921,37487
85859,37475
85796,37475
85734,37487
" /> 
<polyline style="fill-rule:evenodd;"
points="68972,38115
69612,38115
69612,37475
68972,37475
68972,38115
" /> 
<polyline style="fill-rule:evenodd;"
points="67624,37487
67565,37511
67513,37546
67468,37591
67433,37643
67409,37701
67397,37763
67397,37826
67409,37888
67433,37946
67468,37999
67513,38043
67565,38078
67624,38103
67685,38115
67748,38115
67810,38103
67869,38078
67921,38043
67966,37999
68001,37946
68025,37888
68037,37826
68037,37763
68025,37701
68001,37643
67966,37591
67921,37546
67869,37511
67810,37487
67748,37475
67685,37475
67624,37487
" /> 
<polyline style="fill-rule:evenodd;"
points="66836,37487
66778,37511
66725,37546
66681,37591
66646,37643
66622,37701
66609,37763
66609,37826
66622,37888
66646,37946
66681,37999
66725,38043
66778,38078
66836,38103
66898,38115
66961,38115
67023,38103
67081,38078
67134,38043
67178,37999
67213,37946
67237,37888
67250,37826
67250,37763
67237,37701
67213,37643
67178,37591
67134,37546
67081,37511
67023,37487
66961,37475
66898,37475
66836,37487
" /> 
<polyline style="fill-rule:evenodd;"
points="87869,38115
88509,38115
88509,37475
87869,37475
87869,38115
" /> 
<polyline style="fill-rule:evenodd;"
points="87309,37487
87250,37511
87198,37546
87153,37591
87118,37643
87094,37701
87082,37763
87082,37826
87094,37888
87118,37946
87153,37999
87198,38043
87250,38078
87309,38103
87370,38115
87433,38115
87495,38103
87554,38078
87606,38043
87651,37999
87686,37946
87710,37888
87722,37826
87722,37763
87710,37701
87686,37643
87651,37591
87606,37546
87554,37511
87495,37487
87433,37475
87370,37475
87309,37487
" /> 
<polyline style="fill-rule:evenodd;"
points="86521,37487
86463,37511
86411,37546
86366,37591
86331,37643
86307,37701
86294,37763
86294,37826
86307,37888
86331,37946
86366,37999
86411,38043
86463,38078
86521,38103
86583,38115
86646,38115
86708,38103
86766,38078
86819,38043
86863,37999
86898,37946
86922,37888
86935,37826
86935,37763
86922,37701
86898,37643
86863,37591
86819,37546
86766,37511
86708,37487
86646,37475
86583,37475
86521,37487
" /> 
<polyline style="fill-rule:evenodd;"
points="68411,37487
68353,37511
68300,37546
68256,37591
68221,37643
68197,37701
68184,37763
68184,37826
68197,37888
68221,37946
68256,37999
68300,38043
68353,38078
68411,38103
68473,38115
68536,38115
68598,38103
68656,38078
68708,38043
68753,37999
68788,37946
68812,37888
68824,37826
68824,37763
68812,37701
68788,37643
68753,37591
68708,37546
68656,37511
68598,37487
68536,37475
68473,37475
68411,37487
" /> 
<polyline style="fill-rule:evenodd;"
points="87309,33550
87250,33574
87198,33609
87153,33654
87118,33706
87094,33764
87082,33826
87082,33889
87094,33951
87118,34009
87153,34062
87198,34106
87250,34141
87309,34166
87370,34178
87433,34178
87495,34166
87554,34141
87606,34106
87651,34062
87686,34009
87710,33951
87722,33889
87722,33826
87710,33764
87686,33706
87651,33654
87606,33609
87554,33574
87495,33550
87433,33538
87370,33538
87309,33550
" /> 
<polyline style="fill-rule:evenodd;"
points="85734,33550
85676,33574
85623,33609
85579,33654
85543,33706
85519,33764
85507,33826
85507,33889
85519,33951
85543,34009
85579,34062
85623,34106
85676,34141
85734,34166
85796,34178
85859,34178
85921,34166
85979,34141
86031,34106
86076,34062
86111,34009
86135,33951
86147,33889
86147,33826
86135,33764
86111,33706
86076,33654
86031,33609
85979,33574
85921,33550
85859,33538
85796,33538
85734,33550
" /> 
<polyline style="fill-rule:evenodd;"
points="86521,33550
86463,33574
86411,33609
86366,33654
86331,33706
86307,33764
86294,33826
86294,33889
86307,33951
86331,34009
86366,34062
86411,34106
86463,34141
86521,34166
86583,34178
86646,34178
86708,34166
86766,34141
86819,34106
86863,34062
86898,34009
86922,33951
86935,33889
86935,33826
86922,33764
86898,33706
86863,33654
86819,33609
86766,33574
86708,33550
86646,33538
86583,33538
86521,33550
" /> 
<polyline style="fill-rule:evenodd;"
points="68972,34178
69612,34178
69612,33538
68972,33538
68972,34178
" /> 
<polyline style="fill-rule:evenodd;"
points="68411,33550
68353,33574
68300,33609
68256,33654
68221,33706
68197,33764
68184,33826
68184,33889
68197,33951
68221,34009
68256,34062
68300,34106
68353,34141
68411,34166
68473,34178
68536,34178
68598,34166
68656,34141
68708,34106
68753,34062
68788,34009
68812,33951
68824,33889
68824,33826
68812,33764
68788,33706
68753,33654
68708,33609
68656,33574
68598,33550
68536,33538
68473,33538
68411,33550
" /> 
<polyline style="fill-rule:evenodd;"
points="67624,33550
67565,33574
67513,33609
67468,33654
67433,33706
67409,33764
67397,33826
67397,33889
67409,33951
67433,34009
67468,34062
67513,34106
67565,34141
67624,34166
67685,34178
67748,34178
67810,34166
67869,34141
67921,34106
67966,34062
68001,34009
68025,33951
68037,33889
68037,33826
68025,33764
68001,33706
67966,33654
67921,33609
67869,33574
67810,33550
67748,33538
67685,33538
67624,33550
" /> 
<polyline style="fill-rule:evenodd;"
points="66836,33550
66778,33574
66725,33609
66681,33654
66646,33706
66622,33764
66609,33826
66609,33889
66622,33951
66646,34009
66681,34062
66725,34106
66778,34141
66836,34166
66898,34178
66961,34178
67023,34166
67081,34141
67134,34106
67178,34062
67213,34009
67237,33951
67250,33889
67250,33826
67237,33764
67213,33706
67178,33654
67134,33609
67081,33574
67023,33550
66961,33538
66898,33538
66836,33550
" /> 
<polyline style="fill-rule:evenodd;"
points="87869,34178
88509,34178
88509,33538
87869,33538
87869,34178
" /> 
<polyline style="fill-rule:evenodd;"
points="88042,30469
88000,30477
87881,30526
87776,30596
87775,30597
87684,30688
87613,30794
87564,30912
87539,31038
87539,31166
87564,31291
87613,31410
87684,31516
87775,31607
87775,31607
87881,31678
88000,31727
88042,31735
88125,31752
88253,31752
88337,31735
88379,31727
88497,31678
88604,31607
88604,31607
88694,31516
88765,31410
88814,31291
88839,31166
88839,31038
88814,30912
88765,30794
88694,30688
88604,30597
88602,30596
88497,30526
88379,30477
88337,30469
88253,30452
88125,30452
88042,30469
" /> 
<polyline style="fill-rule:evenodd;"
points="66782,30469
66740,30477
66622,30526
66517,30596
66515,30597
66425,30688
66353,30794
66304,30912
66280,31038
66280,31166
66304,31291
66353,31410
66425,31516
66515,31607
66515,31607
66622,31678
66740,31727
66782,31735
66865,31752
66994,31752
67077,31735
67119,31727
67237,31678
67344,31607
67344,31607
67434,31516
67506,31410
67555,31291
67580,31166
67580,31038
67555,30912
67506,30794
67434,30688
67344,30597
67342,30596
67237,30526
67119,30477
67077,30469
66994,30452
66865,30452
66782,30469
" /> 
</g>
<g style="fill:#000000; fill-opacity:1.0; 
stroke:#000000; stroke-width:0; stroke-opacity:1; 
stroke-linecap:round; stroke-linejoin:round;">
</g>
<g style="fill:#C2C200; fill-opacity:1.0; 
stroke:#C2C200; stroke-width:0; stroke-opacity:1; 
stroke-linecap:round; stroke-linejoin:round;">
</g>
<g style="fill:#C2C200; fill-opacity:1.0; 
stroke:#C2C200; stroke-width:78.7402; stroke-opacity:1; 
stroke-linecap:round; stroke-linejoin:round;">
</g>
<g style="fill:#C2C200; fill-opacity:0.0; 
stroke:#C2C200; stroke-width:78.7402; stroke-opacity:1; 
stroke-linecap:round; stroke-linejoin:round;">
<path d="M68898 57874
L66930 57874
" />
<path d="M85433 57086
L69685 57086
" />
<path d="M69685.9 57086.6 A787.402 787.402 0.0 0 0 68898.5 57874 " />
<path d="M86221.3 57874 A787.402 787.402 0.0 0 0 85433.9 57086.6 " />
<path d="M88189.8 57874 A1181.1 1181.1 0.0 0 0 89370.9 56692.9 " />
<path d="M65748.9 56692.9 A1181.1 1181.1 0.0 0 0 66930 57874 " />
<path d="M66930 29921.3 A1181.1 1181.1 0.0 0 0 65748.9 31102.4 " />
<path d="M89370.9 31102.4 A1181.1 1181.1 0.0 0 0 88189.8 29921.3 " />
<path d="M89370 56692
L89370 31102
" />
<path d="M86221 57874
L88189 57874
" />
<path d="M65748 31102
L65748 56692
" />
<path d="M88189 29921
L66930 29921
" />
</g> 
</svg>
