G04 #@! TF.GenerationSoftware,KiCad,Pcbnew,(5.0.1-3-g963ef8bb5)*
G04 #@! TF.CreationDate,2020-02-17T10:00:22+01:00*
G04 #@! TF.ProjectId,studIOTmega_v11,73747564494F546D6567615F7631312E,rev?*
G04 #@! TF.SameCoordinates,Original*
G04 #@! TF.FileFunction,Soldermask,Bot*
G04 #@! TF.FilePolarity,Negative*
%FSLAX46Y46*%
G04 Gerber Fmt 4.6, Leading zero omitted, Abs format (unit mm)*
G04 Created by KiCad (PCBNEW (5.0.1-3-g963ef8bb5)) date 2020 February 17, Monday 10:00:22*
%MOMM*%
%LPD*%
G01*
G04 APERTURE LIST*
%ADD10C,0.100000*%
G04 APERTURE END LIST*
D10*
G36*
X127375256Y-142391298D02*
X127481579Y-142412447D01*
X127782042Y-142536903D01*
X127816332Y-142559815D01*
X128052454Y-142717587D01*
X128282413Y-142947546D01*
X128463098Y-143217960D01*
X128587553Y-143518422D01*
X128651000Y-143837389D01*
X128651000Y-144162611D01*
X128587553Y-144481578D01*
X128463098Y-144782040D01*
X128282413Y-145052454D01*
X128052454Y-145282413D01*
X128052451Y-145282415D01*
X127782042Y-145463097D01*
X127481579Y-145587553D01*
X127375256Y-145608702D01*
X127162611Y-145651000D01*
X126837389Y-145651000D01*
X126624744Y-145608702D01*
X126518421Y-145587553D01*
X126217958Y-145463097D01*
X125947549Y-145282415D01*
X125947546Y-145282413D01*
X125717587Y-145052454D01*
X125536902Y-144782040D01*
X125412447Y-144481578D01*
X125349000Y-144162611D01*
X125349000Y-143837389D01*
X125412447Y-143518422D01*
X125536902Y-143217960D01*
X125717587Y-142947546D01*
X125947546Y-142717587D01*
X126183668Y-142559815D01*
X126217958Y-142536903D01*
X126518421Y-142412447D01*
X126624744Y-142391298D01*
X126837389Y-142349000D01*
X127162611Y-142349000D01*
X127375256Y-142391298D01*
X127375256Y-142391298D01*
G37*
G36*
X73375256Y-142391298D02*
X73481579Y-142412447D01*
X73782042Y-142536903D01*
X73816332Y-142559815D01*
X74052454Y-142717587D01*
X74282413Y-142947546D01*
X74463098Y-143217960D01*
X74587553Y-143518422D01*
X74651000Y-143837389D01*
X74651000Y-144162611D01*
X74587553Y-144481578D01*
X74463098Y-144782040D01*
X74282413Y-145052454D01*
X74052454Y-145282413D01*
X74052451Y-145282415D01*
X73782042Y-145463097D01*
X73481579Y-145587553D01*
X73375256Y-145608702D01*
X73162611Y-145651000D01*
X72837389Y-145651000D01*
X72624744Y-145608702D01*
X72518421Y-145587553D01*
X72217958Y-145463097D01*
X71947549Y-145282415D01*
X71947546Y-145282413D01*
X71717587Y-145052454D01*
X71536902Y-144782040D01*
X71412447Y-144481578D01*
X71349000Y-144162611D01*
X71349000Y-143837389D01*
X71412447Y-143518422D01*
X71536902Y-143217960D01*
X71717587Y-142947546D01*
X71947546Y-142717587D01*
X72183668Y-142559815D01*
X72217958Y-142536903D01*
X72518421Y-142412447D01*
X72624744Y-142391298D01*
X72837389Y-142349000D01*
X73162611Y-142349000D01*
X73375256Y-142391298D01*
X73375256Y-142391298D01*
G37*
G36*
X83901000Y-144101000D02*
X82099000Y-144101000D01*
X82099000Y-142299000D01*
X83901000Y-142299000D01*
X83901000Y-144101000D01*
X83901000Y-144101000D01*
G37*
G36*
X88190442Y-142305518D02*
X88256627Y-142312037D01*
X88369853Y-142346384D01*
X88426467Y-142363557D01*
X88517932Y-142412447D01*
X88582991Y-142447222D01*
X88618729Y-142476552D01*
X88720186Y-142559814D01*
X88803448Y-142661271D01*
X88832778Y-142697009D01*
X88832779Y-142697011D01*
X88916443Y-142853533D01*
X88916443Y-142853534D01*
X88967963Y-143023373D01*
X88985359Y-143200000D01*
X88967963Y-143376627D01*
X88937777Y-143476136D01*
X88916443Y-143546467D01*
X88861440Y-143649369D01*
X88832778Y-143702991D01*
X88819515Y-143719152D01*
X88720186Y-143840186D01*
X88618729Y-143923448D01*
X88582991Y-143952778D01*
X88582989Y-143952779D01*
X88426467Y-144036443D01*
X88369853Y-144053616D01*
X88256627Y-144087963D01*
X88190442Y-144094482D01*
X88124260Y-144101000D01*
X88035740Y-144101000D01*
X87969558Y-144094482D01*
X87903373Y-144087963D01*
X87790147Y-144053616D01*
X87733533Y-144036443D01*
X87577011Y-143952779D01*
X87577009Y-143952778D01*
X87541271Y-143923448D01*
X87439814Y-143840186D01*
X87340485Y-143719152D01*
X87327222Y-143702991D01*
X87298560Y-143649369D01*
X87243557Y-143546467D01*
X87222223Y-143476136D01*
X87192037Y-143376627D01*
X87174641Y-143200000D01*
X87192037Y-143023373D01*
X87243557Y-142853534D01*
X87243557Y-142853533D01*
X87327221Y-142697011D01*
X87327222Y-142697009D01*
X87356552Y-142661271D01*
X87439814Y-142559814D01*
X87541271Y-142476552D01*
X87577009Y-142447222D01*
X87642068Y-142412447D01*
X87733533Y-142363557D01*
X87790147Y-142346384D01*
X87903373Y-142312037D01*
X87969558Y-142305518D01*
X88035740Y-142299000D01*
X88124260Y-142299000D01*
X88190442Y-142305518D01*
X88190442Y-142305518D01*
G37*
G36*
X85650442Y-142305518D02*
X85716627Y-142312037D01*
X85829853Y-142346384D01*
X85886467Y-142363557D01*
X85977932Y-142412447D01*
X86042991Y-142447222D01*
X86078729Y-142476552D01*
X86180186Y-142559814D01*
X86263448Y-142661271D01*
X86292778Y-142697009D01*
X86292779Y-142697011D01*
X86376443Y-142853533D01*
X86376443Y-142853534D01*
X86427963Y-143023373D01*
X86445359Y-143200000D01*
X86427963Y-143376627D01*
X86397777Y-143476136D01*
X86376443Y-143546467D01*
X86321440Y-143649369D01*
X86292778Y-143702991D01*
X86279515Y-143719152D01*
X86180186Y-143840186D01*
X86078729Y-143923448D01*
X86042991Y-143952778D01*
X86042989Y-143952779D01*
X85886467Y-144036443D01*
X85829853Y-144053616D01*
X85716627Y-144087963D01*
X85650442Y-144094482D01*
X85584260Y-144101000D01*
X85495740Y-144101000D01*
X85429558Y-144094482D01*
X85363373Y-144087963D01*
X85250147Y-144053616D01*
X85193533Y-144036443D01*
X85037011Y-143952779D01*
X85037009Y-143952778D01*
X85001271Y-143923448D01*
X84899814Y-143840186D01*
X84800485Y-143719152D01*
X84787222Y-143702991D01*
X84758560Y-143649369D01*
X84703557Y-143546467D01*
X84682223Y-143476136D01*
X84652037Y-143376627D01*
X84634641Y-143200000D01*
X84652037Y-143023373D01*
X84703557Y-142853534D01*
X84703557Y-142853533D01*
X84787221Y-142697011D01*
X84787222Y-142697009D01*
X84816552Y-142661271D01*
X84899814Y-142559814D01*
X85001271Y-142476552D01*
X85037009Y-142447222D01*
X85102068Y-142412447D01*
X85193533Y-142363557D01*
X85250147Y-142346384D01*
X85363373Y-142312037D01*
X85429558Y-142305518D01*
X85495740Y-142299000D01*
X85584260Y-142299000D01*
X85650442Y-142305518D01*
X85650442Y-142305518D01*
G37*
G36*
X115646136Y-142848253D02*
X115737312Y-142886019D01*
X115819372Y-142940850D01*
X115889150Y-143010628D01*
X115943981Y-143092688D01*
X115981747Y-143183864D01*
X116001000Y-143280656D01*
X116001000Y-143379344D01*
X115981747Y-143476136D01*
X115943981Y-143567312D01*
X115889150Y-143649372D01*
X115819372Y-143719150D01*
X115737312Y-143773981D01*
X115646136Y-143811747D01*
X115549344Y-143831000D01*
X115450656Y-143831000D01*
X115353864Y-143811747D01*
X115262688Y-143773981D01*
X115180628Y-143719150D01*
X115110850Y-143649372D01*
X115056019Y-143567312D01*
X115018253Y-143476136D01*
X114999000Y-143379344D01*
X114999000Y-143280656D01*
X115018253Y-143183864D01*
X115056019Y-143092688D01*
X115110850Y-143010628D01*
X115180628Y-142940850D01*
X115262688Y-142886019D01*
X115353864Y-142848253D01*
X115450656Y-142829000D01*
X115549344Y-142829000D01*
X115646136Y-142848253D01*
X115646136Y-142848253D01*
G37*
G36*
X112646136Y-142848253D02*
X112737312Y-142886019D01*
X112819372Y-142940850D01*
X112889150Y-143010628D01*
X112943981Y-143092688D01*
X112981747Y-143183864D01*
X113001000Y-143280656D01*
X113001000Y-143379344D01*
X112981747Y-143476136D01*
X112943981Y-143567312D01*
X112889150Y-143649372D01*
X112819372Y-143719150D01*
X112737312Y-143773981D01*
X112646136Y-143811747D01*
X112549344Y-143831000D01*
X112450656Y-143831000D01*
X112353864Y-143811747D01*
X112262688Y-143773981D01*
X112180628Y-143719150D01*
X112110850Y-143649372D01*
X112056019Y-143567312D01*
X112018253Y-143476136D01*
X111999000Y-143379344D01*
X111999000Y-143280656D01*
X112018253Y-143183864D01*
X112056019Y-143092688D01*
X112110850Y-143010628D01*
X112180628Y-142940850D01*
X112262688Y-142886019D01*
X112353864Y-142848253D01*
X112450656Y-142829000D01*
X112549344Y-142829000D01*
X112646136Y-142848253D01*
X112646136Y-142848253D01*
G37*
G36*
X85259999Y-137199737D02*
X85274534Y-137204147D01*
X85287717Y-137209607D01*
X85311751Y-137214387D01*
X85336255Y-137214387D01*
X85360288Y-137209606D01*
X85382927Y-137200228D01*
X85384765Y-137199000D01*
X86616053Y-137199000D01*
X86628165Y-137205474D01*
X86651614Y-137212587D01*
X86676000Y-137214989D01*
X86700386Y-137212587D01*
X86718564Y-137206083D01*
X86718608Y-137206227D01*
X86740001Y-137199737D01*
X86756140Y-137198148D01*
X87293860Y-137198148D01*
X87312198Y-137199954D01*
X87324450Y-137200556D01*
X87342869Y-137200556D01*
X87365149Y-137202750D01*
X87449236Y-137219476D01*
X87470655Y-137225974D01*
X87549871Y-137258785D01*
X87569607Y-137269335D01*
X87640897Y-137316969D01*
X87658208Y-137331176D01*
X87718824Y-137391792D01*
X87733031Y-137409103D01*
X87780665Y-137480393D01*
X87791215Y-137500129D01*
X87824026Y-137579345D01*
X87830524Y-137600764D01*
X87847250Y-137684851D01*
X87849444Y-137707131D01*
X87849444Y-137725550D01*
X87850046Y-137737802D01*
X87851852Y-137756140D01*
X87851852Y-138243861D01*
X87850046Y-138262198D01*
X87849444Y-138274450D01*
X87849444Y-138292869D01*
X87847250Y-138315149D01*
X87830524Y-138399236D01*
X87824026Y-138420655D01*
X87791215Y-138499871D01*
X87780665Y-138519607D01*
X87733031Y-138590897D01*
X87718824Y-138608208D01*
X87658208Y-138668824D01*
X87640897Y-138683031D01*
X87569607Y-138730665D01*
X87549871Y-138741215D01*
X87470655Y-138774026D01*
X87449236Y-138780524D01*
X87365149Y-138797250D01*
X87342869Y-138799444D01*
X87324450Y-138799444D01*
X87312198Y-138800046D01*
X87293861Y-138801852D01*
X86756140Y-138801852D01*
X86740001Y-138800263D01*
X86725466Y-138795853D01*
X86712283Y-138790393D01*
X86688249Y-138785613D01*
X86663745Y-138785613D01*
X86639712Y-138790394D01*
X86617073Y-138799772D01*
X86615235Y-138801000D01*
X85383947Y-138801000D01*
X85371835Y-138794526D01*
X85348386Y-138787413D01*
X85324000Y-138785011D01*
X85299614Y-138787413D01*
X85281436Y-138793917D01*
X85281392Y-138793773D01*
X85259999Y-138800263D01*
X85243860Y-138801852D01*
X84706139Y-138801852D01*
X84687802Y-138800046D01*
X84675550Y-138799444D01*
X84657131Y-138799444D01*
X84634851Y-138797250D01*
X84550764Y-138780524D01*
X84529345Y-138774026D01*
X84450129Y-138741215D01*
X84430393Y-138730665D01*
X84359103Y-138683031D01*
X84341792Y-138668824D01*
X84281176Y-138608208D01*
X84266969Y-138590897D01*
X84219335Y-138519607D01*
X84208785Y-138499871D01*
X84175974Y-138420655D01*
X84169476Y-138399236D01*
X84152750Y-138315149D01*
X84150556Y-138292869D01*
X84150556Y-138274450D01*
X84149954Y-138262198D01*
X84148148Y-138243861D01*
X84148148Y-137756140D01*
X84149954Y-137737802D01*
X84150556Y-137725550D01*
X84150556Y-137707131D01*
X84152750Y-137684851D01*
X84169476Y-137600764D01*
X84175974Y-137579345D01*
X84208785Y-137500129D01*
X84219335Y-137480393D01*
X84266969Y-137409103D01*
X84281176Y-137391792D01*
X84341792Y-137331176D01*
X84359103Y-137316969D01*
X84430393Y-137269335D01*
X84450129Y-137258785D01*
X84529345Y-137225974D01*
X84550764Y-137219476D01*
X84634851Y-137202750D01*
X84657131Y-137200556D01*
X84675550Y-137200556D01*
X84687802Y-137199954D01*
X84706140Y-137198148D01*
X85243860Y-137198148D01*
X85259999Y-137199737D01*
X85259999Y-137199737D01*
G37*
G36*
X73813000Y-136813000D02*
X72187000Y-136813000D01*
X72187000Y-135187000D01*
X73813000Y-135187000D01*
X73813000Y-136813000D01*
X73813000Y-136813000D01*
G37*
G36*
X127237142Y-135218242D02*
X127385102Y-135279530D01*
X127518258Y-135368502D01*
X127631498Y-135481742D01*
X127720470Y-135614898D01*
X127781758Y-135762858D01*
X127813000Y-135919925D01*
X127813000Y-136080075D01*
X127781758Y-136237142D01*
X127720470Y-136385102D01*
X127631498Y-136518258D01*
X127518258Y-136631498D01*
X127385102Y-136720470D01*
X127237142Y-136781758D01*
X127080075Y-136813000D01*
X126919925Y-136813000D01*
X126762858Y-136781758D01*
X126614898Y-136720470D01*
X126481742Y-136631498D01*
X126368502Y-136518258D01*
X126279530Y-136385102D01*
X126218242Y-136237142D01*
X126187000Y-136080075D01*
X126187000Y-135919925D01*
X126218242Y-135762858D01*
X126279530Y-135614898D01*
X126368502Y-135481742D01*
X126481742Y-135368502D01*
X126614898Y-135279530D01*
X126762858Y-135218242D01*
X126919925Y-135187000D01*
X127080075Y-135187000D01*
X127237142Y-135218242D01*
X127237142Y-135218242D01*
G37*
G36*
X75237142Y-135218242D02*
X75385102Y-135279530D01*
X75518258Y-135368502D01*
X75631498Y-135481742D01*
X75720470Y-135614898D01*
X75781758Y-135762858D01*
X75813000Y-135919925D01*
X75813000Y-136080075D01*
X75781758Y-136237142D01*
X75720470Y-136385102D01*
X75631498Y-136518258D01*
X75518258Y-136631498D01*
X75385102Y-136720470D01*
X75237142Y-136781758D01*
X75080075Y-136813000D01*
X74919925Y-136813000D01*
X74762858Y-136781758D01*
X74614898Y-136720470D01*
X74481742Y-136631498D01*
X74368502Y-136518258D01*
X74279530Y-136385102D01*
X74218242Y-136237142D01*
X74187000Y-136080075D01*
X74187000Y-135919925D01*
X74218242Y-135762858D01*
X74279530Y-135614898D01*
X74368502Y-135481742D01*
X74481742Y-135368502D01*
X74614898Y-135279530D01*
X74762858Y-135218242D01*
X74919925Y-135187000D01*
X75080075Y-135187000D01*
X75237142Y-135218242D01*
X75237142Y-135218242D01*
G37*
G36*
X77237142Y-135218242D02*
X77385102Y-135279530D01*
X77518258Y-135368502D01*
X77631498Y-135481742D01*
X77720470Y-135614898D01*
X77781758Y-135762858D01*
X77813000Y-135919925D01*
X77813000Y-136080075D01*
X77781758Y-136237142D01*
X77720470Y-136385102D01*
X77631498Y-136518258D01*
X77518258Y-136631498D01*
X77385102Y-136720470D01*
X77237142Y-136781758D01*
X77080075Y-136813000D01*
X76919925Y-136813000D01*
X76762858Y-136781758D01*
X76614898Y-136720470D01*
X76481742Y-136631498D01*
X76368502Y-136518258D01*
X76279530Y-136385102D01*
X76218242Y-136237142D01*
X76187000Y-136080075D01*
X76187000Y-135919925D01*
X76218242Y-135762858D01*
X76279530Y-135614898D01*
X76368502Y-135481742D01*
X76481742Y-135368502D01*
X76614898Y-135279530D01*
X76762858Y-135218242D01*
X76919925Y-135187000D01*
X77080075Y-135187000D01*
X77237142Y-135218242D01*
X77237142Y-135218242D01*
G37*
G36*
X125237142Y-135218242D02*
X125385102Y-135279530D01*
X125518258Y-135368502D01*
X125631498Y-135481742D01*
X125720470Y-135614898D01*
X125781758Y-135762858D01*
X125813000Y-135919925D01*
X125813000Y-136080075D01*
X125781758Y-136237142D01*
X125720470Y-136385102D01*
X125631498Y-136518258D01*
X125518258Y-136631498D01*
X125385102Y-136720470D01*
X125237142Y-136781758D01*
X125080075Y-136813000D01*
X124919925Y-136813000D01*
X124762858Y-136781758D01*
X124614898Y-136720470D01*
X124481742Y-136631498D01*
X124368502Y-136518258D01*
X124279530Y-136385102D01*
X124218242Y-136237142D01*
X124187000Y-136080075D01*
X124187000Y-135919925D01*
X124218242Y-135762858D01*
X124279530Y-135614898D01*
X124368502Y-135481742D01*
X124481742Y-135368502D01*
X124614898Y-135279530D01*
X124762858Y-135218242D01*
X124919925Y-135187000D01*
X125080075Y-135187000D01*
X125237142Y-135218242D01*
X125237142Y-135218242D01*
G37*
G36*
X123237142Y-135218242D02*
X123385102Y-135279530D01*
X123518258Y-135368502D01*
X123631498Y-135481742D01*
X123720470Y-135614898D01*
X123781758Y-135762858D01*
X123813000Y-135919925D01*
X123813000Y-136080075D01*
X123781758Y-136237142D01*
X123720470Y-136385102D01*
X123631498Y-136518258D01*
X123518258Y-136631498D01*
X123385102Y-136720470D01*
X123237142Y-136781758D01*
X123080075Y-136813000D01*
X122919925Y-136813000D01*
X122762858Y-136781758D01*
X122614898Y-136720470D01*
X122481742Y-136631498D01*
X122368502Y-136518258D01*
X122279530Y-136385102D01*
X122218242Y-136237142D01*
X122187000Y-136080075D01*
X122187000Y-135919925D01*
X122218242Y-135762858D01*
X122279530Y-135614898D01*
X122368502Y-135481742D01*
X122481742Y-135368502D01*
X122614898Y-135279530D01*
X122762858Y-135218242D01*
X122919925Y-135187000D01*
X123080075Y-135187000D01*
X123237142Y-135218242D01*
X123237142Y-135218242D01*
G37*
G36*
X121813000Y-136813000D02*
X120187000Y-136813000D01*
X120187000Y-135187000D01*
X121813000Y-135187000D01*
X121813000Y-136813000D01*
X121813000Y-136813000D01*
G37*
G36*
X79237142Y-135218242D02*
X79385102Y-135279530D01*
X79518258Y-135368502D01*
X79631498Y-135481742D01*
X79720470Y-135614898D01*
X79781758Y-135762858D01*
X79813000Y-135919925D01*
X79813000Y-136080075D01*
X79781758Y-136237142D01*
X79720470Y-136385102D01*
X79631498Y-136518258D01*
X79518258Y-136631498D01*
X79385102Y-136720470D01*
X79237142Y-136781758D01*
X79080075Y-136813000D01*
X78919925Y-136813000D01*
X78762858Y-136781758D01*
X78614898Y-136720470D01*
X78481742Y-136631498D01*
X78368502Y-136518258D01*
X78279530Y-136385102D01*
X78218242Y-136237142D01*
X78187000Y-136080075D01*
X78187000Y-135919925D01*
X78218242Y-135762858D01*
X78279530Y-135614898D01*
X78368502Y-135481742D01*
X78481742Y-135368502D01*
X78614898Y-135279530D01*
X78762858Y-135218242D01*
X78919925Y-135187000D01*
X79080075Y-135187000D01*
X79237142Y-135218242D01*
X79237142Y-135218242D01*
G37*
G36*
X121813000Y-126813000D02*
X120187000Y-126813000D01*
X120187000Y-125187000D01*
X121813000Y-125187000D01*
X121813000Y-126813000D01*
X121813000Y-126813000D01*
G37*
G36*
X123237142Y-125218242D02*
X123385102Y-125279530D01*
X123518258Y-125368502D01*
X123631498Y-125481742D01*
X123720470Y-125614898D01*
X123781758Y-125762858D01*
X123813000Y-125919925D01*
X123813000Y-126080075D01*
X123781758Y-126237142D01*
X123720470Y-126385102D01*
X123631498Y-126518258D01*
X123518258Y-126631498D01*
X123385102Y-126720470D01*
X123237142Y-126781758D01*
X123080075Y-126813000D01*
X122919925Y-126813000D01*
X122762858Y-126781758D01*
X122614898Y-126720470D01*
X122481742Y-126631498D01*
X122368502Y-126518258D01*
X122279530Y-126385102D01*
X122218242Y-126237142D01*
X122187000Y-126080075D01*
X122187000Y-125919925D01*
X122218242Y-125762858D01*
X122279530Y-125614898D01*
X122368502Y-125481742D01*
X122481742Y-125368502D01*
X122614898Y-125279530D01*
X122762858Y-125218242D01*
X122919925Y-125187000D01*
X123080075Y-125187000D01*
X123237142Y-125218242D01*
X123237142Y-125218242D01*
G37*
G36*
X125237142Y-125218242D02*
X125385102Y-125279530D01*
X125518258Y-125368502D01*
X125631498Y-125481742D01*
X125720470Y-125614898D01*
X125781758Y-125762858D01*
X125813000Y-125919925D01*
X125813000Y-126080075D01*
X125781758Y-126237142D01*
X125720470Y-126385102D01*
X125631498Y-126518258D01*
X125518258Y-126631498D01*
X125385102Y-126720470D01*
X125237142Y-126781758D01*
X125080075Y-126813000D01*
X124919925Y-126813000D01*
X124762858Y-126781758D01*
X124614898Y-126720470D01*
X124481742Y-126631498D01*
X124368502Y-126518258D01*
X124279530Y-126385102D01*
X124218242Y-126237142D01*
X124187000Y-126080075D01*
X124187000Y-125919925D01*
X124218242Y-125762858D01*
X124279530Y-125614898D01*
X124368502Y-125481742D01*
X124481742Y-125368502D01*
X124614898Y-125279530D01*
X124762858Y-125218242D01*
X124919925Y-125187000D01*
X125080075Y-125187000D01*
X125237142Y-125218242D01*
X125237142Y-125218242D01*
G37*
G36*
X79237142Y-125218242D02*
X79385102Y-125279530D01*
X79518258Y-125368502D01*
X79631498Y-125481742D01*
X79720470Y-125614898D01*
X79781758Y-125762858D01*
X79813000Y-125919925D01*
X79813000Y-126080075D01*
X79781758Y-126237142D01*
X79720470Y-126385102D01*
X79631498Y-126518258D01*
X79518258Y-126631498D01*
X79385102Y-126720470D01*
X79237142Y-126781758D01*
X79080075Y-126813000D01*
X78919925Y-126813000D01*
X78762858Y-126781758D01*
X78614898Y-126720470D01*
X78481742Y-126631498D01*
X78368502Y-126518258D01*
X78279530Y-126385102D01*
X78218242Y-126237142D01*
X78187000Y-126080075D01*
X78187000Y-125919925D01*
X78218242Y-125762858D01*
X78279530Y-125614898D01*
X78368502Y-125481742D01*
X78481742Y-125368502D01*
X78614898Y-125279530D01*
X78762858Y-125218242D01*
X78919925Y-125187000D01*
X79080075Y-125187000D01*
X79237142Y-125218242D01*
X79237142Y-125218242D01*
G37*
G36*
X77237142Y-125218242D02*
X77385102Y-125279530D01*
X77518258Y-125368502D01*
X77631498Y-125481742D01*
X77720470Y-125614898D01*
X77781758Y-125762858D01*
X77813000Y-125919925D01*
X77813000Y-126080075D01*
X77781758Y-126237142D01*
X77720470Y-126385102D01*
X77631498Y-126518258D01*
X77518258Y-126631498D01*
X77385102Y-126720470D01*
X77237142Y-126781758D01*
X77080075Y-126813000D01*
X76919925Y-126813000D01*
X76762858Y-126781758D01*
X76614898Y-126720470D01*
X76481742Y-126631498D01*
X76368502Y-126518258D01*
X76279530Y-126385102D01*
X76218242Y-126237142D01*
X76187000Y-126080075D01*
X76187000Y-125919925D01*
X76218242Y-125762858D01*
X76279530Y-125614898D01*
X76368502Y-125481742D01*
X76481742Y-125368502D01*
X76614898Y-125279530D01*
X76762858Y-125218242D01*
X76919925Y-125187000D01*
X77080075Y-125187000D01*
X77237142Y-125218242D01*
X77237142Y-125218242D01*
G37*
G36*
X75237142Y-125218242D02*
X75385102Y-125279530D01*
X75518258Y-125368502D01*
X75631498Y-125481742D01*
X75720470Y-125614898D01*
X75781758Y-125762858D01*
X75813000Y-125919925D01*
X75813000Y-126080075D01*
X75781758Y-126237142D01*
X75720470Y-126385102D01*
X75631498Y-126518258D01*
X75518258Y-126631498D01*
X75385102Y-126720470D01*
X75237142Y-126781758D01*
X75080075Y-126813000D01*
X74919925Y-126813000D01*
X74762858Y-126781758D01*
X74614898Y-126720470D01*
X74481742Y-126631498D01*
X74368502Y-126518258D01*
X74279530Y-126385102D01*
X74218242Y-126237142D01*
X74187000Y-126080075D01*
X74187000Y-125919925D01*
X74218242Y-125762858D01*
X74279530Y-125614898D01*
X74368502Y-125481742D01*
X74481742Y-125368502D01*
X74614898Y-125279530D01*
X74762858Y-125218242D01*
X74919925Y-125187000D01*
X75080075Y-125187000D01*
X75237142Y-125218242D01*
X75237142Y-125218242D01*
G37*
G36*
X73813000Y-126813000D02*
X72187000Y-126813000D01*
X72187000Y-125187000D01*
X73813000Y-125187000D01*
X73813000Y-126813000D01*
X73813000Y-126813000D01*
G37*
G36*
X127237142Y-125218242D02*
X127385102Y-125279530D01*
X127518258Y-125368502D01*
X127631498Y-125481742D01*
X127720470Y-125614898D01*
X127781758Y-125762858D01*
X127813000Y-125919925D01*
X127813000Y-126080075D01*
X127781758Y-126237142D01*
X127720470Y-126385102D01*
X127631498Y-126518258D01*
X127518258Y-126631498D01*
X127385102Y-126720470D01*
X127237142Y-126781758D01*
X127080075Y-126813000D01*
X126919925Y-126813000D01*
X126762858Y-126781758D01*
X126614898Y-126720470D01*
X126481742Y-126631498D01*
X126368502Y-126518258D01*
X126279530Y-126385102D01*
X126218242Y-126237142D01*
X126187000Y-126080075D01*
X126187000Y-125919925D01*
X126218242Y-125762858D01*
X126279530Y-125614898D01*
X126368502Y-125481742D01*
X126481742Y-125368502D01*
X126614898Y-125279530D01*
X126762858Y-125218242D01*
X126919925Y-125187000D01*
X127080075Y-125187000D01*
X127237142Y-125218242D01*
X127237142Y-125218242D01*
G37*
G36*
X127237142Y-115218242D02*
X127385102Y-115279530D01*
X127518258Y-115368502D01*
X127631498Y-115481742D01*
X127720470Y-115614898D01*
X127781758Y-115762858D01*
X127813000Y-115919925D01*
X127813000Y-116080075D01*
X127781758Y-116237142D01*
X127720470Y-116385102D01*
X127631498Y-116518258D01*
X127518258Y-116631498D01*
X127385102Y-116720470D01*
X127237142Y-116781758D01*
X127080075Y-116813000D01*
X126919925Y-116813000D01*
X126762858Y-116781758D01*
X126614898Y-116720470D01*
X126481742Y-116631498D01*
X126368502Y-116518258D01*
X126279530Y-116385102D01*
X126218242Y-116237142D01*
X126187000Y-116080075D01*
X126187000Y-115919925D01*
X126218242Y-115762858D01*
X126279530Y-115614898D01*
X126368502Y-115481742D01*
X126481742Y-115368502D01*
X126614898Y-115279530D01*
X126762858Y-115218242D01*
X126919925Y-115187000D01*
X127080075Y-115187000D01*
X127237142Y-115218242D01*
X127237142Y-115218242D01*
G37*
G36*
X79237142Y-115218242D02*
X79385102Y-115279530D01*
X79518258Y-115368502D01*
X79631498Y-115481742D01*
X79720470Y-115614898D01*
X79781758Y-115762858D01*
X79813000Y-115919925D01*
X79813000Y-116080075D01*
X79781758Y-116237142D01*
X79720470Y-116385102D01*
X79631498Y-116518258D01*
X79518258Y-116631498D01*
X79385102Y-116720470D01*
X79237142Y-116781758D01*
X79080075Y-116813000D01*
X78919925Y-116813000D01*
X78762858Y-116781758D01*
X78614898Y-116720470D01*
X78481742Y-116631498D01*
X78368502Y-116518258D01*
X78279530Y-116385102D01*
X78218242Y-116237142D01*
X78187000Y-116080075D01*
X78187000Y-115919925D01*
X78218242Y-115762858D01*
X78279530Y-115614898D01*
X78368502Y-115481742D01*
X78481742Y-115368502D01*
X78614898Y-115279530D01*
X78762858Y-115218242D01*
X78919925Y-115187000D01*
X79080075Y-115187000D01*
X79237142Y-115218242D01*
X79237142Y-115218242D01*
G37*
G36*
X125237142Y-115218242D02*
X125385102Y-115279530D01*
X125518258Y-115368502D01*
X125631498Y-115481742D01*
X125720470Y-115614898D01*
X125781758Y-115762858D01*
X125813000Y-115919925D01*
X125813000Y-116080075D01*
X125781758Y-116237142D01*
X125720470Y-116385102D01*
X125631498Y-116518258D01*
X125518258Y-116631498D01*
X125385102Y-116720470D01*
X125237142Y-116781758D01*
X125080075Y-116813000D01*
X124919925Y-116813000D01*
X124762858Y-116781758D01*
X124614898Y-116720470D01*
X124481742Y-116631498D01*
X124368502Y-116518258D01*
X124279530Y-116385102D01*
X124218242Y-116237142D01*
X124187000Y-116080075D01*
X124187000Y-115919925D01*
X124218242Y-115762858D01*
X124279530Y-115614898D01*
X124368502Y-115481742D01*
X124481742Y-115368502D01*
X124614898Y-115279530D01*
X124762858Y-115218242D01*
X124919925Y-115187000D01*
X125080075Y-115187000D01*
X125237142Y-115218242D01*
X125237142Y-115218242D01*
G37*
G36*
X123237142Y-115218242D02*
X123385102Y-115279530D01*
X123518258Y-115368502D01*
X123631498Y-115481742D01*
X123720470Y-115614898D01*
X123781758Y-115762858D01*
X123813000Y-115919925D01*
X123813000Y-116080075D01*
X123781758Y-116237142D01*
X123720470Y-116385102D01*
X123631498Y-116518258D01*
X123518258Y-116631498D01*
X123385102Y-116720470D01*
X123237142Y-116781758D01*
X123080075Y-116813000D01*
X122919925Y-116813000D01*
X122762858Y-116781758D01*
X122614898Y-116720470D01*
X122481742Y-116631498D01*
X122368502Y-116518258D01*
X122279530Y-116385102D01*
X122218242Y-116237142D01*
X122187000Y-116080075D01*
X122187000Y-115919925D01*
X122218242Y-115762858D01*
X122279530Y-115614898D01*
X122368502Y-115481742D01*
X122481742Y-115368502D01*
X122614898Y-115279530D01*
X122762858Y-115218242D01*
X122919925Y-115187000D01*
X123080075Y-115187000D01*
X123237142Y-115218242D01*
X123237142Y-115218242D01*
G37*
G36*
X121813000Y-116813000D02*
X120187000Y-116813000D01*
X120187000Y-115187000D01*
X121813000Y-115187000D01*
X121813000Y-116813000D01*
X121813000Y-116813000D01*
G37*
G36*
X77237142Y-115218242D02*
X77385102Y-115279530D01*
X77518258Y-115368502D01*
X77631498Y-115481742D01*
X77720470Y-115614898D01*
X77781758Y-115762858D01*
X77813000Y-115919925D01*
X77813000Y-116080075D01*
X77781758Y-116237142D01*
X77720470Y-116385102D01*
X77631498Y-116518258D01*
X77518258Y-116631498D01*
X77385102Y-116720470D01*
X77237142Y-116781758D01*
X77080075Y-116813000D01*
X76919925Y-116813000D01*
X76762858Y-116781758D01*
X76614898Y-116720470D01*
X76481742Y-116631498D01*
X76368502Y-116518258D01*
X76279530Y-116385102D01*
X76218242Y-116237142D01*
X76187000Y-116080075D01*
X76187000Y-115919925D01*
X76218242Y-115762858D01*
X76279530Y-115614898D01*
X76368502Y-115481742D01*
X76481742Y-115368502D01*
X76614898Y-115279530D01*
X76762858Y-115218242D01*
X76919925Y-115187000D01*
X77080075Y-115187000D01*
X77237142Y-115218242D01*
X77237142Y-115218242D01*
G37*
G36*
X75237142Y-115218242D02*
X75385102Y-115279530D01*
X75518258Y-115368502D01*
X75631498Y-115481742D01*
X75720470Y-115614898D01*
X75781758Y-115762858D01*
X75813000Y-115919925D01*
X75813000Y-116080075D01*
X75781758Y-116237142D01*
X75720470Y-116385102D01*
X75631498Y-116518258D01*
X75518258Y-116631498D01*
X75385102Y-116720470D01*
X75237142Y-116781758D01*
X75080075Y-116813000D01*
X74919925Y-116813000D01*
X74762858Y-116781758D01*
X74614898Y-116720470D01*
X74481742Y-116631498D01*
X74368502Y-116518258D01*
X74279530Y-116385102D01*
X74218242Y-116237142D01*
X74187000Y-116080075D01*
X74187000Y-115919925D01*
X74218242Y-115762858D01*
X74279530Y-115614898D01*
X74368502Y-115481742D01*
X74481742Y-115368502D01*
X74614898Y-115279530D01*
X74762858Y-115218242D01*
X74919925Y-115187000D01*
X75080075Y-115187000D01*
X75237142Y-115218242D01*
X75237142Y-115218242D01*
G37*
G36*
X73813000Y-116813000D02*
X72187000Y-116813000D01*
X72187000Y-115187000D01*
X73813000Y-115187000D01*
X73813000Y-116813000D01*
X73813000Y-116813000D01*
G37*
G36*
X121813000Y-106813000D02*
X120187000Y-106813000D01*
X120187000Y-105187000D01*
X121813000Y-105187000D01*
X121813000Y-106813000D01*
X121813000Y-106813000D01*
G37*
G36*
X127237142Y-105218242D02*
X127385102Y-105279530D01*
X127518258Y-105368502D01*
X127631498Y-105481742D01*
X127720470Y-105614898D01*
X127781758Y-105762858D01*
X127813000Y-105919925D01*
X127813000Y-106080075D01*
X127781758Y-106237142D01*
X127720470Y-106385102D01*
X127631498Y-106518258D01*
X127518258Y-106631498D01*
X127385102Y-106720470D01*
X127237142Y-106781758D01*
X127080075Y-106813000D01*
X126919925Y-106813000D01*
X126762858Y-106781758D01*
X126614898Y-106720470D01*
X126481742Y-106631498D01*
X126368502Y-106518258D01*
X126279530Y-106385102D01*
X126218242Y-106237142D01*
X126187000Y-106080075D01*
X126187000Y-105919925D01*
X126218242Y-105762858D01*
X126279530Y-105614898D01*
X126368502Y-105481742D01*
X126481742Y-105368502D01*
X126614898Y-105279530D01*
X126762858Y-105218242D01*
X126919925Y-105187000D01*
X127080075Y-105187000D01*
X127237142Y-105218242D01*
X127237142Y-105218242D01*
G37*
G36*
X125237142Y-105218242D02*
X125385102Y-105279530D01*
X125518258Y-105368502D01*
X125631498Y-105481742D01*
X125720470Y-105614898D01*
X125781758Y-105762858D01*
X125813000Y-105919925D01*
X125813000Y-106080075D01*
X125781758Y-106237142D01*
X125720470Y-106385102D01*
X125631498Y-106518258D01*
X125518258Y-106631498D01*
X125385102Y-106720470D01*
X125237142Y-106781758D01*
X125080075Y-106813000D01*
X124919925Y-106813000D01*
X124762858Y-106781758D01*
X124614898Y-106720470D01*
X124481742Y-106631498D01*
X124368502Y-106518258D01*
X124279530Y-106385102D01*
X124218242Y-106237142D01*
X124187000Y-106080075D01*
X124187000Y-105919925D01*
X124218242Y-105762858D01*
X124279530Y-105614898D01*
X124368502Y-105481742D01*
X124481742Y-105368502D01*
X124614898Y-105279530D01*
X124762858Y-105218242D01*
X124919925Y-105187000D01*
X125080075Y-105187000D01*
X125237142Y-105218242D01*
X125237142Y-105218242D01*
G37*
G36*
X123237142Y-105218242D02*
X123385102Y-105279530D01*
X123518258Y-105368502D01*
X123631498Y-105481742D01*
X123720470Y-105614898D01*
X123781758Y-105762858D01*
X123813000Y-105919925D01*
X123813000Y-106080075D01*
X123781758Y-106237142D01*
X123720470Y-106385102D01*
X123631498Y-106518258D01*
X123518258Y-106631498D01*
X123385102Y-106720470D01*
X123237142Y-106781758D01*
X123080075Y-106813000D01*
X122919925Y-106813000D01*
X122762858Y-106781758D01*
X122614898Y-106720470D01*
X122481742Y-106631498D01*
X122368502Y-106518258D01*
X122279530Y-106385102D01*
X122218242Y-106237142D01*
X122187000Y-106080075D01*
X122187000Y-105919925D01*
X122218242Y-105762858D01*
X122279530Y-105614898D01*
X122368502Y-105481742D01*
X122481742Y-105368502D01*
X122614898Y-105279530D01*
X122762858Y-105218242D01*
X122919925Y-105187000D01*
X123080075Y-105187000D01*
X123237142Y-105218242D01*
X123237142Y-105218242D01*
G37*
G36*
X79237142Y-105218242D02*
X79385102Y-105279530D01*
X79518258Y-105368502D01*
X79631498Y-105481742D01*
X79720470Y-105614898D01*
X79781758Y-105762858D01*
X79813000Y-105919925D01*
X79813000Y-106080075D01*
X79781758Y-106237142D01*
X79720470Y-106385102D01*
X79631498Y-106518258D01*
X79518258Y-106631498D01*
X79385102Y-106720470D01*
X79237142Y-106781758D01*
X79080075Y-106813000D01*
X78919925Y-106813000D01*
X78762858Y-106781758D01*
X78614898Y-106720470D01*
X78481742Y-106631498D01*
X78368502Y-106518258D01*
X78279530Y-106385102D01*
X78218242Y-106237142D01*
X78187000Y-106080075D01*
X78187000Y-105919925D01*
X78218242Y-105762858D01*
X78279530Y-105614898D01*
X78368502Y-105481742D01*
X78481742Y-105368502D01*
X78614898Y-105279530D01*
X78762858Y-105218242D01*
X78919925Y-105187000D01*
X79080075Y-105187000D01*
X79237142Y-105218242D01*
X79237142Y-105218242D01*
G37*
G36*
X77237142Y-105218242D02*
X77385102Y-105279530D01*
X77518258Y-105368502D01*
X77631498Y-105481742D01*
X77720470Y-105614898D01*
X77781758Y-105762858D01*
X77813000Y-105919925D01*
X77813000Y-106080075D01*
X77781758Y-106237142D01*
X77720470Y-106385102D01*
X77631498Y-106518258D01*
X77518258Y-106631498D01*
X77385102Y-106720470D01*
X77237142Y-106781758D01*
X77080075Y-106813000D01*
X76919925Y-106813000D01*
X76762858Y-106781758D01*
X76614898Y-106720470D01*
X76481742Y-106631498D01*
X76368502Y-106518258D01*
X76279530Y-106385102D01*
X76218242Y-106237142D01*
X76187000Y-106080075D01*
X76187000Y-105919925D01*
X76218242Y-105762858D01*
X76279530Y-105614898D01*
X76368502Y-105481742D01*
X76481742Y-105368502D01*
X76614898Y-105279530D01*
X76762858Y-105218242D01*
X76919925Y-105187000D01*
X77080075Y-105187000D01*
X77237142Y-105218242D01*
X77237142Y-105218242D01*
G37*
G36*
X75237142Y-105218242D02*
X75385102Y-105279530D01*
X75518258Y-105368502D01*
X75631498Y-105481742D01*
X75720470Y-105614898D01*
X75781758Y-105762858D01*
X75813000Y-105919925D01*
X75813000Y-106080075D01*
X75781758Y-106237142D01*
X75720470Y-106385102D01*
X75631498Y-106518258D01*
X75518258Y-106631498D01*
X75385102Y-106720470D01*
X75237142Y-106781758D01*
X75080075Y-106813000D01*
X74919925Y-106813000D01*
X74762858Y-106781758D01*
X74614898Y-106720470D01*
X74481742Y-106631498D01*
X74368502Y-106518258D01*
X74279530Y-106385102D01*
X74218242Y-106237142D01*
X74187000Y-106080075D01*
X74187000Y-105919925D01*
X74218242Y-105762858D01*
X74279530Y-105614898D01*
X74368502Y-105481742D01*
X74481742Y-105368502D01*
X74614898Y-105279530D01*
X74762858Y-105218242D01*
X74919925Y-105187000D01*
X75080075Y-105187000D01*
X75237142Y-105218242D01*
X75237142Y-105218242D01*
G37*
G36*
X73813000Y-106813000D02*
X72187000Y-106813000D01*
X72187000Y-105187000D01*
X73813000Y-105187000D01*
X73813000Y-106813000D01*
X73813000Y-106813000D01*
G37*
G36*
X77237142Y-95218242D02*
X77385102Y-95279530D01*
X77518258Y-95368502D01*
X77631498Y-95481742D01*
X77720470Y-95614898D01*
X77781758Y-95762858D01*
X77813000Y-95919925D01*
X77813000Y-96080075D01*
X77781758Y-96237142D01*
X77720470Y-96385102D01*
X77631498Y-96518258D01*
X77518258Y-96631498D01*
X77385102Y-96720470D01*
X77237142Y-96781758D01*
X77080075Y-96813000D01*
X76919925Y-96813000D01*
X76762858Y-96781758D01*
X76614898Y-96720470D01*
X76481742Y-96631498D01*
X76368502Y-96518258D01*
X76279530Y-96385102D01*
X76218242Y-96237142D01*
X76187000Y-96080075D01*
X76187000Y-95919925D01*
X76218242Y-95762858D01*
X76279530Y-95614898D01*
X76368502Y-95481742D01*
X76481742Y-95368502D01*
X76614898Y-95279530D01*
X76762858Y-95218242D01*
X76919925Y-95187000D01*
X77080075Y-95187000D01*
X77237142Y-95218242D01*
X77237142Y-95218242D01*
G37*
G36*
X75237142Y-95218242D02*
X75385102Y-95279530D01*
X75518258Y-95368502D01*
X75631498Y-95481742D01*
X75720470Y-95614898D01*
X75781758Y-95762858D01*
X75813000Y-95919925D01*
X75813000Y-96080075D01*
X75781758Y-96237142D01*
X75720470Y-96385102D01*
X75631498Y-96518258D01*
X75518258Y-96631498D01*
X75385102Y-96720470D01*
X75237142Y-96781758D01*
X75080075Y-96813000D01*
X74919925Y-96813000D01*
X74762858Y-96781758D01*
X74614898Y-96720470D01*
X74481742Y-96631498D01*
X74368502Y-96518258D01*
X74279530Y-96385102D01*
X74218242Y-96237142D01*
X74187000Y-96080075D01*
X74187000Y-95919925D01*
X74218242Y-95762858D01*
X74279530Y-95614898D01*
X74368502Y-95481742D01*
X74481742Y-95368502D01*
X74614898Y-95279530D01*
X74762858Y-95218242D01*
X74919925Y-95187000D01*
X75080075Y-95187000D01*
X75237142Y-95218242D01*
X75237142Y-95218242D01*
G37*
G36*
X79237142Y-95218242D02*
X79385102Y-95279530D01*
X79518258Y-95368502D01*
X79631498Y-95481742D01*
X79720470Y-95614898D01*
X79781758Y-95762858D01*
X79813000Y-95919925D01*
X79813000Y-96080075D01*
X79781758Y-96237142D01*
X79720470Y-96385102D01*
X79631498Y-96518258D01*
X79518258Y-96631498D01*
X79385102Y-96720470D01*
X79237142Y-96781758D01*
X79080075Y-96813000D01*
X78919925Y-96813000D01*
X78762858Y-96781758D01*
X78614898Y-96720470D01*
X78481742Y-96631498D01*
X78368502Y-96518258D01*
X78279530Y-96385102D01*
X78218242Y-96237142D01*
X78187000Y-96080075D01*
X78187000Y-95919925D01*
X78218242Y-95762858D01*
X78279530Y-95614898D01*
X78368502Y-95481742D01*
X78481742Y-95368502D01*
X78614898Y-95279530D01*
X78762858Y-95218242D01*
X78919925Y-95187000D01*
X79080075Y-95187000D01*
X79237142Y-95218242D01*
X79237142Y-95218242D01*
G37*
G36*
X125237142Y-95218242D02*
X125385102Y-95279530D01*
X125518258Y-95368502D01*
X125631498Y-95481742D01*
X125720470Y-95614898D01*
X125781758Y-95762858D01*
X125813000Y-95919925D01*
X125813000Y-96080075D01*
X125781758Y-96237142D01*
X125720470Y-96385102D01*
X125631498Y-96518258D01*
X125518258Y-96631498D01*
X125385102Y-96720470D01*
X125237142Y-96781758D01*
X125080075Y-96813000D01*
X124919925Y-96813000D01*
X124762858Y-96781758D01*
X124614898Y-96720470D01*
X124481742Y-96631498D01*
X124368502Y-96518258D01*
X124279530Y-96385102D01*
X124218242Y-96237142D01*
X124187000Y-96080075D01*
X124187000Y-95919925D01*
X124218242Y-95762858D01*
X124279530Y-95614898D01*
X124368502Y-95481742D01*
X124481742Y-95368502D01*
X124614898Y-95279530D01*
X124762858Y-95218242D01*
X124919925Y-95187000D01*
X125080075Y-95187000D01*
X125237142Y-95218242D01*
X125237142Y-95218242D01*
G37*
G36*
X127237142Y-95218242D02*
X127385102Y-95279530D01*
X127518258Y-95368502D01*
X127631498Y-95481742D01*
X127720470Y-95614898D01*
X127781758Y-95762858D01*
X127813000Y-95919925D01*
X127813000Y-96080075D01*
X127781758Y-96237142D01*
X127720470Y-96385102D01*
X127631498Y-96518258D01*
X127518258Y-96631498D01*
X127385102Y-96720470D01*
X127237142Y-96781758D01*
X127080075Y-96813000D01*
X126919925Y-96813000D01*
X126762858Y-96781758D01*
X126614898Y-96720470D01*
X126481742Y-96631498D01*
X126368502Y-96518258D01*
X126279530Y-96385102D01*
X126218242Y-96237142D01*
X126187000Y-96080075D01*
X126187000Y-95919925D01*
X126218242Y-95762858D01*
X126279530Y-95614898D01*
X126368502Y-95481742D01*
X126481742Y-95368502D01*
X126614898Y-95279530D01*
X126762858Y-95218242D01*
X126919925Y-95187000D01*
X127080075Y-95187000D01*
X127237142Y-95218242D01*
X127237142Y-95218242D01*
G37*
G36*
X123237142Y-95218242D02*
X123385102Y-95279530D01*
X123518258Y-95368502D01*
X123631498Y-95481742D01*
X123720470Y-95614898D01*
X123781758Y-95762858D01*
X123813000Y-95919925D01*
X123813000Y-96080075D01*
X123781758Y-96237142D01*
X123720470Y-96385102D01*
X123631498Y-96518258D01*
X123518258Y-96631498D01*
X123385102Y-96720470D01*
X123237142Y-96781758D01*
X123080075Y-96813000D01*
X122919925Y-96813000D01*
X122762858Y-96781758D01*
X122614898Y-96720470D01*
X122481742Y-96631498D01*
X122368502Y-96518258D01*
X122279530Y-96385102D01*
X122218242Y-96237142D01*
X122187000Y-96080075D01*
X122187000Y-95919925D01*
X122218242Y-95762858D01*
X122279530Y-95614898D01*
X122368502Y-95481742D01*
X122481742Y-95368502D01*
X122614898Y-95279530D01*
X122762858Y-95218242D01*
X122919925Y-95187000D01*
X123080075Y-95187000D01*
X123237142Y-95218242D01*
X123237142Y-95218242D01*
G37*
G36*
X73813000Y-96813000D02*
X72187000Y-96813000D01*
X72187000Y-95187000D01*
X73813000Y-95187000D01*
X73813000Y-96813000D01*
X73813000Y-96813000D01*
G37*
G36*
X121813000Y-96813000D02*
X120187000Y-96813000D01*
X120187000Y-95187000D01*
X121813000Y-95187000D01*
X121813000Y-96813000D01*
X121813000Y-96813000D01*
G37*
G36*
X121813000Y-86813000D02*
X120187000Y-86813000D01*
X120187000Y-85187000D01*
X121813000Y-85187000D01*
X121813000Y-86813000D01*
X121813000Y-86813000D01*
G37*
G36*
X79237142Y-85218242D02*
X79385102Y-85279530D01*
X79518258Y-85368502D01*
X79631498Y-85481742D01*
X79720470Y-85614898D01*
X79781758Y-85762858D01*
X79813000Y-85919925D01*
X79813000Y-86080075D01*
X79781758Y-86237142D01*
X79720470Y-86385102D01*
X79631498Y-86518258D01*
X79518258Y-86631498D01*
X79385102Y-86720470D01*
X79237142Y-86781758D01*
X79080075Y-86813000D01*
X78919925Y-86813000D01*
X78762858Y-86781758D01*
X78614898Y-86720470D01*
X78481742Y-86631498D01*
X78368502Y-86518258D01*
X78279530Y-86385102D01*
X78218242Y-86237142D01*
X78187000Y-86080075D01*
X78187000Y-85919925D01*
X78218242Y-85762858D01*
X78279530Y-85614898D01*
X78368502Y-85481742D01*
X78481742Y-85368502D01*
X78614898Y-85279530D01*
X78762858Y-85218242D01*
X78919925Y-85187000D01*
X79080075Y-85187000D01*
X79237142Y-85218242D01*
X79237142Y-85218242D01*
G37*
G36*
X77237142Y-85218242D02*
X77385102Y-85279530D01*
X77518258Y-85368502D01*
X77631498Y-85481742D01*
X77720470Y-85614898D01*
X77781758Y-85762858D01*
X77813000Y-85919925D01*
X77813000Y-86080075D01*
X77781758Y-86237142D01*
X77720470Y-86385102D01*
X77631498Y-86518258D01*
X77518258Y-86631498D01*
X77385102Y-86720470D01*
X77237142Y-86781758D01*
X77080075Y-86813000D01*
X76919925Y-86813000D01*
X76762858Y-86781758D01*
X76614898Y-86720470D01*
X76481742Y-86631498D01*
X76368502Y-86518258D01*
X76279530Y-86385102D01*
X76218242Y-86237142D01*
X76187000Y-86080075D01*
X76187000Y-85919925D01*
X76218242Y-85762858D01*
X76279530Y-85614898D01*
X76368502Y-85481742D01*
X76481742Y-85368502D01*
X76614898Y-85279530D01*
X76762858Y-85218242D01*
X76919925Y-85187000D01*
X77080075Y-85187000D01*
X77237142Y-85218242D01*
X77237142Y-85218242D01*
G37*
G36*
X75237142Y-85218242D02*
X75385102Y-85279530D01*
X75518258Y-85368502D01*
X75631498Y-85481742D01*
X75720470Y-85614898D01*
X75781758Y-85762858D01*
X75813000Y-85919925D01*
X75813000Y-86080075D01*
X75781758Y-86237142D01*
X75720470Y-86385102D01*
X75631498Y-86518258D01*
X75518258Y-86631498D01*
X75385102Y-86720470D01*
X75237142Y-86781758D01*
X75080075Y-86813000D01*
X74919925Y-86813000D01*
X74762858Y-86781758D01*
X74614898Y-86720470D01*
X74481742Y-86631498D01*
X74368502Y-86518258D01*
X74279530Y-86385102D01*
X74218242Y-86237142D01*
X74187000Y-86080075D01*
X74187000Y-85919925D01*
X74218242Y-85762858D01*
X74279530Y-85614898D01*
X74368502Y-85481742D01*
X74481742Y-85368502D01*
X74614898Y-85279530D01*
X74762858Y-85218242D01*
X74919925Y-85187000D01*
X75080075Y-85187000D01*
X75237142Y-85218242D01*
X75237142Y-85218242D01*
G37*
G36*
X73813000Y-86813000D02*
X72187000Y-86813000D01*
X72187000Y-85187000D01*
X73813000Y-85187000D01*
X73813000Y-86813000D01*
X73813000Y-86813000D01*
G37*
G36*
X123237142Y-85218242D02*
X123385102Y-85279530D01*
X123518258Y-85368502D01*
X123631498Y-85481742D01*
X123720470Y-85614898D01*
X123781758Y-85762858D01*
X123813000Y-85919925D01*
X123813000Y-86080075D01*
X123781758Y-86237142D01*
X123720470Y-86385102D01*
X123631498Y-86518258D01*
X123518258Y-86631498D01*
X123385102Y-86720470D01*
X123237142Y-86781758D01*
X123080075Y-86813000D01*
X122919925Y-86813000D01*
X122762858Y-86781758D01*
X122614898Y-86720470D01*
X122481742Y-86631498D01*
X122368502Y-86518258D01*
X122279530Y-86385102D01*
X122218242Y-86237142D01*
X122187000Y-86080075D01*
X122187000Y-85919925D01*
X122218242Y-85762858D01*
X122279530Y-85614898D01*
X122368502Y-85481742D01*
X122481742Y-85368502D01*
X122614898Y-85279530D01*
X122762858Y-85218242D01*
X122919925Y-85187000D01*
X123080075Y-85187000D01*
X123237142Y-85218242D01*
X123237142Y-85218242D01*
G37*
G36*
X127237142Y-85218242D02*
X127385102Y-85279530D01*
X127518258Y-85368502D01*
X127631498Y-85481742D01*
X127720470Y-85614898D01*
X127781758Y-85762858D01*
X127813000Y-85919925D01*
X127813000Y-86080075D01*
X127781758Y-86237142D01*
X127720470Y-86385102D01*
X127631498Y-86518258D01*
X127518258Y-86631498D01*
X127385102Y-86720470D01*
X127237142Y-86781758D01*
X127080075Y-86813000D01*
X126919925Y-86813000D01*
X126762858Y-86781758D01*
X126614898Y-86720470D01*
X126481742Y-86631498D01*
X126368502Y-86518258D01*
X126279530Y-86385102D01*
X126218242Y-86237142D01*
X126187000Y-86080075D01*
X126187000Y-85919925D01*
X126218242Y-85762858D01*
X126279530Y-85614898D01*
X126368502Y-85481742D01*
X126481742Y-85368502D01*
X126614898Y-85279530D01*
X126762858Y-85218242D01*
X126919925Y-85187000D01*
X127080075Y-85187000D01*
X127237142Y-85218242D01*
X127237142Y-85218242D01*
G37*
G36*
X125237142Y-85218242D02*
X125385102Y-85279530D01*
X125518258Y-85368502D01*
X125631498Y-85481742D01*
X125720470Y-85614898D01*
X125781758Y-85762858D01*
X125813000Y-85919925D01*
X125813000Y-86080075D01*
X125781758Y-86237142D01*
X125720470Y-86385102D01*
X125631498Y-86518258D01*
X125518258Y-86631498D01*
X125385102Y-86720470D01*
X125237142Y-86781758D01*
X125080075Y-86813000D01*
X124919925Y-86813000D01*
X124762858Y-86781758D01*
X124614898Y-86720470D01*
X124481742Y-86631498D01*
X124368502Y-86518258D01*
X124279530Y-86385102D01*
X124218242Y-86237142D01*
X124187000Y-86080075D01*
X124187000Y-85919925D01*
X124218242Y-85762858D01*
X124279530Y-85614898D01*
X124368502Y-85481742D01*
X124481742Y-85368502D01*
X124614898Y-85279530D01*
X124762858Y-85218242D01*
X124919925Y-85187000D01*
X125080075Y-85187000D01*
X125237142Y-85218242D01*
X125237142Y-85218242D01*
G37*
G36*
X73375256Y-77391298D02*
X73481579Y-77412447D01*
X73782042Y-77536903D01*
X74048852Y-77715180D01*
X74052454Y-77717587D01*
X74282413Y-77947546D01*
X74463098Y-78217960D01*
X74587553Y-78518422D01*
X74651000Y-78837389D01*
X74651000Y-79162611D01*
X74587553Y-79481578D01*
X74463098Y-79782040D01*
X74282413Y-80052454D01*
X74052454Y-80282413D01*
X74052451Y-80282415D01*
X73782042Y-80463097D01*
X73481579Y-80587553D01*
X73375256Y-80608702D01*
X73162611Y-80651000D01*
X72837389Y-80651000D01*
X72624744Y-80608702D01*
X72518421Y-80587553D01*
X72217958Y-80463097D01*
X71947549Y-80282415D01*
X71947546Y-80282413D01*
X71717587Y-80052454D01*
X71536902Y-79782040D01*
X71412447Y-79481578D01*
X71349000Y-79162611D01*
X71349000Y-78837389D01*
X71412447Y-78518422D01*
X71536902Y-78217960D01*
X71717587Y-77947546D01*
X71947546Y-77717587D01*
X71951148Y-77715180D01*
X72217958Y-77536903D01*
X72518421Y-77412447D01*
X72624744Y-77391298D01*
X72837389Y-77349000D01*
X73162611Y-77349000D01*
X73375256Y-77391298D01*
X73375256Y-77391298D01*
G37*
G36*
X127375256Y-77391298D02*
X127481579Y-77412447D01*
X127782042Y-77536903D01*
X128048852Y-77715180D01*
X128052454Y-77717587D01*
X128282413Y-77947546D01*
X128463098Y-78217960D01*
X128587553Y-78518422D01*
X128651000Y-78837389D01*
X128651000Y-79162611D01*
X128587553Y-79481578D01*
X128463098Y-79782040D01*
X128282413Y-80052454D01*
X128052454Y-80282413D01*
X128052451Y-80282415D01*
X127782042Y-80463097D01*
X127481579Y-80587553D01*
X127375256Y-80608702D01*
X127162611Y-80651000D01*
X126837389Y-80651000D01*
X126624744Y-80608702D01*
X126518421Y-80587553D01*
X126217958Y-80463097D01*
X125947549Y-80282415D01*
X125947546Y-80282413D01*
X125717587Y-80052454D01*
X125536902Y-79782040D01*
X125412447Y-79481578D01*
X125349000Y-79162611D01*
X125349000Y-78837389D01*
X125412447Y-78518422D01*
X125536902Y-78217960D01*
X125717587Y-77947546D01*
X125947546Y-77717587D01*
X125951148Y-77715180D01*
X126217958Y-77536903D01*
X126518421Y-77412447D01*
X126624744Y-77391298D01*
X126837389Y-77349000D01*
X127162611Y-77349000D01*
X127375256Y-77391298D01*
X127375256Y-77391298D01*
G37*
M02*
