<?xml version="1.0" standalone="no"?>
 <!DOCTYPE svg PUBLIC "-//W3C//DTD SVG 1.1//EN" 
 "http://www.w3.org/Graphics/SVG/1.1/DTD/svg11.dtd"> 
<svg xmlns="http://www.w3.org/2000/svg" version="1.1" 
    width="29.7002cm" height="21.0007cm" viewBox="0 0 116930 82680 ">
<title>SVG Picture created as nanoExpander_v12-brd.svg date 2020/07/20 13:19:25 </title>
  <desc>Picture generated by PCBNEW </desc>
<g style="fill:#000000; fill-opacity:1;stroke:#000000; stroke-opacity:1;
stroke-linecap:round; stroke-linejoin:round; "
 transform="translate(0 0) scale(1 1)">
</g>
<g style="fill:#000000; fill-opacity:0.0; 
stroke:#000000; stroke-width:-0.000393701; stroke-opacity:1; 
stroke-linecap:round; stroke-linejoin:round;">
</g>
<g style="fill:#000000; fill-opacity:0.0; 
stroke:#000000; stroke-width:39.3701; stroke-opacity:1; 
stroke-linecap:round; stroke-linejoin:round;">
</g>
<g style="fill:#000000; fill-opacity:0.0; 
stroke:#000000; stroke-width:59.0551; stroke-opacity:1; 
stroke-linecap:round; stroke-linejoin:round;">
<rect x="69685.9" y="65357.2" width="42519.7" height="12598.4" rx="0" />
</g>
<g style="fill:#000000; fill-opacity:0.0; 
stroke:#000000; stroke-width:39.3701; stroke-opacity:1; 
stroke-linecap:round; stroke-linejoin:round;">
</g>
<g style="fill:#000000; fill-opacity:0.0; 
stroke:#000000; stroke-width:59.0551; stroke-opacity:1; 
stroke-linecap:round; stroke-linejoin:round;">
<rect x="3937.01" y="3937.01" width="109056" height="74806" rx="0" />
</g>
<g style="fill:#000000; fill-opacity:0.0; 
stroke:#000000; stroke-width:39.3701; stroke-opacity:1; 
stroke-linecap:round; stroke-linejoin:round;">
</g>
<g style="fill:#000000; fill-opacity:0.0; 
stroke:#000000; stroke-width:59.0551; stroke-opacity:1; 
stroke-linecap:round; stroke-linejoin:round;">
<rect x="4724.41" y="4724.41" width="107481" height="73231.2" rx="0" />
</g>
<g style="fill:#000000; fill-opacity:0.0; 
stroke:#000000; stroke-width:39.3701; stroke-opacity:1; 
stroke-linecap:round; stroke-linejoin:round;">
</g>
<g style="fill:#000000; fill-opacity:0.0; 
stroke:#000000; stroke-width:59.0551; stroke-opacity:1; 
stroke-linecap:round; stroke-linejoin:round;">
<path d="M23622 4724
L23622 3937
" />
</g>
<g style="fill:#000000; fill-opacity:0.0; 
stroke:#000000; stroke-width:39.3701; stroke-opacity:1; 
stroke-linecap:round; stroke-linejoin:round;">
</g>
<g style="fill:#000000; fill-opacity:0.0; 
stroke:#000000; stroke-width:59.0551; stroke-opacity:1; 
stroke-linecap:round; stroke-linejoin:round;">
<path d="M43307 4724
L43307 3937
" />
</g>
<g style="fill:#000000; fill-opacity:0.0; 
stroke:#000000; stroke-width:39.3701; stroke-opacity:1; 
stroke-linecap:round; stroke-linejoin:round;">
</g>
<g style="fill:#000000; fill-opacity:0.0; 
stroke:#000000; stroke-width:59.0551; stroke-opacity:1; 
stroke-linecap:round; stroke-linejoin:round;">
<path d="M62992 4724
L62992 3937
" />
</g>
<g style="fill:#000000; fill-opacity:0.0; 
stroke:#000000; stroke-width:39.3701; stroke-opacity:1; 
stroke-linecap:round; stroke-linejoin:round;">
</g>
<g style="fill:#000000; fill-opacity:0.0; 
stroke:#000000; stroke-width:59.0551; stroke-opacity:1; 
stroke-linecap:round; stroke-linejoin:round;">
<path d="M82677 4724
L82677 3937
" />
</g>
<g style="fill:#000000; fill-opacity:0.0; 
stroke:#000000; stroke-width:39.3701; stroke-opacity:1; 
stroke-linecap:round; stroke-linejoin:round;">
</g>
<g style="fill:#000000; fill-opacity:0.0; 
stroke:#000000; stroke-width:59.0551; stroke-opacity:1; 
stroke-linecap:round; stroke-linejoin:round;">
<path d="M102362 4724
L102362 3937
" />
</g>
<g style="fill:#000000; fill-opacity:0.0; 
stroke:#000000; stroke-width:39.3701; stroke-opacity:1; 
stroke-linecap:round; stroke-linejoin:round;">
</g>
<g style="fill:#000000; fill-opacity:0.0; 
stroke:#000000; stroke-width:59.0551; stroke-opacity:1; 
stroke-linecap:round; stroke-linejoin:round;">
<path d="M14199 4562
L13906 4562
" />
<path d="M14052 4562
L14052 4050
L14004 4123
L13955 4172
L13906 4196
" />
</g>
<g style="fill:#000000; fill-opacity:0.0; 
stroke:#000000; stroke-width:39.3701; stroke-opacity:1; 
stroke-linecap:round; stroke-linejoin:round;">
</g>
<g style="fill:#000000; fill-opacity:0.0; 
stroke:#000000; stroke-width:59.0551; stroke-opacity:1; 
stroke-linecap:round; stroke-linejoin:round;">
<path d="M33591 4099
L33615 4074
L33664 4050
L33786 4050
L33835 4074
L33859 4099
L33884 4147
L33884 4196
L33859 4269
L33567 4562
L33884 4562
" />
</g>
<g style="fill:#000000; fill-opacity:0.0; 
stroke:#000000; stroke-width:39.3701; stroke-opacity:1; 
stroke-linecap:round; stroke-linejoin:round;">
</g>
<g style="fill:#000000; fill-opacity:0.0; 
stroke:#000000; stroke-width:59.0551; stroke-opacity:1; 
stroke-linecap:round; stroke-linejoin:round;">
<path d="M53252 4050
L53569 4050
L53398 4245
L53471 4245
L53520 4269
L53544 4294
L53569 4342
L53569 4464
L53544 4513
L53520 4537
L53471 4562
L53325 4562
L53276 4537
L53252 4513
" />
</g>
<g style="fill:#000000; fill-opacity:0.0; 
stroke:#000000; stroke-width:39.3701; stroke-opacity:1; 
stroke-linecap:round; stroke-linejoin:round;">
</g>
<g style="fill:#000000; fill-opacity:0.0; 
stroke:#000000; stroke-width:59.0551; stroke-opacity:1; 
stroke-linecap:round; stroke-linejoin:round;">
<path d="M73205 4221
L73205 4562
" />
<path d="M73083 4026
L72961 4391
L73278 4391
" />
</g>
<g style="fill:#000000; fill-opacity:0.0; 
stroke:#000000; stroke-width:39.3701; stroke-opacity:1; 
stroke-linecap:round; stroke-linejoin:round;">
</g>
<g style="fill:#000000; fill-opacity:0.0; 
stroke:#000000; stroke-width:59.0551; stroke-opacity:1; 
stroke-linecap:round; stroke-linejoin:round;">
<path d="M92914 4050
L92671 4050
L92646 4294
L92671 4269
L92719 4245
L92841 4245
L92890 4269
L92914 4294
L92939 4342
L92939 4464
L92914 4513
L92890 4537
L92841 4562
L92719 4562
L92671 4537
L92646 4513
" />
</g>
<g style="fill:#000000; fill-opacity:0.0; 
stroke:#000000; stroke-width:39.3701; stroke-opacity:1; 
stroke-linecap:round; stroke-linejoin:round;">
</g>
<g style="fill:#000000; fill-opacity:0.0; 
stroke:#000000; stroke-width:59.0551; stroke-opacity:1; 
stroke-linecap:round; stroke-linejoin:round;">
<path d="M112575 4050
L112477 4050
L112429 4074
L112404 4099
L112356 4172
L112331 4269
L112331 4464
L112356 4513
L112380 4537
L112429 4562
L112526 4562
L112575 4537
L112599 4513
L112624 4464
L112624 4342
L112599 4294
L112575 4269
L112526 4245
L112429 4245
L112380 4269
L112356 4294
L112331 4342
" />
</g>
<g style="fill:#000000; fill-opacity:0.0; 
stroke:#000000; stroke-width:39.3701; stroke-opacity:1; 
stroke-linecap:round; stroke-linejoin:round;">
</g>
<g style="fill:#000000; fill-opacity:0.0; 
stroke:#000000; stroke-width:59.0551; stroke-opacity:1; 
stroke-linecap:round; stroke-linejoin:round;">
<path d="M23622 77955
L23622 78742
" />
</g>
<g style="fill:#000000; fill-opacity:0.0; 
stroke:#000000; stroke-width:39.3701; stroke-opacity:1; 
stroke-linecap:round; stroke-linejoin:round;">
</g>
<g style="fill:#000000; fill-opacity:0.0; 
stroke:#000000; stroke-width:59.0551; stroke-opacity:1; 
stroke-linecap:round; stroke-linejoin:round;">
<path d="M43307 77955
L43307 78742
" />
</g>
<g style="fill:#000000; fill-opacity:0.0; 
stroke:#000000; stroke-width:39.3701; stroke-opacity:1; 
stroke-linecap:round; stroke-linejoin:round;">
</g>
<g style="fill:#000000; fill-opacity:0.0; 
stroke:#000000; stroke-width:59.0551; stroke-opacity:1; 
stroke-linecap:round; stroke-linejoin:round;">
<path d="M62992 77955
L62992 78742
" />
</g>
<g style="fill:#000000; fill-opacity:0.0; 
stroke:#000000; stroke-width:39.3701; stroke-opacity:1; 
stroke-linecap:round; stroke-linejoin:round;">
</g>
<g style="fill:#000000; fill-opacity:0.0; 
stroke:#000000; stroke-width:59.0551; stroke-opacity:1; 
stroke-linecap:round; stroke-linejoin:round;">
<path d="M82677 77955
L82677 78742
" />
</g>
<g style="fill:#000000; fill-opacity:0.0; 
stroke:#000000; stroke-width:39.3701; stroke-opacity:1; 
stroke-linecap:round; stroke-linejoin:round;">
</g>
<g style="fill:#000000; fill-opacity:0.0; 
stroke:#000000; stroke-width:59.0551; stroke-opacity:1; 
stroke-linecap:round; stroke-linejoin:round;">
<path d="M102362 77955
L102362 78742
" />
</g>
<g style="fill:#000000; fill-opacity:0.0; 
stroke:#000000; stroke-width:39.3701; stroke-opacity:1; 
stroke-linecap:round; stroke-linejoin:round;">
</g>
<g style="fill:#000000; fill-opacity:0.0; 
stroke:#000000; stroke-width:59.0551; stroke-opacity:1; 
stroke-linecap:round; stroke-linejoin:round;">
<path d="M14199 78580
L13906 78580
" />
<path d="M14052 78580
L14052 78069
L14004 78142
L13955 78190
L13906 78215
" />
</g>
<g style="fill:#000000; fill-opacity:0.0; 
stroke:#000000; stroke-width:39.3701; stroke-opacity:1; 
stroke-linecap:round; stroke-linejoin:round;">
</g>
<g style="fill:#000000; fill-opacity:0.0; 
stroke:#000000; stroke-width:59.0551; stroke-opacity:1; 
stroke-linecap:round; stroke-linejoin:round;">
<path d="M33591 78117
L33615 78093
L33664 78069
L33786 78069
L33835 78093
L33859 78117
L33884 78166
L33884 78215
L33859 78288
L33567 78580
L33884 78580
" />
</g>
<g style="fill:#000000; fill-opacity:0.0; 
stroke:#000000; stroke-width:39.3701; stroke-opacity:1; 
stroke-linecap:round; stroke-linejoin:round;">
</g>
<g style="fill:#000000; fill-opacity:0.0; 
stroke:#000000; stroke-width:59.0551; stroke-opacity:1; 
stroke-linecap:round; stroke-linejoin:round;">
<path d="M53252 78069
L53569 78069
L53398 78263
L53471 78263
L53520 78288
L53544 78312
L53569 78361
L53569 78483
L53544 78532
L53520 78556
L53471 78580
L53325 78580
L53276 78556
L53252 78532
" />
</g>
<g style="fill:#000000; fill-opacity:0.0; 
stroke:#000000; stroke-width:39.3701; stroke-opacity:1; 
stroke-linecap:round; stroke-linejoin:round;">
</g>
<g style="fill:#000000; fill-opacity:0.0; 
stroke:#000000; stroke-width:59.0551; stroke-opacity:1; 
stroke-linecap:round; stroke-linejoin:round;">
<path d="M73205 78239
L73205 78580
" />
<path d="M73083 78044
L72961 78410
L73278 78410
" />
</g>
<g style="fill:#000000; fill-opacity:0.0; 
stroke:#000000; stroke-width:39.3701; stroke-opacity:1; 
stroke-linecap:round; stroke-linejoin:round;">
</g>
<g style="fill:#000000; fill-opacity:0.0; 
stroke:#000000; stroke-width:59.0551; stroke-opacity:1; 
stroke-linecap:round; stroke-linejoin:round;">
<path d="M92914 78069
L92671 78069
L92646 78312
L92671 78288
L92719 78263
L92841 78263
L92890 78288
L92914 78312
L92939 78361
L92939 78483
L92914 78532
L92890 78556
L92841 78580
L92719 78580
L92671 78556
L92646 78532
" />
</g>
<g style="fill:#000000; fill-opacity:0.0; 
stroke:#000000; stroke-width:39.3701; stroke-opacity:1; 
stroke-linecap:round; stroke-linejoin:round;">
</g>
<g style="fill:#000000; fill-opacity:0.0; 
stroke:#000000; stroke-width:59.0551; stroke-opacity:1; 
stroke-linecap:round; stroke-linejoin:round;">
<path d="M112575 78069
L112477 78069
L112429 78093
L112404 78117
L112356 78190
L112331 78288
L112331 78483
L112356 78532
L112380 78556
L112429 78580
L112526 78580
L112575 78556
L112599 78532
L112624 78483
L112624 78361
L112599 78312
L112575 78288
L112526 78263
L112429 78263
L112380 78288
L112356 78312
L112331 78361
" />
</g>
<g style="fill:#000000; fill-opacity:0.0; 
stroke:#000000; stroke-width:39.3701; stroke-opacity:1; 
stroke-linecap:round; stroke-linejoin:round;">
</g>
<g style="fill:#000000; fill-opacity:0.0; 
stroke:#000000; stroke-width:59.0551; stroke-opacity:1; 
stroke-linecap:round; stroke-linejoin:round;">
<path d="M3937 23622
L4724 23622
" />
</g>
<g style="fill:#000000; fill-opacity:0.0; 
stroke:#000000; stroke-width:39.3701; stroke-opacity:1; 
stroke-linecap:round; stroke-linejoin:round;">
</g>
<g style="fill:#000000; fill-opacity:0.0; 
stroke:#000000; stroke-width:59.0551; stroke-opacity:1; 
stroke-linecap:round; stroke-linejoin:round;">
<path d="M3937 43307
L4724 43307
" />
</g>
<g style="fill:#000000; fill-opacity:0.0; 
stroke:#000000; stroke-width:39.3701; stroke-opacity:1; 
stroke-linecap:round; stroke-linejoin:round;">
</g>
<g style="fill:#000000; fill-opacity:0.0; 
stroke:#000000; stroke-width:59.0551; stroke-opacity:1; 
stroke-linecap:round; stroke-linejoin:round;">
<path d="M3937 62992
L4724 62992
" />
</g>
<g style="fill:#000000; fill-opacity:0.0; 
stroke:#000000; stroke-width:39.3701; stroke-opacity:1; 
stroke-linecap:round; stroke-linejoin:round;">
</g>
<g style="fill:#000000; fill-opacity:0.0; 
stroke:#000000; stroke-width:59.0551; stroke-opacity:1; 
stroke-linecap:round; stroke-linejoin:round;">
<path d="M4208 13864
L4452 13864
" />
<path d="M4160 14011
L4330 13499
L4501 14011
" />
</g>
<g style="fill:#000000; fill-opacity:0.0; 
stroke:#000000; stroke-width:39.3701; stroke-opacity:1; 
stroke-linecap:round; stroke-linejoin:round;">
</g>
<g style="fill:#000000; fill-opacity:0.0; 
stroke:#000000; stroke-width:59.0551; stroke-opacity:1; 
stroke-linecap:round; stroke-linejoin:round;">
<path d="M4367 33428
L4440 33452
L4464 33476
L4489 33525
L4489 33598
L4464 33647
L4440 33671
L4391 33696
L4196 33696
L4196 33184
L4367 33184
L4416 33208
L4440 33233
L4464 33281
L4464 33330
L4440 33379
L4416 33403
L4367 33428
L4196 33428
" />
</g>
<g style="fill:#000000; fill-opacity:0.0; 
stroke:#000000; stroke-width:39.3701; stroke-opacity:1; 
stroke-linecap:round; stroke-linejoin:round;">
</g>
<g style="fill:#000000; fill-opacity:0.0; 
stroke:#000000; stroke-width:59.0551; stroke-opacity:1; 
stroke-linecap:round; stroke-linejoin:round;">
<path d="M4489 53332
L4464 53356
L4391 53381
L4342 53381
L4269 53356
L4221 53308
L4196 53259
L4172 53161
L4172 53088
L4196 52991
L4221 52942
L4269 52893
L4342 52869
L4391 52869
L4464 52893
L4489 52918
" />
</g>
<g style="fill:#000000; fill-opacity:0.0; 
stroke:#000000; stroke-width:39.3701; stroke-opacity:1; 
stroke-linecap:round; stroke-linejoin:round;">
</g>
<g style="fill:#000000; fill-opacity:0.0; 
stroke:#000000; stroke-width:59.0551; stroke-opacity:1; 
stroke-linecap:round; stroke-linejoin:round;">
<path d="M4196 73066
L4196 72554
L4318 72554
L4391 72578
L4440 72627
L4464 72676
L4489 72773
L4489 72846
L4464 72944
L4440 72993
L4391 73041
L4318 73066
L4196 73066
" />
</g>
<g style="fill:#000000; fill-opacity:0.0; 
stroke:#000000; stroke-width:39.3701; stroke-opacity:1; 
stroke-linecap:round; stroke-linejoin:round;">
</g>
<g style="fill:#000000; fill-opacity:0.0; 
stroke:#000000; stroke-width:59.0551; stroke-opacity:1; 
stroke-linecap:round; stroke-linejoin:round;">
<path d="M112992 23622
L112205 23622
" />
</g>
<g style="fill:#000000; fill-opacity:0.0; 
stroke:#000000; stroke-width:39.3701; stroke-opacity:1; 
stroke-linecap:round; stroke-linejoin:round;">
</g>
<g style="fill:#000000; fill-opacity:0.0; 
stroke:#000000; stroke-width:59.0551; stroke-opacity:1; 
stroke-linecap:round; stroke-linejoin:round;">
<path d="M112992 43307
L112205 43307
" />
</g>
<g style="fill:#000000; fill-opacity:0.0; 
stroke:#000000; stroke-width:39.3701; stroke-opacity:1; 
stroke-linecap:round; stroke-linejoin:round;">
</g>
<g style="fill:#000000; fill-opacity:0.0; 
stroke:#000000; stroke-width:59.0551; stroke-opacity:1; 
stroke-linecap:round; stroke-linejoin:round;">
<path d="M112992 62992
L112205 62992
" />
</g>
<g style="fill:#000000; fill-opacity:0.0; 
stroke:#000000; stroke-width:39.3701; stroke-opacity:1; 
stroke-linecap:round; stroke-linejoin:round;">
</g>
<g style="fill:#000000; fill-opacity:0.0; 
stroke:#000000; stroke-width:59.0551; stroke-opacity:1; 
stroke-linecap:round; stroke-linejoin:round;">
<path d="M112477 13864
L112721 13864
" />
<path d="M112428 14011
L112599 13499
L112769 14011
" />
</g>
<g style="fill:#000000; fill-opacity:0.0; 
stroke:#000000; stroke-width:39.3701; stroke-opacity:1; 
stroke-linecap:round; stroke-linejoin:round;">
</g>
<g style="fill:#000000; fill-opacity:0.0; 
stroke:#000000; stroke-width:59.0551; stroke-opacity:1; 
stroke-linecap:round; stroke-linejoin:round;">
<path d="M112635 33428
L112708 33452
L112733 33476
L112757 33525
L112757 33598
L112733 33647
L112708 33671
L112660 33696
L112465 33696
L112465 33184
L112635 33184
L112684 33208
L112708 33233
L112733 33281
L112733 33330
L112708 33379
L112684 33403
L112635 33428
L112465 33428
" />
</g>
<g style="fill:#000000; fill-opacity:0.0; 
stroke:#000000; stroke-width:39.3701; stroke-opacity:1; 
stroke-linecap:round; stroke-linejoin:round;">
</g>
<g style="fill:#000000; fill-opacity:0.0; 
stroke:#000000; stroke-width:59.0551; stroke-opacity:1; 
stroke-linecap:round; stroke-linejoin:round;">
<path d="M112757 53332
L112733 53356
L112660 53381
L112611 53381
L112538 53356
L112489 53308
L112465 53259
L112440 53161
L112440 53088
L112465 52991
L112489 52942
L112538 52893
L112611 52869
L112660 52869
L112733 52893
L112757 52918
" />
</g>
<g style="fill:#000000; fill-opacity:0.0; 
stroke:#000000; stroke-width:39.3701; stroke-opacity:1; 
stroke-linecap:round; stroke-linejoin:round;">
</g>
<g style="fill:#000000; fill-opacity:0.0; 
stroke:#000000; stroke-width:59.0551; stroke-opacity:1; 
stroke-linecap:round; stroke-linejoin:round;">
<path d="M112465 73066
L112465 72554
L112587 72554
L112660 72578
L112708 72627
L112733 72676
L112757 72773
L112757 72846
L112733 72944
L112708 72993
L112660 73041
L112587 73066
L112465 73066
" />
</g>
<g style="fill:#000000; fill-opacity:0.0; 
stroke:#000000; stroke-width:39.3701; stroke-opacity:1; 
stroke-linecap:round; stroke-linejoin:round;">
</g>
<g style="fill:#000000; fill-opacity:0.0; 
stroke:#000000; stroke-width:59.0551; stroke-opacity:1; 
stroke-linecap:round; stroke-linejoin:round;">
<path d="M78911 76293
L78911 75703
L79051 75703
L79136 75731
L79192 75787
L79220 75843
L79248 75956
L79248 76040
L79220 76153
L79192 76209
L79136 76265
L79051 76293
L78911 76293
" />
<path d="M79754 76293
L79754 75984
L79726 75928
L79670 75899
L79557 75899
L79501 75928
" />
<path d="M79754 76265
L79698 76293
L79557 76293
L79501 76265
L79473 76209
L79473 76153
L79501 76096
L79557 76068
L79698 76068
L79754 76040
" />
<path d="M79951 75899
L80176 75899
" />
<path d="M80036 75703
L80036 76209
L80064 76265
L80120 76293
L80176 76293
" />
<path d="M80598 76265
L80542 76293
L80429 76293
L80373 76265
L80345 76209
L80345 75984
L80373 75928
L80429 75899
L80542 75899
L80598 75928
L80626 75984
L80626 76040
L80345 76096
" />
<path d="M80879 76237
L80907 76265
L80879 76293
L80851 76265
L80879 76237
L80879 76293
" />
<path d="M80879 75928
L80907 75956
L80879 75984
L80851 75956
L80879 75928
L80879 75984
" />
</g>
<g style="fill:#000000; fill-opacity:0.0; 
stroke:#000000; stroke-width:39.3701; stroke-opacity:1; 
stroke-linecap:round; stroke-linejoin:round;">
</g>
<g style="fill:#000000; fill-opacity:0.0; 
stroke:#000000; stroke-width:59.0551; stroke-opacity:1; 
stroke-linecap:round; stroke-linejoin:round;">
<path d="M69685 76577
L112205 76577
" />
</g>
<g style="fill:#000000; fill-opacity:0.0; 
stroke:#000000; stroke-width:39.3701; stroke-opacity:1; 
stroke-linecap:round; stroke-linejoin:round;">
</g>
<g style="fill:#000000; fill-opacity:0.0; 
stroke:#000000; stroke-width:59.0551; stroke-opacity:1; 
stroke-linecap:round; stroke-linejoin:round;">
<path d="M70249 77395
L70249 76805
" />
<path d="M70587 77395
L70334 77058
" />
<path d="M70587 76805
L70249 77142
" />
<path d="M70840 77395
L70840 77002
" />
<path d="M70840 76805
L70812 76833
L70840 76861
L70868 76833
L70840 76805
L70840 76861
" />
<path d="M71458 77339
L71430 77367
L71346 77395
L71290 77395
L71205 77367
L71149 77311
L71121 77255
L71093 77142
L71093 77058
L71121 76946
L71149 76889
L71205 76833
L71290 76805
L71346 76805
L71430 76833
L71458 76861
" />
<path d="M71965 77395
L71965 77086
L71937 77030
L71880 77002
L71768 77002
L71712 77030
" />
<path d="M71965 77367
L71908 77395
L71768 77395
L71712 77367
L71683 77311
L71683 77255
L71712 77199
L71768 77171
L71908 77171
L71965 77142
" />
<path d="M72499 77395
L72499 76805
" />
<path d="M72499 77367
L72443 77395
L72330 77395
L72274 77367
L72246 77339
L72218 77283
L72218 77114
L72246 77058
L72274 77030
L72330 77002
L72443 77002
L72499 77030
" />
<path d="M73230 77086
L73427 77086
" />
<path d="M73511 77395
L73230 77395
L73230 76805
L73511 76805
" />
<path d="M73764 77339
L73793 77367
L73764 77395
L73736 77367
L73764 77339
L73764 77395
" />
<path d="M74046 77395
L74046 76805
L74186 76805
L74271 76833
L74327 76889
L74355 76946
L74383 77058
L74383 77142
L74355 77255
L74327 77311
L74271 77367
L74186 77395
L74046 77395
" />
<path d="M74636 77339
L74664 77367
L74636 77395
L74608 77367
L74636 77339
L74636 77395
" />
<path d="M74889 77227
L75171 77227
" />
<path d="M74833 77395
L75030 76805
L75227 77395
" />
<path d="M75424 77339
L75452 77367
L75424 77395
L75395 77367
L75424 77339
L75424 77395
" />
<path d="M76605 77395
L76605 76805
" />
<path d="M76661 77171
L76830 77395
" />
<path d="M76830 77002
L76605 77227
" />
<path d="M77083 77395
L77083 77002
" />
<path d="M77083 76805
L77055 76833
L77083 76861
L77111 76833
L77083 76805
L77083 76861
" />
<path d="M77617 77367
L77561 77395
L77448 77395
L77392 77367
L77364 77339
L77336 77283
L77336 77114
L77364 77058
L77392 77030
L77448 77002
L77561 77002
L77617 77030
" />
<path d="M78123 77395
L78123 77086
L78095 77030
L78039 77002
L77926 77002
L77870 77030
" />
<path d="M78123 77367
L78067 77395
L77926 77395
L77870 77367
L77842 77311
L77842 77255
L77870 77199
L77926 77171
L78067 77171
L78123 77142
" />
<path d="M78658 77395
L78658 76805
" />
<path d="M78658 77367
L78601 77395
L78489 77395
L78433 77367
L78404 77339
L78376 77283
L78376 77114
L78404 77058
L78433 77030
L78489 77002
L78601 77002
L78658 77030
" />
<path d="M79557 77620
L79529 77592
L79473 77508
L79445 77452
L79417 77367
L79389 77227
L79389 77114
L79417 76974
L79445 76889
L79473 76833
L79529 76749
L79557 76721
" />
<path d="M80064 76805
L79782 76805
L79754 77086
L79782 77058
L79839 77030
L79979 77030
L80036 77058
L80064 77086
L80092 77142
L80092 77283
L80064 77339
L80036 77367
L79979 77395
L79839 77395
L79782 77367
L79754 77339
" />
<path d="M80345 77339
L80373 77367
L80345 77395
L80317 77367
L80345 77339
L80345 77395
" />
<path d="M80739 76805
L80795 76805
L80851 76833
L80879 76861
L80907 76917
L80935 77030
L80935 77171
L80907 77283
L80879 77339
L80851 77367
L80795 77395
L80739 77395
L80682 77367
L80654 77339
L80626 77283
L80598 77171
L80598 77030
L80626 76917
L80654 76861
L80682 76833
L80739 76805
" />
<path d="M81188 77339
L81217 77367
L81188 77395
L81160 77367
L81188 77339
L81188 77395
" />
<path d="M81779 77395
L81442 77395
" />
<path d="M81610 77395
L81610 76805
L81554 76889
L81498 76946
L81442 76974
" />
<path d="M82032 77171
L82482 77171
" />
<path d="M82707 76805
L83073 76805
L82876 77030
L82960 77030
L83016 77058
L83045 77086
L83073 77142
L83073 77283
L83045 77339
L83016 77367
L82960 77395
L82791 77395
L82735 77367
L82707 77339
" />
<path d="M83326 77171
L83776 77171
" />
<path d="M84310 77002
L84310 77480
L84282 77536
L84254 77564
L84197 77592
L84113 77592
L84057 77564
" />
<path d="M84310 77367
L84254 77395
L84141 77395
L84085 77367
L84057 77339
L84029 77283
L84029 77114
L84057 77058
L84085 77030
L84141 77002
L84254 77002
L84310 77030
" />
<path d="M84619 77395
L84732 77395
L84788 77367
L84816 77339
L84872 77255
L84901 77142
L84901 76917
L84872 76861
L84844 76833
L84788 76805
L84676 76805
L84619 76833
L84591 76861
L84563 76917
L84563 77058
L84591 77114
L84619 77142
L84676 77171
L84788 77171
L84844 77142
L84872 77114
L84901 77058
" />
<path d="M85407 76805
L85294 76805
L85238 76833
L85210 76861
L85154 76946
L85126 77058
L85126 77283
L85154 77339
L85182 77367
L85238 77395
L85350 77395
L85407 77367
L85435 77339
L85463 77283
L85463 77142
L85435 77086
L85407 77058
L85350 77030
L85238 77030
L85182 77058
L85154 77086
L85126 77142
" />
<path d="M85660 76805
L86025 76805
L85829 77030
L85913 77030
L85969 77058
L85997 77086
L86025 77142
L86025 77283
L85997 77339
L85969 77367
L85913 77395
L85744 77395
L85688 77367
L85660 77339
" />
<path d="M86503 77367
L86447 77395
L86335 77395
L86278 77367
L86250 77311
L86250 77086
L86278 77030
L86335 77002
L86447 77002
L86503 77030
L86532 77086
L86532 77142
L86250 77199
" />
<path d="M86700 77002
L86925 77002
" />
<path d="M86785 77395
L86785 76889
L86813 76833
L86869 76805
L86925 76805
" />
<path d="M87206 77058
L87150 77030
L87122 77002
L87094 76946
L87094 76917
L87122 76861
L87150 76833
L87206 76805
L87319 76805
L87375 76833
L87403 76861
L87431 76917
L87431 76946
L87403 77002
L87375 77030
L87319 77058
L87206 77058
L87150 77086
L87122 77114
L87094 77171
L87094 77283
L87122 77339
L87150 77367
L87206 77395
L87319 77395
L87375 77367
L87403 77339
L87431 77283
L87431 77171
L87403 77114
L87375 77086
L87319 77058
" />
<path d="M87685 77395
L87685 76805
" />
<path d="M87685 77030
L87741 77002
L87853 77002
L87910 77030
L87938 77058
L87966 77114
L87966 77283
L87938 77339
L87910 77367
L87853 77395
L87741 77395
L87685 77367
" />
<path d="M88219 77395
L88219 76805
" />
<path d="M88219 77030
L88275 77002
L88388 77002
L88444 77030
L88472 77058
L88500 77114
L88500 77283
L88472 77339
L88444 77367
L88388 77395
L88275 77395
L88219 77367
" />
<path d="M89034 76805
L88753 76805
L88725 77086
L88753 77058
L88809 77030
L88950 77030
L89006 77058
L89034 77086
L89063 77142
L89063 77283
L89034 77339
L89006 77367
L88950 77395
L88809 77395
L88753 77367
L88725 77339
" />
<path d="M89259 77620
L89287 77592
L89344 77508
L89372 77452
L89400 77367
L89428 77227
L89428 77114
L89400 76974
L89372 76889
L89344 76833
L89287 76749
L89259 76721
" />
</g>
<g style="fill:#000000; fill-opacity:0.0; 
stroke:#000000; stroke-width:39.3701; stroke-opacity:1; 
stroke-linecap:round; stroke-linejoin:round;">
</g>
<g style="fill:#000000; fill-opacity:0.0; 
stroke:#000000; stroke-width:59.0551; stroke-opacity:1; 
stroke-linecap:round; stroke-linejoin:round;">
<path d="M69685 75396
L112205 75396
" />
</g>
<g style="fill:#000000; fill-opacity:0.0; 
stroke:#000000; stroke-width:39.3701; stroke-opacity:1; 
stroke-linecap:round; stroke-linejoin:round;">
</g>
<g style="fill:#000000; fill-opacity:0.0; 
stroke:#000000; stroke-width:118.11; stroke-opacity:1; 
stroke-linecap:round; stroke-linejoin:round;">
<path d="M104099 76293
L103902 76012
" />
<path d="M103761 76293
L103761 75703
L103986 75703
L104042 75731
L104070 75759
L104099 75815
L104099 75899
L104070 75956
L104042 75984
L103986 76012
L103761 76012
" />
<path d="M104577 76265
L104520 76293
L104408 76293
L104352 76265
L104323 76209
L104323 75984
L104352 75928
L104408 75899
L104520 75899
L104577 75928
L104605 75984
L104605 76040
L104323 76096
" />
<path d="M104802 75899
L104942 76293
L105083 75899
" />
<path d="M105308 76237
L105336 76265
L105308 76293
L105280 76265
L105308 76237
L105308 76293
" />
<path d="M105308 75928
L105336 75956
L105308 75984
L105280 75956
L105308 75928
L105308 75984
" />
</g>
<g style="fill:#000000; fill-opacity:0.0; 
stroke:#000000; stroke-width:39.3701; stroke-opacity:1; 
stroke-linecap:round; stroke-linejoin:round;">
</g>
<g style="fill:#000000; fill-opacity:0.0; 
stroke:#000000; stroke-width:59.0551; stroke-opacity:1; 
stroke-linecap:round; stroke-linejoin:round;">
<path d="M70221 76265
L70305 76293
L70446 76293
L70502 76265
L70530 76237
L70559 76181
L70559 76124
L70530 76068
L70502 76040
L70446 76012
L70334 75984
L70277 75956
L70249 75928
L70221 75871
L70221 75815
L70249 75759
L70277 75731
L70334 75703
L70474 75703
L70559 75731
" />
<path d="M70812 76293
L70812 75899
" />
<path d="M70812 75703
L70784 75731
L70812 75759
L70840 75731
L70812 75703
L70812 75759
" />
<path d="M71037 75899
L71346 75899
L71037 76293
L71346 76293
" />
<path d="M71796 76265
L71740 76293
L71627 76293
L71571 76265
L71543 76209
L71543 75984
L71571 75928
L71627 75899
L71740 75899
L71796 75928
L71824 75984
L71824 76040
L71543 76096
" />
<path d="M72077 76237
L72105 76265
L72077 76293
L72049 76265
L72077 76237
L72077 76293
" />
<path d="M72077 75928
L72105 75956
L72077 75984
L72049 75956
L72077 75928
L72077 75984
" />
<path d="M72780 76124
L73061 76124
" />
<path d="M72724 76293
L72921 75703
L73118 76293
" />
<path d="M73568 75899
L73568 76293
" />
<path d="M73427 75674
L73286 76096
L73652 76096
" />
</g>
<g style="fill:#000000; fill-opacity:0.0; 
stroke:#000000; stroke-width:39.3701; stroke-opacity:1; 
stroke-linecap:round; stroke-linejoin:round;">
</g>
<g style="fill:#000000; fill-opacity:0.0; 
stroke:#000000; stroke-width:59.0551; stroke-opacity:1; 
stroke-linecap:round; stroke-linejoin:round;">
<path d="M103714 77395
L103714 76805
" />
<path d="M104248 77395
L104248 76805
" />
<path d="M104248 77367
L104192 77395
L104079 77395
L104023 77367
L103995 77339
L103967 77283
L103967 77114
L103995 77058
L104023 77030
L104079 77002
L104192 77002
L104248 77030
" />
<path d="M104529 77339
L104557 77367
L104529 77395
L104501 77367
L104529 77339
L104529 77395
" />
<path d="M104529 77030
L104557 77058
L104529 77086
L104501 77058
L104529 77030
L104529 77086
" />
<path d="M105570 77395
L105232 77395
" />
<path d="M105401 77395
L105401 76805
L105345 76889
L105289 76946
L105232 76974
" />
<path d="M106245 76777
L105739 77536
" />
<path d="M106751 77395
L106413 77395
" />
<path d="M106582 77395
L106582 76805
L106526 76889
L106470 76946
L106413 76974
" />
</g>
<g style="fill:#000000; fill-opacity:0.0; 
stroke:#000000; stroke-width:39.3701; stroke-opacity:1; 
stroke-linecap:round; stroke-linejoin:round;">
</g>
<g style="fill:#000000; fill-opacity:0.0; 
stroke:#000000; stroke-width:59.0551; stroke-opacity:1; 
stroke-linecap:round; stroke-linejoin:round;">
<path d="M69685 73821
L112205 73821
" />
</g>
<g style="fill:#000000; fill-opacity:0.0; 
stroke:#000000; stroke-width:39.3701; stroke-opacity:1; 
stroke-linecap:round; stroke-linejoin:round;">
</g>
<g style="fill:#000000; fill-opacity:0.0; 
stroke:#000000; stroke-width:157.48; stroke-opacity:1; 
stroke-linecap:round; stroke-linejoin:round;">
<path d="M70360 74099
L70810 74099
" />
<path d="M70486 74886
L70585 74099
" />
<path d="M70974 74886
L71039 74361
" />
<path d="M71072 74099
L71030 74136
L71063 74174
L71105 74136
L71072 74099
L71063 74174
" />
<path d="M71302 74361
L71602 74361
" />
<path d="M71447 74099
L71363 74774
L71391 74849
L71461 74886
L71536 74886
" />
<path d="M71911 74886
L71841 74849
L71813 74774
L71897 74099
" />
<path d="M72516 74849
L72436 74886
L72286 74886
L72216 74849
L72187 74774
L72225 74474
L72272 74399
L72352 74361
L72501 74361
L72572 74399
L72600 74474
L72591 74549
L72206 74624
" />
<path d="M72895 74811
L72928 74849
L72886 74886
L72853 74849
L72895 74811
L72886 74886
" />
<path d="M72947 74399
L72980 74436
L72937 74474
L72905 74436
L72947 74399
L72937 74474
" />
</g>
<g style="fill:#000000; fill-opacity:0.0; 
stroke:#000000; stroke-width:39.3701; stroke-opacity:1; 
stroke-linecap:round; stroke-linejoin:round;">
</g>
<g style="fill:#000000; fill-opacity:0.0; 
stroke:#000000; stroke-width:59.0551; stroke-opacity:1; 
stroke-linecap:round; stroke-linejoin:round;">
<path d="M70446 73070
L70249 73070
" />
<path d="M70249 73380
L70249 72789
L70530 72789
" />
<path d="M70755 73380
L70755 72986
" />
<path d="M70755 72789
L70727 72817
L70755 72845
L70784 72817
L70755 72789
L70755 72845
" />
<path d="M71121 73380
L71065 73352
L71037 73295
L71037 72789
" />
<path d="M71571 73352
L71515 73380
L71402 73380
L71346 73352
L71318 73295
L71318 73070
L71346 73014
L71402 72986
L71515 72986
L71571 73014
L71599 73070
L71599 73127
L71318 73183
" />
<path d="M71852 73323
L71880 73352
L71852 73380
L71824 73352
L71852 73323
L71852 73380
" />
<path d="M71852 73014
L71880 73042
L71852 73070
L71824 73042
L71852 73014
L71852 73070
" />
<path d="M72583 72986
L72583 73380
" />
<path d="M72583 73042
L72611 73014
L72668 72986
L72752 72986
L72808 73014
L72836 73070
L72836 73380
" />
<path d="M73371 73380
L73371 73070
L73343 73014
L73286 72986
L73174 72986
L73118 73014
" />
<path d="M73371 73352
L73314 73380
L73174 73380
L73118 73352
L73090 73295
L73090 73239
L73118 73183
L73174 73155
L73314 73155
L73371 73127
" />
<path d="M73652 72986
L73652 73380
" />
<path d="M73652 73042
L73680 73014
L73736 72986
L73821 72986
L73877 73014
L73905 73070
L73905 73380
" />
<path d="M74271 73380
L74214 73352
L74186 73323
L74158 73267
L74158 73099
L74186 73042
L74214 73014
L74271 72986
L74355 72986
L74411 73014
L74439 73042
L74467 73099
L74467 73267
L74439 73323
L74411 73352
L74355 73380
L74271 73380
" />
<path d="M74721 73070
L74917 73070
" />
<path d="M75002 73380
L74721 73380
L74721 72789
L75002 72789
" />
<path d="M75199 73380
L75508 72986
" />
<path d="M75199 72986
L75508 73380
" />
<path d="M75733 72986
L75733 73577
" />
<path d="M75733 73014
L75789 72986
L75902 72986
L75958 73014
L75986 73042
L76014 73099
L76014 73267
L75986 73323
L75958 73352
L75902 73380
L75789 73380
L75733 73352
" />
<path d="M76520 73380
L76520 73070
L76492 73014
L76436 72986
L76323 72986
L76267 73014
" />
<path d="M76520 73352
L76464 73380
L76323 73380
L76267 73352
L76239 73295
L76239 73239
L76267 73183
L76323 73155
L76464 73155
L76520 73127
" />
<path d="M76802 72986
L76802 73380
" />
<path d="M76802 73042
L76830 73014
L76886 72986
L76970 72986
L77027 73014
L77055 73070
L77055 73380
" />
<path d="M77589 73380
L77589 72789
" />
<path d="M77589 73352
L77533 73380
L77420 73380
L77364 73352
L77336 73323
L77308 73267
L77308 73099
L77336 73042
L77364 73014
L77420 72986
L77533 72986
L77589 73014
" />
<path d="M78095 73352
L78039 73380
L77926 73380
L77870 73352
L77842 73295
L77842 73070
L77870 73014
L77926 72986
L78039 72986
L78095 73014
L78123 73070
L78123 73127
L77842 73183
" />
<path d="M78376 73380
L78376 72986
" />
<path d="M78376 73099
L78404 73042
L78433 73014
L78489 72986
L78545 72986
" />
<path d="M78601 73436
L79051 73436
" />
<path d="M79136 72986
L79276 73380
L79417 72986
" />
<path d="M79951 73380
L79614 73380
" />
<path d="M79782 73380
L79782 72789
L79726 72874
L79670 72930
L79614 72958
" />
<path d="M80176 72845
L80204 72817
L80260 72789
L80401 72789
L80457 72817
L80485 72845
L80514 72902
L80514 72958
L80485 73042
L80148 73380
L80514 73380
" />
<path d="M80767 73323
L80795 73352
L80767 73380
L80739 73352
L80767 73323
L80767 73380
" />
<path d="M81048 73380
L81048 72789
" />
<path d="M81104 73155
L81273 73380
" />
<path d="M81273 72986
L81048 73211
" />
<path d="M81526 73380
L81526 72986
" />
<path d="M81526 72789
L81498 72817
L81526 72845
L81554 72817
L81526 72789
L81526 72845
" />
<path d="M82060 73352
L82004 73380
L81892 73380
L81835 73352
L81807 73323
L81779 73267
L81779 73099
L81807 73042
L81835 73014
L81892 72986
L82004 72986
L82060 73014
" />
<path d="M82566 73380
L82566 73070
L82538 73014
L82482 72986
L82370 72986
L82313 73014
" />
<path d="M82566 73352
L82510 73380
L82370 73380
L82313 73352
L82285 73295
L82285 73239
L82313 73183
L82370 73155
L82510 73155
L82566 73127
" />
<path d="M83101 73380
L83101 72789
" />
<path d="M83101 73352
L83045 73380
L82932 73380
L82876 73352
L82848 73323
L82820 73267
L82820 73099
L82848 73042
L82876 73014
L82932 72986
L83045 72986
L83101 73014
" />
<path d="M83241 73436
L83691 73436
" />
<path d="M83832 72986
L83832 73577
" />
<path d="M83832 73014
L83888 72986
L84001 72986
L84057 73014
L84085 73042
L84113 73099
L84113 73267
L84085 73323
L84057 73352
L84001 73380
L83888 73380
L83832 73352
" />
<path d="M84619 73352
L84563 73380
L84451 73380
L84394 73352
L84366 73323
L84338 73267
L84338 73099
L84366 73042
L84394 73014
L84451 72986
L84563 72986
L84619 73014
" />
<path d="M84872 73380
L84872 72789
" />
<path d="M84872 73014
L84929 72986
L85041 72986
L85097 73014
L85126 73042
L85154 73099
L85154 73267
L85126 73323
L85097 73352
L85041 73380
L84929 73380
L84872 73352
" />
</g>
<g style="fill:#000000; fill-opacity:0.0; 
stroke:#000000; stroke-width:39.3701; stroke-opacity:1; 
stroke-linecap:round; stroke-linejoin:round;">
</g>
<g style="fill:#000000; fill-opacity:0.0; 
stroke:#000000; stroke-width:59.0551; stroke-opacity:1; 
stroke-linecap:round; stroke-linejoin:round;">
<path d="M69685 71459
L112205 71459
" />
</g>
<g style="fill:#000000; fill-opacity:0.0; 
stroke:#000000; stroke-width:39.3701; stroke-opacity:1; 
stroke-linecap:round; stroke-linejoin:round;">
</g>
<g style="fill:#000000; fill-opacity:0.0; 
stroke:#000000; stroke-width:59.0551; stroke-opacity:1; 
stroke-linecap:round; stroke-linejoin:round;">
<path d="M70221 72289
L70305 72317
L70446 72317
L70502 72289
L70530 72260
L70559 72204
L70559 72148
L70530 72092
L70502 72064
L70446 72036
L70334 72007
L70277 71979
L70249 71951
L70221 71895
L70221 71839
L70249 71782
L70277 71754
L70334 71726
L70474 71726
L70559 71754
" />
<path d="M70812 72317
L70812 71726
" />
<path d="M71065 72317
L71065 72007
L71037 71951
L70980 71923
L70896 71923
L70840 71951
L70812 71979
" />
<path d="M71571 72289
L71515 72317
L71402 72317
L71346 72289
L71318 72232
L71318 72007
L71346 71951
L71402 71923
L71515 71923
L71571 71951
L71599 72007
L71599 72064
L71318 72120
" />
<path d="M72077 72289
L72021 72317
L71908 72317
L71852 72289
L71824 72232
L71824 72007
L71852 71951
L71908 71923
L72021 71923
L72077 71951
L72105 72007
L72105 72064
L71824 72120
" />
<path d="M72274 71923
L72499 71923
" />
<path d="M72358 71726
L72358 72232
L72386 72289
L72443 72317
L72499 72317
" />
<path d="M72696 72260
L72724 72289
L72696 72317
L72668 72289
L72696 72260
L72696 72317
" />
<path d="M72696 71951
L72724 71979
L72696 72007
L72668 71979
L72696 71951
L72696 72007
" />
</g>
<g style="fill:#000000; fill-opacity:0.0; 
stroke:#000000; stroke-width:39.3701; stroke-opacity:1; 
stroke-linecap:round; stroke-linejoin:round;">
</g>
<g style="fill:#000000; fill-opacity:0.0; 
stroke:#000000; stroke-width:59.0551; stroke-opacity:1; 
stroke-linecap:round; stroke-linejoin:round;">
<path d="M77559 75396
L77559 76577
" />
</g>
<g style="fill:#000000; fill-opacity:0.0; 
stroke:#000000; stroke-width:39.3701; stroke-opacity:1; 
stroke-linecap:round; stroke-linejoin:round;">
</g>
<g style="fill:#000000; fill-opacity:0.0; 
stroke:#000000; stroke-width:59.0551; stroke-opacity:1; 
stroke-linecap:round; stroke-linejoin:round;">
<path d="M102756 75396
L102756 77955
" />
</g>
<g style="fill:#840084; fill-opacity:0.0; 
stroke:#840084; stroke-width:59.0551; stroke-opacity:1; 
stroke-linecap:round; stroke-linejoin:round;">
</g>
<g style="fill:#840084; fill-opacity:1.0; 
stroke:#840084; stroke-width:0; stroke-opacity:1; 
stroke-linecap:round; stroke-linejoin:round;">
<polyline style="fill-rule:evenodd;"
points="48482,56797
48511,56802
48533,56811
48565,56824
48613,56857
48654,56898
48686,56946
48696,56968
48709,57000
48709,57000
48720,57057
48720,57115
48709,57172
48686,57226
48654,57274
48613,57315
48565,57348
48533,57361
48511,57370
48482,57376
48454,57381
48396,57381
48367,57376
48339,57370
48316,57361
48285,57348
48236,57315
48195,57274
48163,57226
48141,57172
48129,57115
48129,57057
48141,57000
48141,57000
48154,56968
48163,56946
48195,56898
48236,56857
48285,56824
48316,56811
48339,56802
48367,56797
48396,56791
48454,56791
48482,56797
" /> 
<polyline style="fill-rule:evenodd;"
points="30372,56797
30401,56802
30423,56811
30454,56824
30503,56857
30544,56898
30576,56946
30585,56968
30598,57000
30598,57000
30610,57057
30610,57115
30598,57172
30576,57226
30544,57274
30503,57315
30454,57348
30423,57361
30401,57370
30372,57376
30344,57381
30285,57381
30257,57376
30228,57370
30206,57361
30175,57348
30126,57315
30085,57274
30053,57226
30031,57172
30019,57115
30019,57057
30030,57000
30031,57000
30044,56968
30053,56946
30085,56898
30126,56857
30175,56824
30206,56811
30228,56802
30257,56797
30285,56791
30344,56791
30372,56797
" /> 
<polyline style="fill-rule:evenodd;"
points="50147,56059
50189,56067
50307,56116
50321,56125
50414,56188
50504,56278
50576,56385
50625,56503
50640,56582
50650,56628
50650,56756
50625,56882
50576,57000
50505,57105
50504,57107
50414,57197
50414,57197
50307,57268
50189,57317
50147,57326
50064,57342
49935,57342
49852,57326
49810,57317
49692,57268
49585,57197
49585,57197
49495,57107
49494,57105
49423,57000
49374,56882
49350,56756
49350,56628
49359,56582
49374,56503
49423,56385
49495,56278
49585,56188
49678,56125
49692,56116
49810,56067
49852,56059
49935,56042
50064,56042
50147,56059
" /> 
<polyline style="fill-rule:evenodd;"
points="28887,56059
28929,56067
29048,56116
29061,56125
29154,56188
29245,56278
29316,56385
29365,56503
29380,56582
29390,56628
29390,56756
29365,56882
29316,57000
29245,57105
29245,57107
29154,57197
29154,57197
29048,57268
28929,57317
28887,57326
28804,57342
28676,57342
28592,57326
28550,57317
28432,57268
28325,57197
28325,57197
28235,57107
28234,57105
28164,57000
28115,56882
28090,56756
28090,56628
28099,56582
28115,56503
28164,56385
28235,56278
28325,56188
28418,56125
28432,56116
28550,56067
28592,56059
28676,56042
28804,56042
28887,56059
" /> 
<polyline style="fill-rule:evenodd;"
points="46535,57039
46101,57039
46101,56684
46535,56684
46535,57039
" /> 
<polyline style="fill-rule:evenodd;"
points="43661,57039
43227,57039
43227,56684
43661,56684
43661,57039
" /> 
<polyline style="fill-rule:evenodd;"
points="38346,56968
37322,56968
37322,55550
38346,55550
38346,56968
" /> 
<polyline style="fill-rule:evenodd;"
points="41378,56968
40353,56968
40353,55550
41378,55550
41378,56968
" /> 
<polyline style="fill-rule:evenodd;"
points="33720,56025
33746,56028
33791,56041
33813,56048
33849,56067
33875,56081
33889,56093
33929,56125
33961,56165
33973,56179
33973,56179
34006,56241
34006,56241
34026,56308
34033,56377
34026,56447
34014,56486
34006,56514
33984,56554
33973,56575
33968,56582
33929,56629
33889,56662
33875,56674
33875,56674
33813,56707
33791,56714
33746,56727
33720,56730
33694,56732
33659,56732
33633,56730
33607,56727
33563,56714
33540,56707
33479,56674
33479,56674
33465,56662
33425,56629
33386,56582
33380,56575
33369,56554
33347,56514
33339,56486
33327,56447
33320,56377
33327,56308
33347,56241
33347,56241
33380,56179
33380,56179
33392,56165
33425,56125
33465,56093
33479,56081
33504,56067
33540,56048
33563,56041
33607,56028
33633,56025
33659,56023
33694,56023
33720,56025
" /> 
<polyline style="fill-rule:evenodd;"
points="33031,56732
32322,56732
32322,56023
33031,56023
33031,56732
" /> 
<polyline style="fill-rule:evenodd;"
points="34720,56025
34746,56028
34791,56041
34813,56048
34849,56067
34875,56081
34889,56093
34929,56125
34961,56165
34973,56179
34973,56179
35006,56241
35006,56241
35026,56308
35033,56377
35026,56447
35014,56486
35006,56514
34984,56554
34973,56575
34968,56582
34929,56629
34889,56662
34875,56674
34875,56674
34813,56707
34791,56714
34746,56727
34720,56730
34694,56732
34659,56732
34633,56730
34607,56727
34563,56714
34540,56707
34479,56674
34479,56674
34465,56662
34425,56629
34386,56582
34380,56575
34369,56554
34347,56514
34339,56486
34327,56447
34320,56377
34327,56308
34347,56241
34347,56241
34380,56179
34380,56179
34392,56165
34425,56125
34465,56093
34479,56081
34504,56067
34540,56048
34563,56041
34607,56028
34633,56025
34659,56023
34694,56023
34720,56025
" /> 
<polyline style="fill-rule:evenodd;"
points="45529,56239
45565,56254
45598,56275
45625,56303
45647,56335
45662,56371
45669,56409
45669,56448
45662,56486
45647,56522
45625,56554
45598,56582
45565,56603
45529,56618
45491,56626
45453,56626
45414,56618
45379,56603
45346,56582
45319,56554
45297,56522
45282,56486
45275,56448
45275,56409
45282,56371
45297,56335
45319,56303
45346,56275
45379,56254
45414,56239
45453,56231
45491,56231
45529,56239
" /> 
<polyline style="fill-rule:evenodd;"
points="44348,56239
44384,56254
44417,56275
44444,56303
44466,56335
44481,56371
44488,56409
44488,56448
44481,56486
44466,56522
44444,56554
44417,56582
44384,56603
44348,56618
44310,56626
44271,56626
44233,56618
44197,56603
44165,56582
44138,56554
44116,56522
44101,56486
44094,56448
44094,56409
44101,56371
44116,56335
44138,56303
44165,56275
44197,56254
44233,56239
44271,56231
44310,56231
44348,56239
" /> 
<polyline style="fill-rule:evenodd;"
points="46535,56169
46101,56169
46101,55814
46535,55814
46535,56169
" /> 
<polyline style="fill-rule:evenodd;"
points="43661,56169
43227,56169
43227,55814
43661,55814
43661,56169
" /> 
<polyline style="fill-rule:evenodd;"
points="45925,56051
45609,56051
45609,55420
45925,55420
45925,56051
" /> 
<polyline style="fill-rule:evenodd;"
points="45335,56051
45019,56051
45019,55420
45335,55420
45335,56051
" /> 
<polyline style="fill-rule:evenodd;"
points="44153,56051
43838,56051
43838,55420
44153,55420
44153,56051
" /> 
<polyline style="fill-rule:evenodd;"
points="33031,55748
32322,55748
32322,55038
33031,55038
33031,55748
" /> 
<polyline style="fill-rule:evenodd;"
points="33720,55041
33746,55044
33791,55057
33813,55064
33868,55093
33875,55097
33889,55108
33929,55141
33961,55181
33973,55195
33973,55195
34006,55257
34006,55257
34026,55324
34033,55393
34026,55463
34013,55507
34006,55530
33995,55550
33973,55591
33961,55605
33929,55645
33889,55678
33875,55690
33875,55690
33813,55723
33791,55729
33746,55743
33720,55745
33694,55748
33659,55748
33633,55745
33607,55743
33563,55729
33540,55723
33479,55690
33479,55690
33465,55678
33425,55645
33392,55605
33380,55591
33358,55550
33347,55530
33341,55507
33327,55463
33320,55393
33327,55324
33347,55257
33347,55257
33380,55195
33380,55195
33392,55181
33425,55141
33465,55108
33479,55097
33486,55093
33540,55064
33563,55057
33607,55044
33633,55041
33659,55038
33694,55038
33720,55041
" /> 
<polyline style="fill-rule:evenodd;"
points="34720,55041
34746,55044
34791,55057
34813,55064
34868,55093
34875,55097
34889,55108
34929,55141
34961,55181
34973,55195
34973,55195
35006,55257
35006,55257
35026,55324
35033,55393
35026,55463
35013,55507
35006,55530
34995,55550
34973,55591
34961,55605
34929,55645
34889,55678
34875,55690
34875,55690
34813,55723
34791,55729
34746,55743
34720,55745
34694,55748
34659,55748
34633,55745
34607,55743
34563,55729
34540,55723
34479,55690
34479,55690
34465,55678
34425,55645
34392,55605
34380,55591
34358,55550
34347,55530
34341,55507
34327,55463
34320,55393
34327,55324
34347,55257
34347,55257
34380,55195
34380,55195
34392,55181
34425,55141
34465,55108
34479,55097
34486,55093
34540,55064
34563,55057
34607,55044
34633,55041
34659,55038
34694,55038
34720,55041
" /> 
<polyline style="fill-rule:evenodd;"
points="39980,54803
39546,54803
39546,53385
39980,53385
39980,54803
" /> 
<polyline style="fill-rule:evenodd;"
points="39193,54803
38759,54803
38759,53385
39193,53385
39193,54803
" /> 
<polyline style="fill-rule:evenodd;"
points="48518,53235
48576,53259
48629,53294
48673,53339
48708,53391
48732,53449
48745,53511
48745,53574
48732,53636
48708,53694
48673,53747
48629,53791
48576,53826
48518,53851
48456,53863
48393,53863
48331,53851
48273,53826
48221,53791
48176,53747
48141,53694
48117,53636
48105,53574
48105,53511
48117,53449
48141,53391
48176,53339
48221,53294
48273,53259
48331,53235
48393,53223
48456,53223
48518,53235
" /> 
<polyline style="fill-rule:evenodd;"
points="49305,53235
49364,53259
49416,53294
49461,53339
49496,53391
49520,53449
49532,53511
49532,53574
49520,53636
49496,53694
49461,53747
49416,53791
49364,53826
49305,53851
49244,53863
49181,53863
49119,53851
49060,53826
49008,53791
48963,53747
48928,53694
48904,53636
48892,53574
48892,53511
48904,53449
48928,53391
48963,53339
49008,53294
49060,53259
49119,53235
49181,53223
49244,53223
49305,53235
" /> 
<polyline style="fill-rule:evenodd;"
points="50093,53235
50151,53259
50204,53294
50248,53339
50283,53391
50307,53449
50320,53511
50320,53574
50307,53636
50283,53694
50248,53747
50204,53791
50151,53826
50093,53851
50031,53863
49968,53863
49906,53851
49848,53826
49795,53791
49751,53747
49716,53694
49692,53636
49679,53574
49679,53511
49692,53449
49716,53391
49751,53339
49795,53294
49848,53259
49906,53235
49968,53223
50031,53223
50093,53235
" /> 
<polyline style="fill-rule:evenodd;"
points="47957,53863
47317,53863
47317,53223
47957,53223
47957,53863
" /> 
<polyline style="fill-rule:evenodd;"
points="31195,53235
31253,53259
31306,53294
31350,53339
31386,53391
31410,53449
31422,53511
31422,53574
31410,53636
31386,53694
31350,53747
31306,53791
31253,53826
31195,53851
31133,53863
31070,53863
31008,53851
30950,53826
30898,53791
30853,53747
30818,53694
30794,53636
30782,53574
30782,53511
30794,53449
30818,53391
30853,53339
30898,53294
30950,53259
31008,53235
31070,53223
31133,53223
31195,53235
" /> 
<polyline style="fill-rule:evenodd;"
points="29060,53863
28420,53863
28420,53223
29060,53223
29060,53863
" /> 
<polyline style="fill-rule:evenodd;"
points="29620,53235
29679,53259
29731,53294
29776,53339
29811,53391
29835,53449
29847,53511
29847,53574
29835,53636
29811,53694
29776,53747
29731,53791
29679,53826
29620,53851
29559,53863
29496,53863
29434,53851
29375,53826
29323,53791
29278,53747
29243,53694
29219,53636
29207,53574
29207,53511
29219,53449
29243,53391
29278,53339
29323,53294
29375,53259
29434,53235
29496,53223
29559,53223
29620,53235
" /> 
<polyline style="fill-rule:evenodd;"
points="30408,53235
30466,53259
30518,53294
30563,53339
30598,53391
30622,53449
30635,53511
30635,53574
30622,53636
30598,53694
30563,53747
30518,53791
30466,53826
30408,53851
30346,53863
30283,53863
30221,53851
30163,53826
30110,53791
30066,53747
30031,53694
30007,53636
29994,53574
29994,53511
30007,53449
30031,53391
30066,53339
30110,53294
30163,53259
30221,53235
30283,53223
30346,53223
30408,53235
" /> 
<polyline style="fill-rule:evenodd;"
points="35886,53346
35334,53346
35334,53031
35886,53031
35886,53346
" /> 
<polyline style="fill-rule:evenodd;"
points="37106,53346
36554,53346
36554,53031
37106,53031
37106,53346
" /> 
<polyline style="fill-rule:evenodd;"
points="42185,53346
41633,53346
41633,53031
42185,53031
42185,53346
" /> 
<polyline style="fill-rule:evenodd;"
points="43405,53346
42853,53346
42853,53031
43405,53031
43405,53346
" /> 
<polyline style="fill-rule:evenodd;"
points="37106,52913
36554,52913
36554,52598
37106,52598
37106,52913
" /> 
<polyline style="fill-rule:evenodd;"
points="35886,52913
35334,52913
35334,52598
35886,52598
35886,52913
" /> 
<polyline style="fill-rule:evenodd;"
points="42185,52913
41633,52913
41633,52598
42185,52598
42185,52913
" /> 
<polyline style="fill-rule:evenodd;"
points="43405,52913
42853,52913
42853,52598
43405,52598
43405,52913
" /> 
<polyline style="fill-rule:evenodd;"
points="37106,52480
36554,52480
36554,52164
37106,52164
37106,52480
" /> 
<polyline style="fill-rule:evenodd;"
points="35886,52480
35334,52480
35334,52164
35886,52164
35886,52480
" /> 
<polyline style="fill-rule:evenodd;"
points="42185,52480
41633,52480
41633,52164
42185,52164
42185,52480
" /> 
<polyline style="fill-rule:evenodd;"
points="43405,52480
42853,52480
42853,52164
43405,52164
43405,52480
" /> 
<polyline style="fill-rule:evenodd;"
points="40807,51338
40609,51338
40609,50944
40807,50944
40807,51338
" /> 
<polyline style="fill-rule:evenodd;"
points="40492,51338
40294,51338
40294,50944
40492,50944
40492,51338
" /> 
<polyline style="fill-rule:evenodd;"
points="40177,51338
39979,51338
39979,50944
40177,50944
40177,51338
" /> 
<polyline style="fill-rule:evenodd;"
points="38760,51338
38562,51338
38562,50944
38760,50944
38760,51338
" /> 
<polyline style="fill-rule:evenodd;"
points="38445,51338
38247,51338
38247,50944
38445,50944
38445,51338
" /> 
<polyline style="fill-rule:evenodd;"
points="41122,51338
40924,51338
40924,50944
41122,50944
41122,51338
" /> 
<polyline style="fill-rule:evenodd;"
points="37815,51338
37617,51338
37617,50944
37815,50944
37815,51338
" /> 
<polyline style="fill-rule:evenodd;"
points="38130,51338
37932,51338
37932,50944
38130,50944
38130,51338
" /> 
<polyline style="fill-rule:evenodd;"
points="34470,50778
34483,50782
34496,50789
34506,50798
34515,50809
34522,50821
34526,50834
34527,50851
34527,51117
34526,51133
34522,51147
34515,51159
34506,51170
34496,51179
34483,51185
34470,51189
34453,51191
34217,51191
34200,51189
34187,51185
34175,51179
34164,51170
34155,51159
34148,51147
34144,51133
34143,51117
34143,50851
34144,50834
34148,50821
34155,50809
34164,50798
34175,50789
34187,50782
34200,50778
34217,50777
34453,50777
34470,50778
" /> 
<polyline style="fill-rule:evenodd;"
points="35090,50778
35103,50782
35116,50789
35126,50798
35135,50809
35142,50821
35146,50834
35148,50851
35148,51117
35146,51133
35142,51147
35135,51159
35126,51170
35116,51179
35103,51185
35090,51189
35074,51191
34837,51191
34821,51189
34807,51185
34795,51179
34784,51170
34775,51159
34769,51147
34764,51133
34763,51117
34763,50851
34764,50834
34769,50821
34775,50809
34784,50798
34795,50789
34807,50782
34821,50778
34837,50777
35074,50777
35090,50778
" /> 
<polyline style="fill-rule:evenodd;"
points="42838,50099
42853,50104
42867,50111
42879,50122
42890,50134
42897,50148
42902,50163
42903,50181
42903,50605
42902,50623
42897,50639
42890,50653
42879,50665
42867,50675
42853,50682
42838,50687
42820,50689
42563,50689
42545,50687
42530,50682
42516,50675
42503,50665
42493,50653
42486,50639
42481,50623
42479,50605
42479,50181
42481,50163
42486,50148
42493,50134
42503,50122
42516,50111
42530,50104
42545,50099
42563,50098
42820,50098
42838,50099
" /> 
<polyline style="fill-rule:evenodd;"
points="42100,50099
42115,50104
42129,50111
42141,50122
42151,50134
42159,50148
42163,50163
42165,50181
42165,50605
42163,50623
42159,50639
42151,50653
42141,50665
42129,50675
42115,50682
42100,50687
42081,50689
41825,50689
41807,50687
41792,50682
41778,50675
41765,50665
41755,50653
41748,50639
41743,50623
41741,50605
41741,50181
41743,50163
41748,50148
41755,50134
41765,50122
41778,50111
41792,50104
41807,50099
41825,50098
42081,50098
42100,50099
" /> 
<polyline style="fill-rule:evenodd;"
points="45207,50661
44162,50661
44162,50204
45207,50204
45207,50661
" /> 
<polyline style="fill-rule:evenodd;"
points="41122,50630
40924,50630
40924,50235
41122,50235
41122,50630
" /> 
<polyline style="fill-rule:evenodd;"
points="40807,50630
40609,50630
40609,50235
40807,50235
40807,50630
" /> 
<polyline style="fill-rule:evenodd;"
points="40492,50630
40294,50630
40294,50235
40492,50235
40492,50630
" /> 
<polyline style="fill-rule:evenodd;"
points="40177,50630
39979,50630
39979,50235
40177,50235
40177,50630
" /> 
<polyline style="fill-rule:evenodd;"
points="38760,50630
38562,50630
38562,50235
38760,50235
38760,50630
" /> 
<polyline style="fill-rule:evenodd;"
points="38445,50630
38247,50630
38247,50235
38445,50235
38445,50630
" /> 
<polyline style="fill-rule:evenodd;"
points="37815,50630
37617,50630
37617,50235
37815,50235
37815,50630
" /> 
<polyline style="fill-rule:evenodd;"
points="38130,50630
37932,50630
37932,50235
38130,50235
38130,50630
" /> 
<polyline style="fill-rule:evenodd;"
points="35090,49991
35103,49995
35116,50002
35126,50010
35135,50021
35142,50034
35146,50047
35148,50063
35148,50329
35146,50346
35142,50359
35135,50372
35126,50382
35116,50391
35103,50398
35090,50402
35074,50403
34837,50403
34821,50402
34807,50398
34795,50391
34784,50382
34775,50372
34769,50359
34764,50346
34763,50329
34763,50063
34764,50047
34769,50034
34775,50021
34784,50010
34795,50002
34807,49995
34821,49991
34837,49989
35074,49989
35090,49991
" /> 
<polyline style="fill-rule:evenodd;"
points="34470,49991
34483,49995
34496,50002
34506,50010
34515,50021
34522,50034
34526,50047
34527,50063
34527,50329
34526,50346
34522,50359
34515,50372
34506,50382
34496,50391
34483,50398
34470,50402
34453,50403
34217,50403
34200,50402
34187,50398
34175,50391
34164,50382
34155,50372
34148,50359
34144,50346
34143,50329
34143,50063
34144,50047
34148,50034
34155,50021
34164,50010
34175,50002
34187,49995
34200,49991
34217,49989
34453,49989
34470,49991
" /> 
<polyline style="fill-rule:evenodd;"
points="50093,49298
50151,49322
50204,49357
50248,49402
50283,49454
50307,49512
50320,49574
50320,49637
50307,49699
50283,49757
50248,49810
50204,49854
50151,49889
50093,49914
50031,49926
49968,49926
49906,49914
49848,49889
49795,49854
49751,49810
49716,49757
49692,49699
49679,49637
49679,49574
49692,49512
49716,49454
49751,49402
49795,49357
49848,49322
49906,49298
49968,49286
50031,49286
50093,49298
" /> 
<polyline style="fill-rule:evenodd;"
points="31195,49298
31253,49322
31306,49357
31350,49402
31386,49454
31410,49512
31422,49574
31422,49637
31410,49699
31386,49757
31350,49810
31306,49854
31253,49889
31195,49914
31133,49926
31070,49926
31008,49914
30950,49889
30898,49854
30853,49810
30818,49757
30794,49699
30782,49637
30782,49574
30794,49512
30818,49454
30853,49402
30898,49357
30950,49322
31008,49298
31070,49286
31133,49286
31195,49298
" /> 
<polyline style="fill-rule:evenodd;"
points="49305,49298
49364,49322
49416,49357
49461,49402
49496,49454
49520,49512
49532,49574
49532,49637
49520,49699
49496,49757
49461,49810
49416,49854
49364,49889
49305,49914
49244,49926
49181,49926
49119,49914
49060,49889
49008,49854
48963,49810
48928,49757
48904,49699
48892,49637
48892,49574
48904,49512
48928,49454
48963,49402
49008,49357
49060,49322
49119,49298
49181,49286
49244,49286
49305,49298
" /> 
<polyline style="fill-rule:evenodd;"
points="48518,49298
48576,49322
48629,49357
48673,49402
48708,49454
48732,49512
48745,49574
48745,49637
48732,49699
48708,49757
48673,49810
48629,49854
48576,49889
48518,49914
48456,49926
48393,49926
48331,49914
48273,49889
48221,49854
48176,49810
48141,49757
48117,49699
48105,49637
48105,49574
48117,49512
48141,49454
48176,49402
48221,49357
48273,49322
48331,49298
48393,49286
48456,49286
48518,49298
" /> 
<polyline style="fill-rule:evenodd;"
points="30408,49298
30466,49322
30518,49357
30563,49402
30598,49454
30622,49512
30635,49574
30635,49637
30622,49699
30598,49757
30563,49810
30518,49854
30466,49889
30408,49914
30346,49926
30283,49926
30221,49914
30163,49889
30110,49854
30066,49810
30031,49757
30007,49699
29994,49637
29994,49574
30007,49512
30031,49454
30066,49402
30110,49357
30163,49322
30221,49298
30283,49286
30346,49286
30408,49298
" /> 
<polyline style="fill-rule:evenodd;"
points="29620,49298
29679,49322
29731,49357
29776,49402
29811,49454
29835,49512
29847,49574
29847,49637
29835,49699
29811,49757
29776,49810
29731,49854
29679,49889
29620,49914
29559,49926
29496,49926
29434,49914
29375,49889
29323,49854
29278,49810
29243,49757
29219,49699
29207,49637
29207,49574
29219,49512
29243,49454
29278,49402
29323,49357
29375,49322
29434,49298
29496,49286
29559,49286
29620,49298
" /> 
<polyline style="fill-rule:evenodd;"
points="29060,49926
28420,49926
28420,49286
29060,49286
29060,49926
" /> 
<polyline style="fill-rule:evenodd;"
points="47957,49926
47317,49926
47317,49286
47957,49286
47957,49926
" /> 
<polyline style="fill-rule:evenodd;"
points="45207,49795
44911,49795
44911,49338
45207,49338
45207,49795
" /> 
<polyline style="fill-rule:evenodd;"
points="44459,49795
44162,49795
44162,49338
44459,49338
44459,49795
" /> 
<polyline style="fill-rule:evenodd;"
points="35090,49203
35103,49208
35116,49214
35126,49223
35135,49234
35142,49246
35146,49260
35148,49276
35148,49542
35146,49558
35142,49572
35135,49584
35126,49595
35116,49604
35103,49610
35090,49614
35074,49616
34837,49616
34821,49614
34807,49610
34795,49604
34784,49595
34775,49584
34769,49572
34764,49558
34763,49542
34763,49276
34764,49260
34769,49246
34775,49234
34784,49223
34795,49214
34807,49208
34821,49203
34837,49202
35074,49202
35090,49203
" /> 
<polyline style="fill-rule:evenodd;"
points="34470,49203
34483,49208
34496,49214
34506,49223
34515,49234
34522,49246
34526,49260
34527,49276
34527,49542
34526,49558
34522,49572
34515,49584
34506,49595
34496,49604
34483,49610
34470,49614
34453,49616
34217,49616
34200,49614
34187,49610
34175,49604
34164,49595
34155,49584
34148,49572
34144,49558
34143,49542
34143,49276
34144,49260
34148,49246
34155,49234
34164,49223
34175,49214
34187,49208
34200,49203
34217,49202
34453,49202
34470,49203
" /> 
<polyline style="fill-rule:evenodd;"
points="42844,49480
41800,49480
41800,49023
42844,49023
42844,49480
" /> 
<polyline style="fill-rule:evenodd;"
points="45440,48062
45454,48066
45468,48073
45479,48083
45489,48094
45496,48108
45500,48122
45502,48139
45502,48710
45500,48727
45496,48742
45489,48755
45479,48767
45468,48776
45454,48783
45440,48788
45423,48789
45049,48789
45032,48788
45017,48783
45004,48776
44992,48767
44983,48755
44976,48742
44971,48727
44970,48710
44970,48139
44971,48122
44976,48108
44983,48094
44992,48083
45004,48073
45017,48066
45032,48062
45049,48060
45423,48060
45440,48062
" /> 
<polyline style="fill-rule:evenodd;"
points="44338,48062
44352,48066
44365,48073
44377,48083
44386,48094
44393,48108
44398,48122
44400,48139
44400,48710
44398,48727
44393,48742
44386,48755
44377,48767
44365,48776
44352,48783
44338,48788
44320,48789
43947,48789
43929,48788
43915,48783
43902,48776
43890,48767
43880,48755
43873,48742
43869,48727
43867,48710
43867,48139
43869,48122
43873,48108
43880,48094
43890,48083
43902,48073
43915,48066
43929,48062
43947,48060
44320,48060
44338,48062
" /> 
<polyline style="fill-rule:evenodd;"
points="35236,48779
34842,48779
34842,48424
35236,48424
35236,48779
" /> 
<polyline style="fill-rule:evenodd;"
points="33614,48347
33627,48351
33639,48358
33650,48367
33659,48377
33665,48390
33670,48403
33671,48420
33671,48656
33670,48673
33665,48686
33659,48698
33650,48709
33639,48718
33627,48725
33614,48729
33597,48730
33331,48730
33315,48729
33301,48725
33289,48718
33278,48709
33269,48698
33263,48686
33259,48673
33257,48656
33257,48420
33259,48403
33263,48390
33269,48377
33278,48367
33289,48358
33301,48351
33315,48347
33331,48346
33597,48346
33614,48347
" /> 
<polyline style="fill-rule:evenodd;"
points="42096,48614
41800,48614
41800,48157
42096,48157
42096,48614
" /> 
<polyline style="fill-rule:evenodd;"
points="42844,48614
42548,48614
42548,48157
42844,48157
42844,48614
" /> 
<polyline style="fill-rule:evenodd;"
points="34449,48405
34054,48405
34054,48050
34449,48050
34449,48405
" /> 
<polyline style="fill-rule:evenodd;"
points="33614,47727
33627,47731
33639,47738
33650,47747
33659,47757
33665,47770
33670,47783
33671,47799
33671,48036
33670,48052
33665,48066
33659,48078
33650,48089
33639,48098
33627,48104
33614,48109
33597,48110
33331,48110
33315,48109
33301,48104
33289,48098
33278,48089
33269,48078
33263,48066
33259,48052
33257,48036
33257,47799
33259,47783
33263,47770
33269,47757
33278,47747
33289,47738
33301,47731
33315,47727
33331,47725
33597,47725
33614,47727
" /> 
<polyline style="fill-rule:evenodd;"
points="35236,48031
34842,48031
34842,47676
35236,47676
35236,48031
" /> 
<polyline style="fill-rule:evenodd;"
points="35134,46626
34306,46626
34306,46113
35134,46113
35134,46626
" /> 
<polyline style="fill-rule:evenodd;"
points="42134,46626
41306,46626
41306,46113
42134,46113
42134,46626
" /> 
<polyline style="fill-rule:evenodd;"
points="44417,46626
43590,46626
43590,46113
44417,46113
44417,46626
" /> 
<polyline style="fill-rule:evenodd;"
points="37417,46626
36590,46626
36590,46113
37417,46113
37417,46626
" /> 
<polyline style="fill-rule:evenodd;"
points="50093,45361
50151,45385
50204,45420
50248,45465
50283,45517
50307,45575
50320,45637
50320,45700
50307,45762
50283,45820
50248,45873
50204,45917
50151,45952
50093,45977
50031,45989
49968,45989
49906,45977
49848,45952
49795,45917
49751,45873
49716,45820
49692,45762
49679,45700
49679,45637
49692,45575
49716,45517
49751,45465
49795,45420
49848,45385
49906,45361
49968,45349
50031,45349
50093,45361
" /> 
<polyline style="fill-rule:evenodd;"
points="49305,45361
49364,45385
49416,45420
49461,45465
49496,45517
49520,45575
49532,45637
49532,45700
49520,45762
49496,45820
49461,45873
49416,45917
49364,45952
49305,45977
49244,45989
49181,45989
49119,45977
49060,45952
49008,45917
48963,45873
48928,45820
48904,45762
48892,45700
48892,45637
48904,45575
48928,45517
48963,45465
49008,45420
49060,45385
49119,45361
49181,45349
49244,45349
49305,45361
" /> 
<polyline style="fill-rule:evenodd;"
points="48518,45361
48576,45385
48629,45420
48673,45465
48708,45517
48732,45575
48745,45637
48745,45700
48732,45762
48708,45820
48673,45873
48629,45917
48576,45952
48518,45977
48456,45989
48393,45989
48331,45977
48273,45952
48221,45917
48176,45873
48141,45820
48117,45762
48105,45700
48105,45637
48117,45575
48141,45517
48176,45465
48221,45420
48273,45385
48331,45361
48393,45349
48456,45349
48518,45361
" /> 
<polyline style="fill-rule:evenodd;"
points="47957,45989
47317,45989
47317,45349
47957,45349
47957,45989
" /> 
<polyline style="fill-rule:evenodd;"
points="31195,45361
31253,45385
31306,45420
31350,45465
31386,45517
31410,45575
31422,45637
31422,45700
31410,45762
31386,45820
31350,45873
31306,45917
31253,45952
31195,45977
31133,45989
31070,45989
31008,45977
30950,45952
30898,45917
30853,45873
30818,45820
30794,45762
30782,45700
30782,45637
30794,45575
30818,45517
30853,45465
30898,45420
30950,45385
31008,45361
31070,45349
31133,45349
31195,45361
" /> 
<polyline style="fill-rule:evenodd;"
points="30408,45361
30466,45385
30518,45420
30563,45465
30598,45517
30622,45575
30635,45637
30635,45700
30622,45762
30598,45820
30563,45873
30518,45917
30466,45952
30408,45977
30346,45989
30283,45989
30221,45977
30163,45952
30110,45917
30066,45873
30031,45820
30007,45762
29994,45700
29994,45637
30007,45575
30031,45517
30066,45465
30110,45420
30163,45385
30221,45361
30283,45349
30346,45349
30408,45361
" /> 
<polyline style="fill-rule:evenodd;"
points="29620,45361
29679,45385
29731,45420
29776,45465
29811,45517
29835,45575
29847,45637
29847,45700
29835,45762
29811,45820
29776,45873
29731,45917
29679,45952
29620,45977
29559,45989
29496,45989
29434,45977
29375,45952
29323,45917
29278,45873
29243,45820
29219,45762
29207,45700
29207,45637
29219,45575
29243,45517
29278,45465
29323,45420
29375,45385
29434,45361
29496,45349
29559,45349
29620,45361
" /> 
<polyline style="fill-rule:evenodd;"
points="29060,45989
28420,45989
28420,45349
29060,45349
29060,45989
" /> 
<polyline style="fill-rule:evenodd;"
points="35150,45626
34322,45626
34322,45113
35150,45113
35150,45626
" /> 
<polyline style="fill-rule:evenodd;"
points="44433,45626
43605,45626
43605,45113
44433,45113
44433,45626
" /> 
<polyline style="fill-rule:evenodd;"
points="42150,45626
41322,45626
41322,45113
42150,45113
42150,45626
" /> 
<polyline style="fill-rule:evenodd;"
points="37433,45626
36605,45626
36605,45113
37433,45113
37433,45626
" /> 
<polyline style="fill-rule:evenodd;"
points="44417,44626
43590,44626
43590,44113
44417,44113
44417,44626
" /> 
<polyline style="fill-rule:evenodd;"
points="42134,44626
41306,44626
41306,44113
42134,44113
42134,44626
" /> 
<polyline style="fill-rule:evenodd;"
points="37417,44626
36590,44626
36590,44113
37417,44113
37417,44626
" /> 
<polyline style="fill-rule:evenodd;"
points="35134,44626
34306,44626
34306,44113
35134,44113
35134,44626
" /> 
<polyline style="fill-rule:evenodd;"
points="35150,43626
34322,43626
34322,43113
35150,43113
35150,43626
" /> 
<polyline style="fill-rule:evenodd;"
points="44433,43626
43605,43626
43605,43113
44433,43113
44433,43626
" /> 
<polyline style="fill-rule:evenodd;"
points="42150,43626
41322,43626
41322,43113
42150,43113
42150,43626
" /> 
<polyline style="fill-rule:evenodd;"
points="37433,43626
36605,43626
36605,43113
37433,43113
37433,43626
" /> 
<polyline style="fill-rule:evenodd;"
points="44417,42626
43590,42626
43590,42113
44417,42113
44417,42626
" /> 
<polyline style="fill-rule:evenodd;"
points="42134,42626
41306,42626
41306,42113
42134,42113
42134,42626
" /> 
<polyline style="fill-rule:evenodd;"
points="37417,42626
36590,42626
36590,42113
37417,42113
37417,42626
" /> 
<polyline style="fill-rule:evenodd;"
points="35134,42626
34306,42626
34306,42113
35134,42113
35134,42626
" /> 
<polyline style="fill-rule:evenodd;"
points="29620,41424
29679,41448
29731,41483
29776,41528
29811,41580
29835,41638
29847,41700
29847,41763
29835,41825
29811,41883
29776,41936
29731,41980
29679,42015
29620,42040
29559,42052
29496,42052
29434,42040
29375,42015
29323,41980
29278,41936
29243,41883
29219,41825
29207,41763
29207,41700
29219,41638
29243,41580
29278,41528
29323,41483
29375,41448
29434,41424
29496,41412
29559,41412
29620,41424
" /> 
<polyline style="fill-rule:evenodd;"
points="31195,41424
31253,41448
31306,41483
31350,41528
31386,41580
31410,41638
31422,41700
31422,41763
31410,41825
31386,41883
31350,41936
31306,41980
31253,42015
31195,42040
31133,42052
31070,42052
31008,42040
30950,42015
30898,41980
30853,41936
30818,41883
30794,41825
30782,41763
30782,41700
30794,41638
30818,41580
30853,41528
30898,41483
30950,41448
31008,41424
31070,41412
31133,41412
31195,41424
" /> 
<polyline style="fill-rule:evenodd;"
points="29060,42052
28420,42052
28420,41412
29060,41412
29060,42052
" /> 
<polyline style="fill-rule:evenodd;"
points="49305,41424
49364,41448
49416,41483
49461,41528
49496,41580
49520,41638
49532,41700
49532,41763
49520,41825
49496,41883
49461,41936
49416,41980
49364,42015
49305,42040
49244,42052
49181,42052
49119,42040
49060,42015
49008,41980
48963,41936
48928,41883
48904,41825
48892,41763
48892,41700
48904,41638
48928,41580
48963,41528
49008,41483
49060,41448
49119,41424
49181,41412
49244,41412
49305,41424
" /> 
<polyline style="fill-rule:evenodd;"
points="48518,41424
48576,41448
48629,41483
48673,41528
48708,41580
48732,41638
48745,41700
48745,41763
48732,41825
48708,41883
48673,41936
48629,41980
48576,42015
48518,42040
48456,42052
48393,42052
48331,42040
48273,42015
48221,41980
48176,41936
48141,41883
48117,41825
48105,41763
48105,41700
48117,41638
48141,41580
48176,41528
48221,41483
48273,41448
48331,41424
48393,41412
48456,41412
48518,41424
" /> 
<polyline style="fill-rule:evenodd;"
points="30408,41424
30466,41448
30518,41483
30563,41528
30598,41580
30622,41638
30635,41700
30635,41763
30622,41825
30598,41883
30563,41936
30518,41980
30466,42015
30408,42040
30346,42052
30283,42052
30221,42040
30163,42015
30110,41980
30066,41936
30031,41883
30007,41825
29994,41763
29994,41700
30007,41638
30031,41580
30066,41528
30110,41483
30163,41448
30221,41424
30283,41412
30346,41412
30408,41424
" /> 
<polyline style="fill-rule:evenodd;"
points="47957,42052
47317,42052
47317,41412
47957,41412
47957,42052
" /> 
<polyline style="fill-rule:evenodd;"
points="50093,41424
50151,41448
50204,41483
50248,41528
50283,41580
50307,41638
50320,41700
50320,41763
50307,41825
50283,41883
50248,41936
50204,41980
50151,42015
50093,42040
50031,42052
49968,42052
49906,42040
49848,42015
49795,41980
49751,41936
49716,41883
49692,41825
49679,41763
49679,41700
49692,41638
49716,41580
49751,41528
49795,41483
49848,41448
49906,41424
49968,41412
50031,41412
50093,41424
" /> 
<polyline style="fill-rule:evenodd;"
points="44433,41626
43605,41626
43605,41113
44433,41113
44433,41626
" /> 
<polyline style="fill-rule:evenodd;"
points="42150,41626
41322,41626
41322,41113
42150,41113
42150,41626
" /> 
<polyline style="fill-rule:evenodd;"
points="37433,41626
36605,41626
36605,41113
37433,41113
37433,41626
" /> 
<polyline style="fill-rule:evenodd;"
points="35150,41626
34322,41626
34322,41113
35150,41113
35150,41626
" /> 
<polyline style="fill-rule:evenodd;"
points="35134,40626
34306,40626
34306,40113
35134,40113
35134,40626
" /> 
<polyline style="fill-rule:evenodd;"
points="44417,40626
43590,40626
43590,40113
44417,40113
44417,40626
" /> 
<polyline style="fill-rule:evenodd;"
points="42134,40626
41306,40626
41306,40113
42134,40113
42134,40626
" /> 
<polyline style="fill-rule:evenodd;"
points="37417,40626
36590,40626
36590,40113
37417,40113
37417,40626
" /> 
<polyline style="fill-rule:evenodd;"
points="37433,39626
36605,39626
36605,39113
37433,39113
37433,39626
" /> 
<polyline style="fill-rule:evenodd;"
points="44433,39626
43605,39626
43605,39113
44433,39113
44433,39626
" /> 
<polyline style="fill-rule:evenodd;"
points="42150,39626
41322,39626
41322,39113
42150,39113
42150,39626
" /> 
<polyline style="fill-rule:evenodd;"
points="35150,39626
34322,39626
34322,39113
35150,39113
35150,39626
" /> 
<polyline style="fill-rule:evenodd;"
points="37417,38626
36590,38626
36590,38113
37417,38113
37417,38626
" /> 
<polyline style="fill-rule:evenodd;"
points="44417,38626
43590,38626
43590,38113
44417,38113
44417,38626
" /> 
<polyline style="fill-rule:evenodd;"
points="42134,38626
41306,38626
41306,38113
42134,38113
42134,38626
" /> 
<polyline style="fill-rule:evenodd;"
points="35134,38626
34306,38626
34306,38113
35134,38113
35134,38626
" /> 
<polyline style="fill-rule:evenodd;"
points="29060,38115
28420,38115
28420,37475
29060,37475
29060,38115
" /> 
<polyline style="fill-rule:evenodd;"
points="29620,37487
29679,37511
29731,37546
29776,37591
29811,37643
29835,37701
29847,37763
29847,37826
29835,37888
29811,37946
29776,37999
29731,38043
29679,38078
29620,38103
29559,38115
29496,38115
29434,38103
29375,38078
29323,38043
29278,37999
29243,37946
29219,37888
29207,37826
29207,37763
29219,37701
29243,37643
29278,37591
29323,37546
29375,37511
29434,37487
29496,37475
29559,37475
29620,37487
" /> 
<polyline style="fill-rule:evenodd;"
points="48518,37487
48576,37511
48629,37546
48673,37591
48708,37643
48732,37701
48745,37763
48745,37826
48732,37888
48708,37946
48673,37999
48629,38043
48576,38078
48518,38103
48456,38115
48393,38115
48331,38103
48273,38078
48221,38043
48176,37999
48141,37946
48117,37888
48105,37826
48105,37763
48117,37701
48141,37643
48176,37591
48221,37546
48273,37511
48331,37487
48393,37475
48456,37475
48518,37487
" /> 
<polyline style="fill-rule:evenodd;"
points="30408,37487
30466,37511
30518,37546
30563,37591
30598,37643
30622,37701
30635,37763
30635,37826
30622,37888
30598,37946
30563,37999
30518,38043
30466,38078
30408,38103
30346,38115
30283,38115
30221,38103
30163,38078
30110,38043
30066,37999
30031,37946
30007,37888
29994,37826
29994,37763
30007,37701
30031,37643
30066,37591
30110,37546
30163,37511
30221,37487
30283,37475
30346,37475
30408,37487
" /> 
<polyline style="fill-rule:evenodd;"
points="31195,37487
31253,37511
31306,37546
31350,37591
31386,37643
31410,37701
31422,37763
31422,37826
31410,37888
31386,37946
31350,37999
31306,38043
31253,38078
31195,38103
31133,38115
31070,38115
31008,38103
30950,38078
30898,38043
30853,37999
30818,37946
30794,37888
30782,37826
30782,37763
30794,37701
30818,37643
30853,37591
30898,37546
30950,37511
31008,37487
31070,37475
31133,37475
31195,37487
" /> 
<polyline style="fill-rule:evenodd;"
points="47957,38115
47317,38115
47317,37475
47957,37475
47957,38115
" /> 
<polyline style="fill-rule:evenodd;"
points="49305,37487
49364,37511
49416,37546
49461,37591
49496,37643
49520,37701
49532,37763
49532,37826
49520,37888
49496,37946
49461,37999
49416,38043
49364,38078
49305,38103
49244,38115
49181,38115
49119,38103
49060,38078
49008,38043
48963,37999
48928,37946
48904,37888
48892,37826
48892,37763
48904,37701
48928,37643
48963,37591
49008,37546
49060,37511
49119,37487
49181,37475
49244,37475
49305,37487
" /> 
<polyline style="fill-rule:evenodd;"
points="50093,37487
50151,37511
50204,37546
50248,37591
50283,37643
50307,37701
50320,37763
50320,37826
50307,37888
50283,37946
50248,37999
50204,38043
50151,38078
50093,38103
50031,38115
49968,38115
49906,38103
49848,38078
49795,38043
49751,37999
49716,37946
49692,37888
49679,37826
49679,37763
49692,37701
49716,37643
49751,37591
49795,37546
49848,37511
49906,37487
49968,37475
50031,37475
50093,37487
" /> 
<polyline style="fill-rule:evenodd;"
points="44433,37626
43605,37626
43605,37113
44433,37113
44433,37626
" /> 
<polyline style="fill-rule:evenodd;"
points="35150,37626
34322,37626
34322,37113
35150,37113
35150,37626
" /> 
<polyline style="fill-rule:evenodd;"
points="42150,37626
41322,37626
41322,37113
42150,37113
42150,37626
" /> 
<polyline style="fill-rule:evenodd;"
points="37433,37626
36605,37626
36605,37113
37433,37113
37433,37626
" /> 
<polyline style="fill-rule:evenodd;"
points="42134,36626
41306,36626
41306,36113
42134,36113
42134,36626
" /> 
<polyline style="fill-rule:evenodd;"
points="44417,36626
43590,36626
43590,36113
44417,36113
44417,36626
" /> 
<polyline style="fill-rule:evenodd;"
points="35134,36626
34306,36626
34306,36113
35134,36113
35134,36626
" /> 
<polyline style="fill-rule:evenodd;"
points="37417,36626
36590,36626
36590,36113
37417,36113
37417,36626
" /> 
<polyline style="fill-rule:evenodd;"
points="37433,35626
36605,35626
36605,35113
37433,35113
37433,35626
" /> 
<polyline style="fill-rule:evenodd;"
points="42150,35626
41322,35626
41322,35113
42150,35113
42150,35626
" /> 
<polyline style="fill-rule:evenodd;"
points="35150,35626
34322,35626
34322,35113
35150,35113
35150,35626
" /> 
<polyline style="fill-rule:evenodd;"
points="44433,35626
43605,35626
43605,35113
44433,35113
44433,35626
" /> 
<polyline style="fill-rule:evenodd;"
points="35134,34626
34306,34626
34306,34113
35134,34113
35134,34626
" /> 
<polyline style="fill-rule:evenodd;"
points="37417,34626
36590,34626
36590,34113
37417,34113
37417,34626
" /> 
<polyline style="fill-rule:evenodd;"
points="42134,34626
41306,34626
41306,34113
42134,34113
42134,34626
" /> 
<polyline style="fill-rule:evenodd;"
points="44417,34626
43590,34626
43590,34113
44417,34113
44417,34626
" /> 
<polyline style="fill-rule:evenodd;"
points="50093,33550
50151,33574
50204,33609
50248,33654
50283,33706
50307,33764
50320,33826
50320,33889
50307,33951
50289,33996
50283,34009
50248,34062
50204,34106
50178,34124
50151,34141
50093,34166
50031,34178
49968,34178
49906,34166
49848,34141
49821,34124
49795,34106
49751,34062
49716,34009
49710,33996
49692,33951
49679,33889
49679,33826
49692,33764
49716,33706
49751,33654
49795,33609
49848,33574
49906,33550
49968,33538
50031,33538
50093,33550
" /> 
<polyline style="fill-rule:evenodd;"
points="48518,33550
48576,33574
48629,33609
48673,33654
48708,33706
48732,33764
48745,33826
48745,33889
48732,33951
48714,33996
48708,34009
48673,34062
48629,34106
48603,34124
48576,34141
48518,34166
48456,34178
48393,34178
48331,34166
48273,34141
48247,34124
48221,34106
48176,34062
48141,34009
48136,33996
48117,33951
48105,33889
48105,33826
48117,33764
48141,33706
48176,33654
48221,33609
48273,33574
48331,33550
48393,33538
48456,33538
48518,33550
" /> 
<polyline style="fill-rule:evenodd;"
points="47957,34178
47317,34178
47317,33538
47957,33538
47957,34178
" /> 
<polyline style="fill-rule:evenodd;"
points="49305,33550
49364,33574
49416,33609
49461,33654
49496,33706
49520,33764
49532,33826
49532,33889
49520,33951
49501,33996
49496,34009
49461,34062
49416,34106
49390,34124
49364,34141
49305,34166
49244,34178
49181,34178
49119,34166
49060,34141
49034,34124
49008,34106
48963,34062
48928,34009
48923,33996
48904,33951
48892,33889
48892,33826
48904,33764
48928,33706
48963,33654
49008,33609
49060,33574
49119,33550
49181,33538
49244,33538
49305,33550
" /> 
<polyline style="fill-rule:evenodd;"
points="31195,33550
31253,33574
31306,33609
31350,33654
31386,33706
31410,33764
31422,33826
31422,33889
31410,33951
31391,33996
31386,34009
31350,34062
31306,34106
31280,34124
31253,34141
31195,34166
31133,34178
31070,34178
31008,34166
30950,34141
30924,34124
30898,34106
30853,34062
30818,34009
30813,33996
30794,33951
30782,33889
30782,33826
30794,33764
30818,33706
30853,33654
30898,33609
30950,33574
31008,33550
31070,33538
31133,33538
31195,33550
" /> 
<polyline style="fill-rule:evenodd;"
points="29060,34178
28420,34178
28420,33538
29060,33538
29060,34178
" /> 
<polyline style="fill-rule:evenodd;"
points="29620,33550
29679,33574
29731,33609
29776,33654
29811,33706
29835,33764
29847,33826
29847,33889
29835,33951
29816,33996
29811,34009
29776,34062
29731,34106
29705,34124
29679,34141
29620,34166
29559,34178
29496,34178
29434,34166
29375,34141
29349,34124
29323,34106
29278,34062
29243,34009
29238,33996
29219,33951
29207,33889
29207,33826
29219,33764
29243,33706
29278,33654
29323,33609
29375,33574
29434,33550
29496,33538
29559,33538
29620,33550
" /> 
<polyline style="fill-rule:evenodd;"
points="30408,33550
30466,33574
30518,33609
30563,33654
30598,33706
30622,33764
30635,33826
30635,33889
30622,33951
30604,33996
30598,34009
30563,34062
30518,34106
30492,34124
30466,34141
30408,34166
30346,34178
30283,34178
30221,34166
30163,34141
30136,34124
30110,34106
30066,34062
30031,34009
30025,33996
30007,33951
29994,33889
29994,33826
30007,33764
30031,33706
30066,33654
30110,33609
30163,33574
30221,33550
30283,33538
30346,33538
30408,33550
" /> 
<polyline style="fill-rule:evenodd;"
points="42150,33626
41322,33626
41322,33113
42150,33113
42150,33626
" /> 
<polyline style="fill-rule:evenodd;"
points="35150,33626
34322,33626
34322,33113
35150,33113
35150,33626
" /> 
<polyline style="fill-rule:evenodd;"
points="44433,33626
43605,33626
43605,33113
44433,33113
44433,33626
" /> 
<polyline style="fill-rule:evenodd;"
points="37433,33626
36605,33626
36605,33113
37433,33113
37433,33626
" /> 
<polyline style="fill-rule:evenodd;"
points="37417,32626
36590,32626
36590,32113
37417,32113
37417,32626
" /> 
<polyline style="fill-rule:evenodd;"
points="44417,32626
43590,32626
43590,32113
44417,32113
44417,32626
" /> 
<polyline style="fill-rule:evenodd;"
points="42134,32626
41306,32626
41306,32113
42134,32113
42134,32626
" /> 
<polyline style="fill-rule:evenodd;"
points="35134,32626
34306,32626
34306,32113
35134,32113
35134,32626
" /> 
<polyline style="fill-rule:evenodd;"
points="28887,30469
28929,30477
29048,30526
29153,30596
29154,30597
29245,30688
29245,30688
29316,30794
29365,30912
29373,30954
29390,31038
29390,31166
29375,31242
29365,31290
29365,31291
29316,31410
29245,31516
29154,31607
29154,31607
29048,31678
28929,31727
28887,31735
28804,31752
28676,31752
28592,31735
28550,31727
28432,31678
28325,31607
28325,31607
28235,31516
28164,31410
28115,31291
28114,31290
28105,31242
28090,31166
28090,31038
28106,30954
28115,30912
28164,30794
28235,30688
28235,30688
28325,30597
28327,30596
28432,30526
28550,30477
28592,30469
28676,30452
28804,30452
28887,30469
" /> 
<polyline style="fill-rule:evenodd;"
points="50147,30469
50189,30477
50307,30526
50412,30596
50414,30597
50504,30688
50504,30688
50576,30794
50625,30912
50633,30954
50650,31038
50650,31166
50634,31242
50625,31290
50625,31291
50576,31410
50504,31516
50414,31607
50414,31607
50307,31678
50189,31727
50147,31735
50064,31752
49935,31752
49852,31735
49810,31727
49692,31678
49585,31607
49585,31607
49495,31516
49423,31410
49374,31291
49374,31290
49365,31242
49350,31166
49350,31038
49366,30954
49374,30912
49423,30794
49495,30688
49495,30688
49585,30597
49587,30596
49692,30526
49810,30477
49852,30469
49935,30452
50064,30452
50147,30469
" /> 
<polyline style="fill-rule:evenodd;"
points="31553,30812
31582,30818
31604,30827
31635,30840
31684,30873
31725,30914
31757,30962
31770,30993
31779,31016
31791,31073
31791,31131
31784,31166
31779,31188
31757,31242
31725,31290
31684,31331
31635,31364
31604,31377
31582,31386
31553,31391
31525,31397
31466,31397
31438,31391
31409,31386
31387,31377
31356,31364
31307,31331
31266,31290
31234,31242
31212,31188
31207,31166
31200,31131
31200,31073
31212,31016
31221,30993
31234,30962
31266,30914
31307,30873
31356,30840
31387,30827
31409,30818
31438,30812
31466,30807
31525,30807
31553,30812
" /> 
</g>
<g style="fill:#000000; fill-opacity:1.0; 
stroke:#000000; stroke-width:0; stroke-opacity:1; 
stroke-linecap:round; stroke-linejoin:round;">
</g>
<g style="fill:#C2C200; fill-opacity:1.0; 
stroke:#C2C200; stroke-width:0; stroke-opacity:1; 
stroke-linecap:round; stroke-linejoin:round;">
</g>
<g style="fill:#C2C200; fill-opacity:1.0; 
stroke:#C2C200; stroke-width:78.7402; stroke-opacity:1; 
stroke-linecap:round; stroke-linejoin:round;">
</g>
<g style="fill:#C2C200; fill-opacity:0.0; 
stroke:#C2C200; stroke-width:78.7402; stroke-opacity:1; 
stroke-linecap:round; stroke-linejoin:round;">
<path d="M48031 57874
L50000 57874
" />
<path d="M31496 57086
L47244 57086
" />
<path d="M48031.5 57874 A787.402 787.402 0.0 0 0 47244.1 57086.6 " />
<path d="M31496.1 57086.6 A787.402 787.402 0.0 0 0 30708.7 57874 " />
<path d="M27559.1 56692.9 A1181.1 1181.1 0.0 0 0 28740.2 57874 " />
<path d="M50000 57874 A1181.1 1181.1 0.0 0 0 51181.1 56692.9 " />
<path d="M51181.1 31102.4 A1181.1 1181.1 0.0 0 0 50000 29921.3 " />
<path d="M28740.2 29921.3 A1181.1 1181.1 0.0 0 0 27559.1 31102.4 " />
<path d="M27559 56692
L27559 31102
" />
<path d="M30708 57874
L28740 57874
" />
<path d="M51181 31102
L51181 56692
" />
<path d="M28740 29921
L50000 29921
" />
</g> 
</svg>
